<svg xmlns="http://www.w3.org/2000/svg" width="500" height="333" viewBox="0 0 500 333" version="1.1">
	<path d="M 0 9.966 L 0 20 11.838 20 C 18.348 20, 36.011 20.199, 51.088 20.443 C 80.720 20.921, 75.846 20.222, 34 17.991 C 19.409 17.213, 11.242 16.389, 10.765 15.646 C 9.372 13.472, 9.919 4.312, 11.522 2.982 C 12.681 2.020, 16.901 1.870, 29.272 2.352 C 38.197 2.701, 54.950 3.239, 66.500 3.549 C 78.050 3.860, 88.513 4.321, 89.750 4.576 C 91.802 4.997, 92 5.604, 92 11.462 C 92 16.778, 91.651 18.131, 89.976 19.304 C 88.079 20.633, 88.245 20.762, 92.616 21.361 C 100.824 22.486, 113.022 22.128, 113.457 20.750 C 113.674 20.063, 114.048 15.084, 114.289 9.686 L 114.728 -0.128 97.614 0.367 C 88.201 0.639, 79.825 0.844, 79 0.824 C 78.175 0.803, 60.063 0.594, 38.750 0.359 L 0 -0.068 0 9.966 M 127.566 25.750 C 126.875 50.795, 126.792 51.564, 124.558 53.847 L 122.260 56.194 76.880 55.099 C 51.921 54.497, 24.413 53.722, 15.750 53.377 L 0 52.749 0 68.898 L 0 85.047 7.750 84.525 C 21.863 83.574, 66.417 81.833, 74.022 81.935 C 78.135 81.990, 87.350 81.622, 94.500 81.117 C 101.650 80.612, 113.060 80.154, 119.856 80.100 C 132.018 80.002, 132.272 79.953, 136.010 76.992 L 139.809 73.983 140.382 63.742 C 140.698 58.109, 141.197 48.100, 141.491 41.500 C 142.225 25.021, 142.950 12.580, 143.574 5.750 L 144.099 0 136.188 0 L 128.277 0 127.566 25.750 M 266.058 7.250 C 266.172 11.238, 265.914 19.945, 265.487 26.600 L 264.709 38.700 258.765 36.850 C 252.103 34.776, 241.382 34.355, 240.786 36.143 C 240.503 36.990, 239.817 36.972, 238.141 36.075 C 236.317 35.099, 234.577 35.190, 229.189 36.540 C 219.722 38.913, 212.144 41.844, 207.500 44.928 C 200.864 49.334, 200.314 49.613, 201.735 47.857 C 202.414 47.018, 204.552 45.479, 206.485 44.438 C 208.418 43.397, 210 42.310, 210.001 42.023 C 210.001 41.735, 207.638 41.594, 204.751 41.708 C 200.736 41.867, 200.088 41.714, 202 41.058 C 203.375 40.586, 206.836 40.155, 209.691 40.100 C 212.546 40.045, 215.104 39.640, 215.376 39.200 C 215.973 38.235, 207.974 38.403, 202.726 39.467 C 193.201 41.397, 176.963 55.813, 171.918 66.819 C 169.360 72.399, 166.422 84.756, 167.417 85.750 C 167.619 85.952, 166.873 88.454, 165.759 91.309 C 164.645 94.164, 163.521 98.188, 163.262 100.250 C 163.002 102.313, 162.440 104, 162.012 104 C 161.584 104, 160.998 104.900, 160.710 106 C 160.423 107.100, 159.444 108, 158.535 108 C 157.626 108, 157.160 107.550, 157.500 107 C 158.558 105.288, 155.321 105.906, 153.872 107.692 C 152.940 108.842, 152.901 109.143, 153.750 108.633 C 154.438 108.220, 155 108.250, 155 108.700 C 155 109.151, 154.111 110.074, 153.024 110.753 C 150.131 112.560, 145.014 122.022, 145.049 125.500 L 145.080 128.500 146.584 125.726 C 147.412 124.201, 147.864 122.588, 147.588 122.143 C 147.313 121.698, 147.631 121.317, 148.294 121.297 C 148.957 121.277, 152.643 119.402, 156.484 117.130 C 164.635 112.310, 165.900 112.074, 165.246 115.494 C 164.686 118.421, 159.134 124.201, 157.720 123.327 C 157.090 122.938, 157.089 123.336, 157.717 124.458 C 158.782 126.362, 158.271 130.715, 156.881 131.574 C 154.767 132.880, 156.114 135, 159.058 135 C 162.943 135, 169.485 128.291, 174.659 119 C 180.499 108.512, 182.287 106.115, 186.229 103.487 C 190.664 100.529, 193.104 100.353, 195.345 102.829 C 197.430 105.133, 197.418 105.865, 195.250 108.341 C 193.583 110.244, 193.583 110.309, 195.250 109.701 C 196.213 109.350, 197 109.344, 197 109.688 C 197 110.032, 194.769 114.722, 192.041 120.110 C 186.489 131.080, 183.735 139.438, 184.082 144.265 C 184.443 149.295, 182.969 165.115, 181.782 168.949 C 180.833 172.013, 180.953 172.557, 182.857 173.821 C 185.797 175.773, 185.564 177.214, 182.531 175.832 C 181.174 175.214, 180.281 174.354, 180.548 173.923 C 181.238 172.805, 179.802 172.114, 175.367 171.429 C 172.230 170.945, 171.736 171.074, 172.750 172.116 C 174.450 173.862, 174.321 174.539, 172.250 174.749 C 171.287 174.847, 169.389 175.056, 168.031 175.214 C 166.283 175.416, 165.452 174.954, 165.185 173.632 C 164.978 172.604, 165.188 171.985, 165.654 172.256 C 166.119 172.528, 167.400 172.388, 168.500 171.945 C 172.480 170.344, 166.695 170.885, 161.724 172.579 C 157.285 174.091, 153.394 177.641, 148.569 184.579 L 146.638 187.356 145.666 184.928 C 145.131 183.593, 143.547 180.025, 142.145 177 C 138.594 169.337, 138.570 169.261, 140.448 171.500 C 142.623 174.093, 142.242 172.871, 138 163.659 C 135.702 158.668, 134.042 156.220, 133.166 156.530 C 132.413 156.796, 132.014 156.457, 132.249 155.751 C 132.478 155.063, 133.528 154.335, 134.583 154.134 C 137.433 153.591, 138.121 151.966, 137.475 147.303 C 137.095 144.559, 137.396 142.136, 138.345 140.303 L 139.796 137.500 131.148 138.203 C 126.392 138.590, 100.900 139.211, 74.500 139.584 C 48.100 139.956, 26.246 140.656, 25.936 141.139 C 25.625 141.622, 22.484 142.097, 18.955 142.194 C 13.752 142.337, 12.107 142.802, 10.257 144.653 C 8.245 146.664, 8.050 147.573, 8.609 152.333 C 9.031 155.924, 8.863 157.967, 8.106 158.435 C 7.480 158.822, 7.184 159.489, 7.449 159.917 C 7.714 160.346, 9.080 174.377, 10.485 191.098 C 13.181 223.167, 21.567 317.475, 22.593 327.250 L 23.196 333 137.715 333 L 252.233 333 251.536 330.750 C 251.152 329.512, 250.600 327.375, 250.308 326 C 250.016 324.625, 248.632 321.102, 247.233 318.172 L 244.689 312.844 248.038 305.922 C 250.120 301.619, 251.995 299, 252.994 299 C 253.915 299, 255.560 300.974, 256.846 303.621 C 258.881 307.809, 258.947 308.401, 257.546 309.950 C 255.310 312.420, 255.642 314.719, 258.507 316.596 C 260.169 317.686, 260.994 319.125, 260.957 320.869 C 260.926 322.316, 261.206 325.637, 261.580 328.250 L 262.260 333 305.581 333 L 348.903 333 358.596 327.898 L 368.290 322.797 374.395 323.952 C 381.279 325.255, 387 326.922, 387 327.626 C 387 327.884, 385.762 329.177, 384.250 330.499 L 381.500 332.903 441 332.701 L 500.500 332.500 500.429 330.250 C 500.389 329.012, 500.273 288.288, 500.171 239.750 L 499.984 151.500 497.293 150.250 C 492.684 148.110, 490.382 148.687, 488.099 152.557 C 486.944 154.514, 486 157.015, 486 158.116 C 486 159.217, 485.597 159.869, 485.105 159.565 C 484.612 159.260, 483.950 159.688, 483.633 160.515 C 482.766 162.772, 480.882 161.903, 478.179 158 C 476.847 156.075, 475.361 154.350, 474.878 154.167 C 474.395 153.983, 474 153.251, 474 152.539 C 474 150.715, 463.844 142.570, 456.327 138.366 C 452.847 136.420, 450 134.162, 450 133.348 C 450 128.370, 454.694 126.032, 463.588 126.583 C 466.840 126.784, 472.717 127.138, 476.649 127.369 C 481.485 127.654, 484.720 128.411, 486.649 129.710 C 488.217 130.766, 490.859 132.550, 492.519 133.675 C 494.180 134.799, 496.530 136.034, 497.743 136.418 L 499.946 137.118 500.223 86.809 C 500.375 59.139, 500.368 28.288, 500.206 18.250 L 499.913 0 462.456 0 L 425 0 424.937 2.250 L 424.873 4.500 423.969 2.250 C 423.279 0.533, 422.256 -0, 419.651 -0 C 416.408 -0, 416.179 0.238, 415.075 4.750 C 414.436 7.362, 412.400 12.650, 410.551 16.500 C 406.032 25.911, 405.463 28, 407.414 28 C 410.022 28, 410.368 32.819, 408.492 43.043 C 406.671 52.968, 406.911 63.137, 408.982 63.827 C 409.542 64.014, 410 64.774, 410 65.516 C 410 66.975, 413.444 68.462, 414.835 67.602 C 415.304 67.312, 417.288 67.517, 419.243 68.057 C 423.349 69.190, 425.442 73.203, 426.593 82.151 C 426.972 85.093, 428.612 91.100, 430.237 95.500 C 432.536 101.724, 433.166 105.029, 433.076 110.387 C 432.950 117.875, 431.287 126, 429.881 126 C 429.397 126, 429.053 126.338, 429.118 126.750 C 429.464 128.941, 428.884 131.046, 428.072 130.544 C 427.562 130.229, 426.856 130.877, 426.505 131.985 C 425.684 134.571, 424.834 134.524, 422.263 131.750 C 420.875 130.253, 419.950 127.492, 419.499 123.500 C 419.126 120.200, 418.335 116.077, 417.741 114.337 C 416.886 111.833, 417.009 110.265, 418.331 106.804 C 420.484 101.166, 420.434 99.528, 417.954 94.404 C 416.124 90.625, 415.363 90.047, 410.773 88.946 C 407.843 88.243, 404.680 86.679, 403.404 85.302 L 401.169 82.891 400.458 85.133 C 399.884 86.940, 400.449 87.939, 403.373 90.284 C 405.368 91.885, 407 93.844, 407 94.637 C 407 95.431, 407.963 97.383, 409.140 98.975 C 411.398 102.029, 411.416 104.230, 409.371 127.173 L 408.777 133.846 411.638 134.173 C 414.035 134.447, 414.500 134.959, 414.500 137.325 C 414.500 140.504, 417.191 143, 420.620 143 C 422.862 143, 426.547 145.787, 425.581 146.752 C 425.298 147.035, 419.690 147.319, 413.117 147.383 C 406.544 147.447, 400.878 147.789, 400.524 148.143 C 400.171 148.496, 400.559 151.196, 401.386 154.143 C 404.134 163.928, 403.980 165.327, 400 166.689 C 395.611 168.191, 387.572 168.321, 382.993 166.965 C 377.168 165.238, 372.405 165.576, 369.069 167.951 C 367.092 169.359, 366 169.688, 366 168.877 C 366 168.174, 365.351 168.476, 364.532 169.559 C 363.724 170.626, 363.049 170.963, 363.032 170.307 C 363.014 169.651, 362.208 169.267, 361.240 169.454 C 359.749 169.741, 359.493 169.060, 359.564 164.995 C 359.625 161.450, 359.309 160.328, 358.349 160.696 C 356.907 161.250, 353.409 158.258, 354.372 157.294 C 355.244 156.423, 352.952 153.911, 351.887 154.570 C 351.399 154.871, 350.993 154.529, 350.985 153.809 C 350.974 152.858, 350.704 152.910, 350 154 C 349.138 155.333, 349.017 155.333, 348.905 154 C 348.835 153.175, 348.860 151.489, 348.960 150.254 C 349.090 148.656, 348.721 148.170, 347.682 148.569 C 346.814 148.902, 346.427 149.915, 346.727 151.065 C 347.006 152.129, 346.745 153, 346.148 153 C 345.551 153, 345.299 153.616, 345.588 154.369 C 345.900 155.181, 345.276 155.956, 344.055 156.275 C 342.923 156.571, 342.249 156.405, 342.558 155.907 C 342.866 155.408, 342.641 154.950, 342.059 154.889 C 337.756 154.437, 336.484 154.724, 336.198 156.213 C 335.953 157.483, 336.606 157.849, 339 157.781 C 340.716 157.732, 342.803 158.375, 343.638 159.209 C 344.994 160.565, 344.934 160.784, 343.076 161.270 C 341.933 161.569, 341.218 161.457, 341.487 161.020 C 342.091 160.044, 339.126 159.262, 336.750 159.772 C 335.126 160.120, 334.628 161.896, 334.651 167.250 C 334.661 169.483, 330.746 169.603, 328.579 167.436 C 327.719 166.576, 326.622 166.116, 326.141 166.413 C 325.661 166.710, 324.457 166.057, 323.466 164.962 C 322.289 163.662, 320.942 163.173, 319.582 163.551 C 317.854 164.033, 317.755 163.935, 319 162.979 C 320.245 162.022, 320.130 161.907, 318.317 162.302 C 316.362 162.728, 316.232 162.521, 317.068 160.321 C 317.921 158.078, 317.807 157.926, 315.759 158.577 C 313.864 159.178, 313.705 159.060, 314.737 157.817 C 315.751 156.596, 315.582 156.359, 313.746 156.423 C 312.529 156.465, 311.526 156.046, 311.517 155.491 C 311.508 154.936, 309.320 152.333, 306.656 149.706 C 303.992 147.080, 302.026 144.374, 302.287 143.693 C 302.549 143.012, 301.027 141.150, 298.906 139.554 C 295.601 137.069, 295.153 136.284, 295.774 134.077 C 296.174 132.659, 296.417 128.688, 296.315 125.250 C 296.208 121.625, 296.551 119, 297.131 119 C 299.042 119, 302.549 121.367, 311.451 128.663 C 316.373 132.698, 320.648 136, 320.951 135.999 C 321.253 135.999, 321.569 134.986, 321.653 133.749 C 322.374 123.175, 326.152 80.175, 326.463 79 C 326.904 77.336, 327.461 72.080, 329.008 55 C 329.581 48.675, 330.256 41.700, 330.509 39.500 C 330.761 37.300, 331.426 30.100, 331.986 23.500 C 332.546 16.900, 333.287 8.912, 333.632 5.750 L 334.258 0 300.055 -0 L 265.852 -0 266.058 7.250 M 354 3.059 C 354 5.240, 353.641 5.903, 352.750 5.367 C 351.854 4.829, 351.877 5.081, 352.832 6.259 C 353.708 7.340, 354.050 9.946, 353.832 13.868 C 353.649 17.149, 353.806 20.140, 354.181 20.514 C 354.556 20.889, 354.618 21.832, 354.319 22.611 C 354.021 23.389, 354.200 24.582, 354.719 25.263 C 355.237 25.943, 355.564 27.986, 355.445 29.802 C 355.130 34.610, 356.194 32.841, 356.617 27.854 C 356.814 25.533, 357.333 23.379, 357.772 23.067 C 358.210 22.755, 358.554 21.600, 358.535 20.500 C 358.516 19.400, 358.848 18.242, 359.274 17.926 C 359.700 17.610, 360.150 15.024, 360.274 12.178 C 360.398 9.332, 360.837 7.003, 361.250 7.002 C 361.973 7, 362.541 16.229, 362.327 24.500 C 362.159 30.972, 362.132 46.062, 362.278 52 C 362.486 60.498, 361.584 72.982, 360.761 72.991 C 360.355 72.996, 360.057 74.013, 360.100 75.250 C 360.304 81.170, 358.922 100.082, 357.546 110.209 C 356.702 116.419, 355.832 124.200, 355.613 127.500 C 355.394 130.800, 355.132 133.500, 355.031 133.500 C 354.930 133.500, 354.696 134.287, 354.512 135.250 C 354.074 137.538, 355.262 137.473, 357.417 135.091 C 358.367 134.042, 360.446 132.644, 362.037 131.985 C 363.627 131.326, 364.859 130.497, 364.775 130.143 C 364.577 129.318, 366.034 106.302, 366.493 103 C 366.684 101.625, 367.118 96.900, 367.457 92.500 C 367.795 88.100, 368.483 80.225, 368.984 75 C 369.486 69.775, 370.229 61.675, 370.636 57 C 371.044 52.325, 371.436 48.275, 371.509 48 C 371.581 47.725, 371.987 43.900, 372.410 39.500 C 372.833 35.100, 373.814 25.878, 374.590 19.006 C 375.365 12.134, 376 5.047, 376 3.256 L 376 0 365 0 L 354 0 354 3.059 M 15.079 7.583 C 15.127 8.748, 15.364 8.985, 15.683 8.188 C 15.972 7.466, 15.936 6.603, 15.604 6.271 C 15.272 5.939, 15.036 6.529, 15.079 7.583 M 29.357 36.512 C 28.387 39.040, 30.333 40.157, 35.114 39.814 C 38.729 39.555, 39.500 39.148, 39.500 37.500 C 39.500 35.823, 38.732 35.451, 34.740 35.195 C 31.080 34.960, 29.836 35.265, 29.357 36.512 M 1 37.057 C 1 38.169, 0.540 38.105, 9.926 38.296 C 14.382 38.386, 17.492 38.024, 17.703 37.390 C 17.930 36.710, 15.026 36.295, 9.528 36.225 C 4.778 36.164, 1 36.533, 1 37.057 M 74.998 37.600 C 75 38.792, 87.328 39.007, 88.498 37.835 C 88.864 37.470, 85.975 37.020, 82.079 36.835 C 77.390 36.613, 74.996 36.872, 74.998 37.600 M 233.500 38 C 232.239 38.542, 232.055 38.859, 233 38.859 C 233.825 38.859, 235.400 38.473, 236.500 38 C 237.761 37.458, 237.945 37.141, 237 37.141 C 236.175 37.141, 234.600 37.527, 233.500 38 M 467.763 41.750 C 467.208 44.285, 468.544 48.547, 471.450 53.505 C 473.287 56.640, 475.010 58.178, 477.662 59.054 C 480.924 60.130, 481.488 60.055, 482.729 58.383 C 486.606 53.153, 477.739 40.016, 470.323 40.004 C 469.061 40.002, 467.986 40.735, 467.763 41.750 M 196.872 51.750 C 195.629 53.336, 195.664 53.371, 197.250 52.128 C 198.916 50.821, 199.445 50, 198.622 50 C 198.415 50, 197.627 50.788, 196.872 51.750 M 175.182 62.500 C 174.555 63.875, 174.206 65, 174.406 65 C 174.606 65, 175.507 63.875, 176.408 62.500 C 177.309 61.125, 177.658 60, 177.184 60 C 176.709 60, 175.808 61.125, 175.182 62.500 M 272.813 72.683 C 273.534 72.972, 274.397 72.936, 274.729 72.604 C 275.061 72.272, 274.471 72.036, 273.417 72.079 C 272.252 72.127, 272.015 72.364, 272.813 72.683 M 231.070 79.691 C 231.109 80.136, 231.527 81.400, 232 82.500 C 232.829 84.428, 232.862 84.421, 232.930 82.309 C 232.968 81.104, 232.550 79.840, 232 79.500 C 231.450 79.160, 231.032 79.246, 231.070 79.691 M 244.500 89 C 244.840 89.550, 245.568 90, 246.118 90 C 246.668 90, 246.840 89.550, 246.500 89 C 246.160 88.450, 245.432 88, 244.882 88 C 244.332 88, 244.160 88.450, 244.500 89 M 226 102.559 C 226 103.416, 226.457 103.835, 227.016 103.490 C 227.575 103.144, 227.774 102.443, 227.457 101.931 C 226.600 100.544, 226 100.802, 226 102.559 M 174.079 106.583 C 174.127 107.748, 174.364 107.985, 174.683 107.188 C 174.972 106.466, 174.936 105.603, 174.604 105.271 C 174.272 104.939, 174.036 105.529, 174.079 106.583 M 161.564 110.707 C 161.022 112.132, 161.136 112.247, 162.124 111.267 C 162.808 110.588, 163.115 109.781, 162.807 109.474 C 162.499 109.166, 161.940 109.721, 161.564 110.707 M 243 137.059 C 243 137.641, 243.450 137.840, 244 137.500 C 244.550 137.160, 245 136.684, 245 136.441 C 245 136.198, 244.550 136, 244 136 C 243.450 136, 243 136.477, 243 137.059 M 343.147 143.677 C 344.405 145.193, 346.623 145.418, 347.431 144.112 C 347.733 143.624, 346.645 143.028, 345.014 142.789 C 342.641 142.440, 342.268 142.618, 343.147 143.677 M 20.448 146.470 C 19.183 149.498, 18.574 149.923, 15.656 149.813 C 11.231 149.647, 10 150.546, 10 153.942 C 10 157.217, 12.724 158.435, 16.683 156.931 C 21.192 155.216, 24 151.047, 24 146.066 C 24 141.978, 22.241 142.178, 20.448 146.470 M 342 147 C 342 147.550, 343.012 147.993, 344.250 147.985 C 346.069 147.972, 346.213 147.784, 345 147 C 343.061 145.747, 342 145.747, 342 147 M 341 152 C 342.939 153.253, 344 153.253, 344 152 C 344 151.450, 342.988 151.007, 341.750 151.015 C 339.931 151.028, 339.787 151.216, 341 152 M 267.490 159.016 C 267.144 159.575, 266.494 159.805, 266.044 159.527 C 264.928 158.837, 262.716 161.647, 263.210 163.129 C 263.598 164.295, 266.232 165.201, 268.750 165.035 C 272.905 164.761, 273.514 164.411, 273.650 162.221 C 273.731 160.928, 273.564 160.103, 273.279 160.387 C 272.995 160.672, 272.108 160.251, 271.310 159.452 C 269.604 157.747, 268.362 157.605, 267.490 159.016 M 133 161 C 131.793 161.780, 131.951 161.972, 133.809 161.985 C 135.097 161.993, 135.845 161.558, 135.500 161 C 134.757 159.798, 134.861 159.798, 133 161 M 357.667 163.667 C 357.300 164.033, 357 164.798, 357 165.367 C 357 165.993, 357.466 165.934, 358.183 165.217 C 358.834 164.566, 359.134 163.801, 358.850 163.517 C 358.566 163.232, 358.033 163.300, 357.667 163.667 M 265 166 C 265 166.550, 265.477 167, 266.059 167 C 266.641 167, 266.840 166.550, 266.500 166 C 266.160 165.450, 265.684 165, 265.441 165 C 265.198 165, 265 165.450, 265 166 M 130.500 167.523 C 136.770 169.264, 137.083 169.262, 134 167.500 C 132.625 166.714, 130.150 166.085, 128.500 166.103 C 126.082 166.129, 126.469 166.404, 130.500 167.523 M 283.080 173.048 C 281.386 175.387, 280 177.730, 280 178.256 C 280 178.781, 278.831 180.600, 277.403 182.298 C 275.222 184.890, 274.906 186.013, 275.434 189.311 C 275.944 192.502, 275.788 193.133, 274.604 192.678 C 273.802 192.371, 272.608 192.767, 271.951 193.559 C 271.293 194.352, 270.388 195, 269.939 195 C 269.491 195, 267.645 196.350, 265.839 198 C 262.082 201.432, 259.685 201.681, 253.060 199.328 C 248.639 197.758, 248.027 197.761, 243.067 199.383 C 238.161 200.988, 237.287 200.998, 230.812 199.525 C 223.227 197.800, 218.946 198.125, 212 200.954 C 209.525 201.962, 205.475 203.614, 203 204.624 C 198.345 206.524, 192.181 211.924, 189.987 216.024 C 189.296 217.316, 188.561 219.977, 188.355 221.937 C 188.149 223.896, 187.471 227.830, 186.848 230.678 C 186.221 233.543, 186.036 237.564, 186.433 239.678 C 186.828 241.780, 187.255 246.209, 187.382 249.519 C 187.530 253.375, 188.378 256.970, 189.742 259.519 C 190.913 261.709, 192.625 265.186, 193.547 267.246 C 195.428 271.447, 208.477 281.974, 212.311 282.383 C 213.562 282.516, 215.214 283.014, 215.983 283.490 C 216.860 284.032, 217.528 283.915, 217.774 283.177 C 218.339 281.484, 220 281.725, 220 283.500 C 220 284.325, 220.477 285, 221.059 285 C 221.641 285, 221.810 284.502, 221.434 283.893 C 220.992 283.178, 221.414 282.974, 222.625 283.318 C 232.562 286.140, 236.911 286.042, 243.322 282.853 C 246.525 281.260, 248.888 280.372, 248.575 280.878 C 248.077 281.685, 250.583 281.766, 257.309 281.162 C 258.401 281.064, 258.835 280.543, 258.405 279.845 C 257.933 279.082, 258.134 278.965, 258.997 279.498 C 259.820 280.007, 260.803 279.623, 261.652 278.462 C 262.393 277.447, 263 276.961, 263 277.380 C 263 279.081, 266.386 274.439, 269.975 267.818 C 271.073 265.793, 272.502 263.808, 273.150 263.407 C 275.240 262.116, 280 262.160, 280 263.470 C 280 264.944, 284.041 269.477, 286.069 270.277 C 287.066 270.671, 286.893 270.887, 285.500 270.991 C 283.759 271.121, 283.721 271.228, 285.209 271.820 C 287.610 272.775, 297.118 271.999, 296.440 270.904 C 296.133 270.407, 297.431 270, 299.324 270 C 304.268 270, 304.526 268.148, 302.181 249.500 C 300.998 240.097, 301.260 232.218, 302.847 229.466 C 303.470 228.385, 305.008 223.395, 306.265 218.378 C 308.164 210.796, 308.435 207.842, 307.869 200.878 C 307.072 191.083, 308.249 188.440, 314.463 186.075 C 317.581 184.888, 319.076 184.860, 323.356 185.905 C 331.999 188.016, 337.351 188.271, 341.053 186.750 L 344.500 185.333 341.354 183.694 C 339.623 182.793, 337.372 180.909, 336.351 179.507 C 334.277 176.660, 332.466 176.408, 321.500 177.440 C 314.989 178.053, 313.697 177.812, 303 173.997 C 286.186 168, 286.718 168.026, 283.080 173.048 M 319.500 172 C 319.840 172.550, 320.568 173, 321.118 173 C 321.668 173, 321.840 172.550, 321.500 172 C 321.160 171.450, 320.432 171, 319.882 171 C 319.332 171, 319.160 171.450, 319.500 172 M 259.500 174 C 259.151 175.100, 258.446 176, 257.933 176 C 256.830 176, 256.655 178.962, 257.750 179.083 C 258.163 179.129, 259.512 179.279, 260.750 179.416 C 261.988 179.553, 263 179.291, 263 178.833 C 263 178.375, 263.925 178, 265.057 178 C 267.069 178, 267.075 177.935, 265.341 175 C 263.309 171.561, 260.431 171.068, 259.500 174 M 278 173.941 C 278 174.459, 278.445 175.157, 278.989 175.493 C 279.555 175.843, 279.723 175.442, 279.382 174.552 C 278.717 172.820, 278 172.503, 278 173.941 M 309.698 311.680 C 309.387 312.183, 309.545 313.249, 310.051 314.048 C 310.556 314.846, 310.976 316.936, 310.985 318.691 C 310.993 320.446, 311.457 322.165, 312.016 322.510 C 313.062 323.157, 329.930 318.584, 333.500 316.687 C 335.177 315.795, 334.127 315.338, 327 313.858 C 313.913 311.139, 310.312 310.685, 309.698 311.680 M 1 332 C 1 332.550, 1.702 333, 2.559 333 C 3.416 333, 3.840 332.550, 3.500 332 C 3.160 331.450, 2.459 331, 1.941 331 C 1.423 331, 1 331.450, 1 332" stroke="none" fill="black" fill-rule="evenodd"/>
</svg>