<svg xmlns="http://www.w3.org/2000/svg" width="446" height="251" viewBox="0 0 446 251" version="1.1">
	<path d="M 113.462 11.959 C 112.888 21.575, 112.397 24.236, 110.957 25.539 C 109.323 27.018, 105.057 27.065, 62.333 26.081 C 36.575 25.487, 12.013 24.790, 7.750 24.532 L 0 24.063 -0.001 38.281 L -0.003 52.500 14.249 51.788 C 22.087 51.397, 38.387 50.833, 50.470 50.536 C 62.554 50.238, 73.129 49.802, 73.970 49.566 C 74.812 49.330, 84.950 48.846, 96.500 48.491 C 116.262 47.883, 117.713 47.707, 121.111 45.500 L 124.722 43.156 125.385 29.328 C 125.749 21.723, 126.320 12.013, 126.653 7.750 L 127.258 0 120.717 0 L 114.175 0 113.462 11.959 M 236.161 5.870 L 236.500 11.740 232.500 10.317 C 227.152 8.415, 216.466 7.436, 215.640 8.773 C 215.282 9.353, 213.309 9.583, 211.162 9.295 C 208.561 8.946, 204.452 9.677, 198.412 11.564 C 189.984 14.197, 182.745 15.078, 181.313 13.646 C 180.608 12.941, 184.827 12.564, 189.357 12.928 C 191.365 13.089, 191.994 12.799, 191.472 11.955 C 190.315 10.083, 181.436 11.552, 175.062 14.671 C 172.004 16.167, 166.413 20.402, 162.636 24.082 C 155.010 31.514, 150.858 39.745, 149.560 50 C 149.177 53.025, 148.224 57.525, 147.443 60 C 146.662 62.475, 145.905 66.148, 145.761 68.162 C 145.556 71.047, 145.222 71.595, 144.194 70.743 C 143.223 69.939, 142.966 70.009, 143.194 71.014 C 143.362 71.758, 142.150 73.017, 140.500 73.813 C 134.357 76.774, 130.878 81.281, 129.548 88 L 128.855 91.500 130.897 88.276 C 132.021 86.502, 135.428 83.647, 138.470 81.930 C 141.511 80.214, 143.831 78.515, 143.625 78.155 C 143.419 77.795, 143.653 76.600, 144.146 75.500 C 144.970 73.659, 145.007 73.678, 144.614 75.750 C 144.292 77.446, 144.657 78, 146.094 78 C 147.142 78, 148 78.243, 148 78.540 C 148 80.221, 143.832 86.850, 142.439 87.385 C 141.533 87.733, 141.029 88.632, 141.317 89.384 C 141.606 90.136, 141.202 91.984, 140.421 93.490 C 138.566 97.064, 138.540 97, 141.863 97 C 145.731 97, 152.447 89.749, 157.519 80.096 C 162.993 69.679, 170.598 64.401, 174.083 68.600 C 176.520 71.537, 175.009 78.648, 170.349 86.171 C 166.464 92.442, 164.175 100.887, 164.156 109.019 C 164.147 113.155, 163.596 119.659, 162.932 123.472 C 161.774 130.121, 161.812 130.463, 163.862 131.824 C 167.223 134.056, 166.384 134.722, 161.609 133.615 C 158.970 133.002, 157.397 132.130, 157.665 131.429 C 158.200 130.037, 154.249 128.788, 153.442 130.094 C 153.134 130.592, 153.359 131, 153.941 131 C 156.566 131, 154.638 132.977, 151.425 133.580 C 146.950 134.420, 144.435 132.551, 148.080 131.094 C 150.249 130.227, 150.288 130.120, 148.450 130.063 C 147.323 130.029, 145.860 130.540, 145.200 131.200 C 144.540 131.860, 144 132.073, 144 131.674 C 144 129.593, 137.570 134.718, 134.544 139.211 L 131.059 144.386 129.493 140.443 C 128.631 138.274, 127.401 135.375, 126.759 134 C 126.117 132.625, 125.553 130.825, 125.506 130 C 125.458 129.175, 124.607 126.897, 123.614 124.937 C 122.049 121.850, 121.387 121.413, 118.654 121.663 C 116.110 121.895, 115.947 121.811, 117.809 121.226 C 119.079 120.827, 120.091 120.162, 120.059 119.750 C 120.027 119.338, 120 118.325, 120 117.500 C 120 116.675, 119.298 116, 118.441 116 C 117.584 116, 117.179 115.519, 117.542 114.932 C 117.905 114.344, 118.799 114.093, 119.528 114.372 C 121.682 115.199, 122.945 112.683, 122.757 107.938 C 122.660 105.497, 122.973 102.649, 123.452 101.608 C 124.279 99.811, 123.925 99.749, 116.411 100.358 C 112.060 100.711, 89.262 101.290, 65.750 101.646 C 42.237 102.001, 23 102.676, 23 103.146 C 23 103.616, 20.130 104, 16.622 104 C 12.238 104, 9.864 104.458, 9.028 105.467 C 6.382 108.655, 7.482 127.215, 16.130 225.250 L 18.402 251 119.587 251 L 220.772 251 222.433 247.500 C 224.642 242.845, 227.453 242.845, 229.136 247.500 L 230.402 251 338.201 251 L 446 251 446 182.500 C 446 130.823, 445.712 114, 444.829 114 C 444.185 114, 442.937 113.348, 442.056 112.551 C 439.999 110.689, 438.753 111.545, 436.207 116.567 C 433.655 121.602, 431.961 123.064, 429.439 122.405 C 427.825 121.983, 423.777 116.542, 422.095 112.535 C 421.434 110.960, 417.932 108.169, 410.500 103.293 C 400.525 96.750, 399.875 96.103, 401.055 93.897 C 402.975 90.310, 406.009 89.630, 418.942 89.888 C 429.086 90.091, 431.856 90.473, 433.942 91.953 C 435.349 92.952, 438.628 94.956, 441.230 96.406 L 445.960 99.042 446.230 53.885 C 446.378 29.049, 446.342 6.765, 446.149 4.364 L 445.799 0 404.244 0 C 364.051 0, 362.744 0.060, 364.345 1.829 C 366.394 4.093, 366.432 7.816, 364.499 17.004 C 362.820 24.986, 363.385 31.385, 366 34 C 366.933 34.933, 369.556 35.993, 371.831 36.357 C 377.037 37.189, 378.584 39.450, 380.563 49.113 C 381.395 53.176, 383.184 59.435, 384.538 63.021 C 386.188 67.391, 386.986 71.515, 386.958 75.521 C 386.910 82.241, 384.819 92.485, 383.719 91.386 C 383.324 90.990, 382.944 91.642, 382.875 92.833 C 382.636 96.975, 382.489 97.302, 380.569 97.976 C 377.868 98.923, 373.371 98.014, 375.158 96.881 C 376.115 96.275, 375.819 96.026, 374.128 96.015 C 372.161 96.003, 371.962 95.750, 372.968 94.539 C 373.913 93.400, 373.920 91.079, 373.002 84.012 C 372.142 77.402, 372.118 74.100, 372.912 71.824 C 374.384 67.601, 374.283 65.399, 372.440 61.514 C 371.229 58.963, 369.895 57.951, 366.490 56.997 C 364.075 56.321, 361.333 54.920, 360.395 53.884 C 358.200 51.459, 357 51.491, 357 53.974 C 357 55.157, 358.204 56.571, 360 57.500 C 361.650 58.353, 363 59.792, 363 60.697 C 363 61.602, 363.748 63.169, 364.662 64.179 C 366.575 66.293, 366.885 75.170, 365.524 88.916 C 364.756 96.680, 364.826 97.281, 366.425 96.667 C 367.379 96.301, 369.305 96.289, 370.705 96.641 C 372.851 97.179, 372.996 97.423, 371.626 98.190 C 368.050 100.190, 370.270 104, 375.010 104 C 377.094 104, 380.433 106.902, 379.462 107.869 C 379.114 108.216, 374.182 108.500, 368.502 108.500 C 362.822 108.500, 357.927 108.746, 357.624 109.047 C 357.321 109.347, 357.727 112.047, 358.525 115.047 C 360.662 123.078, 360.456 124.870, 357.250 126.134 C 353.648 127.554, 344.615 127.617, 339.180 126.260 C 335.234 125.275, 334.379 125.434, 329.328 128.090 C 321.716 132.095, 318.113 131.918, 318.938 127.581 C 319.034 127.075, 318.509 127.163, 317.771 127.775 C 316.729 128.640, 316.429 128.470, 316.429 127.018 C 316.429 125.989, 316.782 125.365, 317.214 125.632 C 317.646 125.900, 318 125.852, 318 125.526 C 318 124.322, 313.003 115.120, 312.019 114.512 C 311.459 114.165, 311 113.009, 311 111.941 C 311 110.873, 310.564 110, 310.031 110 C 309.499 110, 309.304 110.629, 309.600 111.399 C 309.895 112.168, 309.648 113.099, 309.052 113.468 C 308.455 113.837, 308.195 114.506, 308.472 114.955 C 308.750 115.405, 308.082 116.007, 306.987 116.293 C 305.893 116.579, 305.249 116.405, 305.558 115.907 C 305.866 115.408, 304.741 115, 303.059 115 C 301.130 115, 300 115.508, 300 116.375 C 300 117.188, 301.059 117.750, 302.589 117.750 C 304.013 117.750, 305.910 118.481, 306.804 119.375 C 308.304 120.875, 308.254 121, 306.155 121 C 304.627 121, 304.113 120.590, 304.588 119.750 C 305.140 118.772, 305.011 118.762, 303.994 119.703 C 303.130 120.502, 302.110 120.594, 300.957 119.977 C 299.462 119.177, 299.126 119.671, 298.549 123.524 C 298.120 126.383, 297.370 128, 296.473 128 C 294.419 128, 288 124.778, 288 123.747 C 288 123.262, 287.206 123.117, 286.236 123.425 C 284.179 124.078, 281.531 120.587, 282.658 118.709 C 283.093 117.984, 282.697 118.057, 281.669 118.891 C 280.169 120.109, 280.034 120.076, 280.588 118.630 C 281.060 117.402, 280.808 117.136, 279.611 117.596 C 278.469 118.034, 278 117.646, 278 116.264 C 278 115.069, 276.670 113.599, 274.559 112.462 C 271.789 110.970, 269.258 107.008, 269.940 105.230 C 270.350 104.161, 264.895 99.826, 263.712 100.280 C 262.426 100.774, 262.418 100.262, 263.646 96.180 C 264.506 93.325, 264.802 89.865, 264.411 87.258 C 263.417 80.628, 265.605 81.390, 278.758 92.250 C 282.588 95.412, 285.912 98, 286.146 98 C 286.380 98, 286.607 97.213, 286.650 96.250 C 286.694 95.287, 287.012 91.800, 287.356 88.500 C 287.701 85.200, 288.453 76.425, 289.026 69 C 289.600 61.575, 290.710 49.875, 291.494 43 C 292.278 36.125, 293.400 24.875, 293.986 18 C 294.573 11.125, 295.301 4.263, 295.606 2.750 L 296.159 0 265.991 0 L 235.822 0 236.161 5.870 M 323.994 16.750 C 323.991 25.963, 323.546 36.200, 323.006 39.500 C 322.465 42.800, 321.779 50, 321.481 55.500 C 321.183 61, 320.300 69.775, 319.520 75 C 318.740 80.225, 317.870 87.541, 317.588 91.259 L 317.074 98.017 320.983 95.767 C 324.705 93.626, 324.919 93.228, 325.448 87.509 C 325.754 84.204, 327.146 68, 328.541 51.500 C 329.936 35, 331.507 17.675, 332.031 13 C 333.552 -0.572, 333.707 0, 328.500 0 L 324 0 323.994 16.750 M 26.359 9.506 C 25.441 11.900, 27.292 13.189, 31.123 12.823 C 33.726 12.574, 34.500 12.041, 34.500 10.500 C 34.500 8.910, 33.730 8.436, 30.742 8.189 C 27.994 7.962, 26.816 8.316, 26.359 9.506 M 1 10.066 C 1 10.580, 4.375 11, 8.500 11 C 18.277 11, 18.277 9.462, 8.500 9.275 C 4.375 9.196, 1 9.552, 1 10.066 M 67 10.243 C 67 10.659, 69.813 10.948, 73.250 10.884 C 80.005 10.759, 79.349 10.281, 71.750 9.792 C 69.138 9.623, 67 9.826, 67 10.243 M 209.813 10.683 C 210.534 10.972, 211.397 10.936, 211.729 10.604 C 212.061 10.272, 211.471 10.036, 210.417 10.079 C 209.252 10.127, 209.015 10.364, 209.813 10.683 M 417.667 12.667 C 415.556 14.778, 418.308 23.399, 422.400 27.490 C 425.833 30.924, 430.723 30.951, 431.579 27.542 C 433.063 21.627, 421.292 9.041, 417.667 12.667 M 181.327 18.625 C 172.461 25.283, 172.823 25.671, 182.093 19.445 C 188.477 15.157, 188.659 15, 187.243 15 C 186.644 15, 183.981 16.631, 181.327 18.625 M 327.154 27.500 C 327.054 29.150, 326.723 31.625, 326.418 33 C 325.940 35.150, 326.020 35.253, 326.991 33.733 C 327.611 32.761, 327.943 30.286, 327.727 28.233 C 327.390 25.010, 327.311 24.910, 327.154 27.500 M 157.278 31.250 C 155.324 33.777, 154.657 35.330, 155.840 34.599 C 157.024 33.867, 159.393 30, 158.658 30 C 158.431 30, 157.810 30.563, 157.278 31.250 M 235 31 C 234.099 31.582, 233.975 31.975, 234.691 31.985 C 235.346 31.993, 236.160 31.550, 236.500 31 C 237.267 29.758, 236.921 29.758, 235 31 M 205.572 48.750 C 206.069 49.163, 206.813 49.950, 207.223 50.500 C 207.649 51.071, 207.976 50.749, 207.985 49.750 C 207.993 48.777, 207.260 48, 206.333 48 C 205.417 48, 205.074 48.337, 205.572 48.750 M 207 54.139 C 207 54.612, 208.125 55, 209.500 55 C 210.875 55, 212 54.827, 212 54.617 C 212 54.406, 210.875 54.018, 209.500 53.755 C 208.125 53.492, 207 53.665, 207 54.139 M 217.733 56.124 C 218.412 56.808, 219.219 57.115, 219.526 56.807 C 219.834 56.499, 219.279 55.940, 218.293 55.564 C 216.868 55.022, 216.753 55.136, 217.733 56.124 M 324.286 62.500 C 324.294 65.250, 324.488 66.256, 324.718 64.736 C 324.947 63.216, 324.941 60.966, 324.704 59.736 C 324.467 58.506, 324.279 59.750, 324.286 62.500 M 202.079 68.583 C 202.127 69.748, 202.364 69.985, 202.683 69.188 C 202.972 68.466, 202.936 67.603, 202.604 67.271 C 202.272 66.939, 202.036 67.529, 202.079 68.583 M 155 71.441 C 155 72.234, 155.408 73.134, 155.907 73.442 C 156.405 73.751, 156.578 73.102, 156.290 72.001 C 155.679 69.666, 155 69.371, 155 71.441 M 138 73.059 C 138 73.641, 138.450 73.840, 139 73.500 C 139.550 73.160, 140 72.684, 140 72.441 C 140 72.198, 139.550 72, 139 72 C 138.450 72, 138 72.477, 138 73.059 M 216.507 98.989 C 216.157 99.555, 216.558 99.723, 217.448 99.382 C 219.180 98.717, 219.497 98, 218.059 98 C 217.541 98, 216.843 98.445, 216.507 98.989 M 306.097 105.081 C 307.819 106.171, 310 106.266, 309.999 105.250 C 309.999 104.838, 308.805 104.431, 307.346 104.346 C 305.448 104.236, 305.093 104.445, 306.097 105.081 M 18.005 107.987 C 17.325 109.630, 16.359 110.722, 15.860 110.413 C 15.360 110.104, 13.612 110.146, 11.976 110.505 C 9.503 111.048, 9 111.653, 9 114.079 C 9 117.023, 9.868 117.505, 14.326 117.039 C 17.943 116.661, 22.789 109.499, 21.572 106.328 C 20.737 104.150, 19.322 104.809, 18.005 107.987 M 305 108.031 C 305 108.564, 305.675 109, 306.500 109 C 307.325 109, 308 108.823, 308 108.607 C 308 108.391, 307.325 107.955, 306.500 107.638 C 305.675 107.322, 305 107.499, 305 108.031 M 303.750 112.662 C 304.438 112.940, 305.563 112.940, 306.250 112.662 C 306.938 112.385, 306.375 112.158, 305 112.158 C 303.625 112.158, 303.063 112.385, 303.750 112.662 M 236.223 119.557 C 233.718 121.311, 233.460 122.506, 235.186 124.354 C 236.931 126.223, 244 124.198, 244 121.829 C 244 120.209, 241.282 118, 239.288 118 C 238.824 118, 237.445 118.701, 236.223 119.557 M 106.269 124.693 C 107.242 124.947, 108.592 124.930, 109.269 124.656 C 109.946 124.382, 109.150 124.175, 107.500 124.195 C 105.850 124.215, 105.296 124.439, 106.269 124.693 M 115.587 125.905 C 117.285 126.332, 119.256 127.040, 119.967 127.480 C 120.831 128.014, 121.108 127.818, 120.802 126.889 C 120.531 126.065, 118.750 125.424, 116.423 125.314 C 112.701 125.138, 112.658 125.168, 115.587 125.905 M 122 127.409 C 122 127.599, 122.675 128.315, 123.500 129 C 124.365 129.718, 125 129.815, 125 129.229 C 125 128.671, 124.325 127.955, 123.500 127.638 C 122.675 127.322, 122 127.219, 122 127.409 M 285 129.559 C 285 130.966, 285.408 131.866, 285.906 131.558 C 286.404 131.250, 286.577 130.098, 286.289 128.999 C 285.570 126.247, 285 126.495, 285 129.559 M 252.099 131.557 C 250.944 133.514, 250 135.361, 250 135.663 C 250 135.964, 248.839 137.591, 247.421 139.277 C 245.313 141.781, 244.960 142.975, 245.491 145.805 C 246.023 148.638, 245.867 149.163, 244.635 148.690 C 243.807 148.372, 242.988 148.425, 242.815 148.806 C 242.642 149.188, 240.336 151.010, 237.691 152.855 C 233.682 155.651, 232.350 156.089, 229.691 155.487 C 226.820 154.837, 221.038 154.699, 211.750 155.059 C 209.963 155.129, 205.333 154.865, 201.462 154.474 C 195.604 153.881, 193.593 154.099, 189.462 155.776 C 186.733 156.883, 182.925 158.371, 181 159.081 C 176.749 160.649, 168.043 169.491, 167.887 172.399 C 167.825 173.555, 167.522 176.075, 167.214 178 C 166.906 179.925, 166.731 186.498, 166.825 192.606 C 166.986 202.984, 167.224 204.204, 170.458 211.202 C 172.933 216.559, 175.141 219.677, 178.209 222.151 C 186.218 228.608, 189.189 230.276, 193.073 230.495 C 195.205 230.615, 197.524 231.153, 198.225 231.691 C 198.926 232.228, 203.473 232.622, 208.330 232.567 C 215.599 232.484, 217.331 232.160, 218.129 230.733 C 219.317 228.612, 221.439 228.414, 220.638 230.500 C 220.066 231.991, 221.530 232.696, 222.167 231.236 C 222.350 230.815, 225.111 229.660, 228.301 228.668 C 234.204 226.834, 239.690 222.260, 242.324 216.978 C 243.836 213.945, 246.764 213.222, 247.697 215.652 C 248.077 216.642, 249.518 218.721, 250.899 220.271 C 253.193 222.845, 253.846 223.042, 258.418 222.533 C 261.172 222.226, 263.869 221.531, 264.412 220.988 C 264.956 220.444, 266.419 220, 267.665 220 C 271.662 220, 273.385 212.774, 270.930 206.315 C 269.233 201.852, 269.597 183.680, 271.456 180.086 C 272.316 178.422, 272.944 176.709, 272.851 176.280 C 272.758 175.851, 272.950 174.825, 273.276 174 C 274.864 169.988, 275.542 162.780, 274.969 156 C 274.231 147.271, 274.932 145.344, 279.548 143.415 C 283.878 141.606, 286.864 141.628, 291.346 143.500 C 295.293 145.149, 304 145.544, 304 144.073 C 304 143.564, 304.788 142.979, 305.750 142.773 C 307.086 142.488, 306.722 141.986, 304.207 140.652 C 302.395 139.690, 300.438 137.861, 299.858 136.588 C 298.835 134.342, 298.492 134.285, 288.643 134.707 C 278.977 135.122, 277.997 134.970, 268.491 131.572 C 255.907 127.074, 254.745 127.073, 252.099 131.557 M 231.091 132.611 C 228.206 135.928, 229.525 137.499, 234.425 136.580 C 238.209 135.870, 238.778 134.609, 236.608 131.750 C 234.808 129.378, 233.759 129.542, 231.091 132.611 M 171.405 137.858 C 173.443 140.150, 174 140.446, 174 139.241 C 174 138.823, 172.988 137.859, 171.750 137.099 C 169.508 135.722, 169.507 135.724, 171.405 137.858 M 165 140.469 C 165 141.361, 165.587 141.712, 166.494 141.364 C 167.316 141.048, 167.740 140.388, 167.435 139.895 C 166.563 138.483, 165 138.851, 165 140.469 M 169.500 141 C 169.840 141.550, 170.316 142, 170.559 142 C 170.802 142, 171 141.550, 171 141 C 171 140.450, 170.523 140, 169.941 140 C 169.359 140, 169.160 140.450, 169.500 141 M 146 141.882 C 146 142.432, 146.450 143.160, 147 143.500 C 147.550 143.840, 148 143.668, 148 143.118 C 148 142.568, 147.550 141.840, 147 141.500 C 146.450 141.160, 146 141.332, 146 141.882 M 173 142.031 C 173 142.564, 173.675 143, 174.500 143 C 175.325 143, 176 142.823, 176 142.607 C 176 142.391, 175.325 141.955, 174.500 141.638 C 173.675 141.322, 173 141.499, 173 142.031 M 150 143.031 C 150 143.564, 150.675 144, 151.500 144 C 152.325 144, 153 143.823, 153 143.607 C 153 143.391, 152.325 142.955, 151.500 142.638 C 150.675 142.322, 150 142.499, 150 143.031" stroke="none" fill="black" fill-rule="evenodd"/>
</svg>