<svg xmlns="http://www.w3.org/2000/svg" width="446" height="251" viewBox="0 0 446 251" version="1.1">
	<path d="M 0.008 117.889 L 0.031 235.779 10.265 236.948 C 31.086 239.328, 29 238.738, 29 242.252 C 29 245.236, 28.929 245.291, 27.486 243.441 C 26.437 242.098, 26.052 241.962, 26.236 243 C 26.381 243.825, 26.950 244.841, 27.500 245.257 C 28.104 245.714, 27.515 246.778, 26.015 247.939 C 24.648 248.997, 23.838 250.171, 24.214 250.547 C 24.590 250.923, 26.031 249.941, 27.417 248.365 L 29.937 245.500 29.968 248.250 C 29.998 250.827, 30.276 251, 34.383 251 C 39.182 251, 39.958 249.927, 39.986 243.250 C 39.999 240.338, 40.300 240, 42.885 240 C 45.634 240, 45.802 240.261, 46.461 245.537 L 47.153 251.073 56.327 250.787 L 65.500 250.500 66.082 244.500 C 66.504 240.148, 66.710 239.546, 66.832 242.309 C 66.933 244.589, 67.406 245.867, 68.012 245.493 C 68.574 245.145, 69.296 246.230, 69.637 247.934 C 69.974 249.620, 70.644 251, 71.125 251 C 72.256 251, 72.228 250.235, 70.937 245.993 C 68.035 236.455, 66.159 218.326, 67.775 215.438 C 68.445 214.240, 68.891 215.828, 69.376 221.139 C 69.793 225.702, 71.395 232.111, 73.591 238 C 75.540 243.225, 77.382 248.287, 77.684 249.250 C 77.986 250.213, 78.856 251, 79.617 251 C 81.406 251, 81.369 250.643, 79.108 246.210 C 76.609 241.309, 72 227.500, 72 224.912 C 72 223.422, 72.476 223.013, 73.750 223.409 C 74.712 223.708, 76.911 224.055, 78.635 224.180 C 81.613 224.396, 81.800 224.660, 82.376 229.454 C 82.710 232.229, 82.987 238.213, 82.991 242.750 L 83 251 94.572 251 L 106.144 251 105.446 239.655 C 104.833 229.709, 104.947 228.234, 106.368 227.689 C 107.922 227.093, 139.106 229.593, 141.813 230.531 C 142.536 230.781, 142.870 231.402, 142.555 231.911 C 141.994 232.818, 143.519 245.813, 144.590 249.250 C 145.103 250.898, 149.981 251, 228.543 251 L 311.950 251 310.947 248.361 C 309.717 245.126, 310.056 244.725, 313.325 245.545 C 314.922 245.946, 316.001 246.999, 316.193 248.344 C 316.438 250.067, 317.291 250.565, 320.433 250.821 C 322.596 250.998, 325.482 250.548, 326.846 249.821 C 328.810 248.776, 329.415 248.761, 329.747 249.750 C 330.248 251.242, 333.623 251.419, 334.500 250 C 334.840 249.450, 335.879 249.007, 336.809 249.015 C 338.266 249.029, 338.293 249.165, 337 250 C 336.022 250.632, 354.656 250.975, 390.597 250.985 L 445.694 251 446.327 239.250 C 446.675 232.787, 446.973 176.313, 446.988 113.750 L 447.016 0 369.927 -0 L 292.837 -0 294.918 3.368 C 297.226 7.101, 297.579 12.040, 295.886 16.896 C 294.199 21.735, 292.512 20.120, 292.411 13.570 C 292.332 8.442, 291.973 7.480, 289.148 4.840 C 285.438 1.374, 282.544 1.697, 281.541 5.691 C 280.888 8.296, 281.202 8.752, 285.250 11.069 C 286.681 11.888, 287 11.684, 287 9.952 C 287 8.696, 287.509 8.007, 288.250 8.260 C 288.960 8.503, 289.443 10.157, 289.368 12.093 C 289.169 17.227, 288.356 21.531, 287.639 21.250 C 287.287 21.113, 286.100 21, 285 21 C 283.900 21, 283 20.377, 283 19.615 C 283 16.716, 273.040 12.373, 270.055 13.971 C 268.898 14.590, 267.916 14.516, 267.153 13.753 C 266.282 12.882, 266 13.016, 266 14.300 C 266 15.235, 265.339 16, 264.531 16 C 263.565 16, 263.273 15.402, 263.679 14.250 C 264.162 12.875, 264.022 12.751, 263.025 13.672 C 262.327 14.316, 261.163 14.616, 260.437 14.338 C 258.391 13.552, 259.351 19.052, 261.539 20.652 C 265.255 23.369, 264.392 25.982, 257.656 32.411 C 253.150 36.712, 250.757 39.930, 249.509 43.372 C 248.126 47.184, 245.297 50.663, 236.495 59.372 C 230.310 65.492, 224.856 71.237, 224.375 72.138 C 223.894 73.039, 219.173 78.297, 213.884 83.823 C 204.039 94.110, 196.424 103.946, 193.407 110.274 C 191.804 113.634, 191.807 114.400, 193.461 123.669 C 194.426 129.076, 195.666 135.003, 196.216 136.841 C 197.174 140.044, 197.366 140.152, 200.858 139.449 C 202.861 139.046, 206.525 138.598, 209 138.453 C 211.475 138.308, 216.425 137.530, 220 136.725 C 229.706 134.539, 238.445 134.741, 245.487 137.313 C 249.194 138.668, 251.599 140.152, 251.803 141.214 C 252.237 143.472, 248.323 144.453, 244.572 143.027 C 240.835 141.606, 240.149 142.465, 242.782 145.268 C 245.327 147.977, 247.919 154.008, 247.287 155.750 C 247.037 156.438, 246.008 157, 245 157 C 243.992 157, 243.017 157.418, 242.833 157.929 C 242.650 158.440, 239.575 159.179, 236 159.570 C 229.636 160.267, 229.536 160.242, 231.210 158.357 C 232.828 156.534, 232.817 156.367, 231.004 155.234 C 227.112 152.804, 221.569 152.669, 217.200 154.898 C 214.934 156.054, 211.867 157, 210.385 157 C 207.811 157, 207.766 157.084, 209.391 158.880 C 211.022 160.682, 210.941 160.788, 207.447 161.444 C 204.618 161.975, 203.925 162.506, 204.357 163.814 C 204.663 164.741, 206.170 169.015, 207.707 173.311 C 210.230 180.366, 210.725 181.080, 212.822 180.686 C 214.566 180.358, 215.370 180.842, 216.047 182.625 C 216.833 184.690, 217.606 185, 221.975 185 C 227.078 185, 227.957 185.643, 225.800 187.800 C 224.867 188.733, 224.887 189, 225.894 189 C 226.605 189, 227.423 188.100, 227.710 187 C 227.998 185.900, 228.904 185, 229.724 185 C 230.600 185, 230.990 185.585, 230.669 186.420 C 230.218 187.595, 231.282 187.739, 236.812 187.252 C 240.490 186.928, 244.738 186.627, 246.250 186.582 C 247.762 186.537, 249 186.275, 249.001 186 C 249.001 185.725, 250.111 185.436, 251.468 185.358 C 254.303 185.194, 255.319 187.282, 255.429 193.500 L 255.500 197.500 263.750 197.183 C 268.287 197.009, 271.985 197.234, 271.966 197.683 C 271.903 199.214, 256.527 208.754, 247.194 213.055 C 242.075 215.413, 237.440 218.178, 236.893 219.199 C 236.347 220.220, 235.461 220.785, 234.925 220.454 C 234.389 220.122, 234.070 220.222, 234.216 220.676 C 234.363 221.129, 232.011 223.732, 228.991 226.461 L 223.500 231.422 228.361 226.314 C 234.142 220.239, 234.441 220.442, 218.250 219.462 C 207.738 218.826, 204.613 217.886, 208.750 216.605 C 209.713 216.306, 206.338 216.269, 201.250 216.520 C 196.163 216.772, 192 216.602, 192 216.143 C 192 215.684, 196.651 213.019, 202.334 210.221 C 212.509 205.214, 212.780 205.144, 219.834 205.684 C 227.275 206.254, 228.626 205.483, 225.561 202.418 C 224.025 200.882, 215 200.663, 215 202.162 C 215 202.623, 214.509 203, 213.909 203 C 211.640 203, 194.070 211.305, 194.583 212.135 C 195.472 213.572, 189.911 215.211, 183 215.548 C 171.590 216.104, 165.526 215.910, 164.566 214.958 C 163.990 214.387, 165.330 212.444, 168.066 209.885 C 170.505 207.604, 171.563 206.222, 170.418 206.814 C 169.273 207.406, 167.755 208.590, 167.045 209.445 C 166.336 210.300, 164.798 211.007, 163.628 211.015 C 162.127 211.026, 161.882 211.273, 162.797 211.854 C 163.831 212.509, 163.775 212.942, 162.522 213.982 C 161.225 215.058, 156.431 214.976, 135.224 213.514 C 121.076 212.538, 109.275 211.517, 109 211.244 C 108.725 210.971, 115.996 210.965, 125.157 211.231 L 141.815 211.715 142.234 208.858 C 142.516 206.939, 142.218 206, 141.327 206 C 140.435 206, 139.995 204.607, 139.985 201.750 C 139.976 199.412, 139.639 197.950, 139.235 198.500 C 138.102 200.041, 134.528 202.648, 135.288 201.377 C 135.755 200.599, 133.285 200.061, 127.230 199.622 C 113.684 198.640, 85.781 198.586, 83 199.536 L 80.500 200.390 83.500 201.006 L 86.500 201.622 82.820 202.102 C 80.605 202.391, 79.377 202.199, 79.734 201.621 C 80.096 201.036, 79.580 200.972, 78.414 201.459 C 77.361 201.898, 75.514 202.472, 74.310 202.734 C 71.151 203.421, 68.943 206.262, 66.914 212.248 C 64.977 217.961, 64.765 217.731, 62.997 208 C 61.274 198.517, 56.480 184.092, 50.768 171.203 C 48.014 164.990, 46.038 159.628, 46.378 159.289 C 46.717 158.949, 50.047 159.408, 53.777 160.308 C 64.070 162.793, 73.513 163.345, 83.910 162.072 C 89.086 161.439, 93.654 160.714, 94.063 160.461 C 94.471 160.209, 94.240 158.089, 93.549 155.751 C 92.125 150.936, 90.545 132.240, 90.611 121 C 90.662 112.254, 92.033 107.399, 97.953 95 C 98.729 93.374, 107.713 88.061, 109.750 88.023 C 110.437 88.011, 111.900 87.100, 113 86 C 114.100 84.900, 115.675 84, 116.500 84 C 118.269 84, 118.478 81.878, 116.867 80.267 C 115.250 78.650, 116.568 76, 118.990 76 C 120.919 76, 121.767 77.225, 123.491 82.500 C 124.111 84.397, 124.215 84.372, 125.511 82 C 126.262 80.625, 127.170 77.700, 127.527 75.500 C 127.885 73.300, 128.839 69.156, 129.647 66.292 L 131.118 61.083 135.809 61.289 C 141.045 61.518, 146.422 58.591, 146.741 55.338 C 146.840 54.327, 147.302 49.760, 147.767 45.189 C 148.232 40.618, 148.301 36.686, 147.921 36.451 C 146.707 35.701, 146.360 30.393, 147.449 29.224 C 150.283 26.183, 151.056 24.899, 150.549 24.079 C 149.465 22.326, 156 18, 159.731 18 C 163.736 18, 175.395 23.980, 176.376 26.538 C 176.718 27.429, 176.556 27.844, 176 27.500 C 174.869 26.801, 175.795 29.835, 177.308 31.786 C 177.856 32.494, 178.515 36.349, 178.772 40.354 C 179.127 45.878, 178.841 48.408, 177.587 50.831 C 176.375 53.175, 176.106 55.318, 176.577 58.868 C 177.155 63.228, 177.009 63.764, 175.110 64.261 C 173.702 64.629, 173 64.345, 173 63.406 C 173 62.633, 172.213 62.007, 171.250 62.015 C 169.849 62.028, 169.779 62.207, 170.896 62.914 C 171.736 63.446, 172.021 64.503, 171.612 65.569 C 171.220 66.590, 171.464 67.669, 172.187 68.116 C 174.481 69.533, 172.320 70.082, 168.140 69.143 C 165.871 68.633, 164.253 68.600, 164.543 69.069 C 164.833 69.539, 166.664 70.222, 168.612 70.587 C 171.729 71.172, 172.082 71.536, 171.558 73.626 C 170.892 76.280, 171.973 76.624, 175.316 74.823 C 176.517 74.175, 178.625 73.613, 180 73.573 C 183.148 73.481, 193.765 67.071, 194.530 64.800 C 194.845 63.865, 197.442 61.165, 200.302 58.800 C 203.161 56.435, 205.651 54.159, 205.836 53.741 C 206.021 53.324, 207.984 51.074, 210.198 48.741 C 212.411 46.409, 215.533 42.408, 217.135 39.852 C 218.736 37.295, 222.471 33.132, 225.435 30.600 C 228.407 28.061, 231.800 23.979, 233.001 21.498 C 234.335 18.742, 238.707 13.708, 244.288 8.500 L 253.397 0 126.691 -0 L -0.014 -0 0.008 117.889 M 0.483 114 C 0.483 176.425, 0.603 201.963, 0.750 170.750 C 0.897 139.538, 0.897 88.463, 0.750 57.250 C 0.603 26.038, 0.483 51.575, 0.483 114 M 137.559 16.532 C 135.651 17.975, 135.653 18, 137.686 18 C 138.824 18, 140.315 17.325, 141 16.500 C 142.690 14.464, 140.263 14.486, 137.559 16.532 M 132.879 23.364 C 129.042 29.418, 127.765 32.099, 128.410 32.744 C 128.725 33.058, 128.424 34.032, 127.741 34.908 C 126.645 36.314, 126.703 36.341, 128.239 35.137 C 129.195 34.387, 129.735 33.380, 129.437 32.898 C 129.140 32.417, 129.594 32.291, 130.448 32.618 C 131.479 33.014, 132 32.638, 132 31.500 C 132 30.249, 132.473 29.988, 133.750 30.534 C 134.713 30.946, 136.835 31.510, 138.467 31.787 C 141.284 32.265, 141.346 32.203, 139.696 30.553 C 138.741 29.598, 136.881 28.520, 135.563 28.158 L 133.168 27.500 134.995 23.754 C 137.516 18.587, 136.075 18.321, 132.879 23.364 M 254 19.845 C 254 20.480, 254.381 21, 254.847 21 C 255.313 21, 256.183 22.012, 256.780 23.250 C 257.532 24.810, 257.885 25.011, 257.932 23.905 C 257.970 23.028, 257.100 21.495, 256 20.500 C 254.866 19.474, 254 19.190, 254 19.845 M 136.733 24.124 C 137.412 24.808, 138.219 25.115, 138.526 24.807 C 138.834 24.499, 138.279 23.940, 137.293 23.564 C 135.868 23.022, 135.753 23.136, 136.733 24.124 M 127.441 38.468 C 126.374 39.276, 126.036 39.951, 126.691 39.968 C 127.346 39.986, 128.160 39.550, 128.500 39 C 129.596 37.226, 133.025 37.934, 135.545 40.455 C 139.725 44.634, 138.580 51.535, 133.225 54.441 C 131.726 55.254, 131.097 55.938, 131.827 55.960 C 132.557 55.982, 134.525 54.629, 136.202 52.952 C 138.950 50.203, 139.198 49.447, 138.724 45.242 C 137.921 38.119, 132.336 34.766, 127.441 38.468 M 128.926 43.250 C 128.885 43.388, 128.657 44.547, 128.420 45.827 C 128.028 47.946, 128.130 48.013, 129.566 46.577 C 131.552 44.591, 132.383 44.560, 131.638 46.500 C 130.921 48.370, 131.717 48.426, 133.510 46.633 C 134.667 45.476, 134.494 45.091, 132.392 44.133 C 129.899 42.997, 129.064 42.784, 128.926 43.250 M 245.507 43.989 C 245.157 44.555, 245.558 44.723, 246.448 44.382 C 248.180 43.717, 248.497 43, 247.059 43 C 246.541 43, 245.843 43.445, 245.507 43.989 M 163 50 C 163 50.550, 163.702 51, 164.559 51 C 165.416 51, 165.840 50.550, 165.500 50 C 165.160 49.450, 164.459 49, 163.941 49 C 163.423 49, 163 49.450, 163 50 M 117.750 50.757 C 116.787 50.971, 116 51.564, 116 52.073 C 116 53.351, 118.732 53.243, 119.541 51.933 C 120.384 50.569, 119.932 50.272, 117.750 50.757 M 116 74 C 116 75.253, 117.061 75.253, 119 74 C 120.213 73.216, 120.069 73.028, 118.250 73.015 C 117.013 73.007, 116 73.450, 116 74 M 158.248 83.706 C 156.425 84.057, 156.113 84.602, 156.607 86.570 C 156.949 87.932, 156.777 89, 156.215 89 C 155.665 89, 154.936 89.725, 154.596 90.611 C 154.153 91.764, 154.407 92.058, 155.489 91.643 C 156.320 91.324, 156.984 91.161, 156.965 91.281 C 156.946 91.402, 156.115 94.413, 155.120 97.974 C 153.434 104.002, 153.226 104.291, 152.094 102.176 C 150.975 100.084, 147.033 97.708, 144.404 97.539 C 143.801 97.500, 142.226 96.263, 140.904 94.789 C 138.586 92.205, 125 84.196, 125 85.413 C 125 87.708, 133.893 106.638, 137.474 111.967 C 142.694 119.734, 146.921 132.428, 147.724 142.750 C 148.283 149.926, 148.318 150, 151.144 150 C 152.715 150, 154 149.546, 154 148.992 C 154 148.390, 154.799 148.482, 155.979 149.219 C 157.607 150.235, 158.479 150.148, 160.884 148.728 C 162.492 147.777, 165.145 147, 166.779 147 C 172.197 147, 175.926 145.809, 176.537 143.883 C 176.865 142.850, 178.225 141.731, 179.560 141.396 C 180.894 141.061, 181.738 140.385, 181.434 139.893 C 181.130 139.402, 181.327 139, 181.871 139 C 182.495 139, 182.542 137.891, 182 136 C 181.527 134.350, 181.501 133, 181.942 133 C 182.383 133, 183.032 134.800, 183.384 137 C 183.934 140.441, 184.376 141, 186.547 141 C 188.663 141, 188.916 140.711, 188.111 139.208 C 186.633 136.446, 180 110.107, 180 106.999 C 180 104.853, 178.838 103.351, 174.750 100.211 C 171.863 97.993, 167.844 95.395, 165.820 94.438 C 161.500 92.393, 160.047 88.711, 162.495 86.006 C 163.951 84.396, 163.948 84.194, 162.461 83.624 C 161.568 83.281, 160.761 83.061, 160.668 83.136 C 160.576 83.211, 159.487 83.467, 158.248 83.706 M 203.079 85.583 C 203.127 86.748, 203.364 86.985, 203.683 86.188 C 203.972 85.466, 203.936 84.603, 203.604 84.271 C 203.272 83.939, 203.036 84.529, 203.079 85.583 M 189.158 101 C 189.158 102.375, 189.385 102.938, 189.662 102.250 C 189.940 101.563, 189.940 100.438, 189.662 99.750 C 189.385 99.063, 189.158 99.625, 189.158 101 M 189.710 109 C 189.998 110.100, 190.631 111, 191.117 111 C 192.162 111, 192.199 110.681, 191.393 108.582 C 190.512 106.286, 189.093 106.638, 189.710 109 M 139 109.393 C 139 109.609, 139.698 110.054, 140.552 110.382 C 141.442 110.723, 141.843 110.555, 141.493 109.989 C 140.906 109.038, 139 108.583, 139 109.393 M 351.444 127.230 C 350.518 131.005, 350.010 134.343, 350.314 134.647 C 351.319 135.652, 353 133.917, 353 131.875 C 353 129.124, 354.891 125.814, 356.052 126.532 C 356.575 126.856, 357.453 125.939, 358.002 124.495 C 359.307 121.061, 359.427 121.290, 356.063 120.796 C 353.183 120.373, 353.093 120.498, 351.444 127.230 M 157 130 C 157 130.550, 157.477 131, 158.059 131 C 158.641 131, 158.840 130.550, 158.500 130 C 158.160 129.450, 157.684 129, 157.441 129 C 157.198 129, 157 129.450, 157 130 M 355 130.059 C 355 130.641, 355.450 130.840, 356 130.500 C 356.550 130.160, 357 129.684, 357 129.441 C 357 129.198, 356.550 129, 356 129 C 355.450 129, 355 129.477, 355 130.059 M 168.500 144 C 168.840 144.550, 169.568 145, 170.118 145 C 170.668 145, 170.840 144.550, 170.500 144 C 170.160 143.450, 169.432 143, 168.882 143 C 168.332 143, 168.160 143.450, 168.500 144 M 342.464 151.125 C 342.821 155.694, 343.637 160.123, 344.277 160.966 C 344.916 161.810, 344.299 161.488, 342.905 160.250 C 341.511 159.012, 339.661 158, 338.793 158 C 336.665 158, 335.745 160.688, 337.627 161.410 C 338.460 161.730, 338.807 162.503, 338.407 163.150 C 337.900 163.971, 338.399 164.125, 340.094 163.671 C 341.417 163.317, 343.687 163.021, 345.139 163.014 C 347.370 163.002, 347.881 162.447, 348.448 159.424 C 348.836 157.359, 348.675 155.314, 348.068 154.582 C 347.490 153.886, 347.270 153.063, 347.579 152.754 C 348.668 151.666, 345.206 143.500, 343.511 143.159 C 341.983 142.851, 341.878 143.645, 342.464 151.125 M 327.079 152.583 C 327.127 153.748, 327.364 153.985, 327.683 153.188 C 327.972 152.466, 327.936 151.603, 327.604 151.271 C 327.272 150.939, 327.036 151.529, 327.079 152.583 M 350.797 156.609 L 350.376 160.218 354.737 159.726 C 360.127 159.119, 360.618 158.652, 359.184 155.504 C 358.291 153.544, 357.301 153, 354.631 153 C 351.456 153, 351.189 153.251, 350.797 156.609 M 216.441 156.450 C 214.566 157.851, 214.577 157.881, 216.750 157.334 C 217.988 157.022, 219 156.369, 219 155.883 C 219 154.693, 218.705 154.759, 216.441 156.450 M 440 155.779 C 440 156.207, 441.338 159.695, 442.973 163.529 L 445.946 170.500 445.973 163.357 C 445.994 157.749, 445.660 156.084, 444.418 155.607 C 442.218 154.763, 440 154.849, 440 155.779 M 224 156.393 C 224 156.609, 224.698 157.054, 225.552 157.382 C 226.442 157.723, 226.843 157.555, 226.493 156.989 C 225.906 156.038, 224 155.583, 224 156.393 M 327.729 156.604 C 327.328 157.005, 327 158.023, 327 158.867 C 327 159.992, 327.296 160.104, 328.113 159.288 C 328.724 158.676, 329.053 157.657, 328.842 157.025 C 328.631 156.393, 328.130 156.203, 327.729 156.604 M 361 158.393 C 361 158.609, 361.698 159.054, 362.552 159.382 C 363.442 159.723, 363.843 159.555, 363.493 158.989 C 362.906 158.038, 361 157.583, 361 158.393 M 378 164.441 C 378 166.334, 378.450 168.160, 379 168.500 C 379.604 168.873, 380 167.510, 380 165.059 C 380 162.827, 379.550 161, 379 161 C 378.450 161, 378 162.548, 378 164.441 M 317.750 163.662 C 318.438 163.940, 319.563 163.940, 320.250 163.662 C 320.938 163.385, 320.375 163.158, 319 163.158 C 317.625 163.158, 317.063 163.385, 317.750 163.662 M 193.107 164.934 C 192.440 165.346, 191.990 166.092, 192.106 166.592 C 192.222 167.091, 191.951 168.344, 191.503 169.376 C 191.044 170.434, 191.157 172.614, 191.763 174.376 C 192.353 176.094, 193.130 178.945, 193.489 180.711 C 194.095 183.692, 194.369 183.878, 197.321 183.317 C 199.069 182.985, 200.587 182.653, 200.694 182.579 C 200.800 182.506, 200.462 180.433, 199.942 177.973 C 197.317 165.550, 196.043 163.119, 193.107 164.934 M 312.750 164.662 C 313.438 164.940, 314.563 164.940, 315.250 164.662 C 315.938 164.385, 315.375 164.158, 314 164.158 C 312.625 164.158, 312.063 164.385, 312.750 164.662 M 327.715 165.301 C 327.356 166.235, 326.374 167, 325.531 167 C 324.689 167, 324 167.450, 324 168 C 324 168.550, 324.914 169, 326.031 169 C 328.144 169, 329.487 166.962, 328.778 164.834 C 328.509 164.027, 328.142 164.189, 327.715 165.301 M 302 166 L 298.500 166.737 301.691 166.868 C 303.446 166.941, 305.160 166.550, 305.500 166 C 305.840 165.450, 305.979 165.059, 305.809 165.132 C 305.639 165.204, 303.925 165.595, 302 166 M 367.388 166.181 C 366.399 167.781, 368.616 169.257, 370.914 168.527 C 372.077 168.158, 372.805 167.493, 372.530 167.049 C 371.713 165.727, 368.051 165.109, 367.388 166.181 M 294.750 167.662 C 295.438 167.940, 296.563 167.940, 297.250 167.662 C 297.938 167.385, 297.375 167.158, 296 167.158 C 294.625 167.158, 294.063 167.385, 294.750 167.662 M 289.750 168.662 C 290.438 168.940, 291.563 168.940, 292.250 168.662 C 292.938 168.385, 292.375 168.158, 291 168.158 C 289.625 168.158, 289.063 168.385, 289.750 168.662 M 319 169.469 C 319 170.361, 319.587 170.712, 320.494 170.364 C 321.316 170.048, 321.740 169.388, 321.435 168.895 C 320.563 167.483, 319 167.851, 319 169.469 M 276.700 172.634 C 276.351 172.982, 269.189 173.617, 260.783 174.043 C 252.377 174.470, 244.392 175.243, 243.037 175.761 L 240.574 176.702 242.787 177.886 C 244.004 178.537, 245 179.780, 245 180.646 C 245 181.882, 245.701 182.092, 248.250 181.616 C 250.037 181.282, 254.875 180.558, 259 180.006 C 276.687 177.642, 278.320 177.283, 279.657 175.455 C 280.395 174.445, 281 173.254, 281 172.809 C 281 171.854, 277.617 171.717, 276.700 172.634 M 292 173.059 C 292 173.641, 292.450 173.840, 293 173.500 C 293.550 173.160, 294 172.684, 294 172.441 C 294 172.198, 293.550 172, 293 172 C 292.450 172, 292 172.477, 292 173.059 M 106.793 175.548 C 105.872 177.008, 107.535 179.406, 108.888 178.569 C 109.500 178.191, 109.993 177.346, 109.985 176.691 C 109.975 175.919, 109.659 175.991, 109.086 176.895 C 108.379 178.011, 108.128 177.911, 107.828 176.395 C 107.614 175.315, 107.169 174.950, 106.793 175.548 M 386 179.281 C 386 180.556, 386.540 182.140, 387.200 182.800 C 388.584 184.184, 395 184.440, 395 183.111 C 395 181.344, 391.440 178.197, 388.750 177.586 C 386.361 177.044, 386 177.266, 386 179.281 M 176.644 180.641 C 171.076 184.283, 165.603 185.975, 157.043 186.698 C 150.442 187.256, 149.141 187.705, 146.515 190.332 C 144.259 192.587, 144.057 193.040, 145.698 192.162 C 146.897 191.520, 148.109 191.368, 148.391 191.824 C 148.673 192.280, 151.063 192.386, 153.702 192.058 C 156.341 191.730, 158.950 191.475, 159.500 191.492 C 161.667 191.559, 167.002 194.306, 167.033 195.371 C 167.050 195.992, 168.714 197.274, 170.729 198.220 C 174.778 200.121, 176.546 199.883, 172.836 197.937 C 171.551 197.263, 168.858 195.243, 166.851 193.449 L 163.201 190.187 167.351 189.168 C 169.633 188.607, 173.695 187.830, 176.378 187.441 C 179.967 186.921, 181.388 186.233, 181.752 184.839 C 182.119 183.435, 182.799 183.112, 184.374 183.593 C 188.318 184.797, 189.337 185.758, 189.452 188.384 C 189.557 190.789, 189.241 191.001, 185.533 191.015 C 180.743 191.033, 177.650 192.477, 180.618 193.309 C 184.301 194.341, 194.572 194.999, 192.500 194.070 C 191.237 193.504, 193.817 193.373, 199.500 193.714 C 208.083 194.230, 214.047 196, 207.200 196 C 205.440 196, 203.999 196.338, 203.998 196.750 C 203.997 197.162, 206.856 197.352, 210.352 197.171 C 216.565 196.850, 216.701 196.783, 216.417 194.191 C 216.257 192.733, 216.623 191.233, 217.232 190.857 C 218.214 190.250, 211.948 189.065, 208 189.111 C 199.403 189.210, 181.277 182.326, 182.404 179.390 C 183.198 177.321, 180.982 177.802, 176.644 180.641 M 220.500 179 C 220.160 179.550, 220.332 180, 220.882 180 C 221.432 180, 222.160 179.550, 222.500 179 C 222.840 178.450, 222.668 178, 222.118 178 C 221.568 178, 220.840 178.450, 220.500 179 M 373.750 179.392 C 372.788 180.123, 372 180.969, 372 181.272 C 372 181.575, 372.788 181.672, 373.750 181.488 C 374.712 181.304, 375.837 181.119, 376.250 181.077 C 376.663 181.034, 377 180.325, 377 179.500 C 377 177.671, 376.058 177.640, 373.750 179.392 M 405.559 179.177 C 405.862 179.905, 407.746 181.549, 409.745 182.830 L 413.380 185.160 410.815 181.830 C 408.245 178.493, 404.481 176.594, 405.559 179.177 M 414.793 183.419 L 418.500 188.837 423.294 184.169 L 428.087 179.500 424.294 178.808 C 422.207 178.427, 418.382 178.089, 415.793 178.058 L 411.087 178 414.793 183.419 M 398.148 183.526 C 399.292 185.465, 401.144 187.542, 402.265 188.142 C 404.255 189.207, 404.252 189.166, 402.166 186.366 C 398.292 181.165, 397.286 180, 396.673 180 C 396.340 180, 397.004 181.587, 398.148 183.526 M 403.633 184.750 C 409.029 191.555, 409.203 191.728, 408.379 189.500 C 406.973 185.696, 402.729 180, 401.300 180 C 400.382 180, 401.222 181.709, 403.633 184.750 M 410.536 189.070 C 412.954 193.843, 413.296 194.132, 414.777 192.652 C 416.257 191.171, 416.190 190.831, 413.944 188.429 C 412.600 186.992, 410.691 185.380, 409.702 184.848 C 408.199 184.037, 408.335 184.728, 410.536 189.070 M 296.750 186.728 C 290.550 187.377, 292.529 188.662, 299.250 188.353 C 312.659 187.735, 311.932 187.859, 307.500 186.943 C 303.354 186.085, 302.973 186.078, 296.750 186.728 M 124.400 190.250 C 124.500 193.495, 124.509 193.500, 130.296 193.801 L 136.092 194.103 135.796 191.301 C 135.410 187.644, 134.428 187.034, 128.900 187.015 C 124.353 187, 124.301 187.038, 124.400 190.250 M 138 190.441 C 138 191.848, 138.450 193, 139 193 C 139.550 193, 140 192.127, 140 191.059 C 140 189.991, 139.550 188.840, 139 188.500 C 138.433 188.149, 138 188.990, 138 190.441 M 393.854 188.676 C 392.534 189.021, 393.225 190.471, 397.338 195.986 C 400.160 199.769, 402.619 202.714, 402.803 202.530 C 403.432 201.902, 397.503 188.663, 396.500 188.453 C 395.950 188.338, 394.759 188.438, 393.854 188.676 M 385.500 191 C 384.505 192.100, 383.133 193, 382.453 193 C 381.773 193, 378.965 195.024, 376.214 197.497 L 371.212 201.995 359.261 201.352 C 347.620 200.726, 347.295 200.765, 346.748 202.855 C 346.233 204.824, 345.528 205, 338.153 205 C 333.541 205, 329.837 204.546, 329.459 203.933 C 328.564 202.485, 329.287 201.935, 332.403 201.695 C 333.852 201.584, 334.917 201.045, 334.769 200.496 C 334.621 199.947, 330.460 199.412, 325.500 199.305 C 320.550 199.197, 308.175 198.723, 298 198.251 C 276.837 197.269, 277.009 197.234, 265.569 204.953 C 257.369 210.487, 239.543 219.209, 238.521 218.188 C 238.176 217.843, 238.175 218.292, 238.518 219.186 C 239.276 221.161, 238.926 221.126, 296 225.009 C 351.385 228.777, 354.933 229.082, 355.581 230.131 C 356.412 231.476, 362.326 231.157, 364.527 229.648 C 365.612 228.905, 368.838 228.029, 371.696 227.702 C 378.674 226.903, 380.917 225.512, 391.900 215.176 C 399.975 207.577, 401.212 205.990, 400.681 203.915 C 399.888 200.820, 390.322 189, 388.610 189 C 387.895 189, 386.495 189.900, 385.500 191 M 403.801 195.739 C 404.735 198.621, 405.950 200.833, 406.500 200.656 C 408.530 200.003, 407.973 197.394, 405.077 193.994 L 402.101 190.500 403.801 195.739 M 141.954 196.086 C 141.340 197.233, 141.026 198.360, 141.257 198.590 C 141.487 198.820, 142.189 197.882, 142.816 196.504 C 144.194 193.480, 143.523 193.154, 141.954 196.086 M 155.269 195.693 C 156.242 195.947, 157.592 195.930, 158.269 195.656 C 158.946 195.382, 158.150 195.175, 156.500 195.195 C 154.850 195.215, 154.296 195.439, 155.269 195.693 M 200.220 199.180 C 199.540 199.860, 196.809 200.256, 193.770 200.115 C 188.111 199.852, 177 201.900, 177 203.206 C 177 203.643, 176.352 204, 175.559 204 C 174.766 204, 173.835 204.458, 173.489 205.018 C 173.143 205.578, 175.870 204.903, 179.549 203.518 C 185.653 201.220, 196 200.039, 196 201.640 C 196 201.992, 195.213 202.939, 194.250 203.745 C 193.018 204.777, 193.304 204.735, 195.215 203.605 C 196.936 202.588, 200.596 201.937, 205.215 201.827 L 212.500 201.655 206 201.077 C 200.338 200.574, 199.758 200.343, 201.500 199.280 C 202.600 198.610, 203.028 198.047, 202.450 198.030 C 201.873 198.014, 200.869 198.531, 200.220 199.180 M 227.500 201 C 227.143 201.577, 228.070 201.994, 229.691 201.985 C 231.872 201.973, 232.165 201.753, 231 201 C 229.079 199.758, 228.267 199.758, 227.500 201 M 96.813 201.683 C 97.534 201.972, 98.397 201.936, 98.729 201.604 C 99.061 201.272, 98.471 201.036, 97.417 201.079 C 96.252 201.127, 96.015 201.364, 96.813 201.683 M 103.589 202.144 C 103.880 202.615, 104.977 203, 106.028 203 C 107.227 203, 107.743 203.506, 107.415 204.360 C 106.696 206.234, 111.895 206.975, 125.833 206.989 C 134.323 206.997, 137.064 206.693, 136.759 205.778 C 136.205 204.116, 131.980 203.156, 129.361 204.097 C 127.574 204.739, 127.305 204.548, 127.728 202.933 C 128.006 201.870, 127.731 201, 127.117 201 C 126.502 201, 126 201.675, 126 202.500 C 126 204.361, 120.348 204.586, 119.717 202.750 C 119.480 202.063, 119.405 202.287, 119.550 203.250 C 119.769 204.709, 119.018 205, 115.029 205 C 112.166 205, 109.782 204.442, 109.092 203.611 C 107.842 202.104, 102.721 200.740, 103.589 202.144 M 111.500 202 C 111.840 202.550, 112.965 203, 114 203 C 115.035 203, 116.160 202.550, 116.500 202 C 116.862 201.415, 115.824 201, 114 201 C 112.176 201, 111.138 201.415, 111.500 202 M 137.500 202 C 137.840 202.550, 138.316 203, 138.559 203 C 138.802 203, 139 202.550, 139 202 C 139 201.450, 138.523 201, 137.941 201 C 137.359 201, 137.160 201.450, 137.500 202 M 235 202 C 235 202.550, 235.900 203, 237 203 C 238.100 203, 239 202.550, 239 202 C 239 201.450, 238.100 201, 237 201 C 235.900 201, 235 201.450, 235 202 M 145.808 206.918 C 149.452 210.545, 155.420 211.954, 156.393 209.418 C 156.749 208.490, 156.257 208, 154.969 208 C 153.886 208, 152.971 208.563, 152.937 209.250 C 152.902 209.938, 152.479 209.522, 151.998 208.328 C 151.363 206.755, 150.544 206.306, 149.028 206.703 C 147.790 207.027, 146.028 206.510, 144.717 205.438 C 143.498 204.442, 143.989 205.108, 145.808 206.918 M 228 204.883 C 228 205.369, 229.084 205.974, 230.409 206.227 C 232.134 206.557, 232.671 206.306, 232.302 205.344 C 231.735 203.867, 228 203.467, 228 204.883 M 235 205 C 235 205.550, 235.900 206, 237 206 C 238.100 206, 239 205.550, 239 205 C 239 204.450, 238.100 204, 237 204 C 235.900 204, 235 204.450, 235 205 M 73.446 206.087 C 73.077 206.685, 73.233 207.633, 73.794 208.194 C 74.488 208.888, 75.176 208.540, 75.943 207.107 C 76.853 205.407, 76.786 205, 75.594 205 C 74.782 205, 73.816 205.489, 73.446 206.087 M 77.667 205.667 C 77.300 206.033, 77 206.906, 77 207.605 C 77 208.952, 80.497 209.571, 92.780 210.398 L 100.060 210.889 97.780 208 C 95.591 205.226, 95.159 205.108, 86.917 205.055 C 82.196 205.025, 78.033 205.300, 77.667 205.667 M 157.543 205.931 C 157.226 206.443, 157.425 207.144, 157.984 207.490 C 158.543 207.835, 159 207.416, 159 206.559 C 159 204.802, 158.400 204.544, 157.543 205.931 M 179.559 206.532 C 178.491 207.339, 178.041 207.986, 178.559 207.968 C 179.076 207.951, 180.374 207.276, 181.441 206.468 C 182.509 205.661, 182.959 205.014, 182.441 205.032 C 181.924 205.049, 180.626 205.724, 179.559 206.532 M 185.250 206.689 C 186.213 206.941, 187.787 206.941, 188.750 206.689 C 189.713 206.438, 188.925 206.232, 187 206.232 C 185.075 206.232, 184.287 206.438, 185.250 206.689 M 174 209 C 173.175 209.533, 172.950 209.969, 173.500 209.969 C 174.050 209.969, 175.175 209.533, 176 209 C 176.825 208.467, 177.050 208.031, 176.500 208.031 C 175.950 208.031, 174.825 208.467, 174 209 M 169.813 210.683 C 170.534 210.972, 171.397 210.936, 171.729 210.604 C 172.061 210.272, 171.471 210.036, 170.417 210.079 C 169.252 210.127, 169.015 210.364, 169.813 210.683 M 397.500 212 C 397.160 212.550, 397.359 213, 397.941 213 C 398.523 213, 399 212.550, 399 212 C 399 211.450, 398.802 211, 398.559 211 C 398.316 211, 397.840 211.450, 397.500 212 M 396.079 216.583 C 396.127 217.748, 396.364 217.985, 396.683 217.188 C 396.972 216.466, 396.936 215.603, 396.604 215.271 C 396.272 214.939, 396.036 215.529, 396.079 216.583 M 159.954 218.086 C 159.340 219.233, 159.026 220.360, 159.257 220.590 C 159.487 220.820, 160.189 219.882, 160.816 218.504 C 162.194 215.480, 161.523 215.154, 159.954 218.086 M 185 218.059 C 185 218.641, 185.450 218.840, 186 218.500 C 186.550 218.160, 187 217.684, 187 217.441 C 187 217.198, 186.550 217, 186 217 C 185.450 217, 185 217.477, 185 218.059 M 203.813 218.683 C 204.534 218.972, 205.397 218.936, 205.729 218.604 C 206.061 218.272, 205.471 218.036, 204.417 218.079 C 203.252 218.127, 203.015 218.364, 203.813 218.683 M 42.537 221.349 C 40.871 222.568, 40.999 222.654, 43.858 222.234 C 45.600 221.979, 47.271 221.371, 47.571 220.885 C 48.430 219.496, 44.586 219.851, 42.537 221.349 M 383.667 224.667 C 383.300 225.033, 383 225.798, 383 226.367 C 383 226.993, 383.466 226.934, 384.183 226.217 C 384.834 225.566, 385.134 224.801, 384.850 224.517 C 384.566 224.232, 384.033 224.300, 383.667 224.667 M 412.252 227.500 C 412.263 229.700, 412.468 230.482, 412.707 229.238 C 412.946 227.994, 412.937 226.194, 412.687 225.238 C 412.437 224.282, 412.241 225.300, 412.252 227.500 M 240 227.441 C 240 229.753, 241.724 230.165, 242.293 227.989 C 242.630 226.700, 242.318 226, 241.406 226 C 240.633 226, 240 226.648, 240 227.441 M 0.272 232 C 0.272 234.475, 0.467 235.488, 0.706 234.250 C 0.944 233.012, 0.944 230.988, 0.706 229.750 C 0.467 228.512, 0.272 229.525, 0.272 232 M 69.079 231.583 C 69.127 232.748, 69.364 232.985, 69.683 232.188 C 69.972 231.466, 69.936 230.603, 69.604 230.271 C 69.272 229.939, 69.036 230.529, 69.079 231.583 M 6.750 232.689 C 5.787 232.941, 5 233.564, 5 234.073 C 5 235.138, 7.452 235.253, 10.835 234.348 C 12.578 233.881, 12.831 233.508, 11.835 232.877 C 10.423 231.982, 9.576 231.951, 6.750 232.689 M 34.752 240.750 C 34.551 241.162, 34.691 243.075, 35.062 245 L 35.737 248.500 35.868 244.250 C 35.992 240.261, 35.596 239.019, 34.752 240.750 M 37.063 243.050 C 37.123 246.292, 37.185 246.354, 38.094 244.080 C 38.734 242.478, 38.713 241.313, 38.030 240.630 C 37.323 239.923, 37.020 240.682, 37.063 243.050 M 376.137 246.073 C 374.837 246.593, 369.437 247.403, 364.137 247.872 C 354.990 248.682, 354.836 248.732, 361.114 248.863 C 368.397 249.014, 377.877 247.523, 379.415 245.985 C 380.638 244.762, 379.323 244.797, 376.137 246.073 M 2 248.391 C 2 248.605, 3.575 248.965, 5.500 249.190 C 7.425 249.415, 9 249.239, 9 248.799 C 9 248.360, 7.425 248, 5.500 248 C 3.575 248, 2 248.176, 2 248.391 M 68.079 249.583 C 68.127 250.748, 68.364 250.985, 68.683 250.188 C 68.972 249.466, 68.936 248.603, 68.604 248.271 C 68.272 247.939, 68.036 248.529, 68.079 249.583 M 347.750 248.662 C 348.438 248.940, 349.563 248.940, 350.250 248.662 C 350.938 248.385, 350.375 248.158, 349 248.158 C 347.625 248.158, 347.063 248.385, 347.750 248.662 M 10.500 250 C 10.840 250.550, 11.316 251, 11.559 251 C 11.802 251, 12 250.550, 12 250 C 12 249.450, 11.523 249, 10.941 249 C 10.359 249, 10.160 249.450, 10.500 250" stroke="none" fill="black" fill-rule="evenodd"/>
</svg>