<svg xmlns="http://www.w3.org/2000/svg" width="446" height="251" viewBox="0 0 446 251" version="1.1">
	<path d="M 2.385 24.750 C 2.771 38.363, 3.472 51.075, 3.941 53 L 4.795 56.500 4.997 53 C 5.185 49.746, 5.256 49.676, 6 52 C 6.790 54.466, 6.802 54.469, 6.900 52.191 C 6.955 50.921, 7.383 50.119, 7.852 50.408 C 8.973 51.101, 10.410 46.019, 13.058 32 C 15.200 20.666, 17.937 13.289, 20.295 12.499 C 20.958 12.277, 22.395 11.961, 23.489 11.798 C 25.566 11.487, 27.957 6.410, 27.985 2.250 C 28 0.030, 27.825 -0, 14.841 -0 L 1.682 -0 2.385 24.750 M 29.158 2 C 29.158 3.375, 29.385 3.938, 29.662 3.250 C 29.940 2.563, 29.940 1.438, 29.662 0.750 C 29.385 0.062, 29.158 0.625, 29.158 2 M 30.637 35.250 C 30.275 54.638, 29.693 85.305, 29.343 103.400 C 28.912 125.651, 29.036 136.096, 29.726 135.670 C 30.348 135.285, 30.999 124.816, 31.398 108.770 C 32.595 60.638, 33.973 16.594, 34.542 8.250 C 35.063 0.608, 34.964 -0, 33.200 -0 C 31.376 -0, 31.268 1.487, 30.637 35.250 M 39.358 3.750 C 39.699 5.813, 40.051 8.625, 40.139 10 C 40.228 11.375, 40.581 10.475, 40.924 8 C 41.357 4.880, 41.797 8.520, 42.357 19.867 C 42.922 31.292, 42.839 36.561, 42.083 37.317 C 40.875 38.525, 40.798 38.229, 40.825 32.500 L 40.844 28.500 40.028 33 C 39.408 36.415, 39.547 37.768, 40.606 38.610 C 41.703 39.484, 42.044 44.060, 42.208 60.110 L 42.416 80.500 43 66 L 43.584 51.500 44.032 66 C 44.279 73.975, 44.405 84.100, 44.314 88.500 C 44.182 94.849, 44.312 95.675, 44.946 92.500 C 45.385 90.300, 46.048 79.275, 46.419 68 C 46.996 50.479, 47.378 46.951, 49.047 43.719 C 50.121 41.640, 51 38.882, 51 37.592 C 51 36.301, 51.675 34.685, 52.500 34 C 53.325 33.315, 54 32.319, 54 31.785 C 54 31.252, 54.900 29.671, 56 28.273 L 58 25.730 58 28.924 C 58 30.799, 58.413 31.863, 59 31.500 C 59.550 31.160, 60 29.334, 60 27.441 C 60 25.548, 60.385 24, 60.856 24 C 61.326 24, 62.001 20.738, 62.355 16.750 C 62.708 12.762, 63.282 7.362, 63.629 4.750 L 64.260 -0 51.499 -0 L 38.738 0 39.358 3.750 M 66.669 3.250 C 67.536 7.807, 68 7.952, 68 3.667 C 68 1.650, 67.561 -0, 67.025 -0 C 66.465 -0, 66.313 1.383, 66.669 3.250 M 70.292 2.962 C 70.907 4.591, 71.597 5.737, 71.825 5.508 C 72.539 4.795, 71.009 -0, 70.068 0 C 69.576 0, 69.677 1.333, 70.292 2.962 M 72.035 0.628 C 72.055 1.107, 72.714 2.625, 73.500 4 C 74.846 6.355, 74.931 6.377, 74.965 4.372 C 74.984 3.202, 74.325 1.685, 73.500 1 C 72.675 0.315, 72.016 0.148, 72.035 0.628 M 76.612 3.250 C 76.920 5.038, 77.364 7.113, 77.598 7.861 C 77.873 8.744, 77.487 9.017, 76.499 8.638 C 74.902 8.025, 74.938 8.556, 77.060 16.906 C 77.536 18.780, 77.629 20.791, 77.268 21.375 C 76.907 21.960, 76.789 26.727, 77.006 31.969 C 77.222 37.211, 77.412 46.337, 77.426 52.250 C 77.441 58.163, 77.705 63, 78.013 63 C 78.322 63, 78.634 63.788, 78.707 64.750 C 78.820 66.240, 78.109 66.449, 73.922 66.154 C 68.022 65.738, 61.001 69.305, 57.997 74.245 C 55.161 78.909, 53.685 86.201, 54.778 90.157 C 55.384 92.352, 55.346 94.089, 54.670 95.162 C 53.078 97.685, 55.755 107.640, 59.642 113.649 C 62.459 118.003, 65 123.144, 65 124.488 C 65 124.684, 63.426 125.364, 61.503 125.999 C 59.580 126.634, 57.380 128.048, 56.614 129.141 C 55.123 131.270, 55.549 135, 57.283 135 C 57.861 135, 58.030 135.303, 57.660 135.673 C 56.587 136.747, 63.784 142.774, 67.672 144.057 C 69.622 144.700, 72.742 144.979, 74.607 144.676 C 78.270 144.082, 87.246 138.206, 86.452 136.922 C 86.185 136.491, 86.425 135.856, 86.984 135.510 C 87.543 135.165, 88 133.859, 88 132.608 C 88 131.357, 88.297 130.036, 88.661 129.672 C 89.587 128.747, 89.663 123, 88.750 123 C 88.338 123, 88 122.325, 88 121.500 C 88 120.675, 88.436 120, 88.969 120 C 89.501 120, 89.675 119.317, 89.355 118.482 C 89.034 117.647, 89.357 115.552, 90.072 113.826 L 91.372 110.687 92.458 114.557 C 93.344 117.715, 94.104 118.542, 96.591 119.050 C 98.267 119.393, 100.958 120.395, 102.569 121.278 C 104.181 122.160, 107.750 123.601, 110.500 124.479 C 113.250 125.358, 118.596 127.760, 122.379 129.818 C 128.253 133.012, 129.805 134.463, 133.002 139.750 C 137.450 147.107, 144.542 168.047, 145.448 176.500 C 145.802 179.800, 147.025 186.658, 148.167 191.741 C 149.988 199.850, 150.086 201.564, 148.968 205.741 C 148.267 208.358, 147.382 212.750, 147 215.500 C 146.438 219.552, 142.828 237.886, 140.454 248.750 C 139.989 250.874, 140.276 251, 145.556 251 L 151.151 251 150.832 247.960 C 150.647 246.202, 151.073 244.573, 151.840 244.099 C 152.893 243.448, 152.824 243.147, 151.510 242.642 C 150.001 242.063, 149.993 241.864, 151.426 240.431 C 154.026 237.831, 153.352 236.011, 149.750 235.902 C 146.615 235.807, 146.659 235.755, 151 234.418 L 155.500 233.033 150 233.470 L 144.500 233.908 148 232.431 C 153.899 229.942, 157.607 227.957, 155.500 228.415 C 154.400 228.655, 151.925 229.103, 150 229.410 C 146.521 229.967, 146.526 229.958, 150.940 227.864 C 153.382 226.706, 157.046 225.535, 159.082 225.262 L 162.784 224.766 163.939 230.133 C 164.574 233.085, 165.364 238.987, 165.695 243.250 L 166.296 251 262.148 251 C 314.867 251, 358 250.733, 358 250.408 C 358 250.082, 357.100 248.671, 356 247.273 C 354.900 245.874, 354 244.116, 354 243.365 C 354 242.614, 353.438 241.963, 352.750 241.918 C 352.063 241.874, 353.072 241.153, 354.992 240.317 L 358.485 238.796 361.821 242.648 C 364.652 245.918, 364.891 246.554, 363.399 246.858 C 361.629 247.218, 359 249.359, 359 250.439 C 359 250.759, 378.592 250.904, 402.538 250.761 L 446.076 250.500 446.620 232.464 C 447.157 214.683, 447.135 214.429, 445.082 214.429 C 442.553 214.429, 442.322 215.698, 444.750 216.254 C 445.714 216.475, 444.479 217.096, 442 217.636 C 438.240 218.456, 437.538 218.971, 437.731 220.770 C 437.888 222.225, 437.524 222.755, 436.609 222.403 C 435.620 222.024, 435.387 222.574, 435.744 224.442 C 436.371 227.720, 435.239 227.758, 434 224.500 C 433.469 223.104, 432.266 222.014, 431.275 222.032 C 429.657 222.061, 429.643 222.173, 431.123 223.299 C 432.020 223.982, 432.928 226.452, 433.155 228.823 L 433.564 233.112 427.032 232.433 C 419.208 231.619, 418.721 231.390, 419.946 229.101 C 420.469 228.123, 420.643 226.351, 420.332 225.162 C 419.821 223.208, 420.158 223, 423.824 223 C 426.056 223, 428.160 222.550, 428.500 222 C 428.868 221.405, 427.677 221, 425.559 221 C 423.602 221, 422 220.639, 422 220.197 C 422 219.756, 424.587 219.692, 427.750 220.057 C 430.912 220.421, 433.657 220.587, 433.849 220.427 C 434.377 219.986, 423.898 217, 421.818 217 C 420.818 217, 420 216.502, 420 215.893 C 420 215.284, 420.603 215.018, 421.341 215.300 C 422.078 215.583, 423.276 215.447, 424.003 214.998 C 425.066 214.341, 424.999 213.856, 423.662 212.519 C 422.748 211.605, 421.990 210.327, 421.978 209.679 C 421.966 209.030, 421.037 207.375, 419.915 206 C 418.177 203.870, 417.949 203.796, 418.379 205.500 C 418.891 207.533, 419.298 212.619, 419.106 214.579 C 418.938 216.291, 410.169 219.871, 402.101 221.522 C 398.031 222.354, 394.520 222.853, 394.297 222.630 C 394.074 222.407, 397.403 221.449, 401.696 220.500 C 405.988 219.551, 410.517 218.248, 411.760 217.604 C 414.035 216.426, 411.617 216.379, 395.241 217.281 C 391.910 217.465, 390.858 217.129, 390.418 215.741 C 389.643 213.299, 383.628 210.415, 376.042 208.848 C 371.518 207.913, 369.558 207.028, 369.229 205.768 C 368.975 204.796, 368.294 204, 367.717 204 C 367.139 204, 366.977 204.311, 367.357 204.690 C 368.333 205.666, 362.860 207.758, 360.750 207.216 C 359.788 206.969, 359 206.129, 359 205.350 C 359 204.571, 357.853 201.670, 356.451 198.904 C 350.708 187.571, 351.323 185.599, 357.746 194.750 C 359.966 197.912, 362.720 201.347, 363.866 202.382 C 365.922 204.239, 365.963 204.228, 366.975 201.567 C 368.465 197.648, 368.231 192.436, 366.500 191 C 365.675 190.315, 365 188.967, 365 188.004 C 365 186.012, 360.271 177.417, 355.313 170.396 C 354.107 168.689, 351.268 163.514, 349.004 158.896 C 346.739 154.278, 344.192 149.230, 343.343 147.677 C 341.191 143.738, 340.404 130.200, 341.997 124.510 C 343.231 120.102, 347.726 114.980, 350.327 115.017 C 350.972 115.026, 353.193 116.752, 355.263 118.853 C 358.832 122.475, 365.357 125.515, 367.165 124.398 C 367.624 124.114, 368 124.350, 368 124.922 C 368 125.494, 366.875 126.244, 365.500 126.589 C 364.125 126.934, 363 127.298, 363 127.397 C 363 127.496, 363.885 129.314, 364.968 131.436 C 366.050 133.559, 366.698 135.679, 366.409 136.148 C 366.119 136.617, 366.584 137, 367.441 137 C 369.275 137, 369.355 136.532, 367.965 133.934 C 367.150 132.412, 367.257 132, 368.465 132 C 369.333 132, 370 132.869, 370 134 C 370 135.100, 370.375 136, 370.833 136 C 372.600 136, 372.869 134.644, 371.600 132.123 C 369.341 127.632, 368.867 124.333, 370.481 124.333 C 372.027 124.333, 375.385 131.568, 374.502 132.997 C 373.654 134.369, 375.681 135.118, 378.397 134.437 C 379.865 134.068, 381.058 132.928, 381.307 131.656 C 381.721 129.536, 381.730 129.537, 381.864 131.750 C 381.973 133.553, 382.596 134, 385 134 C 387.468 134, 387.986 133.601, 387.921 131.750 C 387.878 130.512, 387.615 130.063, 387.338 130.750 C 387.060 131.437, 386.421 132, 385.917 132 C 384.539 132, 384.814 129.242, 386.250 128.659 C 387.223 128.265, 387.200 127.942, 386.147 127.203 C 383.794 125.554, 386.462 122.303, 390.725 121.623 C 392.801 121.291, 396.300 120.745, 398.500 120.409 L 402.500 119.798 405.646 126.649 C 407.714 131.151, 408.470 133.896, 407.853 134.654 C 407.337 135.289, 407.207 136.977, 407.565 138.404 C 407.973 140.029, 407.802 141, 407.108 141 C 406.499 141, 405.993 140.213, 405.985 139.250 C 405.972 137.786, 405.818 137.740, 405.042 138.966 C 404.001 140.612, 405.456 143, 407.500 143 C 408.191 143, 409.454 141.988, 410.307 140.750 L 411.859 138.500 411.272 140.906 C 410.863 142.581, 411.037 143.095, 411.842 142.597 C 413.501 141.572, 413.291 126.682, 411.525 120.045 C 410.726 117.045, 409.174 113.374, 408.075 111.887 C 406.433 109.667, 406.332 109.086, 407.510 108.634 C 408.299 108.332, 410.272 108.548, 411.896 109.114 C 414.335 109.964, 414.968 110.869, 415.535 114.321 C 416.193 118.325, 420.720 126.887, 422.219 126.963 C 423.142 127.010, 422.060 123.944, 420.466 122 C 419.790 121.175, 418.904 119.375, 418.498 118 C 417.965 116.192, 418.775 116.814, 421.426 120.250 C 425.333 125.313, 427.358 126.722, 424.535 122.413 C 423.603 120.991, 423.132 119.535, 423.488 119.178 C 424.388 118.278, 427.803 122.958, 428.496 126.040 C 429.316 129.690, 432.559 134.694, 434.924 135.959 C 436.595 136.854, 436.851 136.776, 436.371 135.523 C 436.049 134.685, 436.284 134, 436.893 134 C 437.502 134, 438 133.473, 438 132.829 C 438 132.185, 438.615 130.947, 439.367 130.079 C 440.119 129.210, 441.009 126.684, 441.345 124.464 C 441.877 120.948, 441.710 120.429, 440.049 120.429 C 439.001 120.429, 438.223 120.833, 438.321 121.327 C 438.420 121.822, 437.581 122.383, 436.457 122.575 C 434.971 122.829, 433.905 121.980, 432.546 119.456 C 431.519 117.549, 430.450 116.216, 430.171 116.496 C 429.892 116.775, 430.270 118.136, 431.012 119.522 C 431.988 121.346, 432.058 122.342, 431.265 123.135 C 430.472 123.928, 429.476 123.130, 427.651 120.239 C 424.927 115.923, 420.526 112, 418.410 112 C 417.685 112, 416.794 110.419, 416.431 108.486 C 416.069 106.553, 415.120 104.607, 414.323 104.161 C 412.232 102.991, 415.024 100.866, 419.802 99.990 L 423.500 99.312 420.500 98.130 C 416.957 96.733, 411.976 94.428, 406.674 91.732 C 404.569 90.662, 401.720 89.485, 400.342 89.116 C 398.141 88.528, 397.793 87.812, 397.476 83.223 C 397.156 78.594, 397.336 78, 399.057 78 C 400.126 78, 401 78.450, 401 79 C 401 79.550, 401.450 80, 402 80 C 404.320 80, 402.750 77.108, 399.888 76.111 C 397.748 75.365, 396.956 74.558, 397.351 73.527 C 397.667 72.703, 396.484 69.211, 394.722 65.768 C 391.599 59.665, 391.504 59.583, 390.965 62.504 C 390.521 64.913, 390.862 65.751, 392.706 66.782 C 396.496 68.900, 395.354 69.700, 388.264 69.895 C 384.558 69.997, 380.582 70.318, 379.427 70.608 C 377.608 71.064, 377.378 70.757, 377.710 68.317 C 377.974 66.381, 377.344 64.646, 375.696 62.768 C 374.377 61.265, 373.002 60.249, 372.641 60.509 C 372.279 60.770, 372.420 60.465, 372.953 59.831 C 373.486 59.197, 374.952 58.533, 376.211 58.356 C 377.470 58.179, 379.814 57.855, 381.421 57.636 C 383.027 57.417, 385.645 57.611, 387.237 58.068 C 391.909 59.408, 390.033 56.768, 384.917 54.804 C 371.376 49.607, 358 57.680, 358 71.052 L 358 74.859 342.008 74.680 C 333.212 74.581, 326.012 74.136, 326.008 73.691 C 326.004 73.246, 325.550 73.160, 325 73.500 C 324.450 73.840, 324 73.593, 324 72.952 C 324 72.311, 324.668 72.042, 325.485 72.356 C 328.518 73.520, 330.107 66.041, 328.002 60.505 C 327.453 59.061, 326.553 58.158, 326.002 58.499 C 325.451 58.839, 325 58.364, 325 57.442 C 325 56.259, 324.412 55.920, 322.999 56.290 C 321.898 56.578, 321.249 56.405, 321.558 55.907 C 321.866 55.408, 321.641 55, 321.059 55 C 320.477 55, 320 55.402, 320 55.893 C 320 56.384, 319.292 57.058, 318.426 57.390 C 316.719 58.045, 314 55.904, 314 53.905 C 314 53.224, 313.736 52.930, 313.414 53.252 C 313.092 53.574, 311.742 52.893, 310.414 51.739 C 308.686 50.235, 308 48.602, 308 45.986 C 308 41.278, 307.371 40.757, 303.873 42.566 C 300.943 44.081, 300.268 45.430, 301.926 46.454 C 302.473 46.793, 302.502 48.250, 301.996 50.013 C 301.226 52.699, 302.334 54.497, 303.186 51.943 C 303.746 50.261, 307.132 52.077, 306.789 53.876 C 306.344 56.213, 301.894 56.575, 300.306 54.404 C 298.663 52.157, 298.554 44, 300.167 44 C 300.808 44, 301.049 43.716, 300.702 43.369 C 300.355 43.021, 300.520 41.896, 301.070 40.869 C 301.845 39.421, 301.724 39, 300.535 39 C 299.691 39, 298.980 39.788, 298.955 40.750 C 298.930 41.712, 297.874 44.481, 296.607 46.901 C 293.938 52.004, 292.175 50.911, 294.417 45.544 C 295.732 42.397, 295.729 42, 294.390 42 C 293.450 42, 293.165 41.529, 293.633 40.750 C 294.232 39.753, 294.074 39.751, 292.850 40.741 C 292.006 41.424, 291.020 41.687, 290.658 41.325 C 290.051 40.718, 289.622 42.757, 289.730 45.739 C 289.754 46.421, 289.375 46.732, 288.887 46.430 C 288.399 46.129, 288 47.034, 288 48.441 C 288 49.848, 287.550 51, 287 51 C 285.528 51, 285.842 47.793, 287.532 45.559 C 290.087 42.181, 289.147 41.892, 284.036 44.482 C 278.412 47.332, 277.010 49.325, 276.836 54.723 C 276.672 59.813, 278.094 69, 279.046 69 C 279.468 69, 279.576 69.905, 279.287 71.011 C 278.671 73.366, 274.357 74.757, 272.727 73.127 C 271.891 72.291, 271.975 72, 273.050 72 C 274.181 72, 274.471 70.572, 274.368 65.500 C 274.199 57.113, 274.180 57, 273 57 C 272.450 57, 271.993 58.237, 271.985 59.750 C 271.964 63.400, 270.928 64.770, 268.500 64.356 C 260.117 62.928, 259 62.865, 259 63.819 C 259 66.198, 265.271 70.063, 266.742 68.591 C 267.067 68.266, 266.610 68, 265.726 68 C 264.841 68, 263.820 67.518, 263.456 66.929 C 263.024 66.230, 263.931 65.969, 266.069 66.179 C 268.705 66.437, 269.405 66.988, 269.657 69 C 270.130 72.775, 268.714 74.452, 266.193 73.103 C 262.671 71.218, 261.611 71.757, 263.416 74.513 C 265.012 76.948, 264.983 77.056, 262.466 78.013 C 258.829 79.396, 257.170 79.187, 259.250 77.608 C 261.575 75.843, 261.456 75.325, 258.750 75.421 C 256.633 75.495, 256.510 75.135, 256.670 69.298 L 256.841 63.095 251.170 62.729 C 246.849 62.450, 246.035 62.173, 247.750 61.565 C 250.399 60.625, 250.761 56.590, 248.468 53.559 C 247.661 52.491, 247 50.354, 247 48.809 C 247 47.009, 246.474 46, 245.535 46 C 243.513 46, 242 49.181, 242 53.434 C 242 55.395, 241.550 57, 241 57 C 240.450 57, 240 56.527, 240 55.949 C 240 55.371, 238.456 54.253, 236.568 53.464 C 234.681 52.676, 232.844 51.556, 232.485 50.976 C 232.088 50.333, 229.429 50.109, 225.667 50.402 C 217.096 51.070, 213.713 52.012, 212.193 54.157 C 211.475 55.171, 210.028 56, 208.978 56 C 206.581 56, 205.451 58.155, 204.531 64.487 C 204.132 67.230, 202.758 71.280, 201.477 73.487 C 200.196 75.694, 198.414 80.365, 197.517 83.866 C 195.005 93.667, 191.951 101.155, 190.658 100.683 C 190.021 100.451, 188.825 100.813, 188 101.487 C 186.226 102.938, 178.448 105.211, 175.257 105.212 C 174.023 105.212, 173.262 105.615, 173.566 106.106 C 173.869 106.598, 172.741 107, 171.059 107 C 169.377 107, 168 107.477, 168 108.059 C 168 108.641, 167.523 108.823, 166.940 108.463 C 166.265 108.046, 166.501 107.354, 167.588 106.559 C 169.164 105.407, 169.134 105.268, 167.194 104.761 C 165.374 104.285, 165.171 103.693, 165.685 100.356 C 166.535 94.830, 167.835 92.724, 170.040 93.300 C 172.464 93.934, 174.524 90.792, 175.495 84.978 C 175.907 82.515, 177.089 79.306, 178.122 77.846 C 179.155 76.386, 180 74.698, 180 74.096 C 180 73.406, 182.593 73, 187 73 C 191 73, 194 72.571, 194 72 C 194 71.440, 191.248 71, 187.743 71 L 181.486 71 181.839 66.553 C 182.210 61.895, 178.837 53.258, 176.261 52.270 C 175.568 52.004, 175 51.133, 175 50.334 C 175 49.535, 174.550 49.160, 174 49.500 C 173.450 49.840, 173 49.672, 173 49.126 C 173 48.581, 172.100 47.849, 171 47.500 C 169.900 47.151, 169 46.415, 169 45.865 C 169 45.301, 169.925 45.159, 171.125 45.540 C 172.555 45.994, 173.027 45.852, 172.566 45.107 C 172.190 44.498, 171.121 43.984, 170.191 43.965 C 169.261 43.945, 167.375 43.251, 166 42.423 C 164.085 41.269, 163.968 41.032, 165.500 41.411 C 172.293 43.089, 173 43.155, 173 42.108 C 173 41.499, 172.073 41, 170.941 41 C 169.809 41, 169.160 40.550, 169.500 40 C 169.840 39.450, 169.679 39, 169.142 39 C 168.606 39, 167.940 39.562, 167.662 40.250 C 167.274 41.211, 167.140 41.198, 167.079 40.191 C 167.036 39.471, 166.550 39.160, 166 39.500 C 165.450 39.840, 165 39.651, 165 39.079 C 165 38.444, 166.843 38.216, 169.750 38.491 C 173.082 38.807, 173.903 38.673, 172.500 38.041 C 171.296 37.499, 171.064 37.113, 171.917 37.070 C 172.696 37.032, 173.095 36.762, 172.804 36.471 C 172.513 36.180, 168.501 36.609, 163.888 37.424 C 150.701 39.755, 139.104 41.919, 131.500 43.467 C 127.650 44.251, 117.075 46.290, 108 47.998 C 98.925 49.706, 90.713 51.335, 89.750 51.619 C 88.187 52.080, 88 51.288, 88 44.225 C 88 39.875, 88.297 30.128, 88.659 22.565 L 89.319 8.814 91.909 9.405 C 93.334 9.730, 97.200 10.613, 100.500 11.367 C 103.800 12.121, 116.625 15.105, 129 17.999 C 164.583 26.318, 175.950 28.728, 175.397 27.833 C 175.114 27.375, 175.921 26.948, 177.191 26.884 C 178.885 26.799, 179.034 26.646, 177.750 26.311 C 176.787 26.059, 176 25.436, 176 24.927 C 176 24.417, 174.988 23.993, 173.750 23.985 C 171.931 23.972, 171.787 23.784, 173 23 C 173.825 22.467, 176.188 22.024, 178.250 22.015 C 181.274 22.003, 182 21.629, 182 20.083 C 182 19.029, 181.438 17.966, 180.750 17.720 C 180.063 17.475, 179.862 16.888, 180.304 16.416 C 180.747 15.944, 181.513 16.213, 182.008 17.013 C 182.729 18.179, 183.611 17.677, 186.453 14.484 C 188.403 12.293, 189.999 10.130, 189.999 9.679 C 190 9.227, 190.734 8.123, 191.632 7.225 C 193.141 5.716, 193.211 5.778, 192.566 8.047 C 192.092 9.717, 192.170 10.065, 192.813 9.137 C 193.611 7.986, 193.837 7.986, 194.267 9.137 C 194.547 9.887, 194.542 8.588, 194.256 6.250 C 193.914 3.447, 194.122 2, 194.868 2 C 195.491 2, 196 1.550, 196 1 C 196 0.344, 175.342 -0, 136.025 -0 L 76.050 -0 76.612 3.250 M 260.413 17.500 C 260.414 27.400, 260.564 31.315, 260.746 26.199 C 260.928 21.084, 260.927 12.984, 260.744 8.199 C 260.561 3.415, 260.412 7.600, 260.413 17.500 M 433.500 1 C 433.840 1.550, 434.751 2, 435.524 2 C 436.297 2, 437.374 2.830, 437.917 3.845 C 438.460 4.859, 440.501 6.907, 442.452 8.396 L 446 11.102 446 5.551 L 446 0 439.441 0 C 435.323 0, 433.112 0.372, 433.500 1 M 91.118 14.715 C 91.235 18.435, 91.249 18.449, 91.961 15.500 C 92.824 11.926, 93.747 13.506, 94.297 19.500 C 94.621 23.029, 94.684 22.886, 94.832 18.285 C 94.970 13.992, 94.647 12.881, 93 12 C 91.157 11.013, 91.009 11.226, 91.118 14.715 M 98.015 17.191 C 98.007 19.221, 98.450 21.160, 99 21.500 C 100.290 22.297, 100.290 16.996, 99 15 C 98.277 13.882, 98.027 14.440, 98.015 17.191 M 104 14.345 C 104 14.705, 104.900 15.900, 106 17 C 107.100 18.100, 108 18.620, 108 18.155 C 108 17.690, 107.100 16.495, 106 15.500 C 104.900 14.505, 104 13.985, 104 14.345 M 111.336 23 C 111.336 27.125, 111.513 28.813, 111.728 26.750 C 111.944 24.688, 111.944 21.313, 111.728 19.250 C 111.513 17.188, 111.336 18.875, 111.336 23 M 91.079 21.583 C 91.127 22.748, 91.364 22.985, 91.683 22.188 C 91.972 21.466, 91.936 20.603, 91.604 20.271 C 91.272 19.939, 91.036 20.529, 91.079 21.583 M 108.286 24.500 C 108.294 27.250, 108.488 28.256, 108.718 26.736 C 108.947 25.216, 108.941 22.966, 108.704 21.736 C 108.467 20.506, 108.279 21.750, 108.286 24.500 M 113.596 23.390 C 113.903 24.191, 114.859 25.116, 115.720 25.446 C 118.157 26.381, 118.034 25.672, 115.421 23.718 C 113.626 22.375, 113.176 22.295, 113.596 23.390 M 125.980 23.524 C 125.284 24.362, 124.909 25.242, 125.145 25.479 C 125.382 25.715, 126.125 25.030, 126.796 23.955 C 128.248 21.630, 127.764 21.375, 125.980 23.524 M 133.158 24 C 133.158 25.375, 133.385 25.938, 133.662 25.250 C 133.940 24.563, 133.940 23.438, 133.662 22.750 C 133.385 22.063, 133.158 22.625, 133.158 24 M 135 22.378 C 135 22.585, 135.787 23.373, 136.750 24.128 C 138.336 25.371, 138.371 25.336, 137.128 23.750 C 135.821 22.084, 135 21.555, 135 22.378 M 128.200 25.200 C 126.587 26.813, 126.688 29.205, 128.468 31.559 C 129.826 33.355, 129.939 33.144, 129.968 28.750 C 130.003 23.554, 129.951 23.449, 128.200 25.200 M 97.252 29 C 97.241 31.475, 97.438 32.712, 97.689 31.750 C 97.941 30.788, 98.789 30, 99.573 30 C 100.496 30, 100.952 29.029, 100.864 27.250 C 100.747 24.892, 100.666 24.821, 100.294 26.750 C 100.056 27.988, 99.473 29, 99 29 C 98.527 29, 97.944 27.988, 97.706 26.750 C 97.467 25.512, 97.263 26.525, 97.252 29 M 122.343 33.500 C 122.346 37.900, 122.522 39.576, 122.733 37.224 C 122.945 34.872, 122.942 31.272, 122.727 29.224 C 122.512 27.176, 122.339 29.100, 122.343 33.500 M 171.750 26.662 C 172.438 26.940, 173.563 26.940, 174.250 26.662 C 174.938 26.385, 174.375 26.158, 173 26.158 C 171.625 26.158, 171.063 26.385, 171.750 26.662 M 91 30.441 C 91 32.334, 91.358 34.103, 91.796 34.374 C 92.234 34.645, 92.572 33.098, 92.546 30.936 C 92.521 28.775, 92.162 27.005, 91.750 27.003 C 91.338 27.001, 91 28.548, 91 30.441 M 118.543 28.931 C 118.226 29.443, 118.425 30.144, 118.984 30.490 C 119.543 30.835, 120 30.416, 120 29.559 C 120 27.802, 119.400 27.544, 118.543 28.931 M 177.750 28.662 C 178.438 28.940, 179.563 28.940, 180.250 28.662 C 180.938 28.385, 180.375 28.158, 179 28.158 C 177.625 28.158, 177.063 28.385, 177.750 28.662 M 124.830 36 C 124.605 39.575, 124.478 42.615, 124.549 42.756 C 124.621 42.897, 125.517 41.455, 126.542 39.551 C 128.275 36.334, 128.294 35.859, 126.823 32.795 L 125.240 29.500 124.830 36 M 103.182 33.802 C 103.316 35.561, 103.788 37, 104.232 37 C 104.675 37, 104.741 35.763, 104.378 34.250 C 103.430 30.297, 102.900 30.099, 103.182 33.802 M 442.813 32.683 C 443.534 32.972, 444.397 32.936, 444.729 32.604 C 445.061 32.272, 444.471 32.036, 443.417 32.079 C 442.252 32.127, 442.015 32.364, 442.813 32.683 M 110.684 34.750 C 110.446 35.163, 110.612 36.400, 111.055 37.500 C 111.497 38.600, 111.891 38.974, 111.930 38.332 C 111.968 37.689, 112.273 36.452, 112.607 35.582 C 113.206 34.021, 111.526 33.295, 110.684 34.750 M 90.252 38.500 C 90.263 40.700, 90.468 41.482, 90.707 40.238 C 90.946 38.994, 90.937 37.194, 90.687 36.238 C 90.437 35.282, 90.241 36.300, 90.252 38.500 M 175.750 35.662 C 176.438 35.940, 177.563 35.940, 178.250 35.662 C 178.938 35.385, 178.375 35.158, 177 35.158 C 175.625 35.158, 175.063 35.385, 175.750 35.662 M 118.250 37.949 C 116.888 40.154, 116.543 45.009, 117.750 44.985 C 119.710 44.945, 120.468 43.173, 120.006 39.713 C 119.538 36.207, 119.407 36.076, 118.250 37.949 M 93.079 38.583 C 93.127 39.748, 93.364 39.985, 93.683 39.188 C 93.972 38.466, 93.936 37.603, 93.604 37.271 C 93.272 36.939, 93.036 37.529, 93.079 38.583 M 107.669 40.250 C 108.536 44.807, 109 44.952, 109 40.667 C 109 38.650, 108.561 37, 108.025 37 C 107.465 37, 107.313 38.383, 107.669 40.250 M 178.813 37.683 C 179.534 37.972, 180.397 37.936, 180.729 37.604 C 181.061 37.272, 180.471 37.036, 179.417 37.079 C 178.252 37.127, 178.015 37.364, 178.813 37.683 M 251.750 38.707 C 247.561 40.104, 245.355 42, 247.918 42 C 248.423 42, 249.490 42.251, 250.289 42.558 C 251.088 42.864, 252.363 42.501, 253.121 41.752 C 253.879 41.002, 255.287 40.090, 256.250 39.725 C 257.950 39.082, 258.755 36.938, 257.250 37.062 C 256.837 37.096, 254.363 37.836, 251.750 38.707 M 96.158 41 C 96.158 42.375, 96.385 42.938, 96.662 42.250 C 96.940 41.563, 96.940 40.438, 96.662 39.750 C 96.385 39.063, 96.158 39.625, 96.158 41 M 103.543 39.931 C 103.226 40.443, 103.425 41.144, 103.984 41.490 C 104.543 41.835, 105 41.416, 105 40.559 C 105 38.802, 104.400 38.544, 103.543 39.931 M 128.204 41.045 C 127.431 42.283, 127.365 43, 128.023 43 C 128.595 43, 129.329 42.306, 129.655 41.457 C 130.555 39.111, 129.583 38.836, 128.204 41.045 M 94.079 42.583 C 94.127 43.748, 94.364 43.985, 94.683 43.188 C 94.972 42.466, 94.936 41.603, 94.604 41.271 C 94.272 40.939, 94.036 41.529, 94.079 42.583 M 95.500 46.513 C 93.300 48.428, 92.175 49.809, 93 49.581 C 93.825 49.353, 95.625 48.924, 97 48.627 C 98.870 48.223, 99.500 47.446, 99.500 45.544 C 99.500 44.145, 99.500 43.007, 99.500 43.015 C 99.500 43.023, 97.700 44.597, 95.500 46.513 M 101.667 43.667 C 100.516 44.817, 100.938 46, 102.500 46 C 103.325 46, 104 45.325, 104 44.500 C 104 42.938, 102.817 42.516, 101.667 43.667 M 105.500 46 C 105.160 46.550, 105.359 47, 105.941 47 C 106.523 47, 107 46.550, 107 46 C 107 45.450, 106.802 45, 106.559 45 C 106.316 45, 105.840 45.450, 105.500 46 M 176 48.878 C 176 49.360, 176.749 50.373, 177.664 51.128 C 179.172 52.372, 179.216 52.290, 178.129 50.250 C 176.889 47.923, 176 47.350, 176 48.878 M 295.574 52.667 C 295.222 53.584, 295.399 54.799, 295.967 55.367 C 296.678 56.078, 297 55.557, 297 53.700 C 297 50.615, 296.501 50.253, 295.574 52.667 M 315.581 52.649 C 314.733 54.859, 315.443 55.376, 316.906 53.613 C 317.616 52.758, 317.716 51.943, 317.153 51.595 C 316.634 51.274, 315.927 51.748, 315.581 52.649 M 155.059 58.034 C 153.166 59.090, 150.995 60.576, 150.235 61.337 C 149.057 62.515, 149.311 62.812, 151.947 63.339 C 154.076 63.765, 155.692 65.059, 157.120 67.479 C 159.420 71.376, 159.600 71.450, 162.597 69.715 C 165.295 68.152, 165.191 62.613, 162.425 60.520 C 161.366 59.719, 160.893 59.049, 161.372 59.032 C 161.852 59.014, 161.685 58.325, 161 57.500 C 159.465 55.651, 159.306 55.665, 155.059 58.034 M 296.333 59.588 C 296.333 60.462, 297.322 61.552, 298.530 62.012 C 299.739 62.471, 300.967 63.473, 301.261 64.238 C 301.586 65.085, 303.007 65.545, 304.897 65.414 C 306.604 65.296, 308 65.553, 308 65.985 C 308 66.417, 309.158 67.529, 310.573 68.456 C 313.051 70.080, 313.109 70.071, 312.121 68.226 C 310.932 66.005, 305.905 62.020, 301.300 59.648 C 297.304 57.590, 296.333 57.579, 296.333 59.588 M 223.311 61.250 C 221.935 63.092, 222.241 64.483, 224.780 67.916 C 226.452 70.177, 227.919 71.031, 230.280 71.116 C 232.073 71.181, 232.700 71.439, 231.695 71.700 C 228.524 72.522, 230.446 74.269, 234.886 74.600 C 239.158 74.919, 239.171 74.909, 237.669 72.617 C 236.839 71.351, 236.011 69.456, 235.830 68.407 C 235.648 67.358, 234.060 65.037, 232.300 63.250 C 228.987 59.886, 224.994 58.997, 223.311 61.250 M 287.220 64.178 C 288.816 65.360, 288.757 65.644, 286.402 68.102 L 283.863 70.752 288.432 71.437 C 293.478 72.194, 293.966 72.862, 291.022 74.984 C 288.868 76.537, 289.939 77.956, 293.288 77.985 C 294.789 77.998, 294.998 77.359, 294.593 74 C 294.328 71.800, 294.310 70, 294.553 70 C 295.551 70, 304.900 77.180, 305.353 78.295 C 305.622 78.958, 305.878 78.064, 305.921 76.309 C 305.964 74.554, 305.522 72.823, 304.938 72.462 C 304.354 72.101, 303.466 70.724, 302.963 69.403 C 302.461 68.081, 301.251 67.007, 300.275 67.015 C 298.921 67.027, 298.816 67.231, 299.834 67.876 C 300.897 68.550, 300.828 68.852, 299.494 69.364 C 297.510 70.125, 292 67.126, 292 65.284 C 292 64.578, 291.362 64, 290.582 64 C 289.802 64, 288.339 63.753, 287.332 63.452 C 285.625 62.941, 285.617 62.991, 287.220 64.178 M 298 65 C 298 65.550, 298.477 66, 299.059 66 C 299.641 66, 299.840 65.550, 299.500 65 C 299.160 64.450, 298.684 64, 298.441 64 C 298.198 64, 298 64.450, 298 65 M 143.209 67.829 C 141.952 71.436, 144.136 73.025, 150.236 72.941 C 153.966 72.890, 154.257 72.733, 152.559 71.691 C 151.491 71.036, 149.579 69.508, 148.309 68.295 C 146.720 66.778, 146 66.526, 146 67.486 C 146 68.254, 145.484 69.201, 144.854 69.590 C 144.048 70.089, 143.905 69.514, 144.373 67.649 C 145.256 64.132, 144.455 64.256, 143.209 67.829 M 137.500 70 C 137.840 70.550, 138.316 71, 138.559 71 C 138.802 71, 139 70.550, 139 70 C 139 69.450, 138.523 69, 137.941 69 C 137.359 69, 137.160 69.450, 137.500 70 M 248 71.500 C 248 73.408, 250.059 73.423, 252.559 71.532 C 254.395 70.143, 254.324 70.062, 251.250 70.032 C 249.014 70.010, 248 70.468, 248 71.500 M 89.410 74.685 C 91.066 77.188, 92.297 80.815, 92.764 84.569 C 93.401 89.690, 93.809 90.544, 95.751 90.820 C 98.874 91.263, 98.757 95.946, 95.528 99.784 C 91.789 104.228, 93.699 104.435, 98.604 100.118 C 102.589 96.609, 103.568 96.246, 110.720 95.621 C 121.675 94.663, 123.831 94.313, 127.109 92.955 C 129.571 91.935, 130 91.200, 130 88.001 C 130 83.019, 132.327 77.674, 135.627 75.078 C 137.100 73.920, 138.103 72.770, 137.856 72.523 C 137.609 72.276, 126.019 71.772, 112.100 71.402 L 86.793 70.730 89.410 74.685 M 139.131 75.053 C 137.686 79.200, 137.687 82.689, 139.134 83.583 C 139.920 84.069, 140.127 83.319, 139.808 81.142 C 139.457 78.757, 139.726 77.996, 140.923 77.985 C 142.307 77.971, 142.317 77.849, 141 76.985 C 139.881 76.250, 139.804 75.803, 140.697 75.224 C 141.400 74.768, 141.558 73.902, 141.079 73.127 C 140.500 72.190, 139.935 72.749, 139.131 75.053 M 154.500 73.354 C 149.988 75.941, 149.903 76.046, 151.263 77.406 C 153.225 79.367, 156.944 81.152, 157.874 80.578 C 159.043 79.855, 158.715 72.718, 157.500 72.438 C 156.950 72.311, 155.600 72.724, 154.500 73.354 M 242.583 75.750 C 243.546 81.110, 244.935 83.305, 244.956 79.500 C 244.978 75.511, 243.987 72, 242.838 72 C 242.312 72, 242.201 73.625, 242.583 75.750 M 379.694 72.644 C 380.350 72.911, 380.640 73.775, 380.337 74.565 C 379.783 76.009, 382.059 76.608, 383.318 75.349 C 384.057 74.610, 381.025 72.039, 379.500 72.111 C 378.950 72.137, 379.037 72.376, 379.694 72.644 M 393.500 74 C 393.160 74.550, 393.359 75, 393.941 75 C 394.523 75, 395 74.550, 395 74 C 395 73.450, 394.802 73, 394.559 73 C 394.316 73, 393.840 73.450, 393.500 74 M 77.046 75.914 C 75.587 78.641, 76.905 85, 78.931 85 C 79.849 85, 81.140 85.540, 81.800 86.200 C 83.930 88.330, 85.436 85.689, 84.166 82.048 C 83.571 80.340, 83.318 78.335, 83.603 77.591 C 83.930 76.741, 82.987 75.843, 81.067 75.173 C 78.476 74.270, 77.866 74.382, 77.046 75.914 M 223 75 C 223 75.550, 223.398 76, 223.883 76 C 224.369 76, 225.019 76.965, 225.327 78.144 C 225.748 79.753, 225.603 80.003, 224.744 79.144 C 222.930 77.330, 222 77.798, 222 80.525 C 222 82.315, 222.746 83.333, 224.565 84.025 C 228.012 85.335, 228.317 85.270, 227.589 83.371 C 227.063 82, 227.479 81.846, 230.232 82.394 C 232.029 82.752, 233.650 83.485, 233.833 84.023 C 234.017 84.560, 234.956 85, 235.921 85 C 237.237 85, 237.709 84.119, 237.808 81.481 C 237.930 78.231, 237.784 78.045, 235.895 79.056 C 234.034 80.052, 233.948 79.966, 234.947 78.098 C 235.839 76.431, 235.774 76.149, 234.600 76.600 C 233.805 76.905, 232.909 77.795, 232.609 78.577 C 231.666 81.034, 228.210 80.164, 226.341 77 C 224.583 74.025, 223 73.077, 223 75 M 271.310 76.947 C 270.963 78.351, 269.627 81.179, 268.340 83.230 C 265.477 87.795, 265.340 92.092, 267.981 94.483 C 269.538 95.892, 270.267 96.023, 271.386 95.095 C 272.963 93.786, 278.321 94.671, 277.441 96.095 C 277.141 96.580, 277.594 96.709, 278.448 96.382 C 279.302 96.054, 280 95.358, 280 94.834 C 280 94.310, 279.474 94.207, 278.830 94.605 C 278.006 95.115, 277.891 94.763, 278.444 93.414 C 278.874 92.361, 279.453 90.713, 279.730 89.750 C 280.007 88.787, 280.631 88, 281.117 88 C 282.419 88, 282.198 85.481, 280.418 80.038 C 278.983 75.652, 278.513 75.162, 275.387 74.797 C 272.371 74.445, 271.860 74.714, 271.310 76.947 M 387.882 75.250 C 387.816 75.938, 387.811 76.821, 387.870 77.214 C 387.928 77.607, 387.310 77.673, 386.496 77.360 C 385.658 77.039, 384.750 77.488, 384.401 78.396 C 384.063 79.278, 382.709 80, 381.393 80 C 379.933 80, 379 80.585, 379 81.500 C 379 82.325, 379.563 83.007, 380.250 83.015 C 381.083 83.026, 381 83.354, 380 84 C 378.865 84.734, 379.305 84.973, 381.809 84.985 C 383.764 84.994, 384.865 84.591, 384.500 84 C 384.160 83.450, 384.584 83, 385.441 83 C 386.298 83, 387 83.480, 387 84.067 C 387 84.727, 387.859 84.852, 389.250 84.394 C 390.488 83.987, 392.438 83.720, 393.583 83.802 C 396.528 84.011, 396.246 81.044, 393.212 79.890 C 391.544 79.256, 390.307 79.330, 389.354 80.121 C 388.583 80.761, 387.638 80.971, 387.255 80.588 C 386.627 79.960, 388.207 78.489, 390.307 77.747 C 391.347 77.380, 390.072 74, 388.893 74 C 388.402 74, 387.947 74.563, 387.882 75.250 M 323.205 76.589 C 321.906 77.542, 321.925 77.757, 323.360 78.308 C 327.454 79.879, 322.121 84.941, 316.282 85.026 C 314.663 85.049, 313.368 87.154, 310.452 94.500 C 309.779 96.194, 309.569 95.964, 309.079 93 C 308.560 89.863, 307.913 89.336, 305.211 89.850 C 304.776 89.933, 304.439 91.237, 304.461 92.750 C 304.493 95.037, 304.121 95.447, 302.250 95.187 C 300.425 94.933, 300 95.354, 300 97.412 C 300 99.677, 299.742 99.852, 297.603 99.039 C 294.961 98.035, 293.885 98.536, 294.612 100.431 C 295.427 102.554, 289.103 100.985, 287.475 98.660 C 286.274 96.947, 286 96.865, 286 98.221 C 286 100.377, 289.744 102.981, 292.973 103.070 C 294.363 103.109, 296.400 103.568, 297.500 104.091 C 299.421 105.004, 299.416 105.025, 297.361 104.643 C 292.587 103.755, 293.063 105.781, 298.141 107.965 L 303.411 110.232 308.174 104.866 C 312.819 99.632, 314.080 97, 311.943 97 C 310.438 97, 315.679 88.529, 317.222 88.468 C 317.925 88.440, 320.482 87.838, 322.904 87.129 C 326.202 86.164, 328.364 86.106, 331.513 86.899 C 333.826 87.481, 338.369 87.968, 341.609 87.981 C 344.849 87.994, 348.779 88.194, 350.343 88.425 C 351.906 88.655, 354.743 88.591, 356.646 88.283 C 359.361 87.842, 359.953 87.374, 359.393 86.110 C 359 85.225, 358.767 82.608, 358.876 80.296 L 359.074 76.092 341.883 75.796 C 330.605 75.602, 324.180 75.875, 323.205 76.589 M 160 77.861 C 160 78.987, 160.876 80.143, 162 80.500 C 163.100 80.849, 164 81.610, 164 82.190 C 164 82.846, 163.432 82.774, 162.500 82 C 161.663 81.306, 161 81.197, 161 81.755 C 161 82.305, 161.637 83.284, 162.416 83.930 C 163.554 84.874, 163.973 84.653, 164.551 82.803 C 164.946 81.536, 165.771 80.169, 166.385 79.765 C 167.038 79.335, 166.598 79.024, 165.321 79.015 C 164.123 79.007, 162.436 78.293, 161.571 77.429 C 160.143 76, 160 76.039, 160 77.861 M 84.500 80 C 84.840 80.550, 85.316 81, 85.559 81 C 85.802 81, 86 80.550, 86 80 C 86 79.450, 85.523 79, 84.941 79 C 84.359 79, 84.160 79.450, 84.500 80 M 210.733 80.124 C 211.412 80.808, 212.219 81.115, 212.526 80.807 C 212.834 80.499, 212.279 79.940, 211.293 79.564 C 209.868 79.022, 209.753 79.136, 210.733 80.124 M 287.812 81.956 C 291.467 85.316, 294.451 85.872, 295.410 83.373 C 296.281 81.104, 293.595 79.424, 288.649 79.145 L 284.500 78.911 287.812 81.956 M 214 81 C 214 81.550, 214.477 82, 215.059 82 C 215.641 82, 215.840 81.550, 215.500 81 C 215.160 80.450, 214.684 80, 214.441 80 C 214.198 80, 214 80.450, 214 81 M 259 81 C 259 81.550, 258.298 82, 257.441 82 C 256.584 82, 256.123 82.390, 256.417 82.866 C 256.711 83.342, 258.088 83.515, 259.476 83.249 C 263.548 82.471, 262.369 84.573, 258 85.882 C 253.404 87.259, 252.862 88.676, 256.574 89.608 C 260.073 90.486, 264 88.555, 264 85.956 C 264 84.808, 264.466 82.998, 265.035 81.934 C 265.968 80.191, 265.720 80, 262.535 80 C 260.591 80, 259 80.450, 259 81 M 132.986 84.250 C 132.979 85.487, 132.698 87.625, 132.361 89 C 131.765 91.439, 131.789 91.451, 133.343 89.500 C 135.108 87.285, 135.570 82, 134 82 C 133.450 82, 132.994 83.013, 132.986 84.250 M 142 85.085 C 142 89.164, 142.937 90.916, 145.952 92.475 C 148.817 93.957, 155.283 94.267, 154.427 92.882 C 154.149 92.433, 154.795 91.520, 155.861 90.854 C 157.962 89.543, 157.652 87, 155.393 87 C 154.627 87, 153.997 86.662, 153.994 86.250 C 153.990 85.838, 152.640 84.733, 150.994 83.797 C 149.347 82.860, 148 82.485, 148 82.963 C 148 83.442, 148.527 84.009, 149.171 84.224 C 149.816 84.439, 150.417 85.621, 150.507 86.851 C 150.622 88.408, 150.241 88.923, 149.254 88.544 C 148.474 88.245, 146.925 88, 145.811 88 C 144.422 88, 143.967 87.529, 144.362 86.500 C 144.678 85.675, 144.446 85, 143.846 85 C 143.066 85, 143.070 84.620, 143.862 83.667 C 144.699 82.657, 144.608 82.333, 143.484 82.333 C 142.532 82.333, 142 83.319, 142 85.085 M 155.165 82.877 C 154.151 83.520, 154.331 83.853, 155.915 84.268 C 157.298 84.629, 158 84.339, 158 83.406 C 158 81.811, 157.109 81.645, 155.165 82.877 M 360 83.941 C 360 84.459, 360.445 85.157, 360.989 85.493 C 361.555 85.843, 361.723 85.442, 361.382 84.552 C 360.717 82.820, 360 82.503, 360 83.941 M 165.667 85.667 C 164.711 86.622, 164.845 88, 165.893 88 C 166.384 88, 167.045 87.325, 167.362 86.500 C 167.947 84.976, 166.881 84.452, 165.667 85.667 M 224 87.502 C 221.505 88.926, 221.508 88.929, 225.333 88.965 C 227.860 88.988, 229.032 88.595, 228.771 87.813 C 228.172 86.016, 226.764 85.925, 224 87.502 M 291.537 87.354 C 289.730 88.125, 289.014 88.891, 289.703 89.316 C 291.114 90.188, 296 88.410, 296 87.025 C 296 85.726, 295.218 85.784, 291.537 87.354 M 363 88 C 363 88.550, 363.450 89, 364 89 C 364.550 89, 365 88.550, 365 88 C 365 87.450, 364.550 87, 364 87 C 363.450 87, 363 87.450, 363 88 M 383.639 87.695 C 381.612 89.721, 383.498 90.561, 390.005 90.532 C 395.416 90.507, 396.895 90.197, 396.505 89.168 C 396.227 88.436, 396 87.720, 396 87.577 C 396 87.434, 394.008 87.619, 391.573 87.989 C 389.138 88.359, 386.500 88.300, 385.711 87.858 C 384.923 87.417, 383.990 87.343, 383.639 87.695 M 5.079 89.583 C 5.127 90.748, 5.364 90.985, 5.683 90.188 C 5.972 89.466, 5.936 88.603, 5.604 88.271 C 5.272 87.939, 5.036 88.529, 5.079 89.583 M 80.500 89 C 80.160 89.550, 80.359 90, 80.941 90 C 81.523 90, 82 89.550, 82 89 C 82 88.450, 81.802 88, 81.559 88 C 81.316 88, 80.840 88.450, 80.500 89 M 219.652 91.250 C 219.908 91.662, 220.752 92, 221.528 92 C 222.426 92, 222.708 92.598, 222.305 93.648 C 221.790 94.989, 222.169 95.201, 224.336 94.787 C 227.795 94.125, 227.749 95.530, 224.250 97.428 L 221.500 98.920 224.628 98.960 C 228.342 99.008, 230.081 97.245, 229.789 93.727 C 229.595 91.376, 229.140 91.133, 224.382 90.830 C 221.524 90.649, 219.396 90.838, 219.652 91.250 M 315.081 91.849 C 313.762 94.312, 313.688 96.689, 314.907 97.442 C 315.405 97.751, 315.577 97.100, 315.289 95.996 C 315 94.892, 315.331 93.306, 316.024 92.471 C 316.718 91.635, 317.032 90.699, 316.724 90.390 C 316.415 90.081, 315.676 90.738, 315.081 91.849 M 71.527 93.915 C 70.818 96.148, 71.845 101, 73.027 101 C 73.472 101, 74.559 101.277, 75.443 101.616 C 76.748 102.117, 77.002 101.602, 76.796 98.866 C 76.558 95.702, 74.427 92, 72.845 92 C 72.454 92, 71.861 92.862, 71.527 93.915 M 82 93.126 C 82 93.607, 82.468 94, 83.039 94 C 83.640 94, 83.537 94.580, 82.795 95.375 C 82.088 96.131, 80.946 96.533, 80.255 96.268 C 77.658 95.271, 79.142 97.574, 82.231 99.332 C 85.392 101.132, 85.478 101.128, 87.136 99.081 C 89.603 96.034, 88.841 93.652, 85.158 92.898 C 83.421 92.543, 82 92.646, 82 93.126 M 387.816 93.135 C 386.992 93.657, 388.090 93.975, 390.750 93.985 C 393.087 93.993, 395 93.580, 395 93.067 C 395 91.928, 389.639 91.979, 387.816 93.135 M 94 93.571 C 94 93.886, 94.675 94.818, 95.500 95.643 C 97.128 97.271, 97.332 97.029, 96.393 94.582 C 95.823 93.095, 94 92.326, 94 93.571 M 124.632 97.214 C 124.900 97.646, 124.611 98, 123.991 98 C 122.442 98, 126.656 103.745, 129.205 105.110 C 131.124 106.136, 131.220 106.012, 130.558 103.358 C 130.165 101.786, 129.203 99.788, 128.420 98.919 C 127.637 98.049, 127.200 97.133, 127.450 96.883 C 127.700 96.633, 127.059 96.429, 126.026 96.429 C 124.992 96.429, 124.365 96.782, 124.632 97.214 M 76.345 104.543 C 76.019 105.392, 76.014 106.347, 76.333 106.667 C 77.342 107.676, 80 106.128, 80 104.531 C 80 102.535, 77.112 102.545, 76.345 104.543 M 143.627 103.794 C 143.352 104.240, 140.896 105.212, 138.168 105.954 C 133.405 107.251, 133.246 107.408, 134.133 109.951 C 135.402 113.592, 143.545 122.713, 147.225 124.616 C 149.971 126.036, 150.393 126.035, 151.827 124.602 C 153.867 122.561, 154.789 114.660, 153.611 109.306 C 152.762 105.444, 152.477 105.155, 150.008 105.648 C 148.290 105.992, 146.753 105.610, 145.727 104.585 C 144.847 103.705, 143.902 103.349, 143.627 103.794 M 163.459 106.067 C 163.096 106.653, 163.014 107.348, 163.276 107.610 C 163.538 107.872, 164.019 107.392, 164.345 106.543 C 165.021 104.781, 164.445 104.471, 163.459 106.067 M 359 108.365 C 359 110.479, 362.847 114.869, 366.232 116.620 C 369.060 118.082, 368.927 117.782, 364.453 112.600 C 361.794 109.520, 359.479 107, 359.309 107 C 359.139 107, 359 107.614, 359 108.365 M 394.293 108.989 C 394.007 110.082, 392.249 111.919, 390.386 113.070 C 388.524 114.221, 387 115.809, 387 116.598 C 387 117.699, 388.166 117.443, 392 115.500 C 396.316 113.313, 397 112.558, 397 109.983 C 397 106.632, 395.092 105.931, 394.293 108.989 M 43.640 114.174 C 43.288 117.540, 42.968 122.140, 42.930 124.397 C 42.878 127.405, 42.654 127.974, 42.089 126.528 C 41.401 124.768, 41.261 124.855, 40.787 127.336 C 40.403 129.345, 40.613 129.979, 41.545 129.621 C 42.990 129.067, 44.018 131.069, 43.964 134.332 C 43.930 136.367, 43.784 136.324, 41.591 133.642 C 39.792 131.444, 38.746 130.946, 37.054 131.483 C 34.937 132.155, 34.921 132.255, 36.625 134.139 C 39.508 137.324, 39.213 140.813, 36.306 137.906 C 35.705 137.305, 34.377 136.995, 33.356 137.217 C 31.928 137.529, 32.595 138.298, 36.250 140.554 C 41.086 143.538, 42.166 145, 39.535 145 C 38.730 145, 37.589 144.100, 37 143 C 36.411 141.900, 35.469 141, 34.906 141 C 34.343 141, 34.160 141.450, 34.500 142 C 35.423 143.493, 33.742 143.208, 31.223 141.443 C 30 140.587, 29 140.327, 29 140.865 C 29 142.190, 38.181 149.985, 39.750 149.994 C 40.438 149.997, 41 150.450, 41 151 C 41 152.488, 39.419 152.210, 37.972 150.467 C 37.272 149.623, 36.233 149.089, 35.662 149.279 C 35.092 149.469, 33.809 148.809, 32.813 147.813 C 30.624 145.624, 29 145.474, 29 147.461 C 29 148.978, 32.767 153, 34.189 153 C 34.635 153, 35 153.442, 35 153.983 C 35 154.524, 33.491 154.118, 31.647 153.083 L 28.294 151.199 27.652 162.350 C 27.298 168.482, 27 179.350, 26.989 186.500 C 26.978 193.650, 26.639 199.971, 26.235 200.546 C 25.514 201.572, 6.674 210.149, 2.250 211.465 C 1.013 211.834, 0 212.554, 0 213.067 C -0 214.308, -0.547 214.467, 8.921 210.474 C 13.519 208.535, 17.449 207.116, 17.653 207.320 C 18.002 207.669, 6.585 213.052, 2.750 214.346 C 1.247 214.854, 1 216.283, 1 224.469 C 1 232.274, 1.272 234, 2.500 234 C 4.280 234, 4.513 235.662, 2.812 236.229 C 2.048 236.484, 2.405 237.405, 3.812 238.813 C 5.016 240.016, 6 241.675, 6 242.500 C 6 243.325, 6.520 244, 7.155 244 C 8.767 244, 5.169 247.812, 2.868 248.542 C 1.841 248.868, 1 249.573, 1 250.110 C 1 250.646, 2.952 249.940, 5.338 248.542 C 9.955 245.836, 12.177 245.223, 10.200 247.200 C 7.414 249.986, 7.534 250.007, 30.500 250.633 C 44.984 251.027, 48.256 250.877, 47.250 249.862 C 45.460 248.055, 45.695 246.331, 48.194 242.951 C 50.318 240.079, 50.337 239.830, 48.792 235.241 C 47.913 232.634, 46.657 228.250, 45.999 225.500 C 45.342 222.750, 44.638 219.938, 44.434 219.250 C 44.230 218.563, 44.466 218, 44.958 218 C 45.450 218, 46.059 218.787, 46.311 219.750 C 46.562 220.713, 46.820 219.692, 46.884 217.482 C 46.957 214.952, 47.964 212.046, 49.603 209.634 C 51.913 206.234, 52.130 205.193, 51.528 200.375 C 51.006 196.198, 50.300 194.587, 48.464 193.384 C 47.152 192.525, 45.800 190.849, 45.459 189.661 C 44.396 185.946, 41.785 180.604, 39.761 178 L 37.817 175.500 38.506 179.500 C 40.092 188.701, 42.111 196.326, 43.994 200.223 C 46.202 204.794, 46.530 207, 45 207 C 44.450 207, 44 206.137, 44 205.082 C 44 202.263, 42.829 199.659, 42.095 200.847 C 41.593 201.658, 36.796 183.775, 34.384 172.105 C 33.276 166.743, 32.094 172.309, 31.221 187 L 30.300 202.500 30.150 181.375 C 30.068 169.756, 30.279 158.857, 30.619 157.154 C 31.171 154.396, 31.463 154.177, 33.290 155.155 C 34.897 156.015, 35.584 155.922, 36.460 154.724 C 37.075 153.883, 38.686 153.038, 40.039 152.847 C 41.813 152.597, 42.409 151.973, 42.175 150.614 C 41.921 149.140, 42.303 148.846, 43.923 149.270 C 45.546 149.694, 46.347 149.072, 47.615 146.399 C 48.791 143.921, 48.940 142.632, 48.159 141.691 C 47.568 140.979, 47.335 139.437, 47.641 138.264 C 47.948 137.091, 47.715 134.640, 47.125 132.816 C 46.534 130.992, 45.929 124.846, 45.781 119.158 C 45.633 113.470, 45.234 108.645, 44.895 108.435 C 44.556 108.226, 43.991 110.808, 43.640 114.174 M 77.717 108.616 C 77.379 108.955, 75.616 109.556, 73.801 109.952 C 70.560 110.659, 70.585 110.679, 75.155 111.086 C 77.715 111.314, 79.600 111.162, 79.346 110.750 C 79.091 110.338, 79.385 110, 80 110 C 80.615 110, 80.840 109.550, 80.500 109 C 79.800 107.867, 78.628 107.705, 77.717 108.616 M 171.009 109.489 C 170.329 110.308, 169.380 110.735, 168.898 110.437 C 168.417 110.140, 168.298 110.614, 168.635 111.491 C 168.972 112.368, 169.309 112.954, 169.384 112.793 C 169.460 112.632, 170.374 111.487, 171.416 110.250 C 172.458 109.013, 173.070 108, 172.777 108 C 172.485 108, 171.689 108.670, 171.009 109.489 M 355.015 108.750 C 355.043 110.119, 356.882 112.452, 357.469 111.864 C 358.257 111.076, 357.002 108, 355.893 108 C 355.402 108, 355.007 108.338, 355.015 108.750 M 227.587 110.858 C 227.208 111.472, 224.516 112.666, 221.604 113.513 C 214.963 115.443, 213.506 117.775, 214.487 124.905 C 215.514 132.370, 218.819 133.718, 226.716 129.895 L 231.064 127.790 230.402 120.145 C 229.697 112.008, 228.769 108.946, 227.587 110.858 M 161 111.893 C 161 112.384, 161.739 113.069, 162.641 113.416 C 164.014 113.943, 164.076 113.796, 163.019 112.523 C 161.579 110.788, 161 110.607, 161 111.893 M 352 112.176 C 352 112.915, 352.883 114.070, 353.962 114.744 C 355.740 115.854, 355.848 115.764, 355.117 113.786 C 354.194 111.293, 352 110.159, 352 112.176 M 367.757 113.750 C 369.052 114.987, 370.874 115.971, 371.806 115.937 C 372.932 115.894, 372.669 115.542, 371.021 114.884 C 369.657 114.340, 367.835 113.356, 366.972 112.697 C 366.108 112.039, 366.462 112.513, 367.757 113.750 M 41.272 116 C 41.272 118.475, 41.467 119.487, 41.706 118.250 C 41.944 117.013, 41.944 114.987, 41.706 113.750 C 41.467 112.513, 41.272 113.525, 41.272 116 M 357.667 113.667 C 356.698 114.636, 356.848 116.212, 357.851 115.592 C 358.319 115.303, 360.206 116.176, 362.045 117.533 C 364.237 119.151, 366.613 119.965, 368.944 119.898 L 372.500 119.795 369.500 119.071 C 365.711 118.157, 362.700 116.548, 361.045 114.555 C 359.648 112.871, 358.709 112.624, 357.667 113.667 M 395.442 116.094 C 395.184 116.512, 393.291 117.391, 391.236 118.048 C 385.752 119.800, 384.675 121.298, 389.500 120.463 C 393.362 119.795, 402 116.519, 402 115.723 C 402 114.988, 395.912 115.333, 395.442 116.094 M 375.441 117.418 C 377.572 119.155, 379.452 119.310, 382.500 118 C 384.115 117.306, 383.794 117.127, 380.832 117.070 C 378.814 117.032, 376.339 116.738, 375.332 116.418 C 373.656 115.886, 373.665 115.971, 375.441 117.418 M 49.584 119.750 C 48.609 124.407, 49.144 132, 50.447 132 C 52.128 132, 58.487 126.154, 57.682 125.348 C 57.316 124.983, 57.519 124.080, 58.131 123.342 C 58.965 122.337, 58.921 122, 57.956 122 C 57.247 122, 56.968 121.699, 57.336 121.331 C 58.463 120.204, 54.830 117, 52.424 117 C 50.759 117, 50.006 117.729, 49.584 119.750 M 95.750 123.572 C 95.338 123.991, 95 125.293, 95 126.467 C 95 127.640, 94.662 129.032, 94.250 129.561 C 93.838 130.090, 94.327 129.790, 95.337 128.896 C 96.375 127.978, 97.028 126.299, 96.837 125.040 C 96.652 123.814, 96.162 123.153, 95.750 123.572 M 390.535 124.943 C 390.176 125.524, 390.415 126, 391.066 126 C 392.118 126, 392.002 128.994, 390.813 132.563 C 390.641 133.078, 390.940 133.500, 391.478 133.500 C 392.016 133.500, 392.551 132.851, 392.668 132.059 C 392.784 131.266, 393.162 129.490, 393.508 128.111 C 394.015 126.090, 394.328 125.885, 395.122 127.052 C 395.906 128.204, 396.043 128.090, 395.794 126.500 C 395.452 124.327, 391.618 123.192, 390.535 124.943 M 212.158 127 C 212.158 128.375, 212.385 128.938, 212.662 128.250 C 212.940 127.563, 212.940 126.438, 212.662 125.750 C 212.385 125.063, 212.158 125.625, 212.158 127 M 398 128.050 C 398 129.177, 397.313 131.427, 396.474 133.050 C 395.095 135.717, 395.100 136, 396.533 136 C 397.405 136, 397.881 135.617, 397.591 135.148 C 397.302 134.679, 397.893 132.672, 398.905 130.687 C 400.666 127.233, 400.647 126, 398.833 126 C 398.375 126, 398 126.922, 398 128.050 M 366 128.941 C 366 130.073, 366.450 131, 367 131 C 367.550 131, 368 130.352, 368 129.559 C 368 128.766, 367.550 127.840, 367 127.500 C 366.450 127.160, 366 127.809, 366 128.941 M 423.917 128.282 C 423.046 128.952, 421.691 131.525, 420.906 134 C 419.926 137.089, 418.984 138.419, 417.900 138.243 C 416.109 137.952, 414.050 143.579, 413.921 149.116 C 413.878 150.977, 413.603 151.900, 413.310 151.168 C 412.963 150.298, 412.081 150.992, 410.768 153.168 C 409.663 155, 408.137 156.860, 407.379 157.300 C 405.603 158.329, 405.583 163.903, 407.352 164.581 C 408.182 164.900, 408.521 166.054, 408.231 167.572 C 407.842 169.606, 407.501 169.830, 406.303 168.836 C 405.152 167.881, 404.658 167.928, 403.939 169.064 C 402.020 172.097, 403.025 175.161, 407.300 179.318 C 409.665 181.618, 412.621 184.963, 413.868 186.750 C 416.084 189.925, 416.302 189.998, 423.318 189.901 L 430.500 189.801 425 188.350 C 421.975 187.551, 418.375 186.040, 417 184.991 C 414.509 183.091, 414.521 183.089, 420.500 184.507 C 425.967 185.802, 433.406 186.528, 428.750 185.311 C 426.573 184.742, 426.542 184.055, 428.627 182.531 C 430.062 181.481, 430.095 180.882, 428.908 177.421 C 428.168 175.264, 426.732 172.668, 425.717 171.651 C 423.968 169.899, 423.961 169.700, 425.590 167.901 C 427.238 166.080, 427.201 166, 424.714 166 C 421.688 166, 420.311 164.478, 422.557 163.617 C 424.408 162.906, 424.053 155.974, 422.042 153.550 C 421.346 152.712, 421.046 151.321, 421.377 150.461 C 421.722 149.561, 421.557 149.156, 420.989 149.507 C 419.546 150.398, 419.856 147.094, 421.646 142.500 C 422.503 140.300, 423.315 136.910, 423.450 134.968 C 423.586 133.025, 424.231 130.437, 424.884 129.218 C 426.235 126.692, 426.124 126.584, 423.917 128.282 M 244.079 129.583 C 244.127 130.748, 244.364 130.985, 244.683 130.188 C 244.972 129.466, 244.936 128.603, 244.604 128.271 C 244.272 127.939, 244.036 128.529, 244.079 129.583 M 401.066 131.871 C 399.405 135.126, 399.298 136.026, 400.394 137.524 C 401.110 138.504, 402.215 138.985, 402.848 138.594 C 404.537 137.550, 404.254 135.965, 402.500 136.638 C 400.701 137.329, 400.590 135.993, 402.161 132.547 C 403.442 129.735, 405 129.161, 405 131.500 C 405 132.325, 405.450 133, 406 133 C 407.380 133, 407.256 130.656, 405.800 129.200 C 403.914 127.314, 403.179 127.729, 401.066 131.871 M 230.500 130 C 230.160 130.550, 230.246 131.007, 230.691 131.015 C 231.136 131.024, 230.825 131.467, 230 132 C 228.707 132.836, 228.733 132.971, 230.188 132.985 C 231.264 132.994, 231.821 132.275, 231.725 131 C 231.554 128.733, 231.374 128.586, 230.500 130 M 357.554 130.536 C 356.043 131.678, 355.875 132.275, 356.804 133.204 C 357.732 134.132, 358 134.101, 358 133.065 C 358 132.331, 358.900 132.874, 360 134.273 C 361.100 135.671, 362 137.307, 362 137.908 C 362 138.508, 362.675 139, 363.500 139 C 365.569 139, 365.394 138.338, 362.500 135.217 C 359.817 132.323, 359.365 131, 361.059 131 C 361.641 131, 361.840 130.550, 361.500 130 C 360.677 128.669, 359.879 128.777, 357.554 130.536 M 377.079 130.583 C 377.127 131.748, 377.364 131.985, 377.683 131.188 C 377.972 130.466, 377.936 129.603, 377.604 129.271 C 377.272 128.939, 377.036 129.529, 377.079 130.583 M 431.032 129.750 C 431.099 131.333, 434.016 134.315, 434.740 133.540 C 435.158 133.092, 434.938 132.525, 434.250 132.280 C 433.563 132.034, 433 131.196, 433 130.417 C 433 129.637, 432.550 129, 432 129 C 431.450 129, 431.014 129.338, 431.032 129.750 M 203.461 131.242 C 203.134 132.093, 204.449 135.875, 206.384 139.645 C 208.319 143.415, 209.924 145.989, 209.951 145.364 C 209.978 144.740, 209.328 142.940, 208.506 141.364 C 207.685 139.789, 206.995 137.375, 206.974 136 C 206.953 134.625, 206.288 132.643, 205.496 131.597 C 204.258 129.961, 203.972 129.911, 203.461 131.242 M 343.079 131.583 C 343.127 132.748, 343.364 132.985, 343.683 132.188 C 343.972 131.466, 343.936 130.603, 343.604 130.271 C 343.272 129.939, 343.036 130.529, 343.079 131.583 M 226.850 137 C 226.275 138.650, 225.098 140, 224.236 140 C 223.373 140, 222.924 140.258, 223.240 140.573 C 223.555 140.888, 225.430 140.699, 227.406 140.154 C 231.581 139.001, 231.843 139.658, 228.768 143.567 C 227.541 145.128, 227.091 146.062, 227.768 145.643 C 228.605 145.126, 229.013 145.622, 229.040 147.191 C 229.080 149.473, 229.096 149.470, 230.492 146.903 C 231.268 145.474, 231.780 142.999, 231.630 141.403 C 231.479 139.806, 231.749 137.397, 232.230 136.048 C 233.068 133.698, 233.026 133.666, 231.223 135.298 C 228.899 137.401, 227.597 137.493, 228.362 135.500 C 228.678 134.675, 228.703 134, 228.417 134 C 228.130 134, 227.425 135.350, 226.850 137 M 344.252 137.500 C 344.263 139.700, 344.468 140.482, 344.707 139.238 C 344.946 137.994, 344.937 136.194, 344.687 135.238 C 344.437 134.282, 344.241 135.300, 344.252 137.500 M 199.511 137.623 C 198.566 139.066, 198.267 139.953, 198.846 139.595 C 199.426 139.237, 200.421 139.917, 201.057 141.107 C 201.876 142.637, 202.435 142.913, 202.968 142.051 C 203.515 141.167, 203.904 141.307, 204.384 142.559 C 204.749 143.509, 205.293 144.040, 205.593 143.740 C 206.114 143.219, 202.354 135, 201.595 135 C 201.394 135, 200.457 136.180, 199.511 137.623 M 236.140 136.500 C 236.134 137.600, 236.686 141.144, 237.368 144.375 C 238.532 149.888, 238.712 150.145, 240.297 148.561 C 241.881 146.976, 241.878 146.676, 240.245 143.686 C 239.288 141.934, 237.975 139.150, 237.328 137.500 C 236.479 135.333, 236.149 135.055, 236.140 136.500 M 74.526 136.959 C 74.112 137.627, 74.268 138.668, 74.870 139.270 C 76.407 140.807, 77.380 139.501, 76.230 137.447 C 75.530 136.196, 75.077 136.067, 74.526 136.959 M 352 137.001 C 352 137.574, 353.179 139.825, 354.621 142.003 L 357.241 145.963 359.235 143.429 C 360.331 142.035, 361.064 140.749, 360.864 140.570 C 359.195 139.083, 352 136.186, 352 137.001 M 376 138.976 C 374.075 139.981, 371.561 142.086, 370.414 143.652 C 367.641 147.439, 366.595 155.087, 368.506 157.611 C 369.293 158.650, 369.951 160.208, 369.968 161.072 C 370.010 163.150, 377.507 168, 380.677 168 C 382.533 168, 383.464 168.770, 384.306 171 C 384.929 172.650, 386.015 174, 386.719 174 C 387.424 174, 388 174.702, 388 175.559 C 388 176.495, 388.468 176.829, 389.170 176.395 C 389.964 175.904, 390.128 176.224, 389.681 177.388 C 389.313 178.347, 389.433 178.851, 389.952 178.530 C 390.462 178.214, 392.502 179.380, 394.484 181.120 C 397.737 183.976, 400.041 184.839, 409.354 186.690 C 411.976 187.211, 412.120 187.092, 411.117 185.218 C 410.516 184.096, 408.549 182.267, 406.746 181.152 C 402.737 178.674, 398.214 174, 399.826 174 C 400.472 174, 401 173.100, 401 172 C 401 170.900, 400.550 170, 400 170 C 399.450 170, 398.993 170.563, 398.985 171.250 C 398.974 172.149, 398.723 172.111, 398.091 171.113 C 397.553 170.263, 396.206 169.919, 394.613 170.223 C 393.096 170.513, 391.546 170.158, 390.893 169.371 C 390.277 168.629, 389.374 168.269, 388.887 168.570 C 388.399 168.871, 388 168.672, 388 168.126 C 388 167.581, 388.860 166.862, 389.911 166.528 C 393.191 165.487, 397.478 158.887, 397.724 154.500 C 398.386 142.696, 385.926 133.792, 376 138.976 M 41.012 140.412 C 41.663 141.063, 42.392 141.008, 43.149 140.251 C 44.015 139.385, 43.771 139.142, 42.161 139.263 C 40.753 139.369, 40.361 139.761, 41.012 140.412 M 381.477 140.334 C 380.897 141.742, 380.534 141.865, 379.915 140.863 C 378.904 139.227, 377.764 140.226, 378.494 142.107 C 378.817 142.939, 380.666 143.562, 383.083 143.654 C 385.309 143.739, 387.936 144.537, 388.921 145.428 C 390.641 146.985, 394 146.679, 394 144.966 C 394 143.055, 388.436 139.856, 385.789 140.244 C 384.282 140.465, 382.865 140.163, 382.641 139.573 C 382.416 138.983, 381.893 139.325, 381.477 140.334 M 357 142 C 357 142.550, 357.450 143, 358 143 C 358.550 143, 359 142.550, 359 142 C 359 141.450, 358.550 141, 358 141 C 357.450 141, 357 141.450, 357 142 M 375.015 141.750 C 375.024 142.162, 375.449 143.162, 375.961 143.971 C 377.113 145.793, 378.465 144.653, 377.655 142.543 C 377.057 140.985, 374.987 140.363, 375.015 141.750 M 387.759 141.568 C 387.351 141.980, 387.519 142.920, 388.131 143.658 C 389.419 145.209, 392 145.458, 392 144.031 C 392 143.499, 391.364 143.307, 390.587 143.605 C 389.772 143.918, 389.032 143.444, 388.837 142.484 C 388.652 141.569, 388.166 141.157, 387.759 141.568 M 225.450 142.915 C 224.928 143.419, 223.375 144.032, 222 144.279 L 219.500 144.728 222.059 144.864 C 223.466 144.939, 225.491 144.339, 226.559 143.532 C 227.626 142.724, 228.028 142.049, 227.450 142.032 C 226.873 142.014, 225.972 142.412, 225.450 142.915 M 234.923 142.750 C 234.881 143.162, 234.696 144.286, 234.513 145.246 C 234.329 146.206, 234.588 147.245, 235.089 147.555 C 235.590 147.865, 236 146.741, 236 145.059 C 236 143.377, 235.775 142, 235.500 142 C 235.225 142, 234.966 142.338, 234.923 142.750 M 372.320 143.172 C 369.583 146.619, 368.764 149.235, 370.147 150.112 C 371.145 150.745, 371.172 150.973, 370.250 150.985 C 367.584 151.017, 369.165 153.506, 371.914 153.602 C 374.103 153.679, 374.937 153.184, 375.283 151.602 C 375.536 150.446, 376.018 148.825, 376.354 148 C 376.690 147.175, 376.157 145.452, 375.169 144.172 C 373.728 142.303, 373.166 142.106, 372.320 143.172 M 339.075 147 C 339.082 148.925, 339.671 152.713, 340.384 155.417 C 341.481 159.581, 341.774 159.971, 342.299 157.966 C 342.950 155.476, 341.573 147.796, 339.990 145.089 C 339.293 143.897, 339.064 144.375, 339.075 147 M 43.500 147 C 43.840 147.550, 44.541 148, 45.059 148 C 45.577 148, 46 147.550, 46 147 C 46 146.450, 45.298 146, 44.441 146 C 43.584 146, 43.160 146.450, 43.500 147 M 374 147.559 C 374 148.416, 374.450 148.840, 375 148.500 C 375.550 148.160, 376 147.459, 376 146.941 C 376 146.423, 375.550 146, 375 146 C 374.450 146, 374 146.702, 374 147.559 M 384 147 C 384 147.550, 384.450 148, 385 148 C 385.550 148, 386 147.550, 386 147 C 386 146.450, 385.550 146, 385 146 C 384.450 146, 384 146.450, 384 147 M 393.250 146.718 C 391.277 147.426, 391.794 149, 394 149 C 395.100 149, 396 148.577, 396 148.059 C 396 146.779, 394.763 146.176, 393.250 146.718 M 371 148 C 371 148.550, 371.450 149, 372 149 C 372.550 149, 373 148.550, 373 148 C 373 147.450, 372.550 147, 372 147 C 371.450 147, 371 147.450, 371 148 M 377.667 147.667 C 376.348 148.985, 376.983 155.056, 378.500 155.638 C 379.325 155.955, 380 156.841, 380 157.607 C 380 159.034, 380.522 159.218, 385.194 159.441 C 387.136 159.533, 387.618 159.245, 386.922 158.406 C 386.300 157.657, 386.320 156.288, 386.979 154.557 C 388.465 150.647, 388.270 150, 385.607 150 C 384.291 150, 382.955 149.325, 382.638 148.500 C 382.054 146.978, 378.886 146.447, 377.667 147.667 M 394 150.820 C 393.175 151.194, 392.362 152.400, 392.193 153.500 C 391.816 155.954, 388.504 160.567, 387.297 160.319 C 386.812 160.220, 386.312 161.491, 386.186 163.143 C 385.981 165.832, 386.196 166.079, 388.228 165.493 C 393.110 164.086, 397.872 155.799, 394.885 153.908 C 393.681 153.145, 394.252 152.629, 396.083 152.826 C 396.404 152.861, 396.667 152.239, 396.667 151.444 C 396.667 149.876, 396.283 149.786, 394 150.820 M 221.245 152.250 C 221.471 152.938, 222.725 153.656, 224.030 153.846 C 226.103 154.148, 226.236 153.990, 225.080 152.596 C 223.514 150.709, 220.652 150.451, 221.245 152.250 M 89.474 155.275 C 87.399 156.436, 88.711 158.227, 91.084 157.473 C 92.155 157.133, 93 157.336, 93 157.933 C 93 158.520, 94.237 159.007, 95.750 159.015 C 97.966 159.028, 98.209 159.237, 97 160.091 C 95.667 161.034, 95.667 161.107, 97 160.743 C 98.962 160.208, 99.487 157.292, 97.955 155.446 C 96.687 153.918, 92.064 153.825, 89.474 155.275 M 370 156.096 C 370 158.166, 373.341 162.845, 375.734 164.125 C 377.728 165.193, 378.278 165.168, 379.014 163.977 C 379.586 163.052, 379.385 161.978, 378.447 160.942 C 377.649 160.059, 377.334 158.999, 377.748 158.586 C 378.162 158.172, 377.825 157.983, 377 158.167 C 376.038 158.380, 375.605 157.872, 375.794 156.750 C 376.020 155.402, 375.388 155, 373.044 155 C 371.370 155, 370 155.493, 370 156.096 M 309.500 157.932 C 306.032 158.928, 301.264 161.869, 300.690 163.365 C 299.897 165.433, 300.932 166.060, 303.004 164.766 C 304.371 163.912, 305.824 164.043, 309.179 165.324 C 314.062 167.189, 318 167.506, 318 166.035 C 318 164.634, 314.537 163, 311.566 163 C 310.155 163, 309 162.550, 309 162 C 309 161.450, 310.599 161, 312.553 161 C 317.530 161, 330 163.958, 330 165.139 C 330 165.678, 330.524 165.794, 331.164 165.399 C 331.954 164.910, 331.487 163.956, 329.712 162.428 C 327.688 160.688, 327.424 160.051, 328.547 159.620 C 329.346 159.314, 329.999 158.711, 329.998 158.281 C 329.996 157.376, 312.476 157.077, 309.500 157.932 M 365 158.837 C 365 159.445, 366.100 162.431, 367.445 165.471 C 368.790 168.512, 369.465 171, 368.945 171 C 368.425 171, 368 171.900, 368 173 C 368 175.461, 370.680 175.663, 371.311 173.250 C 371.746 171.583, 371.774 171.583, 371.884 173.250 C 371.948 174.213, 372.436 175, 372.969 175 C 373.501 175, 373.696 175.629, 373.401 176.398 C 372.395 179.018, 381.577 186.001, 386 185.981 C 390.661 185.959, 391.540 184.432, 388.070 182.382 C 386.336 181.358, 384.656 179.476, 384.335 178.200 C 383.983 176.795, 383.224 176.084, 382.409 176.397 C 381.669 176.680, 380.798 176.482, 380.473 175.956 C 380.148 175.430, 380.471 174.993, 381.191 174.985 C 382.155 174.973, 382.112 174.724, 381.026 174.037 C 380.055 173.423, 379.294 173.513, 378.792 174.303 C 378.252 175.152, 378.026 175.058, 378.015 173.978 C 378.007 173.141, 375.930 170.216, 373.401 167.478 C 370.872 164.740, 367.947 161.427, 366.901 160.115 C 365.855 158.803, 365 158.228, 365 158.837 M 88 159.848 C 88 160.353, 88.900 161.002, 90 161.290 C 91.100 161.577, 92 161.646, 92 161.442 C 92 161.237, 91.100 160.589, 90 160 C 88.895 159.409, 88 159.341, 88 159.848 M 224 161.500 C 227.668 164.206, 229 164.592, 229 162.949 C 229 162.371, 227.439 161.246, 225.532 160.449 C 220.552 158.368, 220.139 158.651, 224 161.500 M 336.063 165.807 C 336.029 168.176, 335.485 172.159, 334.856 174.659 C 333.635 179.507, 334.404 180.951, 338.225 180.985 C 339.596 180.997, 339.779 180.537, 339.119 178.750 C 338.661 177.512, 338.471 175.979, 338.696 175.342 C 338.921 174.705, 338.632 173.890, 338.053 173.533 C 337.474 173.175, 337 171.953, 337 170.819 C 337 169.098, 337.249 168.962, 338.500 170 C 339.325 170.685, 340.020 171.977, 340.045 172.872 C 340.070 173.768, 340.688 175.850, 341.419 177.500 L 342.748 180.500 342.843 175.500 C 342.994 167.591, 342.175 164.810, 339.905 165.530 C 338.510 165.973, 337.733 165.507, 337.057 163.819 C 336.262 161.837, 336.118 162.125, 336.063 165.807 M 383 164.500 C 383 165.325, 383.177 166, 383.393 166 C 383.609 166, 384.045 165.325, 384.362 164.500 C 384.678 163.675, 384.501 163, 383.969 163 C 383.436 163, 383 163.675, 383 164.500 M 321.192 167.075 C 321.389 167.666, 321.978 168.150, 322.500 168.150 C 323.022 168.150, 323.611 167.666, 323.808 167.075 C 324.005 166.484, 323.417 166, 322.500 166 C 321.583 166, 320.995 166.484, 321.192 167.075 M 217.009 167.131 C 216.989 168.534, 222.271 181.835, 224.776 186.693 C 226.249 189.549, 228.491 192.358, 229.759 192.936 C 231.922 193.922, 231.992 193.849, 230.903 191.743 C 230.265 190.509, 229.160 188.825, 228.448 188 C 227.737 187.175, 224.873 182, 222.086 176.500 C 219.298 171, 217.013 166.784, 217.009 167.131 M 115.094 170.221 C 114.177 171.690, 114.082 172.527, 114.808 172.769 C 115.402 172.967, 115.640 173.775, 115.337 174.565 C 115.034 175.354, 115.226 176, 115.763 176 C 116.300 176, 117.017 177.912, 117.356 180.250 C 118.732 189.745, 120.590 196.901, 122.133 198.650 C 123.031 199.667, 124.702 202.525, 125.847 205 C 127.901 209.443, 127.920 209.456, 127.404 206 C 127.096 203.936, 127.521 200.975, 128.441 198.782 C 130.190 194.612, 130.468 192.728, 129 195 C 128.159 196.302, 128.029 196.283, 128.015 194.857 C 128.007 193.953, 127.294 192.943, 126.431 192.612 C 125.486 192.249, 125.079 191.312, 125.408 190.255 C 125.709 189.290, 125.573 187.893, 125.107 187.151 C 124.518 186.213, 124.047 186.938, 123.560 189.531 C 122.479 195.293, 121.324 192.495, 120.037 181 C 118.757 169.567, 117.379 166.562, 115.094 170.221 M 315.750 169.744 C 314.238 169.958, 313 170.553, 313 171.066 C 313 172.044, 315.292 172.293, 323.321 172.187 C 327.404 172.134, 327.959 172.344, 326.948 173.562 C 326.219 174.441, 323.760 175.039, 320.628 175.100 L 315.500 175.201 319.471 176.131 C 321.655 176.642, 324.805 176.905, 326.471 176.715 C 329.023 176.424, 329.508 175.929, 329.548 173.576 C 329.574 172.039, 329.124 170.644, 328.548 170.476 C 326.331 169.828, 318.374 169.373, 315.750 169.744 M 45.033 177.691 C 45.015 178.896, 45.450 180.160, 46 180.500 C 46.550 180.840, 47.007 182.104, 47.015 183.309 C 47.024 184.514, 47.467 186.175, 48 187 C 48.712 188.102, 48.973 187.402, 48.985 184.361 C 48.995 181.694, 48.300 179.382, 47.033 177.861 L 45.067 175.500 45.033 177.691 M 420.244 178.823 C 416.802 180.196, 414.190 181.523, 414.438 181.771 C 415.092 182.425, 425.960 178.874, 426.632 177.787 C 427.662 176.120, 426.571 176.297, 420.244 178.823 M 431.667 178.667 C 429.979 180.354, 431.455 181, 437 181 C 442.742 181, 444.779 179.897, 441.418 178.607 C 439.294 177.792, 432.500 177.833, 431.667 178.667 M 332.966 184.750 C 332.948 185.713, 332.678 191.036, 332.367 196.579 C 331.904 204.843, 332.078 206.935, 333.337 208.194 C 334.482 209.339, 334.583 210.017, 333.736 210.864 C 332.888 211.712, 333.095 212.008, 334.550 212.032 C 336.867 212.070, 340.246 214.420, 339.318 215.349 C 338.960 215.707, 337.617 216, 336.333 216 C 334.926 216, 334 216.595, 334 217.500 C 334 218.325, 334.873 219, 335.941 219 C 338.460 219, 339.482 220.714, 338.017 222.480 C 337.165 223.506, 337.151 224.414, 337.966 225.936 C 339.246 228.329, 339.099 228.293, 342.435 227.025 C 345.811 225.741, 345.710 226.537, 342.250 228.482 C 339.540 230.006, 339.572 230.021, 344.500 229.483 L 349.500 228.936 345.250 231.079 C 342.506 232.463, 341 233.891, 341 235.111 C 341 236.150, 341.432 237, 341.961 237 C 342.490 237, 343.830 237.974, 344.939 239.165 C 346.954 241.328, 346.962 241.328, 352.978 239.507 C 356.290 238.504, 359 237.552, 359 237.392 C 359 237.231, 357.730 235.165, 356.177 232.800 C 354.624 230.435, 353.301 227.476, 353.237 226.224 C 353.173 224.972, 352.418 222.540, 351.560 220.820 C 349.996 217.684, 349.317 211.377, 350.794 213.700 C 351.213 214.360, 352.669 215.383, 354.028 215.973 C 356.409 217.006, 356.389 217.027, 353.500 216.545 C 350.507 216.046, 350.508 216.049, 354 217.772 C 355.925 218.723, 357.994 220.131, 358.597 220.901 C 359.488 222.039, 359.846 222.058, 360.500 221 C 360.997 220.195, 360.673 219.234, 359.653 218.488 C 357.697 217.058, 357.488 215.898, 359.250 216.250 C 362.712 216.942, 357.706 205.614, 353.437 203.096 C 349.559 200.807, 348.918 201.190, 349.633 205.368 C 350.043 207.767, 349.918 208.149, 349.100 207 C 348.512 206.175, 348.024 204.289, 348.015 202.809 C 348.007 201.329, 347.519 199.821, 346.932 199.458 C 346.344 199.095, 346.091 198.205, 346.369 197.482 C 346.646 196.758, 346.199 195.906, 345.373 195.590 C 344.548 195.273, 344.128 194.602, 344.440 194.097 C 345.493 192.394, 343.775 189.933, 340.128 187.920 L 336.500 185.916 340.250 186.503 C 344.764 187.210, 345.019 186.578, 341.050 184.526 C 336.967 182.415, 333.009 182.524, 332.966 184.750 M 212.599 189 C 212.962 190.925, 213.623 193.400, 214.066 194.500 C 214.850 196.442, 214.875 196.438, 214.937 194.365 C 214.971 193.190, 214.311 190.715, 213.469 188.865 L 211.938 185.500 212.599 189 M 410.072 190.743 C 409.220 192.189, 408.875 192.255, 408.128 191.118 C 407.395 190.004, 407.101 190.100, 406.611 191.618 C 406.277 192.653, 404.403 194.587, 402.448 195.915 C 400.493 197.244, 398.451 199.156, 397.911 200.165 C 396.569 202.673, 399.362 202.616, 406 200 C 412.177 197.565, 411.502 197.549, 413.961 200.189 C 415.082 201.392, 416 201.869, 416 201.248 C 416 200.626, 415.571 199.853, 415.047 199.529 C 414.522 199.205, 413.077 197.491, 411.836 195.720 C 410.409 193.685, 410.192 192.992, 411.245 193.836 C 412.162 194.571, 413.382 194.882, 413.956 194.527 C 415.631 193.492, 415.162 191.157, 413.053 190.029 C 411.524 189.210, 410.885 189.364, 410.072 190.743 M 416 193.095 C 416 193.593, 419 194, 422.667 194 C 426.333 194, 429.146 193.836, 428.917 193.635 C 427.930 192.772, 416 192.273, 416 193.095 M 215.047 197.500 C 215.023 198.986, 216.808 201.526, 217.435 200.898 C 217.735 200.599, 217.323 199.487, 216.521 198.427 C 215.720 197.367, 215.056 196.950, 215.047 197.500 M 416 198.417 C 416 199.287, 416.712 200, 417.583 200 C 418.454 200, 418.989 199.466, 418.771 198.813 C 418.153 196.958, 416 196.651, 416 198.417 M 1.693 199.482 C 0.475 200.373, -0 202.191, 0 205.967 C 0 210.572, 0.214 211.126, 1.750 210.494 C 2.713 210.097, 4.184 209.574, 5.021 209.330 C 6.154 208.999, 6.441 207.832, 6.147 204.748 C 5.655 199.590, 4.085 197.733, 1.693 199.482 M 417.750 201.662 C 418.438 201.940, 419.563 201.940, 420.250 201.662 C 420.938 201.385, 420.375 201.158, 419 201.158 C 417.625 201.158, 417.063 201.385, 417.750 201.662 M 42.149 206 C 42.083 207.925, 42.717 211.300, 43.556 213.500 C 44.674 216.433, 44.918 216.700, 44.468 214.500 C 44.131 212.850, 43.498 209.475, 43.061 207 C 42.308 202.732, 42.261 202.681, 42.149 206 M 20 206 C 19.175 206.533, 18.950 206.969, 19.500 206.969 C 20.050 206.969, 21.175 206.533, 22 206 C 22.825 205.467, 23.050 205.031, 22.500 205.031 C 21.950 205.031, 20.825 205.467, 20 206 M 218.500 207 C 218.840 207.550, 219.316 208, 219.559 208 C 219.802 208, 220 207.550, 220 207 C 220 206.450, 219.523 206, 218.941 206 C 218.359 206, 218.160 206.450, 218.500 207 M 225.250 206.689 C 226.213 206.941, 227.787 206.941, 228.750 206.689 C 229.713 206.438, 228.925 206.232, 227 206.232 C 225.075 206.232, 224.287 206.438, 225.250 206.689 M 45.015 208.691 C 45.024 209.136, 45.467 210.175, 46 211 C 46.835 212.293, 46.971 212.266, 46.985 210.809 C 46.993 209.879, 46.550 208.840, 46 208.500 C 45.450 208.160, 45.007 208.246, 45.015 208.691 M 157.500 210.585 C 155.850 211.908, 155.081 212.992, 155.792 212.995 C 157.230 213.001, 161.599 209.262, 160.927 208.600 C 160.692 208.369, 159.150 209.262, 157.500 210.585 M 154 218.592 L 151.500 220.114 154.500 219.486 C 156.150 219.141, 157.928 218.440, 158.450 217.929 C 159.991 216.422, 156.780 216.901, 154 218.592 M 287.500 218 C 287.840 218.550, 288.879 218.993, 289.809 218.985 C 291.266 218.971, 291.293 218.835, 290 218 C 288.042 216.734, 286.718 216.734, 287.500 218 M 296.435 217.895 C 296.807 218.497, 298.041 219.487, 299.176 220.094 C 300.656 220.886, 301.050 220.889, 300.565 220.105 C 300.193 219.503, 298.959 218.513, 297.824 217.906 C 296.344 217.114, 295.950 217.111, 296.435 217.895 M 303 218.068 C 303 218.680, 303.853 218.864, 305 218.500 C 306.121 218.144, 307 218.320, 307 218.901 C 307 219.471, 307.675 219.678, 308.500 219.362 C 311.017 218.396, 310.180 217.513, 306.498 217.251 C 304.531 217.110, 303 217.468, 303 218.068 M 317 219.059 C 317 219.641, 317.450 219.840, 318 219.500 C 318.550 219.160, 319 218.684, 319 218.441 C 319 218.198, 318.550 218, 318 218 C 317.450 218, 317 218.477, 317 219.059 M 127.513 220.979 C 126.993 221.821, 128.532 226, 129.362 226 C 129.522 226, 129.455 224.650, 129.213 223 C 128.741 219.781, 128.460 219.447, 127.513 220.979 M 312.500 221 C 310.572 221.829, 310.579 221.862, 312.691 221.930 C 313.896 221.968, 315.160 221.550, 315.500 221 C 316.231 219.817, 315.252 219.817, 312.500 221 M 155.250 221.662 C 153.203 222.488, 153.833 223.856, 156 223.290 C 157.100 223.002, 158 222.369, 158 221.883 C 158 220.930, 157.220 220.867, 155.250 221.662 M 367 221.799 C 369.008 223.071, 382.902 223.967, 383.582 222.868 C 383.877 222.391, 380.753 222, 376.641 222 C 372.528 222, 368.339 221.741, 367.332 221.424 C 365.873 220.966, 365.805 221.042, 367 221.799 M 339 224 C 339 224.550, 339.450 225, 340 225 C 340.550 225, 341 224.550, 341 224 C 341 223.450, 340.550 223, 340 223 C 339.450 223, 339 223.450, 339 224 M 318.644 230.631 C 311.473 232.834, 313.418 233.075, 321.500 230.986 C 325.350 229.990, 327.375 229.168, 326 229.158 C 324.625 229.148, 321.315 229.810, 318.644 230.631 M 64.731 232.080 C 65.085 233.432, 65.538 233.886, 65.788 233.137 C 66.028 232.415, 65.750 231.350, 65.168 230.768 C 64.426 230.026, 64.296 230.417, 64.731 232.080 M 277 234 C 277.825 234.533, 279.400 234.969, 280.500 234.969 C 282.156 234.969, 282.242 234.803, 281 234 C 280.175 233.467, 278.600 233.031, 277.500 233.031 C 275.844 233.031, 275.758 233.197, 277 234 M 56.638 235.500 C 56.955 236.325, 57.391 237, 57.607 237 C 57.823 237, 58 236.325, 58 235.500 C 58 234.675, 57.564 234, 57.031 234 C 56.499 234, 56.322 234.675, 56.638 235.500 M 54.079 236.583 C 54.127 237.748, 54.364 237.985, 54.683 237.188 C 54.972 236.466, 54.936 235.603, 54.604 235.271 C 54.272 234.939, 54.036 235.529, 54.079 236.583 M 318.500 236 C 316.783 236.738, 316.924 236.867, 319.500 236.914 C 321.150 236.945, 323.175 236.533, 324 236 C 325.182 235.236, 324.970 235.042, 323 235.086 C 321.625 235.116, 319.600 235.527, 318.500 236 M 280.813 237.683 C 281.534 237.972, 282.397 237.936, 282.729 237.604 C 283.061 237.272, 282.471 237.036, 281.417 237.079 C 280.252 237.127, 280.015 237.364, 280.813 237.683 M 195.813 238.683 C 196.534 238.972, 197.397 238.936, 197.729 238.604 C 198.061 238.272, 197.471 238.036, 196.417 238.079 C 195.252 238.127, 195.015 238.364, 195.813 238.683 M 278.441 241.514 C 279.509 242.331, 281.534 242.964, 282.941 242.921 C 285.497 242.842, 285.161 242.648, 279.500 240.935 C 276.714 240.092, 276.639 240.134, 278.441 241.514 M 123.830 247.035 C 122.911 247.572, 119.536 248.645, 116.330 249.422 C 111.325 250.634, 110.995 250.843, 114 250.904 C 116.991 250.964, 129.294 246.245, 126.500 246.109 C 125.950 246.083, 124.748 246.499, 123.830 247.035 M 132.813 250.683 C 133.534 250.972, 134.397 250.936, 134.729 250.604 C 135.061 250.272, 134.471 250.036, 133.417 250.079 C 132.252 250.127, 132.015 250.364, 132.813 250.683" stroke="none" fill="black" fill-rule="evenodd"/>
</svg>