<svg xmlns="http://www.w3.org/2000/svg" width="446" height="251" viewBox="0 0 446 251" version="1.1">
	<path d="M 0.485 125.500 C 0.485 194.800, 0.604 223.003, 0.750 188.172 C 0.896 153.342, 0.896 96.642, 0.750 62.172 C 0.604 27.703, 0.485 56.200, 0.485 125.500 M 37.219 56.250 C 37.363 93.339, 37.629 105.517, 38 92 C 38.378 78.211, 38.695 74.283, 38.968 80 L 39.373 88.500 40 80 L 40.627 71.500 40.930 80 C 41.278 89.803, 41.688 89.067, 42.878 76.500 C 43.689 67.935, 43.745 68.393, 44.050 86 L 44.370 104.500 45.047 84 C 45.420 72.725, 45.786 49.212, 45.862 31.750 L 46 0 41.500 0 L 37 0 37.219 56.250 M 56 3.500 L 56 7 119 7 L 182 7 182 3.500 L 182 0 119 0 L 56 0 56 3.500 M 72.402 11.533 C 72.516 12.308, 72.994 13.293, 73.465 13.721 C 73.935 14.149, 73.997 13.938, 73.601 13.250 C 73.152 12.469, 73.489 12, 74.500 12 C 75.422 12, 75.826 12.473, 75.438 13.100 C 74.961 13.873, 75.389 13.862, 76.879 13.065 C 79.170 11.839, 79.794 10.554, 77.750 11.273 C 77.063 11.515, 75.531 11.355, 74.348 10.918 C 72.758 10.332, 72.249 10.492, 72.402 11.533 M 156.521 11.812 C 156.700 12.740, 156.888 13.725, 156.939 14 C 156.989 14.275, 157.474 13.825, 158.015 13 C 158.821 11.772, 159.156 11.742, 159.861 12.834 C 160.540 13.886, 160.868 13.787, 161.414 12.364 C 161.794 11.372, 161.811 10.856, 161.450 11.217 C 161.089 11.577, 159.760 11.479, 158.495 10.998 C 156.617 10.284, 156.255 10.433, 156.521 11.812 M 170.094 10.500 C 170.059 11.050, 170.401 12.084, 170.854 12.797 C 171.501 13.818, 171.978 13.725, 173.088 12.360 C 174.333 10.831, 174.300 10.700, 172.815 11.257 C 171.888 11.604, 170.911 11.350, 170.644 10.694 C 170.376 10.037, 170.129 9.950, 170.094 10.500 M 56.257 12 C 56.482 12.825, 57.528 13.605, 58.583 13.732 C 59.930 13.896, 60.054 13.777, 59 13.332 C 58.175 12.985, 57.128 12.205, 56.674 11.600 C 56.143 10.893, 55.994 11.035, 56.257 12 M 82.564 12.707 C 82.022 14.132, 82.136 14.247, 83.124 13.267 C 83.808 12.588, 84.115 11.781, 83.807 11.474 C 83.499 11.166, 82.940 11.721, 82.564 12.707 M 86.498 12.003 C 86.143 12.578, 86.747 12.874, 87.913 12.695 C 90.785 12.257, 91.758 11, 89.226 11 C 88.066 11, 86.839 11.451, 86.498 12.003 M 92.408 12.225 C 92.792 14.127, 96 14.438, 96 12.573 C 96 11.708, 95.523 11, 94.941 11 C 94.359 11, 94.160 11.450, 94.500 12 C 94.840 12.550, 94.679 13, 94.142 13 C 93.606 13, 92.938 12.539, 92.658 11.975 C 92.379 11.411, 92.266 11.524, 92.408 12.225 M 101 12.500 C 101 13.325, 101.177 14, 101.393 14 C 101.609 14, 102.045 13.325, 102.362 12.500 C 102.678 11.675, 102.501 11, 101.969 11 C 101.436 11, 101 11.675, 101 12.500 M 105.981 11.660 C 106.548 11.941, 106.758 12.582, 106.447 13.085 C 106.136 13.588, 106.396 14, 107.024 14 C 108.508 14, 107.748 11.698, 106.162 11.387 C 105.496 11.257, 105.414 11.380, 105.981 11.660 M 110 12.941 C 110 14.009, 110.402 15.131, 110.894 15.434 C 111.385 15.738, 111.723 14.865, 111.644 13.494 C 111.476 10.578, 110 10.081, 110 12.941 M 121.542 11.792 C 120.633 12.701, 120.937 14, 122.059 14 C 122.641 14, 122.840 13.550, 122.500 13 C 122.160 12.450, 122.321 12, 122.858 12 C 123.394 12, 123.983 12.406, 124.167 12.901 C 124.350 13.397, 125.028 13.229, 125.673 12.526 C 126.597 11.520, 126.341 11.250, 124.464 11.250 C 123.155 11.250, 121.840 11.494, 121.542 11.792 M 131 11.927 C 131 12.436, 130.213 13.059, 129.250 13.311 C 128.160 13.595, 128.526 13.812, 130.219 13.884 C 132.250 13.971, 132.792 13.621, 132.362 12.500 C 131.717 10.819, 131 10.517, 131 11.927 M 141.079 12.583 C 141.127 13.748, 141.364 13.985, 141.683 13.188 C 141.972 12.466, 141.936 11.603, 141.604 11.271 C 141.272 10.939, 141.036 11.529, 141.079 12.583 M 143.769 12.875 C 142.628 14.336, 142.685 14.355, 144.326 13.064 C 145.573 12.084, 146.366 11.970, 146.826 12.704 C 147.292 13.446, 147.862 13.388, 148.673 12.514 C 149.594 11.521, 149.331 11.250, 147.441 11.250 C 146.119 11.250, 144.466 11.981, 143.769 12.875 M 153.638 12.500 C 153.322 13.325, 153.499 14, 154.031 14 C 154.564 14, 155 13.325, 155 12.500 C 155 11.675, 154.823 11, 154.607 11 C 154.391 11, 153.955 11.675, 153.638 12.500 M 163.415 12.138 C 162.983 12.836, 163.123 13.042, 163.760 12.648 C 164.348 12.285, 165.057 12.553, 165.336 13.244 C 165.698 14.143, 165.865 14.161, 165.921 13.309 C 166.035 11.588, 164.265 10.761, 163.415 12.138 M 177.211 12.399 C 177.920 13.169, 178.658 13.649, 178.850 13.466 C 179.443 12.902, 177.940 11, 176.902 11 C 176.362 11, 176.501 11.630, 177.211 12.399 M 181.225 13.452 C 181.457 16.252, 182.302 15.943, 182.520 12.980 C 182.600 11.891, 182.296 11, 181.844 11 C 181.392 11, 181.114 12.104, 181.225 13.452 M 63.500 12.969 C 62.034 13.576, 62.700 13.788, 66 13.764 C 69.260 13.740, 69.949 13.512, 68.500 12.936 C 66.027 11.952, 65.953 11.953, 63.500 12.969 M 360 15 C 360 15.550, 362.475 16, 365.500 16 C 368.525 16, 371 15.550, 371 15 C 371 14.450, 368.525 14, 365.500 14 C 362.475 14, 360 14.450, 360 15 M 403.500 24 C 403.160 24.550, 403.557 25, 404.382 25 C 405.207 25, 406.160 24.550, 406.500 24 C 406.840 23.450, 406.443 23, 405.618 23 C 404.793 23, 403.840 23.450, 403.500 24 M 148.351 42.250 C 148.667 44.038, 149.438 48.538, 150.065 52.250 C 151.756 62.264, 153.656 61.642, 160 49 C 164.259 40.514, 164.743 39, 163.202 39 C 161.944 39, 160.353 41.137, 158.022 45.954 C 156.172 49.778, 154.339 52.709, 153.947 52.467 C 153.556 52.226, 152.922 49.097, 152.538 45.514 C 151.933 39.862, 151.572 39, 149.809 39 C 148.066 39, 147.859 39.461, 148.351 42.250 M 166.558 41.250 C 166.295 42.487, 165.580 46.200, 164.970 49.500 C 164.361 52.800, 163.638 56.288, 163.364 57.250 C 163.005 58.511, 163.440 59, 164.921 59 C 166.546 59, 167.110 58.162, 167.616 55 C 168.109 51.917, 168.703 51, 170.208 51 C 171.558 51, 172.646 52.235, 173.732 55 C 174.776 57.657, 175.924 59, 177.152 59 C 179.376 59, 179.388 58.864, 177.549 54.464 C 176.170 51.163, 176.219 50.871, 178.549 48.542 C 183.640 43.450, 180.794 39, 172.448 39 C 167.647 39, 166.984 39.253, 166.558 41.250 M 183.694 47.836 C 182.762 52.696, 182 57.196, 182 57.836 C 182 58.602, 184.224 59, 188.500 59 C 193.611 59, 195 58.679, 195 57.500 C 195 56.389, 193.833 56, 190.500 56 C 188.025 56, 186 55.888, 186 55.750 C 186 55.612, 186.675 51.973, 187.500 47.662 C 188.325 43.351, 189 39.639, 189 39.412 C 189 39.185, 188.187 39, 187.194 39 C 185.716 39, 185.080 40.608, 183.694 47.836 M 200.023 44.750 C 199.408 47.913, 198.531 52.413, 198.074 54.750 C 197.351 58.447, 197.470 59, 198.991 59 C 200.331 59, 201.016 57.596, 201.920 53 C 202.569 49.700, 203.243 47, 203.416 47 C 203.590 47, 204.716 49.700, 205.920 53 C 207.478 57.273, 208.621 59, 209.891 59 C 211.356 59, 211.972 57.336, 213.338 49.692 C 215.340 38.479, 215.327 39, 213.607 39 C 211.926 39, 211.378 40.295, 210.456 46.447 C 209.642 51.872, 208.983 51.512, 206.442 44.250 C 203.865 36.887, 201.517 37.070, 200.023 44.750 M 226.510 40.250 C 226.276 40.938, 225.585 44.425, 224.975 48 C 224.365 51.575, 223.623 55.513, 223.325 56.750 C 222.899 58.520, 223.215 59, 224.804 59 C 226.382 59, 226.972 58.124, 227.500 55 C 228.014 51.957, 228.635 51, 230.096 51 C 231.403 51, 232.527 52.278, 233.617 55 C 234.694 57.693, 235.835 59, 237.109 59 C 239.413 59, 239.415 58.939, 237.305 54.514 C 235.653 51.049, 235.666 50.923, 237.805 49.424 C 240.257 47.707, 240.845 42.245, 238.800 40.200 C 237.177 38.577, 227.068 38.618, 226.510 40.250 M 245 49 C 240.520 57.928, 240.193 59, 241.956 59 C 243.041 59, 244.411 58.100, 245 57 C 245.743 55.611, 247.094 55, 249.419 55 C 251.926 55, 252.898 55.502, 253.290 57 C 253.843 59.115, 257 59.823, 257 57.832 C 257 56.575, 255.198 44.950, 254.429 41.250 C 254.135 39.835, 253.230 39, 251.990 39 C 250.494 39, 248.808 41.411, 245 49 M 263.480 40.250 C 262.981 41.612, 260 57.031, 260 58.250 C 260 58.663, 262.243 59, 264.984 59 C 271.771 59, 275.977 55.397, 276.696 48.968 C 277.421 42.481, 274.522 39, 268.396 39 C 265.740 39, 263.752 39.505, 263.480 40.250 M 281.557 40.250 C 281.349 40.938, 280.655 44.425, 280.017 48 C 279.378 51.575, 278.615 55.513, 278.320 56.750 C 277.899 58.513, 278.217 59, 279.788 59 C 281.519 59, 282.011 57.806, 283.398 50.250 C 285.371 39.499, 285.374 39, 283.469 39 C 282.626 39, 281.766 39.563, 281.557 40.250 M 291.750 40.080 C 287.165 42.750, 285.245 54.102, 288.829 57.345 C 290.911 59.229, 296.157 59.521, 299.150 57.920 C 301.555 56.633, 304 51.211, 304 47.167 C 304 42.843, 300.536 38.993, 296.677 39.030 C 294.930 39.047, 292.712 39.519, 291.750 40.080 M 170 43.418 C 170 44.198, 169.727 45.548, 169.393 46.418 C 168.923 47.643, 169.460 48, 171.771 48 C 175.125 48, 177.519 45.795, 176.643 43.513 C 175.883 41.532, 170 41.448, 170 43.418 M 229.607 43.582 C 228.428 46.654, 228.983 48, 231.429 48 C 233.781 48, 237 45.709, 237 44.036 C 237 41.752, 230.463 41.350, 229.607 43.582 M 266.535 43.250 C 266.104 44.588, 264 54.797, 264 55.549 C 264 56.281, 268.404 56.034, 269.600 55.235 C 272.737 53.141, 274.128 45.528, 271.800 43.200 C 270.230 41.630, 267.047 41.660, 266.535 43.250 M 293.025 43.975 C 290.397 46.603, 289.493 50.593, 290.852 53.574 C 293.221 58.773, 300 54.651, 300 48.011 C 300 42.172, 296.724 40.276, 293.025 43.975 M 249.643 46.843 C 247.679 50.510, 247.889 51.331, 250.664 50.831 C 252.160 50.561, 252.401 49.853, 251.966 47 L 251.433 43.500 249.643 46.843 M 128.807 47.750 C 126.212 50.772, 125.994 51.686, 127.110 54.885 C 128.621 59.220, 131.191 59.153, 129.946 54.811 C 129.282 52.495, 129.396 51.195, 130.364 50.061 C 132.755 47.259, 133.173 46, 131.714 46 C 130.942 46, 129.634 46.788, 128.807 47.750 M 133.174 48.314 C 130.684 50.965, 130.549 51.917, 132.161 55.453 C 133.784 59.016, 135.381 58.656, 134.630 54.898 C 134.178 52.639, 134.570 51.008, 136.073 48.898 C 138.656 45.270, 136.451 44.826, 133.174 48.314 M 315.497 48.988 C 315.982 51.193, 315.591 52.765, 314.009 54.988 C 311.069 59.116, 313.862 59.142, 317.331 55.018 C 319.553 52.378, 319.710 51.691, 318.701 49.018 C 317.162 44.941, 314.603 44.916, 315.497 48.988 M 320.524 49.277 C 320.989 51.754, 320.616 53.218, 318.997 55.277 C 316.024 59.057, 318.742 58.923, 322.395 55.109 C 325.090 52.296, 325.122 52.136, 323.557 49.109 C 321.426 44.988, 319.737 45.082, 320.524 49.277 M 57.250 69.718 C 55.793 70.241, 55.532 77, 56.969 77 C 57.501 77, 57.693 76.364, 57.395 75.587 C 57.076 74.757, 57.604 73.981, 58.677 73.703 C 60.333 73.275, 60.340 73.221, 58.750 73.116 C 57.788 73.052, 57 72.583, 57 72.073 C 57 71.564, 57.788 70.991, 58.750 70.800 C 59.712 70.609, 60.050 70.187, 59.500 69.861 C 58.950 69.536, 57.938 69.472, 57.250 69.718 M 272.040 71.452 C 270.518 73.285, 271.035 76.181, 273 76.830 C 274.282 77.253, 274.302 77.085, 273.138 75.675 C 271.155 73.273, 272.448 70.709, 275.245 71.497 C 277.009 71.993, 277.174 71.902, 276 71.081 C 274.005 69.684, 273.465 69.735, 272.040 71.452 M 304 73.500 C 304 76.685, 304.248 76.988, 306.750 76.864 C 309.108 76.747, 309.179 76.666, 307.250 76.294 C 304.571 75.778, 304.294 74.331, 306.750 73.689 C 308.417 73.254, 308.417 73.226, 306.750 73.116 C 305.788 73.052, 305 72.583, 305 72.073 C 305 71.564, 305.788 70.941, 306.750 70.689 C 308.067 70.345, 307.943 70.203, 306.250 70.116 C 304.323 70.017, 304 70.503, 304 73.500 M 351.040 71.452 C 348.791 74.161, 350.206 76.497, 354.119 76.535 C 356.623 76.560, 357.675 76.139, 357.603 75.143 C 357.546 74.358, 358.131 73.494, 358.902 73.224 C 359.924 72.865, 360.148 73.326, 359.730 74.923 C 359.258 76.731, 359.406 76.908, 360.579 75.935 C 361.596 75.091, 362 75.074, 362 75.878 C 362 76.495, 362.675 77, 363.500 77 C 364.325 77, 365.007 76.438, 365.015 75.750 C 365.026 74.900, 365.376 74.980, 366.110 76 C 367.035 77.286, 367.113 77.263, 366.657 75.833 C 366.365 74.916, 366.745 73.928, 367.501 73.638 C 368.353 73.311, 369.037 73.944, 369.302 75.305 L 369.728 77.500 369.864 75.250 C 369.939 74.013, 370.419 73, 370.930 73 C 371.442 73, 372.056 74.013, 372.294 75.250 C 372.666 77.179, 372.747 77.108, 372.864 74.750 C 372.982 72.362, 372.625 72, 370.155 72 C 368.590 72, 366.505 72.889, 365.521 73.976 C 363.788 75.892, 361.366 75.835, 362.558 73.906 C 362.883 73.381, 362.778 73.033, 362.324 73.134 C 361.871 73.235, 360.655 72.951, 359.622 72.503 C 358.230 71.899, 357.293 72.286, 356 74 C 354.004 76.646, 350.621 76.118, 351.217 73.253 C 351.465 72.063, 352.372 71.581, 354.041 71.753 C 355.965 71.951, 356.174 71.791, 355 71.018 C 352.984 69.691, 352.453 69.749, 351.040 71.452 M 96 71.803 C 93.997 72.466, 93.070 74.019, 93.700 75.659 C 94.349 77.352, 97.995 77.429, 98.015 75.750 C 98.026 74.917, 98.354 75, 99 76 C 99.646 77, 99.974 77.083, 99.985 76.250 C 99.993 75.563, 100.675 75, 101.500 75 C 102.325 75, 103 74.536, 103 73.969 C 103 72.331, 99.880 71.575, 99 72.999 C 98.373 74.014, 98.127 73.971, 97.851 72.799 C 97.658 71.978, 96.825 71.530, 96 71.803 M 106.232 74 C 106.232 75.925, 106.438 76.713, 106.689 75.750 C 106.941 74.787, 106.941 73.213, 106.689 72.250 C 106.438 71.287, 106.232 72.075, 106.232 74 M 119 72.559 C 119 73.416, 119.457 73.835, 120.016 73.490 C 120.575 73.144, 120.774 72.443, 120.457 71.931 C 119.600 70.544, 119 70.802, 119 72.559 M 182.750 72.109 C 180.340 73.473, 180.460 77, 182.917 77 C 183.971 77, 185.060 76.438, 185.338 75.750 C 185.741 74.750, 185.858 74.750, 185.921 75.750 C 185.964 76.438, 187.012 76.968, 188.250 76.930 C 190.397 76.863, 190.408 76.820, 188.500 76 C 186.790 75.265, 186.754 75.130, 188.250 75.070 C 189.213 75.032, 190 74.536, 190 73.969 C 190 72.331, 186.880 71.575, 186 72.999 C 185.384 73.997, 185.123 73.931, 184.851 72.704 C 184.585 71.503, 184.076 71.358, 182.750 72.109 M 193.232 74 C 193.232 75.925, 193.438 76.713, 193.689 75.750 C 193.941 74.787, 193.941 73.213, 193.689 72.250 C 193.438 71.287, 193.232 72.075, 193.232 74 M 252.543 71.931 C 252.226 72.443, 252.425 73.144, 252.984 73.490 C 253.543 73.835, 254 73.416, 254 72.559 C 254 70.802, 253.400 70.544, 252.543 71.931 M 277.383 73.878 L 275.266 76.500 278.883 76.690 C 281.463 76.825, 281.942 76.658, 280.554 76.108 C 278.699 75.372, 278.711 75.309, 280.821 74.757 C 282.039 74.439, 283.590 74.700, 284.268 75.339 C 284.945 75.978, 286.738 76.645, 288.250 76.822 C 290.620 77.099, 291 76.788, 291 74.572 C 291 72.783, 290.467 72.005, 289.250 72.015 C 287.910 72.027, 287.812 72.229, 288.834 72.876 C 289.908 73.557, 289.859 73.840, 288.584 74.329 C 287.713 74.664, 286.287 74.664, 285.416 74.329 C 284.129 73.836, 284.082 73.544, 285.166 72.774 C 286.098 72.112, 285.762 71.991, 284.052 72.371 C 282.706 72.671, 281.131 72.543, 280.552 72.086 C 279.920 71.588, 278.655 72.303, 277.383 73.878 M 330.750 72.080 C 328.289 73.513, 328.466 77, 331 77 C 332.556 77, 333 76.333, 333 74 C 333 72.350, 332.887 71.014, 332.750 71.030 C 332.613 71.047, 331.712 71.519, 330.750 72.080 M 341.232 74 C 341.232 75.925, 341.438 76.713, 341.689 75.750 C 341.941 74.787, 341.941 73.213, 341.689 72.250 C 341.438 71.287, 341.232 72.075, 341.232 74 M 62.136 74.817 C 62.256 77.174, 62.325 77.226, 62.706 75.250 C 62.944 74.013, 63.527 73, 64 73 C 64.473 73, 65.056 74.013, 65.294 75.250 C 65.708 77.396, 65.739 77.384, 65.963 75 L 66.199 72.500 67 75 L 67.801 77.500 67.900 74.902 C 67.986 72.678, 67.569 72.292, 65 72.219 C 62.359 72.144, 62.016 72.455, 62.136 74.817 M 70.750 72.689 C 69.706 72.962, 69.047 74.025, 69.116 75.323 C 69.206 77.015, 69.334 77.110, 69.689 75.750 C 70.184 73.857, 71.540 73.446, 72.447 74.915 C 72.758 75.418, 72.447 76.057, 71.756 76.336 C 70.975 76.650, 71.140 76.872, 72.191 76.921 C 74.533 77.030, 75.490 75.125, 73.480 74.354 C 72.163 73.849, 72.100 73.552, 73.166 72.876 C 74.566 71.989, 73.690 71.921, 70.750 72.689 M 75.610 72.822 C 75.331 73.274, 75.979 74.394, 77.051 75.312 C 78.123 76.230, 79 76.561, 79 76.049 C 79 75.537, 78.502 74.810, 77.893 74.434 C 77.122 73.957, 77.197 73.490, 78.143 72.890 C 79.210 72.214, 79.139 72.027, 77.809 72.015 C 76.879 72.007, 75.890 72.370, 75.610 72.822 M 80 74.500 C 80 77.291, 84.151 77.595, 86.520 74.978 C 88.727 72.540, 89.717 72.480, 90.311 74.750 C 90.739 76.390, 90.775 76.388, 90.884 74.719 C 91.025 72.551, 88.101 71.219, 87.024 72.961 C 86.484 73.836, 86.046 73.884, 85.575 73.122 C 85.204 72.522, 83.798 72.122, 82.450 72.233 C 80.707 72.378, 80 73.032, 80 74.500 M 110.834 72.876 C 111.908 73.557, 111.859 73.840, 110.584 74.329 C 108.810 75.010, 108.419 77, 110.059 77 C 110.641 77, 110.840 76.550, 110.500 76 C 110.160 75.450, 110.321 75, 110.858 75 C 111.394 75, 112.060 75.563, 112.338 76.250 C 112.615 76.938, 112.878 76.263, 112.921 74.750 C 112.978 72.762, 112.515 72.004, 111.250 72.015 C 109.910 72.027, 109.812 72.229, 110.834 72.876 M 114.063 74.750 L 114.127 77.500 115.199 75 L 116.271 72.500 117.036 75 L 117.801 77.500 117.900 74.750 C 117.977 72.633, 117.539 72, 116 72 C 114.469 72, 114.015 72.646, 114.063 74.750 M 121.577 74.194 C 120.886 75.180, 120.023 75.765, 119.660 75.494 C 119.297 75.222, 119.238 75.313, 119.529 75.696 C 120.346 76.770, 123 76.935, 123 75.912 C 123 74.503, 125.992 74.834, 126.063 76.250 C 126.098 76.938, 126.544 76.459, 127.055 75.186 C 127.565 73.913, 128.437 73.152, 128.992 73.495 C 129.546 73.838, 130 73.686, 130 73.158 C 130 71.421, 122.908 72.293, 121.577 74.194 M 131.667 72.667 C 131.300 73.033, 131.029 74.271, 131.063 75.417 C 131.120 77.293, 131.233 77.252, 132.199 75 L 133.271 72.500 134.036 75 L 134.801 77.500 134.900 74.750 C 134.994 72.153, 133.283 71.050, 131.667 72.667 M 136.368 73.484 C 136.019 74.392, 136.310 75.667, 137.014 76.317 C 138.005 77.233, 138.134 77.218, 137.588 76.250 C 137.148 75.471, 137.501 75, 138.524 75 C 139.428 75, 139.989 74.466, 139.771 73.813 C 139.132 71.896, 137.054 71.695, 136.368 73.484 M 144.899 72.820 C 143.486 73.420, 143.533 73.734, 145.303 75.500 C 146.405 76.600, 146.987 76.938, 146.595 76.250 C 146.155 75.480, 146.480 75, 147.441 75 C 148.298 75, 149 74.325, 149 73.500 C 149 71.922, 147.572 71.685, 144.899 72.820 M 150 74.500 C 150 75.875, 150.388 77, 150.861 77 C 151.335 77, 151.508 75.875, 151.245 74.500 C 150.982 73.125, 150.594 72, 150.383 72 C 150.173 72, 150 73.125, 150 74.500 M 153.195 74.500 C 153.215 76.150, 153.439 76.704, 153.693 75.731 C 153.947 74.758, 153.930 73.408, 153.656 72.731 C 153.382 72.054, 153.175 72.850, 153.195 74.500 M 155.136 74.677 C 155.250 77.035, 155.344 77.129, 155.706 75.250 C 155.944 74.013, 156.527 73, 157 73 C 157.473 73, 158.078 74.013, 158.344 75.250 C 158.773 77.245, 158.809 77.218, 158.664 75.010 C 158.566 73.518, 157.799 72.387, 156.750 72.187 C 155.395 71.929, 155.031 72.490, 155.136 74.677 M 160.688 72.646 C 159.055 74.279, 160.046 76.999, 162.250 76.930 C 164.397 76.863, 164.408 76.820, 162.500 76 C 160.685 75.220, 160.670 75.134, 162.333 75.070 C 163.342 75.032, 163.989 74.466, 163.771 73.813 C 163.284 72.351, 161.614 71.719, 160.688 72.646 M 165 73.071 C 165 75.144, 167.539 76.608, 171.250 76.674 C 173.313 76.711, 175 76.349, 175 75.870 C 175 75.392, 175.675 75, 176.500 75 C 178.505 75, 178.417 73.097, 176.376 72.314 C 175.408 71.942, 174.388 72.342, 173.850 73.304 C 173.332 74.230, 172.284 74.662, 171.390 74.319 C 170.132 73.837, 170.089 73.559, 171.166 72.876 C 172.076 72.299, 172.121 72.026, 171.309 72.015 C 169.250 71.989, 168.881 73.832, 170.729 74.908 C 172.096 75.704, 172.158 75.939, 171 75.938 C 168.654 75.936, 165.600 73.320, 167.197 72.680 C 168.039 72.343, 167.880 72.130, 166.750 72.079 C 165.787 72.036, 165 72.482, 165 73.071 M 196.427 72.834 C 198.154 73.566, 198.180 73.717, 196.677 74.294 C 195.755 74.648, 195.036 75.514, 195.079 76.219 C 195.141 77.222, 195.267 77.229, 195.662 76.250 C 195.940 75.563, 196.606 75, 197.142 75 C 197.679 75, 197.840 75.450, 197.500 76 C 197.160 76.550, 197.390 77, 198.011 77 C 200.040 77, 198.614 72.535, 196.500 72.269 C 194.574 72.026, 194.572 72.047, 196.427 72.834 M 202.136 74.750 C 202.253 77.108, 202.334 77.179, 202.706 75.250 C 202.944 74.013, 203.527 73, 204 73 C 204.473 73, 205.056 74.013, 205.294 75.250 L 205.728 77.500 205.864 75.250 C 206.032 72.468, 208 72.238, 208 75 C 208 76.111, 208.667 77, 209.500 77 C 210.325 77, 211.007 76.438, 211.015 75.750 C 211.026 74.917, 211.354 75, 212 76 C 212.755 77.169, 212.973 76.893, 212.985 74.750 C 212.996 72.786, 212.500 72.004, 211.250 72.015 C 209.910 72.027, 209.812 72.229, 210.834 72.876 C 211.919 73.564, 211.888 73.829, 210.667 74.298 C 209.841 74.615, 208.917 74.227, 208.614 73.437 C 208.303 72.625, 206.744 72, 205.031 72 C 202.358 72, 202.016 72.325, 202.136 74.750 M 216.496 73.007 C 216.153 73.561, 216.656 74.315, 217.614 74.682 C 219.217 75.297, 219.202 75.411, 217.427 76.123 C 215.953 76.714, 216.231 76.861, 218.605 76.746 C 220.629 76.649, 221.674 76.095, 221.605 75.156 C 221.547 74.364, 222.131 73.494, 222.902 73.224 C 223.910 72.870, 224.149 73.321, 223.754 74.832 C 223.079 77.414, 225.177 77.290, 226.242 74.686 C 226.649 73.688, 227.437 73.152, 227.992 73.495 C 228.546 73.838, 229 73.703, 229 73.195 C 229 71.705, 221.176 72.100, 220.593 73.620 C 220.297 74.389, 219.381 74.700, 218.454 74.344 C 217.154 73.845, 217.097 73.554, 218.166 72.876 C 219.076 72.299, 219.121 72.026, 218.309 72.015 C 217.654 72.007, 216.838 72.453, 216.496 73.007 M 233 72.969 C 233 73.501, 233.747 73.650, 234.661 73.300 C 235.940 72.809, 236.204 73.112, 235.810 74.617 C 235.451 75.991, 235.805 76.571, 237.003 76.571 C 237.940 76.571, 238.660 75.929, 238.603 75.143 C 238.546 74.358, 239.131 73.494, 239.902 73.224 C 240.880 72.881, 241.152 73.311, 240.801 74.652 C 240.446 76.011, 240.816 76.571, 242.071 76.571 C 243.129 76.571, 243.791 75.880, 243.714 74.855 C 243.643 73.911, 243.341 73.179, 243.042 73.228 C 242.744 73.277, 241.667 72.956, 240.649 72.513 C 239.471 72.001, 238.517 72.164, 238.024 72.961 C 237.475 73.849, 237.051 73.892, 236.566 73.107 C 235.724 71.744, 233 71.639, 233 72.969 M 247.500 73 C 247.160 73.550, 247.332 74, 247.882 74 C 248.432 74, 249.160 73.550, 249.500 73 C 249.840 72.450, 249.668 72, 249.118 72 C 248.568 72, 247.840 72.450, 247.500 73 M 255.507 72.989 C 255.157 73.555, 255.558 73.723, 256.448 73.382 C 257.479 72.986, 258 73.362, 258 74.500 C 258 75.613, 257.474 76.012, 256.500 75.638 C 255.675 75.322, 255 75.499, 255 76.031 C 255 77.385, 257.359 77.241, 258.800 75.800 C 259.733 74.867, 260 74.867, 260 75.800 C 260 77.654, 263.811 77.218, 264.177 75.321 C 264.476 73.768, 264.631 73.774, 266.250 75.393 C 267.212 76.355, 268 76.687, 268 76.130 C 268 75.574, 267.502 74.810, 266.893 74.434 C 266.122 73.957, 266.197 73.488, 267.143 72.885 C 268.068 72.295, 267.624 72.086, 265.750 72.228 C 263.857 72.371, 263 72.991, 263 74.218 C 263 75.198, 262.550 76, 262 76 C 261.450 76, 260.993 74.987, 260.985 73.750 C 260.974 72.107, 260.738 71.866, 260.110 72.857 C 259.510 73.803, 259.043 73.878, 258.566 73.107 C 257.718 71.734, 256.316 71.680, 255.507 72.989 M 292 74.500 C 292 75.875, 292.173 77, 292.383 77 C 292.594 77, 292.982 75.875, 293.245 74.500 C 293.508 73.125, 293.335 72, 292.861 72 C 292.388 72, 292 73.125, 292 74.500 M 297.834 72.807 C 298.922 73.553, 298.888 73.829, 297.648 74.305 C 296.813 74.625, 295.911 74.350, 295.644 73.694 C 295.376 73.037, 295.122 73.513, 295.079 74.750 C 295 77.005, 296.813 77.436, 298.235 75.500 C 298.690 74.881, 298.975 74.976, 298.985 75.750 C 298.993 76.438, 299.481 77, 300.070 77 C 302.037 77, 300.574 72.532, 298.500 72.206 C 297.031 71.976, 296.854 72.135, 297.834 72.807 M 314.688 72.646 C 313.147 74.186, 314.040 77, 316.070 77 C 317.625 77, 318.060 76.461, 317.820 74.828 C 317.488 72.573, 315.880 71.453, 314.688 72.646 M 319 74.500 C 319 75.875, 319.173 77, 319.383 77 C 319.594 77, 319.982 75.875, 320.245 74.500 C 320.508 73.125, 320.335 72, 319.861 72 C 319.388 72, 319 73.125, 319 74.500 M 323.500 72.938 C 325.222 73.731, 325.257 73.869, 323.750 73.930 C 322.744 73.970, 322.034 74.744, 322.079 75.750 C 322.126 76.795, 322.361 76.997, 322.662 76.250 C 322.940 75.563, 323.606 75, 324.142 75 C 324.679 75, 324.840 75.450, 324.500 76 C 324.160 76.550, 324.390 77, 325.011 77 C 327.040 77, 325.614 72.535, 323.500 72.269 L 321.500 72.017 323.500 72.938 M 334.688 72.646 C 333.055 74.279, 334.046 76.999, 336.250 76.930 C 338.397 76.863, 338.408 76.820, 336.500 76 C 334.685 75.220, 334.670 75.134, 336.333 75.070 C 337.342 75.032, 337.989 74.466, 337.771 73.813 C 337.284 72.351, 335.614 71.719, 334.688 72.646 M 344.834 72.785 C 345.917 73.545, 345.870 73.836, 344.584 74.329 C 342.306 75.204, 342.632 77, 345.070 77 C 346.625 77, 347.060 76.461, 346.820 74.828 C 346.644 73.634, 345.825 72.475, 345 72.252 C 343.807 71.930, 343.773 72.039, 344.834 72.785 M 374.368 73.484 C 374.019 74.392, 374.310 75.667, 375.014 76.317 C 376.005 77.233, 376.134 77.218, 375.588 76.250 C 375.148 75.471, 375.501 75, 376.524 75 C 377.428 75, 377.989 74.466, 377.771 73.813 C 377.132 71.896, 375.054 71.695, 374.368 73.484 M 379.136 74.250 C 379.031 76.379, 379.452 77, 381 77 C 382.548 77, 382.969 76.379, 382.864 74.250 C 382.747 71.892, 382.666 71.821, 382.294 73.750 C 382.056 74.987, 381.473 76, 381 76 C 380.527 76, 379.944 74.987, 379.706 73.750 C 379.334 71.821, 379.253 71.892, 379.136 74.250 M 386.470 73.938 C 385.964 75.258, 385.778 75.263, 384.962 73.972 C 384.450 73.162, 384.031 72.950, 384.031 73.500 C 384.031 74.050, 384.450 75.162, 384.962 75.972 C 385.757 77.229, 385.990 77.189, 386.564 75.693 C 387.203 74.029, 387.310 74.031, 388.692 75.721 C 389.493 76.699, 389.895 76.989, 389.585 76.364 C 389.276 75.739, 389.963 74.982, 391.112 74.681 C 392.261 74.380, 392.909 73.661, 392.551 73.083 C 391.603 71.549, 387.146 72.176, 386.470 73.938 M 82.667 73.667 C 81.516 74.817, 81.938 76, 83.500 76 C 84.325 76, 85 75.325, 85 74.500 C 85 72.938, 83.817 72.516, 82.667 73.667 M 94.694 73.639 C 93.895 74.438, 94.798 76, 96.059 76 C 96.577 76, 97 75.325, 97 74.500 C 97 72.954, 95.820 72.513, 94.694 73.639 M 182 74.500 C 182 75.325, 182.450 76, 183 76 C 183.550 76, 184 75.325, 184 74.500 C 184 73.675, 183.550 73, 183 73 C 182.450 73, 182 73.675, 182 74.500 M 214.158 75 C 214.158 76.375, 214.385 76.938, 214.662 76.250 C 214.940 75.563, 214.940 74.438, 214.662 73.750 C 214.385 73.063, 214.158 73.625, 214.158 75 M 310.031 73.500 C 310.031 74.050, 310.411 75.100, 310.876 75.834 C 311.546 76.891, 311.859 76.810, 312.384 75.441 C 312.749 74.491, 312.811 73.478, 312.524 73.190 C 312.236 72.902, 311.993 73.304, 311.985 74.083 C 311.972 75.250, 311.798 75.235, 311 74 C 310.467 73.175, 310.031 72.950, 310.031 73.500 M 315 74.500 C 315 75.325, 315.450 76, 316 76 C 316.550 76, 317 75.325, 317 74.500 C 317 73.675, 316.550 73, 316 73 C 315.450 73, 315 73.675, 315 74.500 M 330 74.500 C 330 75.325, 330.450 76, 331 76 C 331.550 76, 332 75.325, 332 74.500 C 332 73.675, 331.550 73, 331 73 C 330.450 73, 330 73.675, 330 74.500 M 143.158 77 C 143.158 78.375, 143.385 78.938, 143.662 78.250 C 143.940 77.563, 143.940 76.438, 143.662 75.750 C 143.385 75.063, 143.158 75.625, 143.158 77 M 233.158 77 C 233.158 78.375, 233.385 78.938, 233.662 78.250 C 233.940 77.563, 233.940 76.438, 233.662 75.750 C 233.385 75.063, 233.158 75.625, 233.158 77 M 101.667 81.667 C 101.300 82.033, 101.045 83.721, 101.100 85.417 C 101.196 88.406, 101.224 88.424, 102 86 L 102.801 83.500 103 86 L 103.199 88.500 104 86 C 105.425 81.550, 105.247 80.555, 103.308 82.128 C 102.158 83.060, 101.857 83.099, 102.367 82.250 C 103.172 80.911, 102.763 80.571, 101.667 81.667 M 172.386 82.184 C 171.274 83.983, 171.165 86.984, 172.189 87.617 C 172.662 87.909, 172.926 87.710, 172.775 87.174 C 172.624 86.638, 172.950 86.200, 173.500 86.200 C 174.050 86.200, 174.350 86.718, 174.167 87.350 C 173.983 87.982, 174.180 88.153, 174.604 87.730 C 175.866 86.467, 175.760 83.045, 174.423 81.936 C 173.549 81.211, 172.942 81.284, 172.386 82.184 M 179.390 82.427 C 179.088 83.212, 179.009 84.900, 179.214 86.177 C 179.488 87.886, 179.721 87.509, 180.093 84.750 C 180.616 80.868, 180.339 79.952, 179.390 82.427 M 205.992 82.136 C 204.745 83.016, 204.787 83.096, 206.250 82.626 C 208.463 81.914, 208.513 83.776, 206.345 86.171 C 204.785 87.895, 204.828 87.995, 207.095 87.921 C 208.418 87.878, 208.954 87.621, 208.286 87.350 C 207.344 86.968, 207.338 86.431, 208.261 84.954 C 209.768 82.541, 208.192 80.583, 205.992 82.136 M 241.965 82.542 C 240.924 83.797, 240.928 84.310, 241.990 85.292 C 243.029 86.255, 243.179 86.169, 242.725 84.872 C 242.412 83.976, 242.661 82.739, 243.278 82.122 C 243.895 81.505, 244.140 81, 243.822 81 C 243.505 81, 242.669 81.694, 241.965 82.542 M 267.514 82.629 C 266.618 83.525, 266.136 84.912, 266.442 85.711 C 266.749 86.510, 267 87.352, 267 87.582 C 267 87.812, 267.355 88, 267.789 88 C 268.224 88, 268.561 86.763, 268.539 85.250 C 268.511 83.238, 268.967 82.537, 270.239 82.637 C 271.196 82.712, 271.732 82.375, 271.430 81.887 C 270.613 80.565, 269.336 80.807, 267.514 82.629 M 337.250 81.718 C 335.407 82.379, 335.728 84.322, 338 86.268 C 339.935 87.924, 340 87.885, 340 85.049 C 340 81.911, 339.249 81.001, 337.250 81.718 M 353.771 82.766 C 353.517 83.737, 353.658 85.425, 354.085 86.516 C 354.675 88.027, 354.876 87.606, 354.930 84.750 C 355.005 80.732, 354.520 79.902, 353.771 82.766 M 93.150 84.750 C 93.019 87.590, 93.315 88, 95.500 88 C 96.875 88, 98 87.592, 98 87.094 C 98 86.595, 97.134 86.414, 96.076 86.690 C 94.568 87.085, 94.059 86.578, 93.726 84.347 C 93.311 81.577, 93.296 81.588, 93.150 84.750 M 97.797 84.995 C 98.927 86.981, 99.609 87.487, 99.823 86.496 C 100.001 85.675, 99.470 84.327, 98.644 83.502 C 96.281 81.138, 95.942 81.735, 97.797 84.995 M 127.136 84.583 C 127.042 86.718, 127.462 87.667, 128.500 87.667 C 129.325 87.667, 130 87.292, 130 86.833 C 130 86.375, 130.675 86, 131.500 86 C 133.274 86, 133.487 84.419, 131.848 83.406 C 131.215 83.015, 130.126 83.475, 129.429 84.429 C 128.262 86.024, 128.125 85.977, 127.716 83.831 C 127.358 81.950, 127.246 82.096, 127.136 84.583 M 167.500 83 C 167.160 83.550, 167.327 84, 167.871 84 C 168.416 84, 169.064 85.013, 169.311 86.250 C 169.587 87.626, 169.726 87.238, 169.668 85.250 C 169.575 82.018, 168.681 81.090, 167.500 83 M 182.194 83.206 C 180.716 84.684, 180.622 88, 182.059 88 C 182.641 88, 182.840 87.550, 182.500 87 C 182.160 86.450, 182.584 86, 183.441 86 C 185.157 86, 185.385 85.154, 184.179 83.256 C 183.567 82.291, 183.120 82.280, 182.194 83.206 M 210 85 C 210 87.333, 210.444 88, 212 88 C 213.556 88, 214 87.333, 214 85 C 214 82.667, 213.556 82, 212 82 C 210.444 82, 210 82.667, 210 85 M 215.500 83 C 215.160 83.550, 215.327 84, 215.871 84 C 216.416 84, 217.056 85.013, 217.294 86.250 C 217.608 87.877, 217.765 87.600, 217.864 85.250 C 217.995 82.109, 216.771 80.944, 215.500 83 M 220.700 82.646 C 221.541 82.988, 221.623 83.860, 220.975 85.567 C 219.684 88.961, 220.634 88.608, 222.500 85 C 224.006 82.087, 223.985 82.002, 221.776 82.079 C 220.524 82.122, 220.040 82.377, 220.700 82.646 M 245.325 82.658 C 245.687 83.020, 245.531 83.860, 244.979 84.525 C 244.294 85.351, 244.376 86.066, 245.238 86.779 C 246.202 87.576, 246.525 87.135, 246.606 84.911 C 246.665 83.310, 246.253 82, 245.690 82 C 245.127 82, 244.963 82.296, 245.325 82.658 M 254.750 82.689 C 253.787 82.941, 253 83.654, 253 84.273 C 253 85.068, 252.647 85.047, 251.800 84.200 C 249.783 82.183, 248.249 82.856, 248.270 85.750 C 248.281 87.263, 248.487 87.938, 248.728 87.250 C 248.969 86.563, 249.606 86, 250.142 86 C 250.679 86, 250.857 86.423, 250.537 86.939 C 250.218 87.456, 250.801 87.815, 251.834 87.738 C 252.866 87.660, 253.663 86.900, 253.605 86.048 C 253.541 85.101, 254.180 84.614, 255.250 84.794 C 256.288 84.968, 257 84.459, 257 83.544 C 257 82.695, 256.887 82.052, 256.750 82.116 C 256.613 82.180, 255.713 82.438, 254.750 82.689 M 302.015 85.250 C 302.026 87.460, 302.307 88.064, 302.893 87.139 C 303.679 85.898, 303.293 82, 302.383 82 C 302.173 82, 302.007 83.463, 302.015 85.250 M 305.731 83.920 C 305.296 85.583, 305.426 85.974, 306.168 85.232 C 306.750 84.650, 307.028 83.585, 306.788 82.863 C 306.538 82.114, 306.085 82.568, 305.731 83.920 M 324 83.278 C 324 83.981, 324.900 85.326, 326 86.268 C 327.943 87.931, 327.997 87.887, 327.884 84.740 C 327.820 82.958, 327.562 82.287, 327.311 83.250 C 327.059 84.213, 326.388 85, 325.820 85 C 325.251 85, 325.045 84.325, 325.362 83.500 C 325.678 82.675, 325.501 82, 324.969 82 C 324.436 82, 324 82.575, 324 83.278 M 331.456 85 C 331.478 86.650, 331.804 88, 332.181 88 C 332.558 88, 332.828 86.650, 332.781 85 C 332.734 83.350, 332.408 82, 332.056 82 C 331.704 82, 331.434 83.350, 331.456 85 M 344.079 85.211 C 344.122 87.020, 344.415 87.825, 344.729 87 C 345.043 86.175, 345.633 85.275, 346.039 85 C 346.446 84.725, 346.153 83.920, 345.389 83.211 C 344.223 82.128, 344.013 82.449, 344.079 85.211 M 349.070 85.250 C 349.129 87.974, 349.280 88.176, 350 86.500 C 351.187 83.737, 351.187 82, 350 82 C 349.450 82, 349.032 83.463, 349.070 85.250 M 110.610 83.822 C 109.781 85.163, 113.272 87.482, 116.500 87.734 C 119.022 87.930, 119.181 87.822, 117.500 87.054 C 115.557 86.167, 115.562 86.139, 117.667 86.070 C 118.858 86.032, 120.060 86.563, 120.338 87.250 C 120.741 88.250, 120.858 88.250, 120.921 87.250 C 120.964 86.563, 121.675 86, 122.500 86 C 123.325 86, 124 85.577, 124 85.059 C 124 83.480, 121.892 82.708, 120.737 83.863 C 119.951 84.649, 119.248 84.621, 118.216 83.764 C 117.083 82.824, 116.519 82.937, 115.519 84.305 C 114.733 85.379, 113.606 85.786, 112.543 85.378 C 111.185 84.857, 111.107 84.547, 112.166 83.876 C 113.076 83.299, 113.121 83.026, 112.309 83.015 C 111.654 83.007, 110.890 83.370, 110.610 83.822 M 136.495 84.008 C 135.691 85.309, 137.935 87.422, 140.500 87.777 C 142.473 88.051, 142.474 88.034, 140.559 86.527 C 139.491 85.687, 138.141 84.993, 137.559 84.985 C 136.976 84.976, 137.175 84.533, 138 84 C 138.901 83.418, 139.025 83.025, 138.309 83.015 C 137.654 83.007, 136.838 83.453, 136.495 84.008 M 141.756 83.664 C 142.447 83.943, 142.814 84.491, 142.572 84.883 C 142.330 85.275, 142.545 86.249, 143.051 87.048 C 143.739 88.136, 143.973 87.811, 143.985 85.750 C 143.996 83.762, 143.515 83.022, 142.250 83.079 C 141.194 83.127, 140.998 83.359, 141.756 83.664 M 146.144 83.785 C 145.515 83.995, 145.029 85.142, 145.063 86.333 C 145.123 88.367, 145.192 88.347, 146.199 86 L 147.271 83.500 148.036 86 C 148.767 88.391, 148.805 88.401, 148.900 86.250 C 149.019 83.573, 151 83.180, 151 85.833 C 151 86.842, 151.675 87.667, 152.500 87.667 C 153.325 87.667, 154 87.292, 154 86.833 C 154 86.375, 154.787 86.007, 155.750 86.015 C 157.231 86.028, 157.272 86.175, 156.013 86.971 C 154.823 87.723, 154.945 87.880, 156.618 87.754 C 157.811 87.664, 158.665 86.941, 158.605 86.072 C 158.547 85.234, 159.025 84.537, 159.667 84.524 C 161.856 84.479, 162.341 83, 160.167 83 C 158.975 83, 158 83.505, 158 84.122 C 158 84.898, 157.536 84.860, 156.500 84 C 155.350 83.045, 154.671 83.028, 153.589 83.926 C 152.695 84.668, 151.955 84.737, 151.569 84.112 C 150.979 83.157, 148.481 83.006, 146.144 83.785 M 189.231 84.550 C 187.657 85.653, 187 85.753, 187 84.890 C 187 84.217, 186.764 83.902, 186.476 84.190 C 186.189 84.478, 186.261 85.516, 186.637 86.497 C 187.290 88.199, 187.383 88.197, 188.661 86.449 C 189.949 84.687, 190.002 84.691, 190.063 86.559 C 190.116 88.168, 190.310 88.072, 191.199 86 L 192.271 83.500 193.087 86 L 193.903 88.500 193.702 86.078 C 193.447 83.025, 192.078 82.557, 189.231 84.550 M 195.688 83.646 C 194.606 84.727, 194.885 88, 196.059 88 C 196.641 88, 196.840 87.550, 196.500 87 C 196.160 86.450, 196.621 86, 197.524 86 C 198.428 86, 198.989 85.466, 198.771 84.813 C 198.284 83.351, 196.614 82.719, 195.688 83.646 M 200 85.500 C 200 86.875, 200.173 88, 200.383 88 C 200.594 88, 200.982 86.875, 201.245 85.500 C 201.508 84.125, 201.335 83, 200.861 83 C 200.388 83, 200 84.125, 200 85.500 M 211 85 C 211 86.100, 211.450 87, 212 87 C 212.550 87, 213 86.100, 213 85 C 213 83.900, 212.550 83, 212 83 C 211.450 83, 211 83.900, 211 85 M 227.495 84.008 C 226.724 85.256, 228.938 87.459, 231.122 87.618 C 232.294 87.702, 232.592 87.155, 232.196 85.643 C 231.896 84.493, 231.474 84.077, 231.260 84.720 C 231.046 85.362, 230.187 85.625, 229.352 85.305 C 228.119 84.832, 228.084 84.562, 229.166 83.876 C 230.076 83.299, 230.121 83.026, 229.309 83.015 C 228.654 83.007, 227.838 83.453, 227.495 84.008 M 236.374 84.467 C 236.065 85.274, 236.004 86.511, 236.240 87.217 C 236.476 87.923, 236.906 87.263, 237.196 85.750 C 237.762 82.797, 237.295 82.068, 236.374 84.467 M 259.200 84.200 C 257.633 85.767, 257.684 86.665, 259.376 87.314 C 260.132 87.604, 260.695 87.315, 260.626 86.671 C 260.557 86.027, 260.950 85.500, 261.500 85.500 C 262.050 85.500, 262.430 86.111, 262.343 86.857 C 262.233 87.816, 262.499 87.901, 263.251 87.149 C 264.003 86.397, 263.940 85.633, 263.035 84.542 C 261.494 82.686, 260.778 82.622, 259.200 84.200 M 273.882 83.667 C 273.816 84.125, 273.816 84.838, 273.882 85.250 C 273.947 85.662, 273.352 86, 272.559 86 C 271.766 86, 270.857 86.423, 270.537 86.939 C 270.218 87.456, 270.866 87.810, 271.978 87.727 C 273.090 87.643, 274 87.220, 274 86.787 C 274 86.354, 274.477 86, 275.059 86 C 275.641 86, 275.840 86.450, 275.500 87 C 275.160 87.550, 275.390 88, 276.011 88 C 277.518 88, 276.841 83.769, 275.250 83.245 C 274.563 83.019, 273.947 83.208, 273.882 83.667 M 278.136 85.892 C 278.259 88.247, 278.314 88.282, 278.706 86.250 C 278.944 85.013, 279.558 84, 280.070 84 C 280.581 84, 281.045 85.013, 281.100 86.250 C 281.193 88.348, 281.243 88.365, 281.850 86.500 C 282.648 84.045, 288.566 83.679, 288.397 86.095 C 288.340 86.907, 289.060 87.571, 289.997 87.571 C 291.136 87.571, 291.547 86.983, 291.237 85.797 C 290.981 84.821, 290.374 84.269, 289.886 84.570 C 289.399 84.872, 289 84.718, 289 84.230 C 289 83.741, 286.525 83.329, 283.500 83.313 C 278.198 83.285, 278.005 83.378, 278.136 85.892 M 295.496 84.007 C 295.153 84.561, 295.656 85.315, 296.614 85.682 C 298.216 86.297, 298.201 86.410, 296.427 87.105 C 294.662 87.796, 294.689 87.865, 296.750 87.930 C 299.327 88.010, 299.781 86.237, 297.416 85.329 C 296.141 84.840, 296.092 84.557, 297.166 83.876 C 298.076 83.299, 298.121 83.026, 297.309 83.015 C 296.654 83.007, 295.838 83.453, 295.496 84.007 M 308.926 83.167 C 308.446 85.320, 308.248 88.207, 308.647 87.250 C 308.933 86.563, 309.606 86, 310.142 86 C 310.679 86, 310.840 86.450, 310.500 87 C 310.160 87.550, 310.390 88, 311.011 88 C 312.518 88, 311.841 83.769, 310.250 83.245 C 309.563 83.019, 308.967 82.983, 308.926 83.167 M 313.136 85.950 C 313.258 88.234, 313.317 88.270, 313.699 86.299 C 314.075 84.361, 314.445 84.219, 316.793 85.111 C 318.259 85.669, 319.799 86.659, 320.214 87.313 C 320.780 88.202, 320.973 88.178, 320.985 87.219 C 320.993 86.514, 320.287 85.664, 319.416 85.329 C 318.414 84.945, 318.225 84.479, 318.902 84.061 C 319.490 83.697, 318.402 83.400, 316.485 83.400 C 313.380 83.400, 313.015 83.678, 313.136 85.950 M 337 84 C 337 84.550, 337.450 85, 338 85 C 338.550 85, 339 84.550, 339 84 C 339 83.450, 338.550 83, 338 83 C 337.450 83, 337 83.450, 337 84 M 234.158 86 C 234.158 87.375, 234.385 87.938, 234.662 87.250 C 234.940 86.563, 234.940 85.438, 234.662 84.750 C 234.385 84.063, 234.158 84.625, 234.158 86 M 293.158 86 C 293.158 87.375, 293.385 87.938, 293.662 87.250 C 293.940 86.563, 293.940 85.438, 293.662 84.750 C 293.385 84.063, 293.158 84.625, 293.158 86 M 106.079 86.583 C 106.127 87.748, 106.364 87.985, 106.683 87.188 C 106.972 86.466, 106.936 85.603, 106.604 85.271 C 106.272 84.939, 106.036 85.529, 106.079 86.583 M 351 86.441 C 351 87.298, 351.450 88, 352 88 C 352.550 88, 353 87.577, 353 87.059 C 353 86.541, 352.550 85.840, 352 85.500 C 351.450 85.160, 351 85.584, 351 86.441 M 108.601 86.836 C 108.347 87.248, 109.007 87.650, 110.069 87.730 C 112.366 87.903, 112.568 87.432, 110.532 86.651 C 109.725 86.341, 108.856 86.424, 108.601 86.836 M 255.500 87 C 255.160 87.550, 255.359 88, 255.941 88 C 256.523 88, 257 87.550, 257 87 C 257 86.450, 256.802 86, 256.559 86 C 256.316 86, 255.840 86.450, 255.500 87 M 284.387 87.162 C 284.698 88.748, 287 89.508, 287 88.024 C 287 87.396, 286.588 87.136, 286.085 87.447 C 285.582 87.758, 284.941 87.548, 284.660 86.981 C 284.380 86.414, 284.257 86.496, 284.387 87.162 M 316.733 87.124 C 317.412 87.808, 318.219 88.115, 318.526 87.807 C 318.834 87.499, 318.279 86.940, 317.293 86.564 C 315.868 86.022, 315.753 86.136, 316.733 87.124 M 90.171 106.941 C 89.346 109.307, 89.412 109.779, 90.510 109.358 C 91.260 109.070, 91.629 108.197, 91.330 107.417 C 91.031 106.638, 91.235 106, 91.785 106 C 92.334 106, 93.079 107.178, 93.440 108.618 C 93.802 110.058, 94.361 110.972, 94.683 110.650 C 95.427 109.906, 93.023 104, 91.977 104 C 91.547 104, 90.734 105.323, 90.171 106.941 M 113.232 107 C 113.232 108.925, 113.438 109.713, 113.689 108.750 C 113.941 107.787, 113.941 106.213, 113.689 105.250 C 113.438 104.287, 113.232 105.075, 113.232 107 M 116.745 105.250 C 116.488 105.938, 116.633 107.400, 117.068 108.500 C 117.713 110.129, 117.872 109.897, 117.930 107.250 C 118.003 103.870, 117.550 103.105, 116.745 105.250 M 142 107.500 C 142 110.497, 142.323 110.983, 144.250 110.884 C 145.943 110.797, 146.067 110.655, 144.750 110.311 C 143.787 110.059, 143 109.469, 143 109 C 143 108.531, 143.787 107.941, 144.750 107.689 C 146.417 107.254, 146.417 107.226, 144.750 107.116 C 143.787 107.052, 143 106.583, 143 106.073 C 143 105.564, 143.787 104.941, 144.750 104.689 C 146.067 104.345, 145.943 104.203, 144.250 104.116 C 142.323 104.017, 142 104.503, 142 107.500 M 184.232 107 C 184.232 108.925, 184.438 109.713, 184.689 108.750 C 184.941 107.787, 184.941 106.213, 184.689 105.250 C 184.438 104.287, 184.232 105.075, 184.232 107 M 186.232 107 C 186.232 108.925, 186.438 109.713, 186.689 108.750 C 186.941 107.787, 186.941 106.213, 186.689 105.250 C 186.438 104.287, 186.232 105.075, 186.232 107 M 199.063 107.050 C 199.123 110.292, 199.185 110.354, 200.094 108.080 C 200.734 106.478, 200.713 105.313, 200.030 104.630 C 199.323 103.923, 199.020 104.682, 199.063 107.050 M 203.745 105.250 C 203.488 105.938, 203.633 107.400, 204.068 108.500 C 204.713 110.129, 204.872 109.897, 204.930 107.250 C 205.003 103.870, 204.550 103.105, 203.745 105.250 M 241.749 104.662 C 242.711 105.050, 242.653 105.657, 241.499 107.305 C 239.734 109.824, 239.594 111, 241.059 111 C 241.641 111, 241.859 110.581, 241.543 110.069 C 241.226 109.557, 241.422 108.857, 241.978 108.513 C 242.534 108.170, 243.457 107.014, 244.030 105.944 C 244.923 104.276, 244.746 104.011, 242.785 104.079 C 241.528 104.122, 241.062 104.385, 241.749 104.662 M 251.116 106.583 C 251.039 108.640, 251.475 109.667, 252.425 109.667 C 253.209 109.667, 253.791 108.873, 253.718 107.903 C 253.645 106.932, 253.262 106.338, 252.868 106.582 C 252.474 106.825, 251.945 106.231, 251.692 105.262 C 251.437 104.287, 251.180 104.876, 251.116 106.583 M 277.062 105 C 277.064 107.050, 279.807 110.526, 280.711 109.623 C 281.113 109.220, 280.967 108.578, 280.386 108.196 C 279.804 107.813, 278.819 106.600, 278.195 105.500 C 277.410 104.115, 277.061 103.961, 277.062 105 M 281.557 104.908 C 281.249 105.407, 281.418 106.869, 281.935 108.158 C 282.813 110.349, 282.877 110.290, 282.937 107.250 C 283.001 103.964, 282.581 103.251, 281.557 104.908 M 289.333 105.597 C 289.333 106.416, 289.904 106.867, 290.602 106.599 C 291.300 106.331, 292.089 106.650, 292.356 107.306 C 292.727 108.217, 292.861 108.212, 292.921 107.285 C 292.964 106.617, 292.175 105.629, 291.167 105.089 C 289.770 104.342, 289.333 104.463, 289.333 105.597 M 314.207 105.557 C 312.506 106.756, 311.572 106.890, 310.590 106.074 C 308.572 104.400, 306.281 107.429, 308 109.500 C 309.446 111.242, 311 111.470, 311 109.941 C 311 109.359, 310.550 109.160, 310 109.500 C 309.450 109.840, 309 109.641, 309 109.059 C 309 107.473, 311.102 107.782, 313.195 109.676 C 315.538 111.797, 317.288 110.311, 316.828 106.592 C 316.512 104.035, 316.419 103.998, 314.207 105.557 M 325.737 104.750 C 325.528 105.162, 325.673 106.850, 326.060 108.500 C 326.752 111.450, 326.765 111.437, 326.882 107.750 C 326.994 104.189, 326.577 103.096, 325.737 104.750 M 331.015 107.250 C 331.024 109.037, 331.361 110.017, 331.765 109.427 C 332.169 108.837, 333.288 108.064, 334.250 107.708 C 336.961 106.708, 336.413 104, 333.500 104 C 331.343 104, 331.002 104.446, 331.015 107.250 M 101.001 106.498 C 99.697 108.070, 100.288 111, 101.910 111 C 102.444 111, 103.167 110.539, 103.515 109.975 C 103.864 109.412, 103.778 109.074, 103.324 109.225 C 102.427 109.524, 101.991 108.701, 102.015 106.750 C 102.026 105.917, 102.354 106, 103 107 C 103.582 107.901, 103.975 108.025, 103.985 107.309 C 104.010 105.369, 102.320 104.910, 101.001 106.498 M 105.958 106.550 C 104.899 107.826, 104.945 108.374, 106.218 109.646 C 107.299 110.728, 107.971 110.856, 108.456 110.071 C 108.852 109.430, 108.582 109.068, 107.824 109.225 C 107.096 109.376, 106.500 108.825, 106.500 108 C 106.500 107.175, 107.096 106.624, 107.824 106.775 C 108.553 106.926, 108.864 106.588, 108.515 106.025 C 107.683 104.678, 107.477 104.720, 105.958 106.550 M 120.415 106.138 C 119.963 106.869, 120.124 107.041, 120.845 106.595 C 121.575 106.144, 122 106.639, 122 107.941 C 122 109.073, 121.523 110, 120.941 110 C 120.359 110, 120.203 109.480, 120.595 108.845 C 121.055 108.101, 120.868 107.964, 120.067 108.458 C 118.373 109.505, 120.227 111.234, 122.222 110.468 C 123.182 110.100, 123.583 109.122, 123.269 107.920 C 122.618 105.431, 121.343 104.635, 120.415 106.138 M 131.068 106.289 C 128.507 107.576, 127.102 110, 128.917 110 C 129.512 110, 130 109.377, 130 108.617 C 130 107.856, 130.900 106.998, 132 106.710 C 133.483 106.322, 134 106.680, 134 108.094 C 134 109.142, 133.523 110, 132.941 110 C 132.359 110, 132.160 109.550, 132.500 109 C 132.840 108.450, 132.604 108, 131.976 108 C 131.347 108, 131.021 108.563, 131.250 109.250 C 131.888 111.165, 134.427 110.735, 134.830 108.644 C 135.360 105.894, 133.798 104.916, 131.068 106.289 M 150.825 107.674 C 151.251 109.767, 151.503 110.019, 151.794 108.644 C 152.011 107.623, 151.751 106.351, 151.218 105.818 C 150.592 105.192, 150.452 105.849, 150.825 107.674 M 159.339 105.816 C 158.703 106.224, 158.593 107.308, 159.066 108.500 C 159.791 110.327, 159.874 110.284, 160.029 108 L 160.199 105.500 161 108 C 161.745 110.327, 161.808 110.349, 161.900 108.309 C 162.012 105.844, 160.932 104.793, 159.339 105.816 M 164.415 106.138 C 163.963 106.869, 164.124 107.041, 164.845 106.595 C 165.575 106.144, 166 106.639, 166 107.941 C 166 109.073, 165.523 110, 164.941 110 C 164.359 110, 164.203 109.480, 164.595 108.845 C 165.055 108.101, 164.868 107.964, 164.067 108.458 C 163.240 108.970, 163.159 109.559, 163.826 110.226 C 165.183 111.583, 167 110.308, 167 108 C 167 105.693, 165.401 104.542, 164.415 106.138 M 179.688 105.646 C 178.624 106.710, 178.876 109.805, 180.087 110.554 C 180.685 110.923, 181.698 110.698, 182.337 110.054 C 183.224 109.160, 183.084 109.040, 181.750 109.548 C 180.426 110.052, 180 109.701, 180 108.107 C 180 106.948, 180.477 106, 181.059 106 C 181.641 106, 181.840 106.450, 181.500 107 C 181.160 107.550, 181.396 108, 182.024 108 C 183.366 108, 182.834 105.778, 181.375 105.292 C 180.825 105.108, 180.066 105.268, 179.688 105.646 M 189.010 106.488 C 188.008 107.695, 188.006 108.303, 189 109.500 C 190.423 111.214, 192 111.477, 192 110 C 192 109.450, 191.662 109.112, 191.250 109.250 C 190.421 109.526, 189.992 108.657, 190.015 106.750 C 190.026 105.903, 190.331 105.975, 190.961 106.971 C 191.473 107.780, 192.152 108.182, 192.470 107.864 C 192.788 107.545, 192.422 106.765, 191.657 106.130 C 190.586 105.241, 189.976 105.323, 189.010 106.488 M 207.458 106.067 C 206.964 106.868, 207.101 107.055, 207.845 106.595 C 208.575 106.144, 209 106.639, 209 107.941 C 209 109.073, 208.523 110, 207.941 110 C 207.359 110, 207.203 109.480, 207.595 108.845 C 208.055 108.101, 207.868 107.964, 207.067 108.458 C 205.368 109.509, 207.230 111.233, 209.234 110.464 C 210.956 109.803, 210.989 107.589, 209.303 105.903 C 208.533 105.133, 208.007 105.180, 207.458 106.067 M 217.540 105.936 C 217.160 106.550, 217.501 106.745, 218.371 106.411 C 219.397 106.017, 219.740 106.401, 219.499 107.673 C 219.309 108.678, 219.112 109.725, 219.061 110 C 219.011 110.275, 218.533 109.825, 218 109 C 217.418 108.099, 217.025 107.975, 217.015 108.691 C 216.994 110.363, 218.359 111.014, 219.896 110.064 C 221.412 109.127, 221.032 105.843, 219.342 105.280 C 218.705 105.068, 217.894 105.363, 217.540 105.936 M 227.452 106.332 C 227.753 107.339, 228 108.652, 228 109.248 C 228 109.845, 228.296 110.037, 228.658 109.675 C 229.020 109.313, 229.939 109.534, 230.700 110.166 C 231.747 111.035, 232.379 111.018, 233.292 110.098 C 234.238 109.145, 234.121 109.026, 232.750 109.548 C 231.426 110.052, 231 109.701, 231 108.107 C 231 106.948, 231.477 106, 232.059 106 C 232.641 106, 232.840 106.450, 232.500 107 C 232.160 107.550, 232.359 108, 232.941 108 C 234.354 108, 234.293 106.299, 232.848 105.406 C 232.215 105.015, 231.178 105.403, 230.544 106.270 C 229.501 107.697, 229.275 107.688, 228.148 106.173 C 227.010 104.642, 226.951 104.656, 227.452 106.332 M 246.540 105.936 C 246.160 106.550, 246.501 106.745, 247.371 106.411 C 248.397 106.017, 248.740 106.401, 248.499 107.673 C 248.309 108.678, 248.112 109.725, 248.061 110 C 248.011 110.275, 247.533 109.825, 247 109 C 246.172 107.718, 246.028 107.754, 246.015 109.250 C 245.998 111.174, 246.794 111.417, 248.848 110.115 C 250.401 109.131, 250.058 105.851, 248.342 105.280 C 247.705 105.068, 246.894 105.363, 246.540 105.936 M 258.034 106.641 C 258.365 109.773, 258.015 110.571, 257 109 C 256.183 107.736, 256.028 107.792, 256.015 109.357 C 256.005 110.642, 256.487 111.027, 257.582 110.607 C 258.452 110.273, 259.352 110, 259.582 110 C 260.501 110, 259.929 106.074, 258.919 105.450 C 258.273 105.051, 257.916 105.531, 258.034 106.641 M 261.374 106.467 C 261.065 107.274, 261.004 108.511, 261.240 109.217 C 261.476 109.923, 261.906 109.263, 262.196 107.750 C 262.762 104.797, 262.295 104.068, 261.374 106.467 M 285.250 105.662 C 284.563 105.940, 284 106.981, 284 107.976 C 284 110.007, 286.606 111.446, 287.542 109.932 C 287.876 109.392, 287.553 109.074, 286.824 109.225 C 286.096 109.376, 285.500 108.825, 285.500 108 C 285.500 107.175, 286.096 106.624, 286.824 106.775 C 287.553 106.926, 287.864 106.588, 287.515 106.025 C 287.167 105.461, 286.796 105.036, 286.691 105.079 C 286.586 105.122, 285.938 105.385, 285.250 105.662 M 295.435 106.106 C 294.963 106.869, 295.114 107.048, 295.845 106.595 C 296.597 106.131, 296.972 106.688, 296.921 108.191 C 296.878 109.461, 296.614 109.935, 296.336 109.244 C 296.057 108.553, 295.410 108.246, 294.898 108.563 C 293.836 109.219, 294.659 111, 296.024 111 C 296.522 111, 297.386 110.147, 297.944 109.105 C 299.163 106.828, 296.762 103.958, 295.435 106.106 M 320.951 106.559 C 320.021 107.680, 320.032 108.334, 321 109.500 C 322.446 111.242, 324 111.470, 324 109.941 C 324 109.359, 323.550 109.160, 323 109.500 C 322.437 109.848, 322.035 109.109, 322.079 107.809 C 322.122 106.539, 322.385 106.063, 322.662 106.750 C 323.239 108.180, 325 108.449, 325 107.107 C 325 105.478, 322.166 105.095, 320.951 106.559 M 332 106 C 332 106.550, 332.675 107, 333.500 107 C 334.325 107, 335 106.550, 335 106 C 335 105.450, 334.325 105, 333.500 105 C 332.675 105, 332 105.450, 332 106 M 337.540 105.936 C 337.140 106.583, 337.545 106.728, 338.612 106.319 C 339.611 105.935, 340.078 106.064, 339.730 106.628 C 339.401 107.160, 339.572 108.249, 340.109 109.048 C 340.858 110.159, 341.018 109.932, 340.793 108.078 C 340.478 105.476, 338.592 104.234, 337.540 105.936 M 342 106 C 342 106.550, 342.450 107, 343 107 C 343.550 107, 344 106.550, 344 106 C 344 105.450, 343.550 105, 343 105 C 342.450 105, 342 105.450, 342 106 M 345.374 106.467 C 345.065 107.274, 345.004 108.511, 345.240 109.217 C 345.476 109.923, 345.906 109.263, 346.196 107.750 C 346.762 104.797, 346.295 104.068, 345.374 106.467 M 350.667 105.667 C 349.620 106.713, 349.887 109.812, 351.087 110.554 C 351.685 110.923, 352.664 110.736, 353.263 110.137 C 354.049 109.351, 354.733 109.364, 355.719 110.181 C 356.742 111.031, 357.388 111.010, 358.292 110.098 C 359.238 109.145, 359.121 109.026, 357.750 109.548 C 356.380 110.069, 356.017 109.702, 356.079 107.857 C 356.122 106.561, 356.385 106.063, 356.662 106.750 C 356.940 107.438, 357.634 108, 358.206 108 C 358.829 108, 358.743 107.395, 357.990 106.488 C 357.122 105.442, 356.362 105.285, 355.525 105.979 C 354.860 106.531, 354.065 106.732, 353.758 106.425 C 353.451 106.118, 353.267 106.636, 353.350 107.576 C 353.433 108.516, 352.874 109.504, 352.108 109.773 C 351.076 110.135, 350.847 109.581, 351.220 107.631 C 351.757 104.818, 351.704 104.629, 350.667 105.667 M 96.072 108.135 C 96.985 109.841, 97.391 109.992, 98.092 108.885 C 98.575 108.123, 98.969 107.050, 98.969 106.500 C 98.969 105.950, 98.533 106.175, 98 107 C 97.354 108, 97.026 108.083, 97.015 107.250 C 97.007 106.563, 96.534 106, 95.965 106 C 95.285 106, 95.322 106.733, 96.072 108.135 M 126.250 107.559 C 124.777 109.157, 124.654 110, 125.893 110 C 126.746 110, 128.343 106.991, 127.774 106.458 C 127.623 106.317, 126.938 106.812, 126.250 107.559 M 148.158 108 C 148.158 109.375, 148.385 109.938, 148.662 109.250 C 148.940 108.563, 148.940 107.438, 148.662 106.750 C 148.385 106.063, 148.158 106.625, 148.158 108 M 156.158 108 C 156.158 109.375, 156.385 109.938, 156.662 109.250 C 156.940 108.563, 156.940 107.438, 156.662 106.750 C 156.385 106.063, 156.158 106.625, 156.158 108 M 169.158 108 C 169.158 109.375, 169.385 109.938, 169.662 109.250 C 169.940 108.563, 169.940 107.438, 169.662 106.750 C 169.385 106.063, 169.158 106.625, 169.158 108 M 171.710 108 C 171.998 109.100, 172.406 110, 172.617 110 C 172.827 110, 173 109.100, 173 108 C 173 106.900, 172.592 106, 172.094 106 C 171.595 106, 171.423 106.900, 171.710 108 M 174 107.941 C 174 109.009, 174.385 110.120, 174.856 110.411 C 175.326 110.702, 175.499 109.828, 175.239 108.470 C 174.675 105.519, 174 105.231, 174 107.941 M 177.158 108 C 177.158 109.375, 177.385 109.938, 177.662 109.250 C 177.940 108.563, 177.940 107.438, 177.662 106.750 C 177.385 106.063, 177.158 106.625, 177.158 108 M 212.158 108 C 212.158 109.375, 212.385 109.938, 212.662 109.250 C 212.940 108.563, 212.940 107.438, 212.662 106.750 C 212.385 106.063, 212.158 106.625, 212.158 108 M 215.158 108 C 215.158 109.375, 215.385 109.938, 215.662 109.250 C 215.940 108.563, 215.940 107.438, 215.662 106.750 C 215.385 106.063, 215.158 106.625, 215.158 108 M 222.116 108.250 C 222.203 109.943, 222.345 110.067, 222.689 108.750 C 222.941 107.787, 223.531 107, 224 107 C 224.469 107, 225.059 107.787, 225.311 108.750 C 225.655 110.067, 225.797 109.943, 225.884 108.250 C 225.968 106.628, 225.442 106, 224 106 C 222.558 106, 222.032 106.628, 222.116 108.250 M 264.158 108 C 264.158 109.375, 264.385 109.938, 264.662 109.250 C 264.940 108.563, 264.940 107.438, 264.662 106.750 C 264.385 106.063, 264.158 106.625, 264.158 108 M 268.625 106.798 C 268.354 107.237, 268.545 108.249, 269.051 109.048 C 269.768 110.182, 269.973 110.007, 269.985 108.250 C 270 105.937, 269.492 105.394, 268.625 106.798 M 300.158 108 C 300.158 109.375, 300.385 109.938, 300.662 109.250 C 300.940 108.563, 300.940 107.438, 300.662 106.750 C 300.385 106.063, 300.158 106.625, 300.158 108 M 302.710 108 C 302.998 109.100, 303.406 110, 303.617 110 C 303.827 110, 304 109.100, 304 108 C 304 106.900, 303.592 106, 303.094 106 C 302.595 106, 302.423 106.900, 302.710 108 M 305.158 108 C 305.158 109.375, 305.385 109.938, 305.662 109.250 C 305.940 108.563, 305.940 107.438, 305.662 106.750 C 305.385 106.063, 305.158 106.625, 305.158 108 M 313.676 107.401 C 313.352 108.245, 313.487 109.183, 313.975 109.484 C 315.282 110.292, 316.391 107.991, 315.246 106.846 C 314.606 106.206, 314.061 106.398, 313.676 107.401 M 348.158 108 C 348.158 109.375, 348.385 109.938, 348.662 109.250 C 348.940 108.563, 348.940 107.438, 348.662 106.750 C 348.385 106.063, 348.158 106.625, 348.158 108 M 201 109 C 201 109.550, 201.450 110, 202 110 C 202.550 110, 203 109.550, 203 109 C 203 108.450, 202.550 108, 202 108 C 201.450 108, 201 108.450, 201 109 M 266 108.941 C 266 109.459, 266.445 110.157, 266.989 110.493 C 267.555 110.843, 267.723 110.442, 267.382 109.552 C 266.717 107.820, 266 107.503, 266 108.941 M 337 109.500 C 337 110.325, 337.436 111, 337.969 111 C 338.501 111, 338.678 110.325, 338.362 109.500 C 338.045 108.675, 337.609 108, 337.393 108 C 337.177 108, 337 108.675, 337 109.500 M 342 108.941 C 342 109.459, 342.445 110.157, 342.989 110.493 C 343.555 110.843, 343.723 110.442, 343.382 109.552 C 342.717 107.820, 342 107.503, 342 108.941 M 284.608 120.826 C 284.299 121.325, 284.093 128.093, 284.149 135.866 L 284.250 150 287.125 150 C 288.706 150, 290 150.400, 290 150.889 C 290 151.378, 289.438 151.757, 288.750 151.731 C 284.754 151.583, 283.872 152.072, 284.204 154.250 C 284.393 155.488, 285.054 156.403, 285.674 156.283 C 286.330 156.157, 286.800 157.484, 286.800 159.464 C 286.800 161.750, 286.396 162.705, 285.564 162.386 C 284.455 161.961, 284.218 171.691, 284.951 187.599 C 285.038 189.504, 285.703 189.717, 292.117 189.905 C 297.405 190.059, 299 189.808, 298.444 188.910 C 297.896 188.022, 298.459 187.903, 300.601 188.455 C 302.195 188.866, 309.311 189.145, 316.413 189.075 C 328.914 188.951, 329.408 188.864, 331.913 186.344 C 333.336 184.912, 335.512 183.073, 336.750 182.256 C 337.988 181.438, 339 180.197, 339 179.496 C 339 178.795, 339.949 177.159, 341.109 175.861 L 343.217 173.500 341.620 176.198 C 339.822 179.234, 340.391 181.950, 342.857 182.100 C 343.817 182.158, 343.461 182.532, 342 183 C 340.625 183.440, 340.089 183.845, 340.809 183.900 C 341.529 183.955, 341.821 184.481, 341.458 185.068 C 341.095 185.656, 340.243 185.924, 339.566 185.664 C 338.888 185.403, 338.333 185.823, 338.333 186.595 C 338.333 187.368, 338.933 188, 339.667 188 C 341.660 188, 341.277 189.346, 338.854 190.859 C 337.674 191.596, 333.340 192.330, 329.223 192.490 C 324.671 192.667, 322.279 192.438, 323.119 191.906 C 323.878 191.424, 324.028 191.024, 323.450 191.015 C 322.873 191.007, 321.804 191.563, 321.075 192.250 C 320.015 193.250, 319.658 193.250, 319.292 192.250 C 318.552 190.232, 314.243 190.816, 312.603 193.156 C 311.326 194.980, 310.218 195.283, 305.402 195.126 C 302.272 195.023, 299.369 194.728, 298.950 194.469 C 298.531 194.210, 295.032 193.820, 291.175 193.602 L 284.162 193.206 284.095 203.853 C 284.028 214.445, 284.777 217.874, 286.877 216.576 C 287.569 216.149, 287.756 216.472, 287.382 217.448 C 287.054 218.302, 287.284 219, 287.893 219 C 288.502 219, 289 218.550, 289 218 C 289 217.450, 291.221 217, 293.935 217 C 296.649 217, 300.085 216.538, 301.570 215.973 C 303.664 215.177, 304.819 215.307, 306.718 216.551 C 308.976 218.030, 309.262 218.024, 310.397 216.472 C 312.452 213.662, 320.859 214.142, 326.394 217.385 C 328.927 218.870, 331 220.248, 331 220.447 C 331 220.646, 329.261 220.576, 327.136 220.291 C 324.084 219.882, 322.981 220.178, 321.886 221.702 C 321.124 222.764, 319.670 223.942, 318.655 224.321 C 317.640 224.700, 316.575 225.908, 316.288 227.005 C 315.492 230.051, 313.777 229.423, 309.758 224.615 L 306.093 220.230 299.577 221.979 C 295.994 222.941, 292.823 223.490, 292.531 223.198 C 292.239 222.906, 292 223.010, 292 223.429 C 292 224.747, 296.191 230.142, 296.767 229.566 C 297.069 229.264, 297.925 229.523, 298.670 230.141 C 299.693 230.990, 299.747 231.600, 298.890 232.633 C 297.936 233.782, 301.444 234, 320.937 234 C 337.123 234, 343.919 233.678, 343.458 232.932 C 343.095 232.344, 342.168 232.105, 341.399 232.400 C 340.629 232.696, 340 232.510, 340 231.988 C 340 231.465, 338.875 230.756, 337.500 230.411 C 334.536 229.667, 334.365 228.597, 336.796 225.989 C 338.291 224.384, 339.169 224.217, 342.046 224.989 C 343.946 225.499, 346.726 226.166, 348.225 226.471 C 350.259 226.885, 351.162 227.846, 351.787 230.263 L 352.625 233.500 368.791 233.775 C 383.882 234.031, 384.919 233.931, 384.403 232.275 C 383.913 230.704, 383.970 230.687, 384.902 232.121 C 385.674 233.309, 387.666 233.778, 392.370 233.880 L 398.785 234.019 398.868 228.090 C 398.942 222.821, 398.617 221.801, 395.946 218.943 C 394.294 217.173, 393.123 215.543, 393.346 215.321 C 393.569 215.098, 394.931 216.317, 396.372 218.031 L 398.994 221.146 398.943 171.073 C 398.901 130.154, 398.650 121, 397.565 121 C 396.606 121, 396.041 123.620, 395.529 130.450 C 395.140 135.648, 395.118 140.381, 395.480 140.968 C 396.107 141.982, 385.737 138.442, 380.222 135.759 C 377.790 134.576, 377.639 134.078, 377.720 127.500 L 377.806 120.500 376.871 128 C 376.356 132.125, 375.920 136.740, 375.901 138.255 C 375.869 140.806, 375.746 140.889, 374.229 139.372 C 372.920 138.063, 372.649 136.056, 372.881 129.367 L 373.170 121 370.172 121 L 367.174 121 367.123 127.631 C 367.095 131.277, 366.831 134.502, 366.536 134.797 C 366.241 135.092, 366 132.108, 366 128.167 C 366 122.342, 365.708 121, 364.441 121 C 363.460 121, 363.160 121.463, 363.633 122.250 C 364.196 123.187, 363.983 123.175, 362.781 122.201 C 361.542 121.198, 354.171 120.910, 330.339 120.933 C 287.816 120.973, 288.698 120.984, 286.834 120.421 C 285.918 120.145, 284.916 120.327, 284.608 120.826 M 55.126 177.450 L 55.013 233.900 69.756 234.200 C 77.865 234.365, 89.787 234.373, 96.250 234.218 L 108 233.937 108 231.468 C 108 229.114, 107.718 229, 101.917 229 C 98.571 229, 95.983 228.639, 96.167 228.199 C 100.818 217.017, 102.626 213.931, 104.274 214.361 C 106.058 214.828, 114.405 213.925, 127.424 211.856 C 133.478 210.894, 134.498 210.960, 135.534 212.378 C 136.187 213.270, 137.837 214, 139.201 214 C 141.381 214, 141.826 214.643, 142.870 219.312 L 144.059 224.623 150.280 224.223 C 153.701 224.003, 157.850 223.453, 159.500 223.001 L 162.500 222.180 159.750 222.090 C 157.168 222.006, 155.649 220, 158.167 220 C 160.001 220, 158.157 218.603, 154.804 217.453 L 151.751 216.406 158.375 213.590 L 165 210.775 165 205.257 L 165 199.738 161.567 200.295 C 159.679 200.602, 155.067 200.211, 151.317 199.426 C 143.210 197.730, 142.698 197.702, 143.500 199 C 143.840 199.550, 143.191 200, 142.059 200 C 139.601 200, 139.471 200.758, 141.537 203.041 C 142.973 204.628, 142.203 204.783, 129.787 205.411 C 122.479 205.780, 115.263 206.325, 113.750 206.621 C 111.413 207.078, 111 206.825, 111 204.936 C 111 202.726, 111.076 202.716, 123.939 203.237 C 134.877 203.681, 136.967 203.529, 137.456 202.254 C 138.580 199.325, 133.203 196.244, 131.572 198.883 C 131.272 199.369, 128.433 200.057, 125.263 200.412 C 122.093 200.768, 117.846 201.304, 115.824 201.605 C 112.481 202.101, 112.197 201.963, 112.691 200.075 C 112.989 198.934, 113.293 197.985, 113.367 197.966 C 117.578 196.892, 136.809 195.455, 137.662 196.151 C 138.413 196.763, 140.685 196.490, 144.089 195.376 C 148.636 193.889, 150.288 193.814, 156.196 194.827 C 159.959 195.472, 163.479 196, 164.019 196 C 164.558 196, 165 193.785, 165 191.077 L 165 186.155 157.750 186.557 C 153.762 186.778, 150.162 186.968, 149.750 186.980 C 148.500 187.014, 148.912 190, 150.167 190 C 150.808 190, 151.091 190.242, 150.796 190.537 C 150.119 191.214, 145.069 189.089, 142.750 187.152 C 141.173 185.834, 141 185.903, 141 187.845 C 141 189.631, 140.415 190, 137.583 190 C 135.704 190, 133.993 190.521, 133.781 191.158 C 133.529 191.913, 132.387 192.063, 130.500 191.589 C 128.304 191.038, 127.947 190.651, 129.023 189.986 C 130.560 189.036, 130.490 188.900, 127.500 187.072 C 125.848 186.062, 125.817 185.949, 127.324 186.422 C 129.275 187.034, 131.194 185.605, 132.283 182.727 C 132.855 181.218, 133.255 181.142, 134.977 182.218 C 136.090 182.913, 137 183.823, 137 184.241 C 137 184.658, 138.377 185, 140.059 185 C 141.844 185, 142.861 184.583, 142.500 184 C 142.114 183.376, 144.115 183, 147.819 183 C 151.876 183, 154.149 182.525, 155 181.500 C 156.469 179.730, 160.578 179.509, 161.590 181.145 C 162.078 181.936, 161.475 182.133, 159.640 181.782 C 157.481 181.369, 157.195 181.530, 158.114 182.637 C 159.523 184.335, 162.629 184.409, 163.644 182.768 C 164.897 180.740, 164.788 177.571, 163.430 176.501 C 162.729 175.951, 161.469 173.813, 160.629 171.750 C 159.122 168.049, 159.133 168, 161.444 168 C 163.699 168, 165.498 165.831, 164.264 164.598 C 163.936 164.269, 162.436 164, 160.931 164 C 158.791 164, 157.968 163.347, 157.150 161 C 156.575 159.350, 155.474 158, 154.703 158 C 153.160 158, 152.015 146.007, 152.005 129.750 L 152 121 148.750 121.015 C 146.963 121.024, 146 121.361, 146.611 121.765 C 148.329 122.901, 148.978 129.946, 149.125 149.058 C 149.259 166.503, 149.243 166.635, 146.751 169.324 C 145.175 171.025, 143.649 171.802, 142.645 171.417 C 141.562 171.002, 140.676 171.616, 139.899 173.323 C 138.706 175.940, 136 175.965, 136 173.358 C 136 170.962, 132.878 167, 130.990 167 C 129.393 167, 129.139 165.440, 128.507 151.750 C 128.120 143.363, 127.960 133.011, 128.151 128.748 C 128.459 121.898, 128.296 120.996, 126.750 120.998 C 125.164 121, 125 122.358, 125 135.500 L 125 150 122.250 150.103 C 120.737 150.160, 115.994 150.121, 111.709 150.015 C 106.813 149.895, 103.375 150.274, 102.459 151.034 C 101.656 151.700, 101 151.818, 101 151.296 C 101 150.774, 99.650 150.545, 98 150.787 C 96.199 151.051, 95 150.782, 95 150.113 C 95 149.501, 93.875 149, 92.500 149 C 91.125 149, 90 149.406, 90 149.902 C 90 151.178, 95.674 153, 99.649 153 C 102.945 153, 103 153.073, 103 157.418 C 103 159.848, 103.260 162.513, 103.577 163.340 C 104.056 164.587, 102.737 164.903, 95.827 165.196 C 85.719 165.626, 82.979 164.888, 83.125 161.778 C 83.184 160.525, 82.885 150.838, 82.460 140.250 L 81.688 121 68.464 121 L 55.240 121 55.126 177.450 M 133.728 121.722 C 135.503 121.943, 138.653 121.946, 140.728 121.730 C 142.802 121.513, 141.350 121.333, 137.500 121.328 C 133.650 121.324, 131.952 121.501, 133.728 121.722 M 167 161.500 C 167 196.833, 167.191 202, 168.500 202 C 169.325 202, 170.056 202.675, 170.125 203.500 C 170.194 204.325, 170.363 205.450, 170.500 206 C 170.637 206.550, 170.806 207.702, 170.875 208.559 C 170.944 209.416, 171.477 209.823, 172.059 209.464 C 172.642 209.104, 173.042 207.839, 172.948 206.654 C 172.630 202.607, 173.001 202, 175.750 202.068 C 178.412 202.133, 178.430 202.169, 176.302 203.197 C 174.581 204.029, 174.163 204.994, 174.372 207.649 C 174.595 210.483, 174.081 211.464, 171.235 213.635 C 168.692 215.574, 168.119 216.518, 168.969 217.365 C 169.819 218.212, 170.538 217.931, 171.804 216.258 C 172.949 214.745, 174.240 214.159, 175.777 214.456 C 177.029 214.698, 177.817 214.513, 177.528 214.046 C 177.239 213.578, 178.632 212.235, 180.623 211.060 C 183.140 209.575, 184.077 209.356, 183.700 210.340 C 183.152 211.766, 184.694 214, 186.225 214 C 186.678 214, 187.575 212.762, 188.218 211.250 L 189.386 208.500 189.766 211.315 C 189.974 212.863, 189.438 215.209, 188.573 216.529 C 186.636 219.485, 186.568 221, 188.372 221 C 189.194 221, 190.068 219.294, 190.550 216.750 C 191.249 213.057, 191.406 212.860, 191.744 215.250 C 191.958 216.762, 192.553 218, 193.066 218 C 193.580 218, 194 218.627, 194 219.393 C 194 221.275, 196.019 221.916, 198.750 220.901 C 200.501 220.250, 201 219.281, 201 216.532 C 201 214.590, 201.450 213, 202 213 C 202.550 213, 203 213.675, 203 214.500 C 203 215.325, 203.675 216, 204.500 216 C 205.333 216, 206 215.111, 206 214 C 206 212.900, 206.450 212, 207 212 C 207.550 212, 208 212.867, 208 213.927 C 208 216.307, 213.977 219.655, 215.070 217.886 C 215.995 216.390, 218.232 217.780, 217.375 219.319 C 217.014 219.969, 217.457 219.809, 218.360 218.963 C 219.857 217.562, 219.869 216.919, 218.501 211.665 C 216.647 204.547, 216.554 200.685, 218.250 201.249 C 219.063 201.520, 219.557 204.034, 219.664 208.446 C 219.754 212.176, 220.351 215.739, 220.991 216.364 C 221.874 217.227, 221.986 215.536, 221.455 209.337 C 220.790 201.559, 220.874 201.049, 223.238 198.499 C 225.305 196.270, 225.820 196.089, 226.328 197.412 C 226.663 198.285, 226.515 199, 226 199 C 225.485 199, 225.356 199.765, 225.715 200.699 C 226.236 202.058, 226.463 202.112, 226.844 200.967 C 227.303 199.592, 229.923 196.516, 230.072 197.179 C 230.112 197.355, 230.225 199.188, 230.322 201.251 C 230.487 204.719, 230.293 205.001, 227.750 205.001 C 225.257 205, 225 205.338, 225 208.615 L 225 212.230 227.500 210.592 C 229.605 209.213, 230 209.184, 230 210.410 C 230 211.210, 229.141 212.138, 228.090 212.471 C 227.040 212.805, 225.709 213.646, 225.132 214.341 C 223.679 216.092, 224.830 220.003, 226.599 219.324 C 228.189 218.713, 228.529 220.555, 227 221.500 C 225.489 222.434, 225.802 224, 227.500 224 C 228.548 224, 229 222.944, 229 220.500 C 229 218.056, 229.452 217, 230.500 217 C 231.325 217, 232 217.652, 232 218.448 C 232 219.614, 232.569 219.698, 234.920 218.878 C 236.526 218.318, 238.087 217.217, 238.388 216.430 C 239.510 213.508, 241 215.138, 241 219.287 C 241 222.963, 241.308 223.598, 243.159 223.737 C 246.378 223.980, 248.986 222.215, 249.105 219.715 C 249.175 218.224, 249.614 218.808, 250.445 221.500 C 251.638 225.362, 253.806 226.502, 253.205 222.950 C 253.008 221.792, 253.512 221.256, 254.705 221.354 C 255.692 221.434, 256.388 220.938, 256.250 220.250 C 256.113 219.563, 256.450 219, 257 219 C 257.550 219, 258.007 220.238, 258.015 221.750 C 258.024 223.262, 258.410 225.099, 258.874 225.831 C 260.168 227.872, 260.998 222.174, 261.015 211.125 C 261.025 205.251, 261.371 202.037, 261.904 202.878 C 262.384 203.636, 263.246 203.966, 263.819 203.612 C 264.393 203.257, 265.144 203.425, 265.490 203.984 C 265.835 204.543, 265.641 205, 265.059 205 C 262.478 205, 264.334 206.792, 267.436 207.296 C 269.785 207.677, 272.069 209.177, 274.650 212.035 C 276.750 214.359, 278.604 215.688, 278.824 215.028 C 279.042 214.374, 277.961 212.525, 276.423 210.920 L 273.626 208 277.254 208 C 279.249 208, 281.203 207.480, 281.595 206.845 C 282.080 206.062, 281.858 205.963, 280.905 206.537 C 279.766 207.223, 279.729 207.101, 280.709 205.889 C 281.608 204.777, 281.933 193.724, 281.978 162.697 L 282.038 121 224.519 121 L 167 121 167 161.500 M 381 127.667 C 381 135.763, 381.504 135.614, 382.417 127.250 C 382.868 123.120, 382.743 121, 382.050 121 C 381.422 121, 381 123.679, 381 127.667 M 385.443 127.122 C 385.668 133.033, 385.791 133.293, 389.013 134.648 C 393.316 136.457, 393.964 135.492, 393.985 127.250 L 394 121 389.605 121 L 385.210 121 385.443 127.122 M 349.500 126 C 349.160 126.550, 349.835 127, 351 127 C 352.165 127, 352.840 126.550, 352.500 126 C 352.160 125.450, 351.485 125, 351 125 C 350.515 125, 349.840 125.450, 349.500 126 M 351 130 C 351 130.550, 351.450 131, 352 131 C 352.550 131, 353 130.550, 353 130 C 353 129.450, 352.550 129, 352 129 C 351.450 129, 351 129.450, 351 130 M 342 132.882 C 342 133.432, 342.450 134.160, 343 134.500 C 343.550 134.840, 344 134.668, 344 134.118 C 344 133.568, 343.550 132.840, 343 132.500 C 342.450 132.160, 342 132.332, 342 132.882 M 345 133.559 C 345 134.416, 345.450 134.840, 346 134.500 C 346.550 134.160, 347 133.459, 347 132.941 C 347 132.423, 346.550 132, 346 132 C 345.450 132, 345 132.702, 345 133.559 M 357.754 134.250 C 357.501 134.938, 357.500 136.090, 357.751 136.811 C 358.103 137.822, 358.642 137.729, 360.104 136.406 C 361.147 135.462, 362 134.310, 362 133.845 C 362 132.507, 358.264 132.863, 357.754 134.250 M 76.654 139.227 C 76.231 141.826, 75.502 144.189, 75.035 144.478 C 74.569 144.767, 74.363 143.990, 74.579 142.751 C 74.795 141.513, 74.475 141.920, 73.868 143.656 C 72.878 146.488, 73.059 147.181, 75.632 150.406 C 77.210 152.383, 78.612 153.662, 78.749 153.250 C 78.887 152.837, 78.644 148.450, 78.211 143.500 C 77.448 134.785, 77.399 134.650, 76.654 139.227 M 304.557 139.418 C 307.379 141.482, 306.050 142.102, 298.354 142.313 L 291.500 142.500 291.823 146.486 C 292 148.678, 292.625 150.768, 293.211 151.130 C 293.903 151.558, 294.069 154.543, 293.684 159.645 C 293.358 163.965, 293.489 168.400, 293.976 169.500 C 294.462 170.600, 294.891 171.182, 294.930 170.794 C 294.968 170.406, 296.816 170.729, 299.035 171.512 C 301.270 172.301, 304.417 172.667, 306.089 172.332 L 309.109 171.728 304.945 169.864 C 302.655 168.839, 300.145 168, 299.366 168 C 297.578 168, 295.887 163.761, 295.466 158.222 C 295.248 155.363, 295.531 153.993, 296.320 154.091 C 298.761 154.393, 300.099 153.969, 299.543 153.069 C 299.226 152.557, 299.401 151.870, 299.931 151.542 C 300.462 151.215, 300.734 151.784, 300.537 152.809 C 300.087 155.143, 300.875 156.371, 303.815 157.920 C 305.676 158.901, 305.897 159.420, 304.942 160.570 C 303.974 161.736, 304.158 162, 305.937 162 C 307.136 162, 307.882 162.382, 307.593 162.849 C 307.304 163.316, 308.187 164.297, 309.554 165.029 C 312.507 166.610, 314.122 165.488, 314.350 161.696 C 314.432 160.319, 314.877 159.425, 315.337 159.709 C 315.798 159.993, 315.959 161.049, 315.696 162.056 C 315.432 163.063, 316.009 164.603, 316.977 165.479 C 318.618 166.964, 318.704 166.900, 318.251 164.531 C 317.984 163.134, 318.285 159.926, 318.920 157.402 C 320.436 151.385, 319.670 149.382, 314.927 146.963 L 311 144.959 310.842 147.230 C 310.756 148.478, 310.696 150.002, 310.709 150.617 C 310.722 151.231, 310.054 151.681, 309.224 151.617 C 308.394 151.553, 307.535 152.007, 307.315 152.627 C 306.728 154.282, 309.841 155.155, 312.072 153.961 C 313.133 153.394, 314 153.278, 314 153.704 C 314 154.983, 310.539 162.995, 310 162.965 C 308.454 162.879, 305.655 157.102, 305.003 152.651 C 304.589 149.818, 304.180 148.175, 304.094 149 C 303.970 150.200, 303.733 150.146, 302.908 148.729 C 302.341 147.755, 301.455 147.219, 300.939 147.538 C 300.422 147.857, 300 147.191, 300 146.059 C 300 143.866, 300.996 143.419, 302.550 144.914 C 303.072 145.416, 304.625 145.978, 306 146.164 C 307.375 146.349, 308.831 146.950, 309.235 147.500 C 309.642 148.054, 310.013 147.608, 310.068 146.500 C 310.122 145.400, 310.276 143.532, 310.409 142.348 C 310.555 141.050, 310.189 140.374, 309.486 140.644 C 308.845 140.890, 307.743 140.396, 307.038 139.546 C 306.332 138.695, 305.049 138, 304.186 138 C 302.936 138, 303.011 138.288, 304.557 139.418 M 291.750 139.662 C 292.438 139.940, 293.563 139.940, 294.250 139.662 C 294.938 139.385, 294.375 139.158, 293 139.158 C 291.625 139.158, 291.063 139.385, 291.750 139.662 M 352.015 146.781 C 352.024 147.727, 352.474 149.175, 353.015 150 C 353.855 151.279, 354.134 151.292, 354.907 150.091 C 356.014 148.373, 355.342 146.345, 353.423 145.609 C 352.530 145.266, 352.006 145.703, 352.015 146.781 M 382 152.622 C 382 155.563, 382.256 156.033, 383.360 155.116 C 384.134 154.474, 384.515 152.912, 384.244 151.494 C 383.525 147.734, 382 148.502, 382 152.622 M 327.249 153.250 C 327.478 153.938, 328.580 154.548, 329.697 154.607 C 332.229 154.740, 334 155.794, 334 157.167 C 334 157.787, 332.977 157.960, 331.500 157.589 C 328.031 156.719, 328.224 159.132, 331.755 160.772 C 334.066 161.846, 334.668 161.807, 335.607 160.522 C 336.829 158.851, 338.494 158.392, 337.500 160 C 336.550 161.538, 337.671 161.187, 339.476 159.381 C 341.601 157.256, 342.125 157.941, 342.784 163.701 L 343.333 168.500 344.704 165.500 L 346.076 162.500 345.485 166.500 C 345.159 168.700, 344.663 171.285, 344.381 172.244 C 343.987 173.586, 344.287 173.837, 345.685 173.334 C 346.683 172.974, 348.262 171.898, 349.194 170.942 C 350.126 169.986, 351.412 169.029, 352.054 168.815 C 352.913 168.529, 352.832 167.280, 351.744 164.062 C 350.474 160.306, 350.127 159.951, 349.253 161.512 C 348.294 163.227, 348.203 163.214, 347.591 161.285 C 347.234 160.163, 345.884 158.012, 344.589 156.505 L 342.235 153.765 340.117 155.883 C 337.298 158.702, 336.474 158.559, 335 155 C 333.958 152.484, 333.199 152, 330.295 152 C 327.970 152, 326.970 152.411, 327.249 153.250 M 105.784 154.845 C 106.538 155.324, 106.784 156.400, 106.379 157.454 C 105.721 159.169, 105.820 159.168, 108.595 157.427 C 112.615 154.906, 112.831 154.623, 110.250 155.259 C 109.013 155.563, 108 155.405, 108 154.906 C 108 154.408, 107.213 154.007, 106.250 154.015 C 104.963 154.027, 104.840 154.246, 105.784 154.845 M 79.703 158.402 C 80.691 159.723, 81.649 160.662, 81.831 160.488 C 82.455 159.891, 79.930 156, 78.918 156 C 78.362 156, 78.715 157.081, 79.703 158.402 M 322.001 161.511 C 322.329 164.492, 322.977 167.284, 323.440 167.716 C 323.903 168.147, 323.984 167.262, 323.622 165.750 C 323.195 163.971, 323.365 163, 324.103 163 C 324.867 163, 324.791 162.442, 323.872 161.313 C 322.671 159.835, 322.718 159.707, 324.250 160.281 C 325.212 160.642, 326 160.475, 326 159.910 C 326 159.344, 326.450 159.160, 327 159.500 C 328.534 160.448, 328.187 158.400, 326.589 157.074 C 325.576 156.234, 324.987 156.213, 324.500 157 C 324.042 157.741, 323.429 157.771, 322.613 157.094 C 321.682 156.322, 321.542 157.337, 322.001 161.511 M 344.079 159.583 C 344.127 160.748, 344.364 160.985, 344.683 160.188 C 344.972 159.466, 344.936 158.603, 344.604 158.271 C 344.272 157.939, 344.036 158.529, 344.079 159.583 M 372 159.059 C 372 159.641, 372.450 159.840, 373 159.500 C 373.550 159.160, 374 158.684, 374 158.441 C 374 158.198, 373.550 158, 373 158 C 372.450 158, 372 158.477, 372 159.059 M 233.100 160.379 C 232.183 161.484, 232.507 161.864, 234.728 162.291 C 238.116 162.942, 238.671 162.514, 237.020 160.524 C 235.456 158.639, 234.571 158.607, 233.100 160.379 M 326.002 162.195 C 326.001 162.578, 327.232 163.481, 328.738 164.203 C 331.727 165.636, 333.449 169.770, 330.601 168.677 C 329.721 168.339, 329 168.413, 329 168.840 C 329 169.268, 328.288 170.491, 327.418 171.559 C 326.174 173.086, 325.947 173.144, 326.355 171.833 C 326.852 170.235, 324.318 168.349, 323.190 169.476 C 322.902 169.764, 323.079 170.001, 323.583 170.002 C 324.087 170.003, 324.601 171.431, 324.723 173.175 C 324.940 176.254, 327 179.842, 327 177.141 C 327 176.449, 327.419 176.141, 327.931 176.457 C 328.443 176.774, 329.187 176.506, 329.585 175.862 C 330.037 175.131, 329.876 174.959, 329.155 175.405 C 328.520 175.797, 328 175.641, 328 175.059 C 328 174.477, 328.480 174, 329.067 174 C 329.680 174, 329.864 173.147, 329.500 172 C 329.050 170.581, 329.320 170, 330.433 170 C 331.295 170, 332 170.413, 332 170.918 C 332 171.423, 332.301 172.622, 332.670 173.582 C 333.163 174.866, 332.990 175.112, 332.015 174.510 C 331.128 173.961, 330.930 174.077, 331.415 174.862 C 332.785 177.079, 334 174.872, 333.985 170.191 C 333.970 165.710, 333.009 162.731, 331.638 162.915 C 329.889 163.149, 329.626 162.890, 330.834 162.124 C 331.714 161.566, 331.119 161.316, 329.086 161.389 C 327.391 161.450, 326.004 161.813, 326.002 162.195 M 246.250 163.662 C 244.657 164.305, 244.622 169.222, 246.200 170.800 C 247.133 171.733, 247.022 172, 245.700 172 C 244.765 172, 244 171.380, 244 170.622 C 244 168.152, 241.366 166.734, 239.064 167.966 C 236.379 169.403, 236.446 170.697, 239.250 171.547 C 240.488 171.923, 242.760 173.580, 244.300 175.231 C 247.072 178.203, 249.457 178.460, 247.020 175.524 C 245.526 173.724, 246.330 173.571, 249.204 175.109 C 252.144 176.683, 256.890 176.837, 258.084 175.399 C 259.540 173.645, 257.296 172.509, 255.432 174.056 C 253.602 175.575, 252.840 174.891, 252.648 171.555 C 252.545 169.754, 252.066 169.146, 251.056 169.533 C 249.939 169.961, 249.979 169.681, 251.235 168.292 C 254.136 165.088, 250.677 161.876, 246.250 163.662 M 336.827 164.107 C 336.461 165.007, 337.012 166.987, 338.080 168.607 C 339.129 170.198, 339.990 171.028, 339.993 170.450 C 339.997 169.873, 339.588 168.972, 339.085 168.450 C 338.581 167.928, 338.015 166.375, 337.826 165 C 337.565 163.107, 337.323 162.890, 336.827 164.107 M 380.232 167.500 C 380.585 171.660, 380.278 172.902, 378.406 174.896 C 376.182 177.264, 376.178 177.322, 378.038 179.896 C 379.616 182.079, 380.352 184.451, 380.918 189.188 C 381.065 190.416, 385 189.613, 385 188.355 C 385 187.684, 386.005 186.816, 387.234 186.426 L 389.467 185.717 387.234 184.891 C 384.598 183.916, 384.417 182.726, 386.578 180.565 C 388.197 178.945, 387.751 173, 386.010 173 C 385.553 173, 383.971 170.637, 382.494 167.750 L 379.809 162.500 380.232 167.500 M 208.572 166.750 C 207.751 168.262, 207.062 168.986, 207.040 168.357 C 207.018 167.728, 206.325 166.955, 205.500 166.638 C 203.573 165.899, 201 166.881, 200.999 168.357 C 200.999 169.571, 206.923 169.783, 208.779 168.636 C 209.375 168.268, 210.144 168.425, 210.490 168.984 C 210.835 169.543, 210.586 170, 209.937 170 C 209.056 170, 209.072 170.382, 210 171.500 C 211.380 173.162, 213.478 173.582, 212.500 172 C 212.160 171.450, 212.414 171, 213.063 171 C 213.944 171, 213.928 170.618, 213 169.500 C 211.979 168.269, 212.053 168, 213.413 168 C 214.760 168, 214.870 167.626, 214 166 C 212.505 163.207, 210.331 163.508, 208.572 166.750 M 223.441 165.468 C 221.531 166.913, 221.533 166.937, 223.550 166.968 C 225.884 167.004, 228 168.779, 228 170.700 C 228 172.262, 231.941 176.392, 232.703 175.630 C 233.749 174.584, 231.940 170, 230.481 170 C 229.666 170, 229 169.190, 229 168.200 C 229 166.460, 227.238 164, 225.991 164 C 225.656 164, 224.509 164.661, 223.441 165.468 M 190.250 165.662 C 188.429 166.397, 188.719 169, 190.622 169 C 191.809 169, 191.966 169.337, 191.205 170.253 C 190.476 171.131, 190.553 172.230, 191.460 173.926 L 192.755 176.346 193.576 173.923 C 194.027 172.590, 194.283 171.091, 194.145 170.592 C 194.007 170.092, 194.452 169.339, 195.133 168.918 C 196.110 168.314, 196.095 167.820, 195.063 166.576 C 193.738 164.980, 192.516 164.748, 190.250 165.662 M 101.269 168.693 C 102.242 168.947, 103.592 168.930, 104.269 168.656 C 104.946 168.382, 104.150 168.175, 102.500 168.195 C 100.850 168.215, 100.296 168.439, 101.269 168.693 M 222.657 169.827 C 221.087 171.562, 221.155 171.631, 224.027 171.209 C 226.467 170.851, 226.829 170.499, 225.903 169.383 C 224.475 167.663, 224.635 167.641, 222.657 169.827 M 124 169.924 C 124 170.398, 124.675 171.045, 125.500 171.362 C 126.325 171.678, 127 171.549, 127 171.076 C 127 170.602, 126.325 169.955, 125.500 169.638 C 124.675 169.322, 124 169.451, 124 169.924 M 311.559 170.532 C 310.491 171.339, 310.041 171.986, 310.559 171.968 C 311.076 171.951, 312.374 171.276, 313.441 170.468 C 314.509 169.661, 314.959 169.014, 314.441 169.032 C 313.924 169.049, 312.626 169.724, 311.559 170.532 M 86.250 170.662 C 85.563 170.940, 85 172.704, 85 174.583 C 85 178.465, 86.844 179.101, 89.838 176.250 C 90.849 175.287, 92.509 174.018, 93.528 173.429 C 97.081 171.374, 96.383 169.996, 91.833 170.079 C 89.450 170.122, 86.938 170.385, 86.250 170.662 M 203.649 172.233 C 203.328 173.461, 203.567 174.923, 204.179 175.483 C 204.959 176.195, 205.082 176.125, 204.588 175.250 C 204.155 174.483, 204.484 174, 205.441 174 C 207.185 174, 207.254 173.825, 206.393 171.582 C 205.532 169.338, 204.332 169.623, 203.649 172.233 M 235.543 172.931 C 235.226 173.443, 235.425 174.144, 235.984 174.490 C 236.543 174.835, 237 174.416, 237 173.559 C 237 171.802, 236.400 171.544, 235.543 172.931 M 370.813 172.683 C 371.534 172.972, 372.397 172.936, 372.729 172.604 C 373.061 172.272, 372.471 172.036, 371.417 172.079 C 370.252 172.127, 370.015 172.364, 370.813 172.683 M 121.882 173.750 C 121.816 174.162, 121.811 174.821, 121.870 175.214 C 121.928 175.607, 121.306 175.671, 120.488 175.357 C 119.670 175.043, 119 175.284, 119 175.893 C 119 177.112, 120.965 177.334, 123.418 176.393 C 125.428 175.622, 125.491 173, 123.500 173 C 122.675 173, 121.947 173.338, 121.882 173.750 M 141.500 174 C 141.160 174.550, 141.809 175, 142.941 175 C 144.073 175, 145 174.550, 145 174 C 145 173.450, 144.352 173, 143.559 173 C 142.766 173, 141.840 173.450, 141.500 174 M 217.586 175.333 C 219.653 182.041, 220.645 182.857, 226.737 182.857 C 231.016 182.857, 232.047 182.606, 230.748 181.879 C 229.787 181.341, 229 180.050, 229 179.009 C 229 175.933, 227.251 175.769, 226.164 178.744 C 225.559 180.400, 225.126 180.817, 225.079 179.789 C 224.984 177.735, 221.582 174.386, 218.871 173.676 C 217.251 173.253, 217.032 173.536, 217.586 175.333 M 347.648 175.415 C 345.443 178.780, 345.570 179.300, 348.250 177.871 C 350.290 176.784, 350.372 176.828, 349.128 178.336 C 347.399 180.432, 348.855 180.490, 351.777 178.443 C 353.987 176.896, 354.837 174, 353.082 174 C 352.577 174, 351.518 173.752, 350.730 173.450 C 349.887 173.126, 348.617 173.936, 347.648 175.415 M 380.500 175 C 380.840 175.550, 381.568 176, 382.118 176 C 382.668 176, 382.840 175.550, 382.500 175 C 382.160 174.450, 381.432 174, 380.882 174 C 380.332 174, 380.160 174.450, 380.500 175 M 188.015 176.250 C 188.024 176.938, 188.411 178.100, 188.876 178.834 C 189.550 179.897, 189.852 179.828, 190.364 178.494 C 190.717 177.573, 190.753 176.410, 190.444 175.910 C 189.619 174.574, 187.998 174.801, 188.015 176.250 M 214.473 176.209 C 214.091 177.206, 213.033 177.538, 211.294 177.205 C 209.484 176.859, 208.258 177.287, 207.282 178.604 C 205.910 180.455, 205.843 180.456, 204.489 178.629 C 203.484 177.273, 202.400 176.934, 200.551 177.398 C 198.069 178.021, 198 178.265, 198 186.469 C 198 193.454, 198.300 195.071, 199.750 195.895 C 201.231 196.736, 201.307 197.205, 200.242 198.945 C 199.351 200.398, 199.314 201, 200.114 201 C 200.858 201, 200.775 201.566, 199.873 202.654 C 199.118 203.563, 198.641 205.138, 198.813 206.154 C 199.034 207.459, 198.514 208, 197.038 208 C 195.344 208, 193 211.158, 193 213.440 C 193 213.610, 194.811 212.853, 197.024 211.758 C 200.808 209.886, 201.009 209.567, 200.412 206.384 C 200 204.188, 200.168 203, 200.889 203 C 201.500 203, 202 202.155, 202 201.121 C 202 199.988, 203.091 198.835, 204.750 198.215 C 206.262 197.650, 208.400 196.849, 209.500 196.435 C 210.600 196.021, 211.838 195.754, 212.250 195.841 C 212.662 195.929, 212.968 194.312, 212.930 192.250 C 212.875 189.343, 212.681 188.950, 212.064 190.500 C 211.458 192.022, 211.176 191.386, 210.884 187.835 C 210.583 184.186, 210.771 183.395, 211.750 184.207 C 212.685 184.984, 213 184.696, 213 183.063 C 213 181.864, 213.413 181.137, 213.919 181.450 C 214.424 181.762, 215.142 180.631, 215.514 178.937 C 216.227 175.690, 215.452 173.658, 214.473 176.209 M 185.460 180.250 C 185.615 182.588, 185.853 184.725, 185.989 185 C 186.497 186.026, 187.583 179.431, 187.183 177.750 C 186.371 174.338, 185.182 176.063, 185.460 180.250 M 194.531 177.293 C 194.103 178.279, 194.034 179.367, 194.376 179.710 C 195.392 180.725, 196.211 179.299, 195.743 177.328 C 195.329 175.581, 195.275 175.580, 194.531 177.293 M 230 179 C 230 179.550, 230.477 180, 231.059 180 C 231.641 180, 231.840 179.550, 231.500 179 C 231.160 178.450, 230.684 178, 230.441 178 C 230.198 178, 230 178.450, 230 179 M 241.726 182.146 C 239.758 186.209, 240.162 186.838, 242.949 184.051 C 244.414 182.586, 244.797 181.460, 244.196 180.386 C 243.497 179.136, 243.019 179.476, 241.726 182.146 M 248.449 183.468 C 247.652 185.375, 247 187.625, 247 188.468 C 247 189.311, 246.438 190.007, 245.750 190.015 C 244.787 190.027, 244.798 190.220, 245.797 190.854 C 246.825 191.506, 246.753 191.960, 245.451 193.041 C 244.043 194.209, 243.669 194.160, 242.854 192.703 C 241.552 190.378, 239 190.551, 239 192.965 C 239 196.596, 247.134 198.700, 248.401 195.396 C 248.750 194.488, 249.658 194.039, 250.496 194.360 C 251.310 194.673, 251.928 194.607, 251.870 194.214 C 251.476 191.576, 252.084 191.206, 255 192.306 C 256.650 192.929, 258 193.687, 258 193.992 C 258 194.296, 256.425 195.393, 254.500 196.430 C 250.479 198.596, 250.006 199.829, 253.250 199.696 C 254.488 199.645, 256.507 199.946, 257.738 200.365 C 259.804 201.069, 259.929 200.893, 259.363 198.066 C 258.976 196.131, 259.257 194.383, 260.125 193.315 C 261.322 191.844, 261.285 191.706, 259.844 192.245 C 256.361 193.549, 253.271 186.129, 256.113 183.287 C 257.803 181.597, 256.237 180, 252.890 180 C 250.421 180, 249.645 180.606, 248.449 183.468 M 135.813 181.683 C 136.534 181.972, 137.397 181.936, 137.729 181.604 C 138.061 181.272, 137.471 181.036, 136.417 181.079 C 135.252 181.127, 135.015 181.364, 135.813 181.683 M 193.543 182.250 C 193.327 182.938, 192.863 185.637, 192.513 188.250 C 192.109 191.271, 191.383 193, 190.521 193 C 189.774 193, 188.420 193.285, 187.511 193.634 C 186.096 194.177, 185.941 193.711, 186.431 190.384 L 187.002 186.500 185.546 189.500 C 184.745 191.150, 184.070 193.539, 184.045 194.809 C 184.017 196.241, 183.578 196.857, 182.888 196.431 C 182.277 196.053, 181.384 196.364, 180.904 197.122 C 179.612 199.160, 179.816 200.584, 181.200 199.200 C 182.778 197.622, 184.312 197.657, 183.412 199.250 C 182.848 200.250, 182.976 200.250, 184.053 199.250 C 184.794 198.563, 186.633 198, 188.141 198 C 189.649 198, 191.171 197.532, 191.525 196.959 C 191.879 196.387, 192.918 196.157, 193.834 196.448 C 195.294 196.911, 195.500 195.988, 195.500 188.989 C 195.500 181.837, 194.624 178.820, 193.543 182.250 M 112.661 184.190 C 112.250 185.760, 112.419 185.897, 113.579 184.935 C 114.706 183.999, 115 184.084, 115 185.346 C 115 186.350, 115.554 186.725, 116.500 186.362 C 118.625 185.546, 118.353 184.671, 115.574 183.383 C 113.510 182.426, 113.092 182.542, 112.661 184.190 M 234.409 183.376 C 233.562 185.584, 234.689 186.711, 236.217 185.183 C 237.119 184.281, 237.122 183.722, 236.233 182.833 C 235.343 181.943, 234.909 182.072, 234.409 183.376 M 77 183.378 C 77 183.585, 77.761 184.373, 78.692 185.128 C 79.623 185.882, 80.070 185.976, 79.686 185.335 C 79.302 184.695, 79.553 183.943, 80.244 183.664 C 80.935 183.386, 80.487 183.122, 79.250 183.079 C 78.013 183.036, 77 183.170, 77 183.378 M 153.500 184.068 C 151.871 184.713, 152.103 184.872, 154.750 184.930 C 158.130 185.003, 158.895 184.550, 156.750 183.745 C 156.063 183.488, 154.600 183.633, 153.500 184.068 M 214.618 185.191 C 215.023 185.846, 215.250 188.384, 215.124 190.832 L 214.893 195.282 221.458 194.755 C 225.069 194.466, 228.232 194.567, 228.488 194.980 C 229.080 195.939, 234 195.033, 234 193.965 C 234 193.524, 234.251 192.509, 234.558 191.709 C 234.982 190.604, 234.502 190.373, 232.558 190.744 C 231.151 191.013, 230 191.631, 230 192.117 C 230 192.602, 229.325 193, 228.500 193 C 227.667 193, 227 192.111, 227 191 C 227 189.097, 224.601 188.360, 220.249 188.926 C 219.560 189.015, 218.476 187.943, 217.838 186.544 C 217.201 185.145, 216.050 184, 215.280 184 C 214.453 184, 214.183 184.487, 214.618 185.191 M 199.158 188 C 199.158 189.375, 199.385 189.938, 199.662 189.250 C 199.940 188.563, 199.940 187.438, 199.662 186.750 C 199.385 186.063, 199.158 186.625, 199.158 188 M 121 188 C 121 188.550, 121.477 189, 122.059 189 C 122.641 189, 122.840 188.550, 122.500 188 C 122.160 187.450, 121.684 187, 121.441 187 C 121.198 187, 121 187.450, 121 188 M 160 188 C 160 188.550, 158.452 189, 156.559 189 C 154.666 189, 152.841 189.448, 152.502 189.997 C 152.118 190.618, 153.965 190.945, 157.408 190.866 C 162.475 190.749, 162.848 190.584, 161.930 188.869 C 160.832 186.818, 160 186.443, 160 188 M 275.813 188.683 C 276.534 188.972, 277.397 188.936, 277.729 188.604 C 278.061 188.272, 277.471 188.036, 276.417 188.079 C 275.252 188.127, 275.015 188.364, 275.813 188.683 M 326.500 195 C 326.840 195.550, 327.316 196, 327.559 196 C 327.802 196, 328 195.550, 328 195 C 328 194.450, 327.523 194, 326.941 194 C 326.359 194, 326.160 194.450, 326.500 195 M 215.768 198.168 C 216.350 198.750, 217.415 199.028, 218.137 198.788 C 218.886 198.538, 218.432 198.085, 217.080 197.731 C 215.417 197.296, 215.026 197.426, 215.768 198.168 M 313.143 197.890 C 312.397 198.363, 312.172 198.984, 312.643 199.270 C 313.114 199.556, 314.080 199.162, 314.789 198.395 C 316.218 196.849, 315.253 196.553, 313.143 197.890 M 317 197.525 C 317 197.813, 318.203 198.507, 319.673 199.066 C 321.752 199.856, 322.689 199.740, 323.887 198.541 C 325.276 197.153, 325.010 197, 321.214 197 C 318.896 197, 317 197.236, 317 197.525 M 169 200 C 168.099 200.582, 167.975 200.975, 168.691 200.985 C 169.346 200.993, 170.160 200.550, 170.500 200 C 171.267 198.758, 170.921 198.758, 169 200 M 210.638 200.500 C 210.322 201.325, 210.499 202, 211.031 202 C 211.564 202, 212 201.325, 212 200.500 C 212 199.675, 211.823 199, 211.607 199 C 211.391 199, 210.955 199.675, 210.638 200.500 M 340.500 200.680 C 335.887 201.712, 325.983 205.219, 325.508 205.988 C 324.521 207.584, 326.230 210, 328.357 210.015 C 329.536 210.024, 331.146 210.439, 331.936 210.939 C 333.126 211.692, 333.147 212.117, 332.063 213.424 C 331.234 214.423, 331.153 215, 331.842 215 C 332.440 215, 333.406 214.110, 333.988 213.022 C 335.058 211.023, 335.413 211.002, 344 212.429 C 345.375 212.658, 347.491 212.611, 348.701 212.326 L 350.903 211.808 348.449 209.161 C 347.099 207.706, 345.511 205.049, 344.920 203.258 C 344.329 201.466, 343.542 200.052, 343.172 200.116 C 342.803 200.180, 341.600 200.433, 340.500 200.680 M 274.500 203 C 274.840 203.550, 275.316 204, 275.559 204 C 275.802 204, 276 203.550, 276 203 C 276 202.450, 275.523 202, 274.941 202 C 274.359 202, 274.160 202.450, 274.500 203 M 316 203 C 316 203.550, 316.450 204, 317 204 C 317.550 204, 318 203.550, 318 203 C 318 202.450, 317.550 202, 317 202 C 316.450 202, 316 202.450, 316 203 M 210.454 204.351 C 209.982 205.524, 210.209 206.511, 211.075 207.047 C 212.953 208.207, 213.200 207.700, 212.122 204.895 C 211.282 202.713, 211.134 202.665, 210.454 204.351 M 308.180 205.172 C 308.633 208.248, 310.471 208.492, 310.644 205.499 C 310.736 203.906, 310.258 203, 309.325 203 C 308.391 203, 307.977 203.786, 308.180 205.172 M 359 204.596 C 359 205.107, 358.017 205.970, 356.815 206.513 C 355.613 207.056, 354.522 208.074, 354.390 208.775 C 354.258 209.476, 354.370 209.614, 354.640 209.081 C 354.909 208.548, 355.741 208.347, 356.488 208.634 C 357.885 209.170, 360.622 205.289, 359.581 204.248 C 359.261 203.928, 359 204.085, 359 204.596 M 236 207 C 236 208.100, 236.450 209, 237 209 C 237.550 209, 238 208.100, 238 207 C 238 205.900, 237.550 205, 237 205 C 236.450 205, 236 205.900, 236 207 M 243 206.500 C 243 207.325, 243.675 208, 244.500 208 C 245.325 208, 246 207.325, 246 206.500 C 246 205.675, 245.325 205, 244.500 205 C 243.675 205, 243 205.675, 243 206.500 M 252.032 212.750 C 252.049 214.262, 252.781 216.400, 253.657 217.500 C 255.211 219.451, 255.235 219.439, 254.639 217 C 254.302 215.625, 254.021 213.488, 254.014 212.250 C 254.006 211.012, 253.550 210, 253 210 C 252.450 210, 252.014 211.238, 252.032 212.750 M 395 214.170 C 397.504 216.613, 398.775 217.063, 397.544 215.072 C 397.184 214.488, 395.901 213.498, 394.694 212.872 C 392.707 211.840, 392.736 211.962, 395 214.170 M 335.549 214.266 C 335.826 214.988, 336.991 215.649, 338.139 215.736 C 340.498 215.913, 340.407 215.743, 337.273 214.112 C 335.494 213.187, 335.147 213.218, 335.549 214.266 M 358.685 220.534 C 356.480 225.159, 356.539 225.652, 359.531 227.612 C 362.729 229.707, 363.628 228.889, 361.574 225.753 C 360.185 223.633, 360.175 223.333, 361.494 223.333 C 362.322 223.333, 363 223.708, 363 224.167 C 363 224.625, 363.450 225, 364 225 C 364.550 225, 365 224.325, 365 223.500 C 365 222.649, 364.103 222, 362.927 222 C 359.678 222, 360.972 218.634, 364.512 217.876 C 367.486 217.240, 367.483 217.236, 363.935 217.118 C 360.791 217.014, 360.171 217.417, 358.685 220.534 M 391 217.306 C 391 217.474, 392.125 219.136, 393.500 221 C 394.875 222.864, 396 224.737, 396 225.163 C 396 226.692, 393.401 224.899, 391.744 222.226 C 390.814 220.727, 390.041 220.083, 390.027 220.795 C 390.012 221.508, 391.134 223.225, 392.519 224.610 C 393.905 225.996, 394.780 227.547, 394.465 228.057 C 394.149 228.568, 392.791 227.798, 391.445 226.347 C 390.100 224.895, 389 224.124, 389 224.632 C 389 225.140, 389.944 226.364, 391.097 227.351 C 392.346 228.421, 392.999 229.896, 392.711 230.999 C 392.385 232.245, 392.659 232.684, 393.550 232.342 C 394.278 232.063, 394.629 231.197, 394.330 230.417 C 394.031 229.638, 394.232 229, 394.776 229 C 397.065 229, 396.887 224.428, 394.456 220.755 C 392.313 217.516, 391 216.206, 391 217.306 M 204.158 220 C 204.158 221.375, 204.385 221.938, 204.662 221.250 C 204.940 220.563, 204.940 219.438, 204.662 218.750 C 204.385 218.063, 204.158 218.625, 204.158 220 M 296 220 C 296 220.550, 296.702 221, 297.559 221 C 298.416 221, 298.840 220.550, 298.500 220 C 298.160 219.450, 297.459 219, 296.941 219 C 296.423 219, 296 219.450, 296 220 M 285.078 224 C 285.927 225.375, 287.693 228.267, 289.002 230.427 C 290.311 232.587, 291.559 233.822, 291.776 233.171 C 291.993 232.520, 292.619 232.264, 293.166 232.603 C 293.713 232.941, 293.118 231.627, 291.844 229.683 C 290.521 227.664, 289.246 226.602, 288.873 227.206 C 288.494 227.819, 287.946 227.406, 287.571 226.222 C 287.214 225.099, 286.160 223.577, 285.229 222.840 C 283.653 221.594, 283.642 221.675, 285.078 224 M 172.028 224.185 C 170.709 224.673, 169.131 224.880, 168.520 224.646 C 167.889 224.404, 167.313 225.469, 167.188 227.110 C 167.067 228.699, 167.226 230, 167.542 230 C 168.057 230, 177.083 225.175, 177.790 224.522 C 178.674 223.704, 174.057 223.435, 172.028 224.185 M 333.543 223.931 C 333.226 224.443, 333.350 225.098, 333.817 225.387 C 334.284 225.676, 334.667 225.257, 334.667 224.456 C 334.667 222.770, 334.351 222.623, 333.543 223.931 M 387.899 227.500 C 389.585 230.762, 390.970 232.570, 390.962 231.500 C 390.959 230.950, 390.035 229.375, 388.911 228 C 387.552 226.339, 387.213 226.172, 387.899 227.500 M 144.357 228.156 C 144.784 229.547, 143.553 229.994, 136.683 230.942 C 132.182 231.564, 125.800 232.451, 122.500 232.914 C 118.134 233.527, 123.106 233.789, 140.750 233.878 L 165 234 165 231.015 L 165 228.031 158.750 228.555 C 155.313 228.844, 151.043 229.258, 149.263 229.475 C 147.007 229.750, 145.697 229.359, 144.938 228.185 C 143.953 226.661, 143.898 226.658, 144.357 228.156 M 290 230 C 290.589 231.100, 291.295 232, 291.570 232 C 291.845 232, 291.589 231.100, 291 230 C 290.411 228.900, 289.705 228, 289.430 228 C 289.155 228, 289.411 228.900, 290 230 M 297 231 C 297 231.550, 297.477 232, 298.059 232 C 298.641 232, 298.840 231.550, 298.500 231 C 298.160 230.450, 297.684 230, 297.441 230 C 297.198 230, 297 230.450, 297 231 M 167.655 232.457 C 167.230 233.564, 167.690 233.996, 169.281 233.985 C 170.502 233.976, 171.050 233.634, 170.500 233.223 C 169.950 232.813, 169.218 232.125, 168.874 231.695 C 168.529 231.265, 167.981 231.608, 167.655 232.457" stroke="none" fill="black" fill-rule="evenodd"/>
</svg>