<svg xmlns="http://www.w3.org/2000/svg" width="446" height="251" viewBox="0 0 446 251" version="1.1">
	<path d="M 0 7.847 C 0 15.028, 0.178 15.766, 1.802 15.342 C 3.431 14.915, 3.563 15.496, 3.185 21.435 C 2.904 25.851, 3.132 28, 3.884 28 C 5.842 28, 5.080 29.568, 3.048 29.721 C 1.361 29.848, 1.047 29.096, 0.737 24.184 C 0.540 21.058, 0.293 60.064, 0.189 110.863 L -0 203.227 3.250 202.572 C 5.037 202.212, 9.309 201.965, 12.741 202.023 C 16.174 202.081, 19.515 201.800, 20.165 201.398 C 21.214 200.749, 28.302 200.260, 39.124 200.087 C 41.118 200.056, 46.518 199.126, 51.124 198.022 C 55.731 196.918, 60.288 196.011, 61.250 196.007 C 63.988 195.996, 63.308 197.601, 59.870 199.266 C 56.847 200.730, 56.817 200.807, 58.987 201.496 C 60.223 201.888, 71.530 203.885, 84.113 205.934 C 96.696 207.982, 107.294 209.960, 107.663 210.329 C 109.657 212.324, 104.972 211.974, 85.258 208.657 C 73.291 206.644, 62.317 204.998, 60.872 204.998 C 59.294 204.999, 57.676 204.144, 56.822 202.858 C 55.574 200.978, 55.112 200.870, 53.055 201.970 C 51.230 202.947, 49.913 202.967, 47.106 202.059 C 45.123 201.417, 42.375 201.108, 41 201.372 C 39.625 201.636, 37.952 201.885, 37.281 201.926 C 36.611 201.967, 36.322 202.675, 36.638 203.500 C 37.039 204.545, 36.566 205, 35.076 205 C 33.899 205, 32.708 204.402, 32.427 203.671 C 31.622 201.574, 20.862 202.770, 19.193 205.142 C 17.547 207.483, 16 207.535, 16.001 205.250 C 16.001 203.774, 15.230 203.553, 11.067 203.842 C 7.511 204.089, 6.273 204.549, 6.635 205.491 C 7.495 207.731, 5.133 208.186, 3.792 206.039 C 0.550 200.848, 0.093 203.474, 0.060 227.500 L 0.027 251 54.013 251 L 108 251 108 246.535 C 108 237.269, 117.758 231.420, 123.295 237.368 C 130.996 245.637, 134 249.193, 134 250.038 C 134 250.614, 140.415 251, 149.975 251 L 165.950 251 165.341 247.955 C 164.920 245.848, 165.102 245.001, 165.932 245.205 C 167.460 245.581, 169.435 239.576, 170.926 230.025 C 171.631 225.511, 173.244 220.426, 174.998 217.187 C 176.761 213.933, 177.363 212.031, 176.529 212.351 C 175.773 212.641, 178.461 209.572, 182.502 205.530 C 186.543 201.489, 190.896 197.876, 192.175 197.501 C 193.454 197.126, 197.200 195.780, 200.500 194.510 C 210.513 190.658, 215.902 190.426, 224.500 193.479 C 225.940 193.990, 226.119 193.916, 225.137 193.215 C 224.387 192.680, 224.162 192.036, 224.637 191.785 C 225.112 191.534, 224.951 191.460, 224.281 191.621 C 223.610 191.782, 221.939 191.331, 220.566 190.619 L 218.071 189.324 221.081 187.099 C 222.736 185.875, 225.308 184.728, 226.795 184.551 C 228.283 184.373, 229.864 184.177, 230.309 184.114 C 230.754 184.051, 230.794 183.437, 230.399 182.750 C 230.003 182.063, 230.015 181.801, 230.425 182.168 C 231.855 183.451, 237.527 180.686, 241.050 176.988 C 243.002 174.939, 245.551 172.960, 246.715 172.591 C 249.235 171.791, 254 172.822, 254 174.167 C 254 174.690, 253.550 174.840, 253 174.500 C 252.450 174.160, 252 174.310, 252 174.833 C 252 175.355, 250.820 176.079, 249.377 176.441 C 246.876 177.069, 246.841 177.166, 248.627 178.531 C 250.254 179.774, 250.303 180.094, 249 180.966 C 248.175 181.518, 247.978 181.976, 248.563 181.985 C 249.148 181.993, 249.736 184.137, 249.869 186.750 C 250.003 189.363, 250.537 191.927, 251.056 192.450 C 252.610 194.014, 252.124 197.865, 250.250 198.837 C 249.287 199.337, 247.488 199.580, 246.250 199.379 C 244.757 199.136, 244 199.515, 244 200.506 C 244 202.450, 241.385 202.445, 240.638 200.500 C 239.869 198.496, 238 198.583, 238 200.622 C 238 201.909, 237.706 202.001, 236.584 201.069 C 235.459 200.136, 235.071 200.266, 234.700 201.697 C 234.269 203.356, 234.223 203.360, 234.116 201.750 C 234.052 200.787, 233.550 200, 233 200 C 232.450 200, 232 199.377, 232 198.617 C 232 197.856, 231.100 196.998, 230 196.710 C 227.609 196.085, 227.393 197.251, 229.566 199.055 C 231.726 200.847, 233.217 204.031, 236.815 214.529 C 241.072 226.950, 244.639 244.747, 243.302 246.889 C 240.748 250.977, 241.290 251.004, 324.208 250.912 L 403.500 250.823 392.500 245.541 C 381.753 240.381, 381.484 240.170, 380.808 236.380 C 379.909 231.344, 379.830 223.102, 380.641 219.045 C 381.181 216.347, 381.615 215.945, 383.391 216.501 C 389.171 218.311, 390 218.279, 390 216.242 C 390 214.829, 389.128 214.076, 387 213.650 C 385.350 213.320, 384 212.691, 384 212.252 C 384 211.813, 385.515 209.154, 387.366 206.343 C 389.217 203.532, 391.997 197.917, 393.543 193.866 C 395.090 189.815, 396.846 186.050, 397.446 185.500 C 398.047 184.950, 398.980 183.543, 399.519 182.374 C 400.059 181.204, 403.307 177.930, 406.738 175.097 C 412.937 169.979, 419.464 162.007, 421.755 156.755 C 422.413 155.246, 423.253 150.408, 423.620 146.005 C 424.110 140.128, 424.660 138, 425.688 138 C 426.466 138, 426.957 137.223, 426.794 136.250 C 426.534 134.701, 427.617 134.463, 436.237 134.178 L 445.974 133.855 446.258 168.178 C 446.414 187.055, 446.630 156.842, 446.737 101.037 C 446.903 15.338, 446.723 -0.021, 445.583 2.177 C 444.841 3.608, 443.715 11.016, 443.081 18.639 C 442.447 26.263, 441.661 35.087, 441.335 38.250 C 440.748 43.942, 440.768 44, 443.371 44 L 446 44 446 72.079 L 446 100.159 443.127 99.528 C 440.025 98.847, 438.927 100.110, 438.371 105 C 438.214 106.375, 437.766 108.625, 437.375 110 C 436.983 111.375, 436.616 112.950, 436.557 113.500 C 436.499 114.050, 435.675 114.437, 434.726 114.361 C 433.777 114.285, 433 114.553, 433 114.958 C 433 116.342, 429.502 119.713, 427.366 120.387 C 426.184 120.761, 425.292 121.827, 425.366 122.781 C 425.464 124.035, 424.593 124.587, 422.147 124.821 C 419.953 125.031, 419.023 124.772, 419.456 124.071 C 419.820 123.482, 421.104 122.948, 422.309 122.884 C 424.222 122.783, 424.258 122.706, 422.595 122.281 C 421.547 122.013, 419.522 120.706, 418.095 119.377 C 415.948 117.377, 415.442 117.235, 415.163 118.553 C 414.977 119.430, 414.227 119.917, 413.495 119.637 C 412.051 119.082, 410.640 121.609, 411.561 123.099 C 412.243 124.202, 411.158 128, 410.161 128 C 409.774 128, 410.193 122.076, 411.093 114.836 C 412.263 105.420, 413.179 101.342, 414.310 100.516 C 415.723 99.482, 415.737 98.892, 414.438 94.930 C 413.639 92.493, 412.539 89.719, 411.993 88.764 C 410.586 86.302, 410.761 85, 412.500 85 C 414.407 85, 414.455 81.622, 412.570 80.058 C 411.783 79.405, 411.307 78, 411.512 76.936 C 411.717 75.871, 411.627 75, 411.311 75 C 409.709 75, 403.640 79.603, 400.674 83.067 L 397.314 86.993 394.907 83.623 C 393.583 81.770, 390.250 77.783, 387.500 74.763 C 384.750 71.743, 381.990 68.424, 381.367 67.386 C 380.744 66.349, 379.896 65.823, 379.482 66.219 C 379.068 66.614, 379.519 68.143, 380.485 69.617 C 382.183 72.209, 382.178 72.280, 380.314 71.792 C 378.696 71.369, 378.453 71.729, 378.793 74.046 C 379.109 76.197, 378.718 76.955, 377.012 77.496 L 374.827 78.190 376.979 80.195 C 378.163 81.299, 378.841 82.493, 378.484 82.849 C 378.128 83.205, 377.261 82.710, 376.558 81.748 C 375.855 80.787, 374.452 80, 373.440 80 C 372.009 80, 371.867 80.267, 372.800 81.200 C 373.460 81.860, 374 83.184, 374 84.143 C 374 85.102, 374.932 86.539, 376.070 87.337 C 377.551 88.374, 377.765 88.918, 376.820 89.250 C 375.828 89.598, 376.053 90.476, 377.725 92.782 C 379.266 94.907, 379.573 95.976, 378.726 96.258 C 377.987 96.504, 378.911 98.019, 381.060 100.083 C 383.016 101.962, 385.889 105.198, 387.445 107.274 C 389.370 109.842, 390.816 110.876, 391.970 110.510 C 393.865 109.908, 396.814 114.860, 395.186 115.909 C 394.682 116.234, 395.973 117.850, 398.054 119.500 C 402.157 122.752, 403.275 125.233, 402.306 128.937 C 401.835 130.738, 402.003 131.116, 402.997 130.502 C 403.866 129.965, 404.068 130.081, 403.595 130.845 C 403.203 131.480, 402.121 132.007, 401.191 132.015 C 400.261 132.024, 398.825 132.474, 398 133.015 C 396.724 133.853, 396.710 134.135, 397.905 134.905 C 398.961 135.585, 398.031 136.457, 394.155 138.422 C 391.320 139.858, 389 141.237, 389 141.485 C 389 142.205, 392.150 140.886, 396.795 138.221 C 401.940 135.270, 402.824 135.632, 399.424 139.298 C 398.046 140.784, 397.361 142, 397.901 142 C 398.440 142, 399.179 141.519, 399.542 140.932 C 399.905 140.344, 400.719 140.025, 401.351 140.222 C 402.651 140.627, 407.447 135.992, 407.600 134.184 C 407.827 131.500, 408.047 131, 409 131 C 409.550 131, 410 131.873, 410 132.941 C 410 134.009, 409.550 135.160, 409 135.500 C 408.450 135.840, 408 137.719, 408 139.676 C 408 142.720, 407.717 143.159, 406.034 142.719 C 404.852 142.410, 402.160 143.421, 399.284 145.254 C 391.592 150.157, 384.414 152.372, 376 152.439 C 366.226 152.518, 363.196 151.630, 362.399 148.454 L 361.768 145.938 359.596 148.219 C 357.731 150.178, 357.547 151.064, 358.290 154.500 C 359.103 158.251, 358.908 164.482, 357.494 180 C 356.622 189.581, 356.205 191.016, 354.490 190.358 C 353.670 190.043, 353 190.311, 353 190.952 C 353 191.593, 352.474 191.793, 351.830 191.395 C 351.057 190.917, 350.865 191.205, 351.263 192.244 C 351.675 193.316, 351.157 193.995, 349.639 194.376 C 348.413 194.683, 344.603 196.750, 341.172 198.968 C 337.740 201.185, 334.471 203, 333.907 203 C 333.343 203, 333.188 203.495, 333.562 204.100 C 334.012 204.828, 333.484 204.794, 332 204 C 330.767 203.340, 330.021 203.225, 330.341 203.743 C 330.672 204.278, 328.705 204.764, 325.786 204.867 C 322.537 204.982, 320.351 204.581, 319.840 203.775 C 319.190 202.752, 319.028 202.759, 319.015 203.809 C 319.007 204.529, 318.550 204.840, 318 204.500 C 317.425 204.145, 316.993 205.076, 316.985 206.691 C 316.976 208.236, 316.539 210.175, 316.014 211 C 315.217 212.251, 316.009 212.597, 320.779 213.082 L 326.500 213.664 320.372 213.832 C 316.269 213.944, 313.827 214.503, 312.980 215.524 C 311.028 217.877, 312.304 218.230, 318.571 217.071 C 321.743 216.485, 324.523 216.190, 324.749 216.415 C 325.583 217.249, 314.141 219.073, 311.785 218.482 C 309.581 217.929, 309.348 217.366, 309.391 212.685 C 309.457 205.322, 307.162 193.424, 304.525 187.461 C 302.735 183.412, 300.876 181.362, 295.437 177.436 C 288.176 172.194, 284.207 169.793, 279.750 167.945 C 278.072 167.249, 277 166.040, 277 164.843 C 277 163.765, 276.550 163.160, 276 163.500 C 275.450 163.840, 275 163.641, 275 163.059 C 275 162.477, 275.344 162, 275.764 162 C 276.760 162, 280.178 154.100, 280.061 152.068 C 280.012 151.206, 279.723 148.475, 279.420 146 C 279.034 142.854, 279.318 140.898, 280.362 139.500 C 281.825 137.541, 281.917 137.568, 284.840 140.832 C 287.371 143.657, 288.132 144, 289.847 143.082 C 290.959 142.487, 292.583 142, 293.456 142 C 295.082 142, 302.961 137.274, 304.175 135.571 C 304.547 135.050, 311.128 134.347, 318.800 134.009 C 329.717 133.528, 333.338 133.009, 335.453 131.622 C 337.057 130.571, 337.934 129.271, 337.610 128.426 C 336.780 126.263, 338.473 126.694, 343.886 130.025 C 348.835 133.070, 351.421 136.049, 353.762 141.401 C 354.460 142.997, 355.300 144.033, 355.630 143.703 C 355.960 143.374, 355.053 140.999, 353.615 138.426 C 352.177 135.853, 351 132.503, 351 130.981 C 351 129.330, 350.333 127.958, 349.347 127.579 C 347.840 127.001, 347.853 126.828, 349.499 125.624 C 351.735 123.990, 350.711 122.001, 347.999 122.711 C 346.900 122.998, 346 122.926, 346 122.551 C 346 120.557, 351.067 114, 352.608 114 C 352.943 114, 352.961 115.237, 352.648 116.750 C 352.335 118.263, 352.324 118.938, 352.623 118.250 C 352.922 117.562, 353.790 117, 354.552 117 C 355.372 117, 355.703 116.388, 355.362 115.500 C 355.045 114.675, 355.284 114, 355.893 114 C 356.502 114, 357 112.515, 357 110.701 C 357 107.545, 356.853 107.419, 353.641 107.794 C 350.811 108.124, 350.187 107.823, 349.679 105.880 C 349.310 104.469, 349.670 102.917, 350.607 101.881 C 351.981 100.364, 351.982 99.740, 350.617 95.844 C 349.780 93.455, 349.056 91.950, 349.009 92.500 C 348.961 93.050, 348.264 91.986, 347.461 90.135 C 345.915 86.575, 345.469 80, 346.773 80 C 348.185 80, 349.895 70.586, 348.631 69.765 C 347.885 69.280, 348.026 69.025, 349.046 69.015 C 350.355 69.002, 350.550 70.496, 350.315 78.750 C 349.984 90.381, 351.326 87.788, 352.555 74.423 C 353.226 67.130, 353.500 66.139, 354.056 69 L 354.737 72.500 354.868 68.309 C 355.027 63.263, 356.966 61.403, 357.076 66.191 L 357.152 69.500 358.500 66 C 360.292 61.346, 360.417 59.183, 358.800 60.800 C 357.290 62.310, 355.650 62.375, 356.569 60.888 C 356.947 60.277, 356.636 59.384, 355.878 58.904 C 354.796 58.218, 354.782 58.027, 355.809 58.015 C 356.529 58.007, 356.840 57.550, 356.500 57 C 356.160 56.450, 356.321 56, 356.858 56 C 357.394 56, 358.010 56.531, 358.227 57.180 C 358.864 59.092, 362 57.258, 362 54.972 C 362 53.823, 361.550 53.160, 361 53.500 C 360.450 53.840, 360 53.330, 360 52.368 C 360 50.788, 359.857 50.806, 358.532 52.559 C 357.724 53.626, 357.004 54.050, 356.930 53.500 C 356.857 52.950, 356.640 50.758, 356.448 48.630 C 355.829 41.776, 361.100 39.601, 363.963 45.529 L 365.427 48.558 367.463 44.882 C 374.830 31.586, 379.058 27.861, 388 26.790 C 389.240 26.642, 389.526 24.319, 389.648 13.383 L 389.796 0.156 374.825 0.056 C 364.853 -0.012, 360.065 0.296, 360.486 0.977 C 360.834 1.540, 360.668 2, 360.118 2 C 359.568 2, 358.811 1.504, 358.437 0.897 C 357.337 -0.882, 334.819 0.104, 333.282 1.999 C 331.587 4.087, 331.696 5.497, 333.440 4.050 C 334.231 3.393, 336.103 3.001, 337.599 3.178 C 339.893 3.449, 340.334 3.995, 340.410 6.655 C 340.459 8.390, 340.112 9.570, 339.638 9.277 C 339.164 8.984, 338.411 9.335, 337.964 10.058 C 337.297 11.137, 336.857 11.126, 335.499 9.999 C 334.010 8.763, 333.878 8.960, 334.173 11.981 C 334.447 14.787, 335.072 15.540, 338 16.591 L 341.500 17.848 337.742 17.924 C 334.263 17.994, 334.074 18.146, 335.210 19.964 C 336.110 21.405, 337.111 21.770, 338.968 21.335 C 341.046 20.848, 341.276 20.980, 340.250 22.071 C 339.562 22.802, 339 24.224, 339 25.231 C 339 26.239, 338.325 27.322, 337.500 27.638 C 335.552 28.386, 335.552 31, 337.500 31 C 338.325 31, 339 31.503, 339 32.118 C 339 32.733, 340.399 34.458, 342.109 35.951 L 345.218 38.665 343.517 61.083 C 342.582 73.412, 341.492 84.081, 341.096 84.791 C 340.581 85.713, 339.039 84.784, 335.702 81.541 C 332.783 78.704, 330.127 77, 328.622 77 C 325.524 77, 324.750 74.849, 325.549 68.456 L 326.191 63.318 323.095 63.773 C 321.216 64.049, 320 63.790, 320 63.113 C 320 62.501, 318.623 62, 316.941 62 C 315.156 62, 314.139 62.417, 314.500 63 C 314.840 63.550, 315.965 64, 317 64 C 319.550 64, 320.067 65.131, 319.094 68.586 C 318.249 71.585, 318.007 71.687, 314.343 70.577 C 312.802 70.111, 311.385 70.666, 309.386 72.518 C 307.408 74.351, 305.913 74.944, 304.293 74.537 C 303.026 74.219, 302 74.418, 302 74.981 C 302 75.541, 300.762 76.014, 299.250 76.032 C 296.096 76.068, 293.691 77.661, 292.664 80.393 C 291.229 84.211, 291.044 81.074, 291.987 68.928 C 292.518 62.093, 293.478 49.300, 294.121 40.500 C 294.765 31.700, 295.742 24.050, 296.292 23.500 C 296.960 22.833, 297.027 22.967, 296.494 23.902 C 295.988 24.789, 296.316 25.758, 297.387 26.541 C 298.910 27.655, 298.925 27.932, 297.539 29.318 C 295.838 31.020, 295.418 37, 297 37 C 297.550 37, 298.014 36.212, 298.030 35.250 C 298.058 33.654, 298.156 33.664, 299.147 35.370 C 300.024 36.880, 300.401 36.976, 301.102 35.870 C 302.436 33.764, 302.162 32, 300.500 32 C 298.384 32, 298.660 30.855, 301.403 28.255 C 302.867 26.867, 304.028 24.299, 304.443 21.528 C 304.813 19.063, 305.547 16.780, 306.074 16.454 C 306.601 16.128, 306.773 15.441, 306.455 14.927 C 305.655 13.633, 310.143 5.882, 311.445 6.310 C 312.025 6.501, 312.636 8.984, 312.802 11.829 C 313.097 16.878, 313.180 17.004, 316.302 17.158 C 318.061 17.244, 320.063 17.294, 320.750 17.269 C 322.153 17.217, 322.212 17.699, 322.001 27.487 C 321.847 34.630, 320.921 36.396, 317.831 35.436 C 315.803 34.805, 315.374 36.512, 315.856 43.281 C 316.095 46.639, 316.500 47.821, 317.090 46.888 C 317.722 45.890, 317.974 45.851, 317.985 46.750 C 318.010 48.842, 319.723 48.145, 320.442 45.750 C 321.095 43.572, 321.142 43.564, 321.910 45.500 C 322.668 47.410, 322.738 47.393, 323.461 45.118 C 323.993 43.444, 324.450 43.110, 324.998 43.996 C 326.277 46.066, 328.006 44.112, 327.921 40.691 C 327.878 38.936, 327.615 38.062, 327.338 38.750 C 326.678 40.384, 323.969 40.292, 321.680 38.557 C 320.126 37.379, 320.076 37.055, 321.337 36.339 C 322.388 35.742, 323.170 32.042, 324.050 23.500 C 325.803 6.484, 327.259 5.510, 326.520 21.847 C 326.037 32.515, 326.176 35.109, 327.208 34.767 C 328.434 34.362, 330.727 15.538, 330.925 4.250 L 331 0 313.090 -0 L 295.180 -0 294.566 8.250 C 294.229 12.787, 293.291 26.400, 292.482 38.500 C 291.673 50.600, 290.519 67.623, 289.917 76.329 C 289.316 85.035, 289.089 92.422, 289.412 92.746 C 289.736 93.069, 290.032 91.796, 290.070 89.917 C 290.160 85.554, 291.401 82.222, 292.360 83.773 C 292.747 84.400, 293.713 84.663, 294.507 84.359 C 295.744 83.884, 295.730 84.546, 294.407 89.003 C 292.881 94.141, 293.116 97.664, 294.912 96.555 C 295.421 96.240, 296.141 97.367, 296.513 99.058 C 296.994 101.250, 296.714 102.659, 295.538 103.958 C 294.366 105.253, 293.949 107.334, 294.098 111.140 C 294.214 114.088, 294.002 117.454, 293.628 118.620 C 293.058 120.396, 293.438 120.838, 295.974 121.345 C 298.667 121.883, 299 122.345, 299 125.534 C 299 127.669, 298.596 128.868, 298 128.500 C 297.450 128.160, 297 127.084, 297 126.108 C 297 123.589, 296.016 122.921, 293.941 124.032 C 291.210 125.493, 288.808 124.228, 290.018 121.966 C 291.584 119.041, 291.162 115.457, 289.026 113.523 C 287.217 111.887, 286.852 111.867, 284.677 113.292 C 282.330 114.830, 282.290 114.797, 281.282 110.389 C 280.388 106.485, 280.487 105.810, 282.070 104.962 C 283.251 104.331, 284.094 104.343, 284.498 104.997 C 284.839 105.549, 285.626 106, 286.246 106 C 286.867 106, 286.052 104.591, 284.437 102.868 C 282.490 100.792, 281.921 99.585, 282.750 99.285 C 284.588 98.621, 284.272 94.272, 282.238 92.238 C 279.030 89.030, 268 67.682, 268 64.680 C 268 62.019, 268.254 61.810, 271 62.213 C 273.249 62.543, 274.002 62.259, 274.010 61.077 C 274.033 57.335, 278.029 7.152, 278.575 3.750 L 279.176 0 269.654 0 L 260.132 0 259.816 17.250 C 259.642 26.738, 259.600 34.675, 259.722 34.889 C 260.236 35.788, 262.237 29.059, 263.109 23.500 C 264.285 16.001, 265.723 12.320, 267.785 11.529 C 269.080 11.032, 269.031 11.308, 267.531 12.966 C 266.201 14.436, 265.476 17.357, 264.978 23.259 C 264.305 31.235, 262.569 37, 260.839 37 C 260.378 37, 260 37.590, 260 38.311 C 260 39.033, 259.041 40.652, 257.869 41.910 C 255.958 43.961, 255.157 44.128, 250.119 43.523 C 243.863 42.771, 240.241 40.136, 239.779 36 C 239.517 33.653, 239.793 33.494, 244.291 33.409 C 246.926 33.359, 249.478 32.909, 249.962 32.409 C 250.447 31.909, 250.991 26.550, 251.172 20.500 C 251.471 10.477, 251.345 9.526, 249.750 9.794 C 248.468 10.009, 248 9.413, 248 7.563 C 248 4.776, 248.530 4.985, 235 2.449 C 227.498 1.043, 198.026 -0.675, 203.750 0.627 C 205.615 1.051, 206 1.812, 206 5.070 C 206 7.231, 206.420 9, 206.934 9 C 207.447 9, 207.677 7.950, 207.444 6.667 C 207.156 5.077, 207.496 4.333, 208.511 4.333 C 209.330 4.333, 210 4.933, 210 5.667 C 210 6.400, 209.640 7, 209.201 7 C 208.761 7, 208.601 8.688, 208.844 10.750 C 209.205 13.807, 209.432 14.131, 210.073 12.500 C 210.506 11.400, 210.891 8.947, 210.930 7.050 C 210.976 4.799, 211.340 3.940, 211.979 4.579 C 212.539 5.139, 212.689 7.828, 212.331 10.856 L 211.703 16.155 203.418 15.465 L 195.133 14.775 194.608 18.137 C 193.579 24.734, 193.279 47.162, 194.238 45.815 C 195.153 44.529, 195.104 45.085, 193.872 49.977 C 193.484 51.516, 195.622 51.880, 214.500 53.489 C 218.900 53.864, 224.699 54.582, 227.386 55.085 C 230.074 55.588, 234.209 56, 236.576 56 C 240.812 56, 240.885 55.942, 241.272 52.250 C 241.492 50.140, 241.737 51.634, 241.832 55.668 C 241.924 59.611, 242.309 63.661, 242.687 64.668 C 243.256 66.185, 243.121 66.295, 241.902 65.305 C 240.703 64.334, 240.429 64.460, 240.429 65.982 C 240.429 67.011, 240.782 67.635, 241.214 67.368 C 241.646 67.100, 242 67.203, 242 67.595 C 242 68.823, 233.735 76, 232.320 76 C 230.803 76, 227.265 77.868, 225.217 79.750 C 224.469 80.437, 223.005 81, 221.964 81 C 220.057 81, 217.572 84.238, 218.651 85.317 C 218.970 85.636, 217.941 87.014, 216.365 88.379 C 214.676 89.842, 213.126 90.495, 212.590 89.970 C 211.348 88.755, 211.155 82.789, 212.308 81.250 C 212.951 80.392, 212.784 80, 211.777 80 C 210.970 80, 209.495 79.100, 208.500 78 C 207.319 76.695, 205.420 76, 203.036 76 C 201.027 76, 198.540 75.384, 197.510 74.631 C 195.923 73.471, 194.712 73.478, 189.574 74.677 C 181.704 76.512, 179.271 78.201, 177.058 83.364 C 175.141 87.837, 173.480 96.968, 173.896 100.750 C 174.032 101.987, 173.661 103, 173.072 103 C 171.779 103, 171.649 111.898, 172.913 113.893 C 173.418 114.692, 174.668 115.059, 175.838 114.753 C 177.576 114.298, 177.717 114.480, 176.787 115.970 C 176.101 117.068, 174.539 117.687, 172.597 117.630 C 170.262 117.561, 169.521 117.965, 169.583 119.269 C 169.890 125.630, 170 125.937, 171.750 125.321 C 173.179 124.819, 173.270 124.953, 172.250 126.053 C 171.562 126.794, 171 127.965, 171 128.655 C 171 129.345, 169.875 131.034, 168.500 132.409 C 166.134 134.775, 164.920 138.786, 166.949 137.531 C 168.288 136.704, 169.342 143.258, 168.593 147.744 C 168.248 149.810, 167.797 153.152, 167.591 155.170 C 167.385 157.189, 166.885 159.377, 166.480 160.032 C 166.075 160.688, 166.260 161.543, 166.891 161.933 C 167.634 162.392, 167.151 163.117, 165.521 163.989 C 164.136 164.730, 162.778 165.111, 162.503 164.836 C 161.201 163.534, 160.370 155.094, 161.373 153.359 C 161.964 152.336, 162.460 150.313, 162.474 148.862 C 162.495 146.687, 162.115 146.293, 160.310 146.620 C 159.106 146.839, 156.113 146.336, 153.659 145.502 C 148.814 143.858, 145.805 144.328, 146.674 146.594 C 147.057 147.591, 146.735 147.835, 145.606 147.402 C 144.687 147.050, 143.723 145.122, 143.374 142.938 L 142.760 139.095 136.630 139.156 C 129.787 139.225, 126.139 138.865, 114.500 136.972 C 107.590 135.849, 105.547 135.886, 99.505 137.244 C 95.658 138.108, 92.058 138.531, 91.505 138.183 C 90.952 137.835, 89.713 137.679, 88.750 137.838 C 87.788 137.996, 87 137.570, 87 136.892 C 87 136.213, 86.266 134.846, 85.368 133.854 C 83.970 132.309, 83.919 131.610, 85.012 128.970 C 85.908 126.808, 86.604 126.204, 87.344 126.944 C 88.970 128.570, 90 128.203, 90 126 C 90 123.574, 91.835 123.392, 93.488 125.653 C 94.952 127.654, 97 126.632, 97 123.900 C 97 122.811, 97.858 120.700, 98.906 119.210 C 100.020 117.626, 101.086 113.851, 101.470 110.127 L 102.127 103.754 99.064 104.204 C 97.273 104.467, 95.987 104.206, 95.970 103.577 C 95.953 102.985, 95.481 103.287, 94.920 104.250 C 94.359 105.212, 92.910 105.999, 91.700 105.999 C 89.619 105.998, 89.662 105.843, 92.500 103.124 C 94.769 100.951, 95.926 100.473, 97.250 101.161 C 98.604 101.865, 98.997 101.667, 98.985 100.285 C 98.955 96.799, 97.619 95.888, 94.256 97.061 C 91.628 97.977, 90.852 97.852, 89.260 96.260 C 88.223 95.223, 87.553 93.841, 87.771 93.188 C 88.249 91.754, 95 91.579, 95 93 C 95 93.550, 95.395 94, 95.877 94 C 96.698 94, 98.659 39.293, 97.865 38.560 C 97.664 38.375, 89.461 37.479, 79.636 36.569 C 68.119 35.502, 61.301 34.444, 60.447 33.590 C 59.349 32.492, 61.880 32.331, 75.312 32.642 C 85.874 32.887, 90.805 32.692, 89.500 32.079 C 88.400 31.563, 85.362 31.109, 82.750 31.070 C 80.138 31.032, 78 30.545, 78 29.988 C 78 29.376, 79.508 29.218, 81.823 29.588 C 83.926 29.924, 87.863 30.267, 90.573 30.350 C 95.450 30.498, 95.497 30.532, 95.192 33.583 C 94.972 35.791, 95.309 36.667, 96.380 36.667 C 97.485 36.667, 98.018 35.076, 98.416 30.583 C 99.380 19.724, 99.631 -0, 98.805 -0 C 98.362 -0, 97.944 3.375, 97.875 7.500 C 97.718 16.927, 97.706 17.009, 96.500 16.954 C 95.950 16.929, 95.651 15.753, 95.836 14.342 C 96.053 12.686, 95.787 12.014, 95.086 12.447 C 94.489 12.816, 94 13.991, 94 15.059 C 94 16.650, 93.294 17, 90.082 17 C 84.308 17, 82.907 16.219, 83.616 13.396 C 83.961 12.020, 83.775 11, 83.178 11 C 82.607 11, 81.995 12.013, 81.820 13.250 C 81.542 15.201, 80.905 15.500, 77.020 15.500 L 72.539 15.500 72.854 11.139 C 73.067 8.194, 72.817 6.995, 72.085 7.448 C 71.488 7.816, 71 9.666, 71 11.559 C 71 14.175, 70.581 14.996, 69.250 14.985 C 65.378 14.951, 64.686 13.503, 65.240 6.601 C 65.720 0.614, 65.594 0, 63.885 0 C 62.427 0, 61.998 0.737, 61.989 3.250 C 61.966 10.146, 60.861 13.865, 58.881 13.716 C 57.846 13.638, 57 13.009, 57 12.319 C 57 11.613, 57.657 11.315, 58.500 11.638 C 59.732 12.111, 60 11.125, 60 6.107 C 60 2.475, 59.571 0, 58.941 0 C 58.359 0, 58.136 0.412, 58.447 0.915 C 58.758 1.418, 58.549 1.984, 57.983 2.172 C 57.416 2.361, 56.685 4.762, 56.359 7.508 C 55.614 13.767, 55.042 14.494, 54.858 9.417 L 54.716 5.500 53.970 9.500 C 53.237 13.424, 53.224 13.400, 53.290 8.250 C 53.327 5.362, 53.727 3, 54.179 3 C 54.630 3, 55 2.325, 55 1.500 C 55 0.567, 54.056 0, 52.500 0 C 50.114 0, 50 0.271, 50 5.941 C 50 11.639, 48.792 14.194, 46.964 12.363 C 46.491 11.888, 46.455 8.912, 46.884 5.750 C 47.569 0.707, 47.457 0, 45.973 0 C 44.652 0, 44.152 1.234, 43.701 5.605 C 43.383 8.688, 42.923 11.410, 42.679 11.654 C 41.689 12.645, 37 10.676, 37 9.269 C 37 8.037, 37.279 7.987, 38.500 9 C 39.800 10.079, 40 9.562, 40 5.122 C 40 -0.793, 38.310 -1.814, 37.728 3.750 L 37.336 7.500 37.168 3.750 C 37.013 0.292, 36.768 0, 34.015 0 C 31.043 0, 31.033 0.021, 31.448 5.023 L 31.866 10.047 27.183 9.584 C 24.607 9.329, 22.171 9.093, 21.769 9.060 C 21.367 9.027, 21.316 6.975, 21.655 4.500 C 22.220 0.379, 22.092 0, 20.136 0 C 18.795 0, 17.974 0.651, 17.930 1.750 C 17.869 3.267, 17.758 3.241, 17.098 1.554 C 16.377 -0.289, 16.305 -0.273, 15.746 1.865 C 15.374 3.286, 15.654 4.314, 16.500 4.638 C 17.240 4.922, 18.091 5.795, 18.391 6.577 C 18.813 7.675, 17.930 8, 14.529 8 C 10.175 8, 10.117 7.955, 9.810 4.327 C 9.640 2.307, 8.908 0.460, 8.185 0.222 C 7.175 -0.110, 7.034 0.665, 7.577 3.556 C 8.196 6.860, 8.071 7.241, 6.560 6.661 C 5.612 6.298, 3.924 6, 2.810 6 C 1.161 6, 0.897 5.545, 1.395 3.561 C 1.732 2.220, 1.556 0.843, 1.004 0.502 C 0.364 0.107, 0 2.772, 0 7.847 M 3 1.059 C 3 1.641, 3.450 1.840, 4 1.500 C 5.281 0.708, 5.281 0, 4 0 C 3.450 0, 3 0.477, 3 1.059 M 26.252 3.500 C 26.263 5.700, 26.468 6.482, 26.707 5.238 C 26.946 3.994, 26.937 2.194, 26.687 1.238 C 26.437 0.282, 26.241 1.300, 26.252 3.500 M 41.548 3.817 C 41.138 6.192, 41.042 8.375, 41.336 8.670 C 42.065 9.398, 43.316 2.433, 42.749 0.804 C 42.499 0.087, 41.959 1.443, 41.548 3.817 M 70.250 0.689 C 71.213 0.941, 72 2.014, 72 3.073 C 72 4.133, 72.450 5, 73 5 C 73.550 5, 74 3.875, 74 2.500 C 74 0.411, 73.548 0.019, 71.250 0.116 C 69.558 0.187, 69.173 0.408, 70.250 0.689 M 195.079 1.583 C 195.127 2.748, 195.364 2.985, 195.683 2.188 C 195.972 1.466, 195.936 0.603, 195.604 0.271 C 195.272 -0.061, 195.036 0.529, 195.079 1.583 M 198.468 2.101 C 198.101 3.256, 198.240 4.640, 198.776 5.176 C 199.409 5.809, 199.909 5.073, 200.202 3.075 C 200.713 -0.405, 199.483 -1.096, 198.468 2.101 M 0.343 8.500 C 0.346 12.900, 0.522 14.576, 0.733 12.224 C 0.945 9.872, 0.942 6.272, 0.727 4.224 C 0.512 2.176, 0.339 4.100, 0.343 8.500 M 63.158 4 C 63.158 5.375, 63.385 5.938, 63.662 5.250 C 63.940 4.563, 63.940 3.438, 63.662 2.750 C 63.385 2.063, 63.158 2.625, 63.158 4 M 383.604 3.590 C 382.924 5.363, 383.622 7, 385.059 7 C 385.577 7, 386 5.875, 386 4.500 C 386 1.703, 384.541 1.149, 383.604 3.590 M 79.731 4.920 C 79.296 6.583, 79.426 6.974, 80.168 6.232 C 80.750 5.650, 81.028 4.585, 80.788 3.863 C 80.538 3.114, 80.085 3.568, 79.731 4.920 M 94.015 3.691 C 94.024 4.136, 94.467 5.175, 95 6 C 95.835 7.293, 95.971 7.266, 95.985 5.809 C 95.993 4.879, 95.550 3.840, 95 3.500 C 94.450 3.160, 94.007 3.246, 94.015 3.691 M 372 6.059 C 372 6.641, 372.450 6.840, 373 6.500 C 373.550 6.160, 374 5.684, 374 5.441 C 374 5.198, 373.550 5, 373 5 C 372.450 5, 372 5.477, 372 6.059 M 214.362 10.548 C 213.078 16.138, 213.305 17, 216.059 17 C 217.678 17, 217.997 16.296, 217.985 12.750 C 217.974 9.835, 217.686 8.948, 217.068 9.924 C 216.392 10.992, 216.083 10.628, 215.833 8.472 C 215.549 6.019, 215.333 6.324, 214.362 10.548 M 357.500 6.995 C 360.105 8.121, 361 8.178, 361 7.218 C 361 6.788, 359.762 6.368, 358.250 6.284 C 355.877 6.152, 355.774 6.250, 357.500 6.995 M 379.496 8.007 C 379.153 8.561, 379.596 9.292, 380.480 9.631 C 382.394 10.365, 383.461 9.556, 382.541 8.067 C 381.711 6.723, 380.306 6.696, 379.496 8.007 M 317.232 11 C 317.232 12.925, 317.438 13.713, 317.689 12.750 C 317.941 11.787, 317.941 10.213, 317.689 9.250 C 317.438 8.287, 317.232 9.075, 317.232 11 M 319.079 9.583 C 319.127 10.748, 319.364 10.985, 319.683 10.188 C 319.972 9.466, 319.936 8.603, 319.604 8.271 C 319.272 7.939, 319.036 8.529, 319.079 9.583 M 349.395 9.170 C 348.917 9.943, 349.205 10.135, 350.242 9.737 C 351.121 9.400, 352.514 9.910, 353.406 10.896 C 355.248 12.931, 355.526 14.443, 353.870 13.420 C 353.182 12.994, 352.929 13.264, 353.224 14.111 C 353.490 14.875, 354.455 15.366, 355.370 15.203 C 356.284 15.039, 356.971 15.264, 356.897 15.703 C 356.824 16.141, 356.848 17.400, 356.952 18.500 L 357.141 20.500 358 18.500 C 358.579 17.153, 358.887 16.990, 358.945 18 C 359.020 19.315, 359.146 19.318, 359.963 18.026 C 360.577 17.055, 360.487 16.288, 359.697 15.776 C 358.792 15.189, 358.838 14.782, 359.885 14.107 C 361.003 13.387, 360.884 13.008, 359.267 12.143 C 358.165 11.553, 357.051 11.282, 356.792 11.541 C 356.533 11.800, 355.504 11.110, 354.506 10.006 C 352.465 7.751, 350.473 7.425, 349.395 9.170 M 79.079 10.583 C 79.127 11.748, 79.364 11.985, 79.683 11.188 C 79.972 10.466, 79.936 9.603, 79.604 9.271 C 79.272 8.939, 79.036 9.529, 79.079 10.583 M 395.521 14.976 C 394.514 16.089, 393.085 17, 392.345 17 C 390.287 17, 390.745 19.708, 393.080 21.343 C 396.513 23.748, 398.460 22.792, 398.818 18.528 C 399.220 13.735, 397.916 12.330, 395.521 14.976 M 349.079 16.583 C 349.127 17.748, 349.364 17.985, 349.683 17.188 C 349.972 16.466, 349.936 15.603, 349.604 15.271 C 349.272 14.939, 349.036 15.529, 349.079 16.583 M 10 17.300 C 10 18.015, 10.424 19.027, 10.943 19.550 C 11.461 20.073, 12.053 22.975, 12.258 26 C 12.576 30.696, 12.657 30.367, 12.815 23.750 C 12.965 17.446, 12.720 16, 11.500 16 C 10.675 16, 10 16.585, 10 17.300 M 296 17.059 C 296 17.641, 296.450 17.840, 297 17.500 C 297.550 17.160, 298 16.684, 298 16.441 C 298 16.198, 297.550 16, 297 16 C 296.450 16, 296 16.477, 296 17.059 M 346 16.941 C 346 17.459, 346.450 18.160, 347 18.500 C 347.550 18.840, 348 18.416, 348 17.559 C 348 16.702, 347.550 16, 347 16 C 346.450 16, 346 16.423, 346 16.941 M 15.769 19 C 14.590 23.601, 14.084 32, 14.986 32 C 16.139 32, 17.268 24.450, 16.785 19.974 C 16.442 16.798, 16.354 16.715, 15.769 19 M 19.152 24.451 C 18.987 29.618, 19.275 32, 20.063 32 C 20.715 32, 20.943 31.295, 20.589 30.373 C 20.246 29.477, 20.263 26.499, 20.627 23.755 C 21.486 17.278, 23.019 19.671, 22.718 27.018 C 22.417 34.341, 24.618 34.905, 25.514 27.735 C 26.558 19.378, 26.026 17.551, 22.447 17.201 L 19.393 16.903 19.152 24.451 M 350.543 18.931 C 349.860 20.036, 351.437 21.230, 352.361 20.306 C 353.311 19.355, 353.134 18, 352.059 18 C 351.541 18, 350.859 18.419, 350.543 18.931 M 0.456 111 L 0.488 203.500 0.750 122.750 C 0.921 70.079, 1.358 42, 2.006 42 C 2.553 42, 3 41.298, 3 40.441 C 3 39.584, 2.565 39.151, 2.034 39.479 C 1.443 39.844, 0.944 35.892, 0.747 29.288 C 0.570 23.355, 0.439 60.125, 0.456 111 M 27 20.559 C 27 21.416, 27.457 21.835, 28.016 21.490 C 28.575 21.144, 28.774 20.443, 28.457 19.931 C 27.600 18.544, 27 18.802, 27 20.559 M 29.986 22.583 C 29.969 27.592, 29.022 31.131, 27.886 30.430 C 27.399 30.128, 27 30.584, 27 31.441 C 27 32.507, 27.950 33, 30 33 C 32 33, 33 32.500, 33 31.500 C 33 30.675, 32.593 30, 32.096 30 C 31.599 30, 31.174 27.700, 31.152 24.890 C 31.131 22.079, 30.862 19.529, 30.556 19.223 C 30.250 18.917, 29.994 20.429, 29.986 22.583 M 33.070 21.750 C 33.133 24.187, 33.238 24.272, 34 22.500 C 35.174 19.769, 35.174 19, 34 19 C 33.450 19, 33.032 20.238, 33.070 21.750 M 35.961 20.250 C 35.939 20.938, 35.713 24.241, 35.458 27.590 L 34.994 33.681 44.497 34.601 C 51.892 35.317, 54 35.246, 54 34.280 C 54 33.597, 52.864 32.753, 51.476 32.405 C 49.199 31.833, 49.012 31.416, 49.563 28.136 C 49.900 26.136, 50.391 23.712, 50.655 22.750 C 50.964 21.623, 50.576 21, 49.567 21 C 48.334 21, 48 22.173, 48 26.500 C 48 29.525, 47.550 32, 47 32 C 46.444 32, 46 29.333, 46 26 C 46 21.333, 45.667 20, 44.500 20 C 43.675 20, 42.663 19.973, 42.250 19.941 C 41.837 19.909, 41.207 20.921, 40.850 22.191 C 40.238 24.361, 40.193 24.335, 40.100 21.750 C 40.025 19.700, 39.491 19, 38 19 C 36.900 19, 35.982 19.563, 35.961 20.250 M 296 20.559 C 296 21.416, 296.457 21.835, 297.016 21.490 C 297.575 21.144, 297.774 20.443, 297.457 19.931 C 296.600 18.544, 296 18.802, 296 20.559 M 352.103 23.241 C 350.802 26.648, 351.621 29, 354.107 29 C 356.420 29, 356.683 25.312, 354.575 22.441 C 353.198 20.566, 353.114 20.593, 352.103 23.241 M 60 23 C 60.825 23.533, 61.950 23.969, 62.500 23.969 C 63.050 23.969, 62.825 23.533, 62 23 C 61.175 22.467, 60.050 22.031, 59.500 22.031 C 58.950 22.031, 59.175 22.467, 60 23 M 197.689 22.734 C 197.442 23.155, 196.922 27.847, 196.533 33.160 C 195.884 42.040, 195.975 42.853, 197.663 43.229 C 198.674 43.454, 200.524 43.276, 201.776 42.834 C 203.028 42.391, 211.111 41.102, 219.739 39.969 C 228.367 38.835, 235.560 37.774, 235.723 37.610 C 236.139 37.194, 230.776 34.930, 214.043 28.456 C 206.092 25.379, 199.261 22.661, 198.862 22.415 C 198.464 22.169, 197.936 22.312, 197.689 22.734 M 66.264 23.718 C 67.784 23.947, 70.034 23.941, 71.264 23.704 C 72.494 23.467, 71.250 23.279, 68.500 23.286 C 65.750 23.294, 64.744 23.488, 66.264 23.718 M 88.750 23.662 C 89.438 23.940, 90.563 23.940, 91.250 23.662 C 91.938 23.385, 91.375 23.158, 90 23.158 C 88.625 23.158, 88.063 23.385, 88.750 23.662 M 75.762 24.707 C 77.006 24.946, 78.806 24.937, 79.762 24.687 C 80.718 24.437, 79.700 24.241, 77.500 24.252 C 75.300 24.263, 74.518 24.468, 75.762 24.707 M 83.250 25.689 C 84.213 25.941, 85.787 25.941, 86.750 25.689 C 87.713 25.438, 86.925 25.232, 85 25.232 C 83.075 25.232, 82.287 25.438, 83.250 25.689 M 61.268 28.039 C 62.240 28.633, 66.290 29.299, 70.268 29.518 C 77.056 29.892, 77.176 29.864, 72.219 29.064 C 69.314 28.595, 65.264 27.929, 63.219 27.585 C 60.309 27.095, 59.885 27.194, 61.268 28.039 M 74.762 27.707 C 76.006 27.946, 77.806 27.937, 78.762 27.687 C 79.718 27.437, 78.700 27.241, 76.500 27.252 C 74.300 27.263, 73.518 27.468, 74.762 27.707 M 43.158 30 C 43.158 31.375, 43.385 31.938, 43.662 31.250 C 43.940 30.563, 43.940 29.438, 43.662 28.750 C 43.385 28.063, 43.158 28.625, 43.158 30 M 39.158 31 C 39.158 32.375, 39.385 32.938, 39.662 32.250 C 39.940 31.563, 39.940 30.438, 39.662 29.750 C 39.385 29.063, 39.158 29.625, 39.158 31 M 273.183 30.217 C 271.800 31.600, 271.593 35, 272.892 35 C 273.792 35, 275.409 30.076, 274.732 29.399 C 274.531 29.198, 273.834 29.566, 273.183 30.217 M 4 47 C 4 54.867, 4.042 55, 6.500 55 C 8.941 55, 9 54.826, 9 47.607 C 9 40.288, 8.389 39, 4.918 39 C 4.413 39, 4 42.600, 4 47 M 14.543 40.931 C 13.860 42.036, 15.437 43.230, 16.361 42.306 C 17.311 41.355, 17.134 40, 16.059 40 C 15.541 40, 14.859 40.419, 14.543 40.931 M 19.426 40.765 C 18.735 41.238, 18.595 43.458, 19.035 47 C 19.493 50.686, 19.803 51.510, 19.974 49.500 C 20.115 47.850, 20.146 45.686, 20.042 44.690 C 19.939 43.695, 20.392 42.233, 21.049 41.440 C 22.301 39.932, 21.271 39.503, 19.426 40.765 M 23 48.538 C 23 54.504, 23.301 56, 24.500 56 C 25.325 56, 26 55.523, 26 54.941 C 26 54.359, 26.450 54.160, 27 54.500 C 27.569 54.852, 28 53.991, 28 52.500 C 28 51.009, 27.569 50.148, 27 50.500 C 26.386 50.880, 26.051 49.456, 26.132 46.809 L 26.263 42.500 27 46 C 27.611 48.905, 27.759 49.061, 27.868 46.917 C 27.948 45.346, 28.588 44.333, 29.500 44.333 C 30.680 44.333, 31 45.726, 31 50.867 C 31 59.034, 32.739 57.980, 33.256 49.500 L 33.622 43.500 33.811 50.250 C 33.958 55.499, 34.333 57, 35.500 57 C 36.663 57, 37 55.680, 37 51.117 C 37 46.074, 37.286 45.159, 39 44.710 C 40.523 44.312, 41.028 44.701, 41.118 46.344 C 41.287 49.411, 41.308 49.142, 40.577 53.250 C 39.987 56.564, 40.144 57, 41.925 57 C 43.775 57, 43.923 56.425, 43.721 50.034 L 43.500 43.067 39.500 42.571 C 37.300 42.297, 32.688 41.849, 29.250 41.575 L 23 41.075 23 48.538 M 6.079 43.583 C 6.127 44.748, 6.364 44.985, 6.683 44.188 C 6.972 43.466, 6.936 42.603, 6.604 42.271 C 6.272 41.939, 6.036 42.529, 6.079 43.583 M 45 49.895 C 45 55.792, 45.268 56.837, 46.889 57.261 C 49.398 57.917, 51.101 56.782, 50.083 55.134 C 49.636 54.411, 49.468 51.486, 49.709 48.634 C 50.129 43.658, 50.043 43.440, 47.574 43.235 C 45.038 43.026, 45 43.123, 45 49.895 M 109 45.025 C 109 45.561, 110.463 46.013, 112.250 46.028 C 114.037 46.044, 124.500 46.709, 135.500 47.506 C 155.696 48.970, 164.680 49.321, 163.917 48.615 C 163.687 48.403, 152.475 47.489, 139 46.585 C 125.525 45.681, 113.263 44.741, 111.750 44.496 C 110.237 44.251, 109 44.489, 109 45.025 M 56.741 47.332 C 56.333 48.339, 56.049 51.264, 56.110 53.832 L 56.219 58.500 57.123 54 C 57.621 51.525, 57.905 48.600, 57.755 47.500 C 57.499 45.629, 57.434 45.618, 56.741 47.332 M 93.250 46.718 C 92.563 46.965, 91.947 48.592, 91.882 50.333 L 91.763 53.500 91.104 50.500 C 90.557 48.011, 90.322 47.812, 89.723 49.332 C 89.325 50.339, 89 53.152, 89 55.582 C 89 59.977, 89.018 60, 92.553 60 L 96.106 60 95.894 53.461 C 95.676 46.714, 95.378 45.955, 93.250 46.718 M 72.685 47.701 C 72.374 48.204, 71.810 50.952, 71.431 53.807 C 70.865 58.079, 71.011 59, 72.255 59 C 73.859 59, 74.974 56.128, 74.971 52 C 74.969 49.102, 73.512 46.362, 72.685 47.701 M 82.985 48.750 C 82.973 50.090, 82.771 50.188, 82.124 49.166 C 81.449 48.102, 81.149 48.169, 80.639 49.498 C 80.288 50.414, 80 52.252, 80 53.582 C 80 54.912, 79.514 56, 78.921 56 C 78.238 56, 78.076 54.805, 78.481 52.750 C 78.957 50.333, 78.854 49.884, 78.076 51 C 77.501 51.825, 77.024 53.288, 77.015 54.250 C 77.007 55.212, 76.564 56, 76.031 56 C 75.499 56, 75.322 56.675, 75.638 57.500 C 75.955 58.325, 77.262 59, 78.544 59 C 80.423 59, 80.951 58.371, 81.277 55.750 L 81.680 52.500 81.840 55.633 C 81.965 58.088, 82.521 58.867, 84.406 59.227 C 86.423 59.612, 86.909 59.206, 87.406 56.718 C 88.437 51.567, 88.076 48.243, 86.418 47.607 C 83.841 46.618, 83.001 46.897, 82.985 48.750 M 196.250 47.662 C 194.589 48.333, 194.648 50, 196.333 50 C 197.067 50, 197.667 49.325, 197.667 48.500 C 197.667 47.675, 197.629 47.036, 197.583 47.079 C 197.537 47.122, 196.938 47.385, 196.250 47.662 M 255.722 49.011 C 254.775 50.118, 254 51.468, 254 52.011 C 254 52.888, 251.846 53.449, 249.750 53.118 C 249.338 53.053, 248.968 53.788, 248.929 54.750 C 248.890 55.712, 248.652 58.188, 248.401 60.250 C 248.013 63.431, 248.233 64, 249.850 64 C 250.898 64, 252.315 63.325, 253 62.500 C 253.685 61.675, 255.114 61, 256.175 61 C 257.918 61, 258.086 60.320, 257.901 54 C 257.789 50.150, 257.640 47, 257.571 47 C 257.501 47, 256.669 47.905, 255.722 49.011 M 265.250 47.662 C 264.563 47.940, 264 48.874, 264 49.739 C 264 50.604, 262.852 52.816, 261.449 54.656 C 259.567 57.123, 259.286 58, 260.377 58 C 261.190 58, 262.985 56.556, 264.367 54.790 C 266.849 51.619, 266.904 51.603, 268.963 53.467 C 270.513 54.869, 270.728 55.550, 269.803 56.122 C 268.099 57.175, 269.325 58.196, 271.357 57.417 C 273.597 56.557, 273.424 53.694, 271 51.500 C 269.900 50.505, 269 49.085, 269 48.345 C 269 46.991, 267.562 46.729, 265.250 47.662 M 64.725 50.875 C 63.292 57.545, 63.699 59, 67 59 C 69.967 59, 69.999 58.942, 69.884 53.750 C 69.820 50.862, 69.562 49.288, 69.311 50.250 C 68.655 52.759, 66.202 52.410, 65.795 49.750 C 65.516 47.928, 65.313 48.142, 64.725 50.875 M 47.158 52 C 47.158 53.375, 47.385 53.938, 47.662 53.250 C 47.940 52.563, 47.940 51.438, 47.662 50.750 C 47.385 50.063, 47.158 50.625, 47.158 52 M 200.813 50.683 C 201.534 50.972, 202.397 50.936, 202.729 50.604 C 203.061 50.272, 202.471 50.036, 201.417 50.079 C 200.252 50.127, 200.015 50.364, 200.813 50.683 M 315.232 53 C 315.232 54.925, 315.438 55.712, 315.689 54.750 C 315.941 53.788, 315.941 52.212, 315.689 51.250 C 315.438 50.288, 315.232 51.075, 315.232 53 M 317.798 52.925 C 317.550 54.616, 317.666 56, 318.057 56 C 319.175 56, 320.028 51.628, 319.092 50.692 C 318.628 50.228, 318.046 51.233, 317.798 52.925 M 16.720 52.332 C 15.711 54.899, 15.759 55, 18 55 C 19.100 55, 20 54.523, 20 53.941 C 20 53.359, 19.584 53.139, 19.076 53.453 C 18.567 53.767, 17.992 53.231, 17.796 52.262 C 17.464 50.613, 17.395 50.618, 16.720 52.332 M 59.624 52.539 C 59.281 53.432, 59.041 55.139, 59.090 56.332 C 59.154 57.868, 59.462 57.521, 60.147 55.140 C 61.143 51.679, 60.734 49.645, 59.624 52.539 M 29.079 53.583 C 29.127 54.748, 29.364 54.985, 29.683 54.188 C 29.972 53.466, 29.936 52.603, 29.604 52.271 C 29.272 51.939, 29.036 52.529, 29.079 53.583 M 62.158 56 C 62.158 57.375, 62.385 57.938, 62.662 57.250 C 62.940 56.563, 62.940 55.438, 62.662 54.750 C 62.385 54.063, 62.158 54.625, 62.158 56 M 346.195 56.500 C 346.215 58.150, 346.439 58.704, 346.693 57.731 C 346.947 56.758, 346.930 55.408, 346.656 54.731 C 346.382 54.054, 346.175 54.850, 346.195 56.500 M 12 65.617 C 12 70.741, 11.825 71.187, 10 70.710 C 8.517 70.322, 8 70.680, 8 72.094 C 8 73.443, 8.706 74, 10.418 74 C 12.713 74, 12.853 73.645, 13.168 66.998 C 13.351 63.147, 13.162 59.997, 12.750 59.998 C 12.338 59.999, 12 62.527, 12 65.617 M 17 65.559 C 17 68.750, 16.654 69.904, 15.845 69.405 C 15.054 68.915, 14.968 69.133, 15.571 70.095 C 16.054 70.868, 16.327 72.248, 16.177 73.161 C 16.027 74.075, 16.376 75.114, 16.952 75.470 C 17.647 75.900, 18 73.574, 18 68.559 C 18 64.402, 17.775 61, 17.500 61 C 17.225 61, 17 63.052, 17 65.559 M 20 65.667 C 20 71.220, 20.481 71.074, 21.373 65.250 C 21.775 62.621, 21.638 61, 21.012 61 C 20.455 61, 20 63.100, 20 65.667 M 24.032 61.812 C 24.049 62.190, 24.671 63.301, 25.414 64.279 C 26.626 65.878, 26.826 65.895, 27.382 64.448 C 28.352 61.920, 28.141 61.436, 26 61.275 C 24.900 61.192, 24.014 61.434, 24.032 61.812 M 30.301 66.759 C 30.346 69.916, 30.184 73.119, 29.942 73.875 C 29.699 74.631, 30.063 75.456, 30.750 75.708 C 31.675 76.047, 32 74.340, 32 69.142 C 32 65.279, 31.599 61.870, 31.110 61.568 C 30.620 61.265, 30.256 63.601, 30.301 66.759 M 37.855 65 C 37.238 68.496, 37.494 69.840, 38.571 68.763 C 38.884 68.449, 38.991 66.687, 38.807 64.846 L 38.473 61.500 37.855 65 M 41.887 62.261 C 41.826 62.393, 41.488 68.908, 41.137 76.741 C 40.656 87.502, 40.798 91.095, 41.718 91.447 C 43.550 92.147, 44.195 90.436, 44.763 83.369 C 45.046 79.836, 45.666 76.707, 46.139 76.414 C 46.613 76.121, 47 72.857, 47 69.159 C 47 62.710, 46.898 62.428, 44.500 62.229 C 43.125 62.116, 41.949 62.130, 41.887 62.261 M 49.741 69 C 49.489 72.575, 49.648 75.907, 50.095 76.404 C 50.541 76.900, 52.278 77.268, 53.954 77.220 C 56.977 77.134, 57 77.173, 57 82.444 C 57 86.010, 56.493 88.176, 55.458 89.035 C 53.594 90.582, 54.967 92.333, 57.333 91.426 C 58.522 90.969, 59 89.585, 59 86.593 C 59 84.287, 59.521 81.879, 60.158 81.242 C 60.970 80.430, 61.004 79.699, 60.271 78.792 C 58.612 76.739, 59.326 67.531, 61.297 65.560 C 62.912 63.945, 63.058 63.979, 63.886 66.174 C 64.391 67.512, 64.389 69.216, 63.882 70.184 C 63.397 71.111, 63 73.206, 63 74.841 C 63 77.414, 63.302 77.741, 65.250 77.281 C 67.473 76.756, 67.476 76.769, 65.500 78.377 C 63.878 79.697, 63.830 79.890, 65.246 79.397 C 66.828 78.846, 66.930 79.375, 66.337 85.052 C 65.853 89.681, 65.985 91.128, 66.841 90.598 C 67.481 90.203, 68 87.535, 68 84.641 C 68 81.758, 68.408 78.972, 68.907 78.450 C 69.405 77.927, 70.029 75.925, 70.293 74 C 70.557 72.075, 71.089 69.299, 71.474 67.832 C 72.334 64.562, 70.223 63.140, 64.431 63.087 C 62.269 63.068, 58.183 62.927, 55.350 62.776 L 50.201 62.500 49.741 69 M 350.031 62.500 C 350.031 63.050, 350.467 64.175, 351 65 C 351.533 65.825, 351.969 66.050, 351.969 65.500 C 351.969 64.950, 351.533 63.825, 351 63 C 350.467 62.175, 350.031 61.950, 350.031 62.500 M 8.232 66 C 8.232 67.925, 8.438 68.713, 8.689 67.750 C 8.941 66.787, 8.941 65.213, 8.689 64.250 C 8.438 63.288, 8.232 64.075, 8.232 66 M 72.825 69.617 C 72.414 77.393, 72.748 79, 74.773 79 C 76.039 79, 76.133 78.733, 75.200 77.800 C 74.540 77.140, 74.059 75.228, 74.132 73.550 L 74.263 70.500 75 74 L 75.737 77.500 75.884 73.500 C 75.964 71.300, 76.471 68.825, 77.010 68 C 77.713 66.924, 77.944 67.868, 77.829 71.339 C 77.722 74.566, 78.140 76.476, 79.085 77.073 C 80.200 77.779, 80.076 77.989, 78.500 78.064 C 77.400 78.115, 77.030 78.374, 77.678 78.638 C 78.411 78.937, 78.652 80.368, 78.317 82.432 C 77.711 86.168, 79.490 88.213, 80.328 84.743 C 81.264 80.870, 82.292 67.471, 81.605 68.108 C 81.245 68.443, 80.888 70.356, 80.813 72.358 C 80.738 74.361, 80.299 76, 79.838 76 C 78.734 76, 78.769 71.293, 79.903 67.339 C 80.793 64.234, 80.754 64.187, 76.978 63.826 L 73.150 63.461 72.825 69.617 M 45.300 69 C 45.300 72.025, 45.487 73.263, 45.716 71.750 C 45.945 70.237, 45.945 67.763, 45.716 66.250 C 45.487 64.737, 45.300 65.975, 45.300 69 M 51.133 68.500 C 51.084 71.867, 51.352 73.004, 51.951 71.980 C 52.445 71.137, 52.477 68.911, 52.023 66.980 C 51.235 63.628, 51.202 63.683, 51.133 68.500 M 81.583 64.866 C 81.152 65.563, 81.070 66.403, 81.400 66.733 C 82.295 67.628, 83.271 66.312, 82.787 64.862 C 82.449 63.846, 82.213 63.846, 81.583 64.866 M 84.316 65.750 C 84.254 66.713, 83.948 71.325, 83.635 76 C 83.300 81.016, 83.398 83.271, 83.874 81.500 L 84.680 78.500 85.090 81.992 C 85.696 87.151, 88.767 87.396, 89.186 82.319 C 89.385 79.914, 90.051 78.412, 91 78.231 C 92.172 78.008, 92.500 79.043, 92.500 82.960 C 92.500 85.718, 92.950 87.975, 93.500 87.976 C 94.085 87.977, 94.377 85.595, 94.205 82.239 C 94.042 79.082, 93.838 73.688, 93.751 70.250 C 93.581 63.553, 92.066 61.506, 91.900 67.750 C 91.845 69.813, 91.402 72.625, 90.914 74 C 90.297 75.742, 90.171 74.605, 90.499 70.250 L 90.969 64 87.699 64 C 85.294 64, 84.399 64.463, 84.316 65.750 M 345.158 67 C 345.158 68.375, 345.385 68.938, 345.662 68.250 C 345.940 67.563, 345.940 66.438, 345.662 65.750 C 345.385 65.063, 345.158 65.625, 345.158 67 M 87.403 66.765 C 85.704 67.903, 84.785 78, 86.380 78 C 87.088 78, 87.670 77.438, 87.674 76.750 C 87.679 76.063, 88.006 73.362, 88.402 70.750 C 89.163 65.732, 89.132 65.607, 87.403 66.765 M 377.079 68.583 C 377.127 69.748, 377.364 69.985, 377.683 69.188 C 377.972 68.466, 377.936 67.603, 377.604 67.271 C 377.272 66.939, 377.036 67.529, 377.079 68.583 M 37.945 70.500 C 37.845 71.050, 37.816 71.838, 37.882 72.250 C 37.947 72.662, 37.663 73, 37.250 73 C 36.837 73.001, 36.500 76.901, 36.500 81.667 C 36.500 88.483, 36.820 90.439, 38 90.829 C 39.174 91.217, 39.255 91.018, 38.371 89.913 C 37.262 88.524, 37.444 81.942, 38.674 79 C 39.862 76.157, 39.970 74.093, 39.050 71.800 C 38.542 70.535, 38.045 69.950, 37.945 70.500 M 66.079 71.583 C 66.127 72.748, 66.364 72.985, 66.683 72.188 C 66.972 71.466, 66.936 70.603, 66.604 70.271 C 66.272 69.939, 66.036 70.529, 66.079 71.583 M 2.446 72.087 C 2.077 72.685, 2.227 73.627, 2.780 74.180 C 3.332 74.732, 3.540 77.012, 3.240 79.246 C 2.826 82.331, 2.995 83.121, 3.942 82.536 C 4.707 82.063, 5.045 80.267, 4.817 77.883 C 4.614 75.747, 4.797 74, 5.224 74 C 5.651 74, 6 73.325, 6 72.500 C 6 70.771, 3.443 70.474, 2.446 72.087 M 19.980 72.524 C 18.373 74.461, 18.988 75.077, 21.794 74.344 C 23.007 74.026, 24 73.144, 24 72.383 C 24 70.536, 21.559 70.622, 19.980 72.524 M 42.079 72.583 C 42.127 73.748, 42.364 73.985, 42.683 73.188 C 42.972 72.466, 42.936 71.603, 42.604 71.271 C 42.272 70.939, 42.036 71.529, 42.079 72.583 M 242 72 C 241.099 72.582, 240.975 72.975, 241.691 72.985 C 242.346 72.993, 243.160 72.550, 243.500 72 C 244.267 70.758, 243.921 70.758, 242 72 M 353.667 73.667 C 353.300 74.033, 353.029 75.271, 353.063 76.417 C 353.122 78.332, 353.204 78.307, 354.085 76.105 C 355.064 73.657, 354.861 72.472, 353.667 73.667 M 344.147 80.500 L 344.234 87.500 345.121 82.168 C 345.675 78.836, 345.642 76.210, 345.034 75.168 C 344.342 73.981, 344.086 75.519, 344.147 80.500 M 6.876 75.750 C 6.808 76.162, 6.846 78.812, 6.961 81.638 C 7.079 84.527, 6.688 87.075, 6.069 87.457 C 4.839 88.217, 5.570 90, 7.112 90 C 7.699 90, 8.024 86.934, 7.907 82.500 C 7.735 76.024, 7.301 73.181, 6.876 75.750 M 10.210 82.436 C 10.334 86.596, 10.788 90, 11.218 90 C 12.380 90, 12.166 76.221, 10.992 75.495 C 10.342 75.094, 10.065 77.557, 10.210 82.436 M 24.638 76.500 C 24.322 77.325, 24.499 78, 25.031 78 C 25.564 78, 26 77.325, 26 76.500 C 26 75.675, 25.823 75, 25.607 75 C 25.391 75, 24.955 75.675, 24.638 76.500 M 28.158 79 C 28.158 80.375, 28.385 80.938, 28.662 80.250 C 28.940 79.563, 28.940 78.438, 28.662 77.750 C 28.385 77.063, 28.158 77.625, 28.158 79 M 33.533 83.533 C 33.143 87.177, 33.049 90.382, 33.324 90.657 C 33.599 90.932, 34.143 88.177, 34.533 84.533 C 34.923 80.890, 35.018 77.684, 34.743 77.409 C 34.468 77.134, 33.923 79.890, 33.533 83.533 M 202.500 81 C 202.160 81.550, 202.584 82, 203.441 82 C 204.298 82, 205 81.550, 205 81 C 205 80.450, 204.577 80, 204.059 80 C 203.541 80, 202.840 80.450, 202.500 81 M 49.158 84 C 49.158 85.375, 49.385 85.938, 49.662 85.250 C 49.940 84.563, 49.940 83.438, 49.662 82.750 C 49.385 82.063, 49.158 82.625, 49.158 84 M 73.543 84.931 C 73.226 85.443, 73.425 86.144, 73.984 86.490 C 74.543 86.835, 75 86.416, 75 85.559 C 75 83.802, 74.400 83.544, 73.543 84.931 M 370.500 85 C 370.840 85.550, 371.568 86, 372.118 86 C 372.668 86, 372.840 85.550, 372.500 85 C 372.160 84.450, 371.432 84, 370.882 84 C 370.332 84, 370.160 84.450, 370.500 85 M 194.861 86.967 C 193.523 88.081, 193.067 88.948, 193.809 88.967 C 194.529 88.985, 194.860 89.418, 194.544 89.928 C 194.229 90.438, 194.911 91.154, 196.061 91.519 C 198.565 92.314, 199.994 91.319, 197.643 90.417 C 195.382 89.549, 195.585 88.342, 198.101 87.684 C 199.257 87.381, 199.905 86.655, 199.542 86.067 C 198.594 84.534, 197.537 84.737, 194.861 86.967 M 2.500 88 C 2.160 88.550, 2.359 89, 2.941 89 C 3.523 89, 4 88.550, 4 88 C 4 87.450, 3.802 87, 3.559 87 C 3.316 87, 2.840 87.450, 2.500 88 M 16 89 C 16 89.550, 16.477 90, 17.059 90 C 17.641 90, 17.840 89.550, 17.500 89 C 17.160 88.450, 16.684 88, 16.441 88 C 16.198 88, 16 88.450, 16 89 M 25 89.500 C 25 90.417, 25.484 91.005, 26.075 90.808 C 26.666 90.611, 27.150 90.023, 27.150 89.500 C 27.150 88.977, 26.666 88.389, 26.075 88.192 C 25.484 87.995, 25 88.583, 25 89.500 M 202.561 92.500 C 202.114 95.250, 201.334 98.021, 200.828 98.658 C 200.157 99.502, 201.046 99.757, 204.117 99.599 C 207.792 99.410, 208.561 98.946, 210.178 95.941 L 212.031 92.500 208.078 92.196 C 204.908 91.951, 204.050 91.456, 203.749 89.696 C 203.522 88.364, 203.054 89.467, 202.561 92.500 M 371.829 92 C 372.038 94.200, 372.613 96, 373.105 96 C 374.123 96, 374.304 91.957, 373.393 89.582 C 372.276 86.671, 371.443 87.958, 371.829 92 M 48.500 90 C 48.840 90.550, 49.991 91, 51.059 91 C 52.127 91, 53 90.550, 53 90 C 53 89.450, 51.848 89, 50.441 89 C 48.990 89, 48.149 89.433, 48.500 90 M 71 90.500 C 71 91.325, 71.627 92, 72.393 92 C 73.159 92, 74.045 91.325, 74.362 90.500 C 74.753 89.480, 74.308 89, 72.969 89 C 71.885 89, 71 89.675, 71 90.500 M 355.729 89.604 C 355.328 90.005, 355.029 91.496, 355.063 92.917 L 355.127 95.500 356.092 93.086 C 357.132 90.484, 356.917 88.417, 355.729 89.604 M 180.242 97.912 C 178.922 101.513, 179.317 103.083, 181.095 101.305 C 181.679 100.721, 182.007 98.951, 181.824 97.372 L 181.492 94.500 180.242 97.912 M 2.002 98.844 C 2.001 99.583, 2.900 100.423, 4 100.710 C 5.180 101.019, 6 102.074, 6 103.283 C 6 106.249, 6.629 105.068, 7.272 100.898 C 7.803 97.444, 7.707 97.300, 4.915 97.398 C 3.197 97.458, 2.004 98.050, 2.002 98.844 M 355 98.059 C 355 98.641, 355.450 98.840, 356 98.500 C 356.550 98.160, 357 97.684, 357 97.441 C 357 97.198, 356.550 97, 356 97 C 355.450 97, 355 97.477, 355 98.059 M 9.572 98.750 C 10.069 99.162, 10.813 99.950, 11.223 100.500 C 11.649 101.071, 11.976 100.749, 11.985 99.750 C 11.993 98.777, 11.260 98, 10.333 98 C 9.417 98, 9.074 98.338, 9.572 98.750 M 15.193 105.219 C 15.030 111.718, 15.237 112.846, 16.500 112.362 C 18.155 111.727, 18.555 110, 17.048 110 C 16.524 110, 15.936 107.188, 15.740 103.750 C 15.388 97.546, 15.384 97.557, 15.193 105.219 M 20.112 104.912 C 20.201 110.799, 20.497 111.897, 22.108 112.318 C 24.296 112.890, 25.825 111.128, 24.077 110.048 C 22.908 109.325, 22.202 106.054, 22.069 100.750 C 22.031 99.237, 21.551 98, 21.003 98 C 20.427 98, 20.051 100.916, 20.112 104.912 M 26.691 99.250 C 27.136 99.938, 27.500 103.197, 27.500 106.493 L 27.500 112.487 34.250 112.694 L 41 112.900 40.807 105.200 C 40.616 97.538, 40.613 97.531, 40.260 103.750 C 39.955 109.105, 39.632 110, 38 110 C 36.368 110, 36.045 109.105, 35.740 103.750 L 35.385 97.500 35.193 104 C 35.008 110.215, 34.890 110.500, 32.500 110.500 C 30.220 110.500, 30 110.121, 30 106.184 C 30 101.638, 28.625 98, 26.906 98 C 26.322 98, 26.230 98.537, 26.691 99.250 M 64.250 98.746 C 62.691 99.270, 62.592 102, 64.131 102 C 64.866 102, 65.047 103.137, 64.648 105.250 C 63.490 111.381, 63.502 112.286, 64.750 112.726 C 65.608 113.028, 66.005 111.964, 66.015 109.333 C 66.026 106.708, 66.311 105.942, 66.919 106.903 C 67.555 107.907, 67.764 107.552, 67.654 105.654 C 67.569 104.195, 67.162 103.001, 66.750 103.001 C 66.338 103, 66 102.550, 66 102 C 66 101.450, 66.506 101.112, 67.125 101.250 C 67.744 101.388, 68.437 100.995, 68.666 100.377 C 69.122 99.145, 66.234 98.078, 64.250 98.746 M 47.844 102.250 C 47.759 104.037, 47.776 106.513, 47.882 107.750 C 48.067 109.902, 47.128 110.413, 43.250 110.269 C 42.563 110.243, 42.001 110.735, 42.002 111.361 C 42.003 111.987, 43.578 112.612, 45.502 112.749 L 49 112.999 49 105.999 C 49 98.972, 48.136 96.167, 47.844 102.250 M 57 105.393 C 57 110.314, 57.366 111.926, 58.590 112.396 C 60.912 113.287, 62.167 112.180, 61.098 110.183 C 60.599 109.251, 60.431 106.353, 60.725 103.744 C 61.215 99.403, 61.079 99, 59.130 99 C 57.179 99, 57 99.537, 57 105.393 M 204.147 106.500 C 204.088 110.350, 203.755 116.760, 203.407 120.744 C 202.755 128.218, 203.517 135.417, 204.872 134.579 C 205.295 134.317, 205.729 130.877, 205.835 126.934 C 205.941 122.991, 206.254 119.397, 206.532 118.949 C 207.599 117.223, 208.004 105.834, 207.057 104.209 C 206.196 102.732, 206.037 102.839, 205.889 105 C 205.768 106.742, 205.494 106.287, 204.985 103.500 C 204.348 100.012, 204.241 100.397, 204.147 106.500 M 52.079 102.583 C 52.127 103.748, 52.364 103.985, 52.683 103.188 C 52.972 102.466, 52.936 101.603, 52.604 101.271 C 52.272 100.939, 52.036 101.529, 52.079 102.583 M 58.286 105.500 C 58.294 108.250, 58.488 109.256, 58.718 107.736 C 58.947 106.216, 58.941 103.966, 58.704 102.736 C 58.467 101.506, 58.279 102.750, 58.286 105.500 M 440.847 101.500 C 440.488 102.050, 439.380 107.317, 438.385 113.204 C 437.390 119.092, 436.394 123.727, 436.172 123.505 C 435.950 123.283, 435.445 121.616, 435.050 119.801 L 434.332 116.500 432.750 120.172 C 431.246 123.660, 430.659 127.209, 430.894 131.379 C 430.990 133.085, 431.618 133.201, 437.750 132.646 C 441.462 132.310, 444.837 132.027, 445.250 132.018 C 445.663 132.008, 446 129.723, 446 126.941 C 446 123.184, 445.678 122.064, 444.750 122.588 C 443.750 123.152, 443.750 123.024, 444.750 121.947 C 446.297 120.280, 446.396 118.637, 444.893 119.566 C 444.138 120.033, 443.966 119.335, 444.353 117.375 C 445.730 110.387, 446.182 103, 445.234 103 C 444.685 103, 443.846 106.938, 443.369 111.750 L 442.501 120.500 442.001 110.500 C 441.725 105, 441.206 100.950, 440.847 101.500 M 428.750 104.689 C 427.788 104.941, 427 105.520, 427 105.975 C 427 107.183, 432.802 109.013, 434.528 108.351 C 436.712 107.513, 436.313 105.685, 434.075 106.270 C 432.724 106.623, 432.308 106.360, 432.682 105.387 C 433.213 104.002, 432.122 103.808, 428.750 104.689 M 2.252 108.500 C 2.263 110.700, 2.468 111.482, 2.707 110.238 C 2.946 108.994, 2.937 107.194, 2.687 106.238 C 2.437 105.282, 2.241 106.300, 2.252 108.500 M 98.500 107 C 98.160 107.550, 98.332 108, 98.882 108 C 99.432 108, 100.160 107.550, 100.500 107 C 100.840 106.450, 100.668 106, 100.118 106 C 99.568 106, 98.840 106.450, 98.500 107 M 7.116 109.250 C 7.039 111.079, 7.502 112, 8.500 112 C 9.325 112, 10 111.550, 10 111 C 10 110.450, 9.583 110, 9.073 110 C 8.564 110, 7.941 109.213, 7.689 108.250 C 7.408 107.173, 7.187 107.558, 7.116 109.250 M 183.186 109.057 C 183.415 109.746, 184.615 110.683, 185.852 111.141 C 188.587 112.153, 187.838 110.519, 184.829 108.908 C 183.244 108.060, 182.865 108.094, 183.186 109.057 M 74 110.487 C 74 111.923, 76.459 113.208, 77.402 112.264 C 78.513 111.153, 78.009 110.236, 76 109.710 C 74.758 109.385, 74 109.680, 74 110.487 M 88.500 110 C 91.278 111.194, 93.238 111.194, 92.500 110 C 92.160 109.450, 90.671 109.032, 89.191 109.070 C 86.788 109.133, 86.714 109.233, 88.500 110 M 11 110.941 C 11 111.459, 11.450 112.160, 12 112.500 C 12.550 112.840, 13 112.416, 13 111.559 C 13 110.702, 12.550 110, 12 110 C 11.450 110, 11 110.423, 11 110.941 M 51.667 110.667 C 50.399 111.935, 51.008 112.875, 53 112.725 C 54.100 112.642, 55 111.995, 55 111.287 C 55 109.935, 52.807 109.527, 51.667 110.667 M 185 114.304 C 185 116.246, 185.515 116.750, 187.500 116.750 C 188.875 116.750, 190 116.356, 190 115.875 C 190 115.394, 189.582 115, 189.071 115 C 188.561 115, 187.436 114.293, 186.571 113.429 C 185.143 112, 185 112.080, 185 114.304 M 75.250 116.973 C 72.912 118.034, 71 119.343, 71 119.882 C 71 120.420, 70.023 121.005, 68.828 121.180 C 65.964 121.602, 65.189 124, 67.917 124 C 69.925 124, 70.604 125.882, 70.042 129.894 C 69.719 132.195, 72.284 133.053, 74.227 131.294 C 76.096 129.603, 76.699 127.450, 75.011 128.493 C 74.420 128.858, 74.293 128.400, 74.695 127.352 C 75.143 126.185, 75.507 126.021, 75.787 126.862 C 76.102 127.807, 76.656 127.716, 78.001 126.499 C 79.300 125.324, 79.601 124.153, 79.092 122.253 C 78.299 119.288, 76 117.966, 76 120.476 C 76 121.379, 75.550 121.840, 75 121.500 C 73.242 120.413, 73.921 118.983, 76.750 117.814 C 78.263 117.189, 79.838 116.750, 80.250 116.839 C 80.662 116.927, 81 116.550, 81 116 C 81 114.611, 80.129 114.758, 75.250 116.973 M 3 124 L 3 131 7.559 131 C 10.344 131, 11.878 130.611, 11.500 130 C 11.160 129.450, 10.009 129, 8.941 129 C 7.313 129, 7 128.289, 7 124.582 C 7 119.214, 6.239 117, 4.393 117 C 3.335 117, 3 118.683, 3 124 M 22 124 C 22 128, 22.429 131, 23 131 C 23.550 131, 24 128.511, 24 125.469 C 24 121.474, 24.417 119.777, 25.500 119.362 C 27.866 118.454, 27.250 117, 24.500 117 C 22.071 117, 22 117.200, 22 124 M 27.834 118.572 C 27.650 119.499, 27.654 122.674, 27.843 125.629 C 28.084 129.417, 28.600 131, 29.593 131 C 30.646 131, 31 129.491, 31 125 C 31 121.700, 31.024 118.662, 31.053 118.250 C 31.164 116.670, 28.152 116.971, 27.834 118.572 M 39.500 117.765 C 38.950 118.169, 38.500 121.050, 38.500 124.167 C 38.500 131.001, 39.224 130.782, 40.087 123.689 L 40.718 118.500 40.859 124.634 C 40.998 130.681, 41.039 130.764, 43.750 130.551 C 46.424 130.341, 47.107 129.555, 46.402 127.500 C 46.214 126.950, 45.902 124.250, 45.710 121.500 L 45.360 116.500 45.180 122.250 C 45.043 126.614, 44.639 128, 43.500 128 C 42.348 128, 42 126.722, 42 122.500 C 42 117.133, 41.542 116.265, 39.500 117.765 M 48.785 121.750 C 49.303 129.967, 49.723 130.745, 49.864 123.750 C 49.939 120.037, 49.659 117, 49.243 117 C 48.826 117, 48.620 119.138, 48.785 121.750 M 53.155 123.500 L 53.250 130.500 54.044 125.017 C 54.485 121.972, 54.443 118.859, 53.950 118.017 C 53.377 117.039, 53.094 118.986, 53.155 123.500 M 56.500 123.500 C 56.500 130.116, 57.488 131.527, 60 128.500 C 60.860 127.464, 60.898 127, 60.122 127 C 59.442 127, 59 125.030, 59 122 C 59 118.667, 58.583 117, 57.750 117 C 56.878 117, 56.500 118.967, 56.500 123.500 M 61.272 121 C 61.272 123.475, 61.467 124.487, 61.706 123.250 C 61.944 122.013, 61.944 119.987, 61.706 118.750 C 61.467 117.513, 61.272 118.525, 61.272 121 M 191.079 118.583 C 191.127 119.748, 191.364 119.985, 191.683 119.188 C 191.972 118.466, 191.936 117.603, 191.604 117.271 C 191.272 116.939, 191.036 117.529, 191.079 118.583 M 438.539 121.592 C 438.160 124.117, 438.003 126.336, 438.190 126.523 C 438.377 126.710, 439.648 125.988, 441.015 124.918 C 442.382 123.849, 442.817 123.213, 441.982 123.505 C 440.794 123.921, 440.500 123.271, 440.629 120.518 C 440.869 115.418, 439.347 116.199, 438.539 121.592 M 18 122.981 C 18 127.460, 17.748 128.025, 15.500 128.589 C 12.042 129.457, 12.362 131, 16 131 L 19 131 19 124.500 C 19 120.925, 18.775 118, 18.500 118 C 18.225 118, 18 120.241, 18 122.981 M 208.607 119.582 C 207.584 122.249, 207.902 132.704, 208.956 131.037 C 209.740 129.797, 210.201 118, 209.465 118 C 209.327 118, 208.941 118.712, 208.607 119.582 M 84.143 119.907 C 83.137 120.532, 83.090 120.937, 83.960 121.475 C 85.332 122.323, 86.362 121.572, 85.854 120.095 C 85.646 119.489, 84.940 119.412, 84.143 119.907 M 355 120.941 C 355 123.356, 355.556 123.599, 356.349 121.532 C 356.659 120.725, 356.482 119.798, 355.956 119.473 C 355.430 119.148, 355 119.809, 355 120.941 M 172 121 C 172 121.550, 172.450 122, 173 122 C 173.550 122, 174 121.550, 174 121 C 174 120.450, 173.550 120, 173 120 C 172.450 120, 172 120.450, 172 121 M 186.333 121.501 C 184.592 122.234, 182.902 122.569, 182.579 122.246 C 182.256 121.923, 181.194 122.499, 180.220 123.525 C 178.053 125.808, 178.379 132.452, 180.617 131.594 C 181.378 131.302, 182 131.444, 182 131.909 C 182 133.108, 179.447 135.080, 178.658 134.491 C 178.296 134.221, 178.221 134.296, 178.491 134.658 C 178.762 135.020, 178.497 135.901, 177.903 136.617 C 176.800 137.946, 177.522 143.586, 178.903 144.440 C 180.272 145.286, 183.582 143.899, 184.783 141.975 C 186.436 139.328, 185.364 137.092, 182.767 137.771 C 180.993 138.235, 180.797 138.021, 181.515 136.411 C 181.984 135.360, 182.555 132.072, 182.785 129.104 C 183.014 126.137, 183.509 124.206, 183.885 124.814 C 184.339 125.548, 185.564 125.124, 187.534 123.549 C 191.157 120.654, 190.601 119.706, 186.333 121.501 M 352 121 C 352 121.550, 352.450 122, 353 122 C 353.550 122, 354 121.550, 354 121 C 354 120.450, 353.550 120, 353 120 C 352.450 120, 352 120.450, 352 121 M 432.890 126.250 C 432.621 128.313, 432.735 130, 433.142 130 C 434.403 130, 434.669 128.622, 434.011 125.500 L 433.378 122.500 432.890 126.250 M 191.813 125.683 C 192.534 125.972, 193.397 125.936, 193.729 125.604 C 194.061 125.272, 193.471 125.036, 192.417 125.079 C 191.252 125.127, 191.015 125.364, 191.813 125.683 M 360.711 126.767 C 358.609 129.090, 358.477 134.321, 360.479 135.983 C 361.582 136.898, 362.736 136.939, 365.013 136.145 C 366.815 135.517, 367.825 135.474, 367.475 136.040 C 366.793 137.144, 369.996 137.323, 372.595 136.325 C 374.229 135.698, 374.218 135.591, 372.427 134.814 C 371.145 134.258, 371.839 134.137, 374.500 134.453 L 378.500 134.927 374.171 132.891 C 371.322 131.552, 370.025 130.378, 370.377 129.460 C 370.886 128.134, 369.685 126.826, 367.500 126.328 C 366.950 126.203, 365.582 125.825, 364.461 125.489 C 363.136 125.091, 361.822 125.540, 360.711 126.767 M 82.564 127.293 C 82.940 128.279, 83.499 128.834, 83.807 128.526 C 84.115 128.219, 83.808 127.412, 83.124 126.733 C 82.136 125.753, 82.022 125.868, 82.564 127.293 M 77.354 130.264 C 74.144 133.935, 70.972 140.194, 68.746 147.250 C 67.324 151.759, 67.343 152, 69.121 152 C 70.151 152, 72.800 150.369, 75.006 148.375 C 79.875 143.977, 83.983 132.704, 82.040 129.074 C 81.429 127.933, 80.767 127, 80.568 127 C 80.370 127, 78.923 128.469, 77.354 130.264 M 277.755 129.500 C 277.229 132.254, 278.430 132.928, 279.393 130.418 C 280.245 128.197, 280.148 127, 279.117 127 C 278.631 127, 278.018 128.125, 277.755 129.500 M 32 128.810 C 32 129.347, 32.713 130.059, 33.584 130.394 C 34.557 130.767, 35.015 130.544, 34.771 129.813 C 34.273 128.318, 32 127.495, 32 128.810 M 192.543 128.931 C 192.226 129.443, 192.425 130.144, 192.984 130.490 C 193.543 130.835, 194 130.416, 194 129.559 C 194 127.802, 193.400 127.544, 192.543 128.931 M 283.500 129 C 283.160 129.550, 283.359 130, 283.941 130 C 284.523 130, 285 129.550, 285 129 C 285 128.450, 284.802 128, 284.559 128 C 284.316 128, 283.840 128.450, 283.500 129 M 189.667 130.667 C 189.300 131.033, 189 131.798, 189 132.367 C 189 132.993, 189.466 132.934, 190.183 132.217 C 190.834 131.566, 191.134 130.801, 190.850 130.517 C 190.566 130.232, 190.033 130.300, 189.667 130.667 M 79.070 133.191 C 79.032 134.671, 79.450 136.160, 80 136.500 C 81.194 137.238, 81.194 135.278, 80 132.500 C 79.233 130.714, 79.133 130.788, 79.070 133.191 M 172.157 134.707 C 169.967 138.800, 171.140 143, 174.475 143 C 175.634 143, 175.708 139.458, 174.615 136.301 C 173.371 132.710, 173.263 132.640, 172.157 134.707 M 392.813 133.683 C 393.534 133.972, 394.397 133.936, 394.729 133.604 C 395.061 133.272, 394.471 133.036, 393.417 133.079 C 392.252 133.127, 392.015 133.364, 392.813 133.683 M 51.961 139.500 C 51.798 144.437, 51.628 144.968, 51 142.500 C 50.248 139.544, 50.235 139.539, 50.118 142.143 C 50.053 143.597, 49.325 145.045, 48.500 145.362 C 45.705 146.434, 46.981 147.601, 50.500 147.190 C 53.580 146.830, 54 146.441, 54 143.950 C 54 142.392, 54.450 140.840, 55 140.500 C 55.550 140.160, 56 138.503, 56 136.819 C 56 134.303, 55.749 133.963, 54.597 134.919 C 53.520 135.813, 53.074 135.784, 52.676 134.792 C 52.391 134.081, 52.069 136.200, 51.961 139.500 M 26.365 139.974 C 26.926 142.710, 27.557 144.777, 27.767 144.566 C 28.413 143.921, 26.820 135, 26.060 135 C 25.667 135, 25.805 137.238, 26.365 139.974 M 28.773 138.750 C 29.349 144.555, 29.834 144.978, 29.921 139.750 C 29.964 137.137, 29.640 135, 29.201 135 C 28.761 135, 28.569 136.688, 28.773 138.750 M 34 136 C 34 136.550, 34.450 137, 35 137 C 35.550 137, 36 136.550, 36 136 C 36 135.450, 35.550 135, 35 135 C 34.450 135, 34 135.450, 34 136 M 270.136 136.073 C 268.163 136.863, 267.980 137.271, 269.028 138.534 C 269.720 139.367, 270.385 139.925, 270.507 139.774 C 271.068 139.081, 273.039 135.007, 272.785 135.063 C 272.628 135.098, 271.436 135.553, 270.136 136.073 M 10.195 138.500 C 10.215 140.150, 10.439 140.704, 10.693 139.731 C 10.947 138.758, 10.930 137.408, 10.656 136.731 C 10.382 136.054, 10.175 136.850, 10.195 138.500 M 12.252 139.500 C 12.263 141.700, 12.468 142.482, 12.707 141.238 C 12.946 139.994, 12.937 138.194, 12.687 137.238 C 12.437 136.282, 12.241 137.300, 12.252 139.500 M 83.102 137.638 C 83.046 138.814, 81.365 142.189, 79.367 145.138 L 75.734 150.500 79.617 147.003 C 81.753 145.079, 83.808 143.279, 84.183 143.003 C 84.559 142.726, 84.493 140.925, 84.036 139 C 83.523 136.842, 83.165 136.320, 83.102 137.638 M 251 137.999 C 250.175 138.483, 246.850 140.035, 243.611 141.448 C 237.518 144.106, 226.315 151.891, 222.076 156.414 C 220.742 157.836, 219.055 159, 218.326 159 C 217.597 159, 217 159.796, 217 160.768 C 217 162.855, 212.936 169.213, 208.769 173.644 C 205.002 177.651, 205.464 179.889, 210.647 182.749 C 214.717 184.994, 218 184.923, 218 182.590 C 218 176.968, 236.116 150.146, 239.476 150.794 C 240.314 150.955, 241 150.591, 241 149.985 C 241 149.378, 240.550 149.160, 240 149.500 C 239.450 149.840, 239 149.711, 239 149.214 C 239 147.905, 242.825 144.643, 244.679 144.371 C 245.549 144.243, 246.765 143.591, 247.381 142.922 C 248.236 141.992, 248.075 141.855, 246.698 142.341 C 245.562 142.742, 245.137 142.587, 245.549 141.920 C 245.908 141.339, 246.873 141.121, 247.692 141.435 C 248.511 141.750, 250.378 141.170, 251.841 140.146 C 253.303 139.123, 255.175 138.032, 256 137.722 C 256.900 137.383, 256.499 137.150, 255 137.138 C 253.625 137.127, 251.825 137.514, 251 137.999 M 15.300 143 C 15.300 146.025, 15.487 147.262, 15.716 145.750 C 15.945 144.238, 15.945 141.762, 15.716 140.250 C 15.487 138.738, 15.300 139.975, 15.300 143 M 208 140.955 C 208 142.549, 208.655 144.038, 209.500 144.362 C 210.325 144.678, 211.006 144.389, 211.014 143.719 C 211.021 143.048, 211.273 141.585, 211.573 140.467 C 211.986 138.931, 211.616 138.397, 210.060 138.279 C 208.429 138.157, 208 138.713, 208 140.955 M 203.184 141.496 C 202.556 142.873, 202.431 144, 202.905 144 C 203.735 144, 205.231 139.898, 204.623 139.289 C 204.459 139.126, 203.811 140.118, 203.184 141.496 M 100.250 140.644 C 98.452 141.040, 98.027 141.778, 98.136 144.320 C 98.237 146.672, 98.385 146.914, 98.706 145.250 C 98.944 144.012, 99.544 143, 100.038 143 C 100.533 143, 100.670 143.697, 100.343 144.548 C 100 145.442, 100.542 146.696, 101.625 147.516 C 103.446 148.895, 103.442 148.938, 101.500 148.984 C 99.892 149.021, 99.785 149.211, 100.952 149.949 C 101.751 150.455, 102.689 150.692, 103.037 150.477 C 103.385 150.262, 107.645 150.007, 112.503 149.912 C 119.653 149.771, 121.562 150.048, 122.528 151.369 C 124.372 153.891, 128.003 153.479, 127.986 150.750 C 127.955 145.574, 126.977 144.405, 121.182 142.612 C 115.346 140.808, 104.247 139.764, 100.250 140.644 M 365.500 141 C 365.840 141.550, 366.316 142, 366.559 142 C 366.802 142, 367 141.550, 367 141 C 367 140.450, 366.523 140, 365.941 140 C 365.359 140, 365.160 140.450, 365.500 141 M 109 142.031 C 109 142.564, 109.675 143, 110.500 143 C 111.325 143, 112 142.823, 112 142.607 C 112 142.391, 111.325 141.955, 110.500 141.638 C 109.675 141.322, 109 141.499, 109 142.031 M 192 142.214 C 192 142.646, 192.900 143, 194 143 C 195.100 143, 196 142.646, 196 142.214 C 196 141.782, 195.100 141.429, 194 141.429 C 192.900 141.429, 192 141.782, 192 142.214 M 32.079 143.583 C 32.127 144.748, 32.364 144.985, 32.683 144.188 C 32.972 143.466, 32.936 142.603, 32.604 142.271 C 32.272 141.939, 32.036 142.529, 32.079 143.583 M 254 143.969 C 254 144.501, 254.675 144.678, 255.500 144.362 C 256.325 144.045, 257 143.609, 257 143.393 C 257 143.177, 256.325 143, 255.500 143 C 254.675 143, 254 143.436, 254 143.969 M 403.124 145.175 C 402.582 146.599, 400.645 148.816, 398.819 150.100 C 393.843 153.600, 393 154.632, 393 157.229 C 393 158.533, 392.535 160.065, 391.967 160.633 C 388.955 163.645, 394.463 166.978, 403.729 167.751 C 409.213 168.208, 410.031 168.045, 410.558 166.385 C 410.887 165.348, 411.823 163.262, 412.636 161.748 C 414.197 158.844, 413.773 157, 411.545 157 C 410.121 157, 404 150.540, 404 149.039 C 404 148.548, 404.583 148.001, 405.297 147.823 C 406.342 147.563, 406.353 147.025, 405.351 145.042 L 404.108 142.585 403.124 145.175 M 6 146.882 C 6 147.982, 6.450 149.160, 7 149.500 C 7.550 149.840, 8 149.218, 8 148.118 C 8 147.018, 7.550 145.840, 7 145.500 C 6.450 145.160, 6 145.782, 6 146.882 M 12.015 145.691 C 12.024 146.136, 12.467 147.175, 13 148 C 13.835 149.293, 13.971 149.266, 13.985 147.809 C 13.993 146.879, 13.550 145.840, 13 145.500 C 12.450 145.160, 12.007 145.246, 12.015 145.691 M 88.667 145.667 C 88.300 146.033, 88.014 147.046, 88.030 147.917 C 88.055 149.217, 88.251 149.174, 89.122 147.675 C 90.199 145.823, 89.887 144.447, 88.667 145.667 M 91.754 147.491 C 92.342 150.571, 92.617 150.602, 94.100 147.750 C 94.744 146.512, 94.914 145.834, 94.477 146.241 C 94.041 146.649, 93.142 146.533, 92.479 145.983 C 91.578 145.235, 91.395 145.615, 91.754 147.491 M 39 147 C 39 147.550, 39.423 148, 39.941 148 C 40.459 148, 41.160 147.550, 41.500 147 C 41.840 146.450, 41.416 146, 40.559 146 C 39.702 146, 39 146.450, 39 147 M 247.250 147.205 C 247.387 147.867, 246.960 148.430, 246.300 148.455 C 245.640 148.480, 244.515 149.129, 243.800 149.897 C 242.720 151.057, 242.754 151.146, 244 150.422 C 246.528 148.953, 249.999 148.834, 250.015 150.216 C 250.024 150.922, 250.474 152.175, 251.015 153 C 251.868 154.299, 252.124 154.307, 252.928 153.058 C 253.569 152.061, 253.338 151.211, 252.178 150.308 C 250.620 149.094, 250.639 148.893, 252.441 147.500 C 254.270 146.087, 254.168 146, 250.691 146 C 248.341 146, 247.091 146.438, 247.250 147.205 M 19 148 C 19 148.550, 19.450 149, 20 149 C 20.550 149, 21 148.550, 21 148 C 21 147.450, 20.550 147, 20 147 C 19.450 147, 19 147.450, 19 148 M 22 148 C 22 148.550, 22.450 149, 23 149 C 23.550 149, 24 148.550, 24 148 C 24 147.450, 23.550 147, 23 147 C 22.450 147, 22 147.450, 22 148 M 255.500 148 C 255.160 148.550, 255.359 149, 255.941 149 C 256.523 149, 257 148.550, 257 148 C 257 147.450, 256.802 147, 256.559 147 C 256.316 147, 255.840 147.450, 255.500 148 M 42 149 C 42 149.550, 42.450 150, 43 150 C 43.550 150, 44 149.550, 44 149 C 44 148.450, 43.550 148, 43 148 C 42.450 148, 42 148.450, 42 149 M 82.750 149.080 C 80.373 150.465, 80.535 153, 83 153 C 84.467 153, 85 152.333, 85 150.500 C 85 147.661, 85.089 147.718, 82.750 149.080 M 97.583 148.866 C 97.152 149.563, 97.070 150.403, 97.400 150.733 C 98.295 151.628, 99.271 150.312, 98.787 148.862 C 98.449 147.846, 98.213 147.846, 97.583 148.866 M 175 149 C 175 149.550, 175.450 150, 176 150 C 176.550 150, 177 149.550, 177 149 C 177 148.450, 176.550 148, 176 148 C 175.450 148, 175 148.450, 175 149 M 180.079 149.583 C 180.127 150.748, 180.364 150.985, 180.683 150.188 C 180.972 149.466, 180.936 148.603, 180.604 148.271 C 180.272 147.939, 180.036 148.529, 180.079 149.583 M 219.079 149.583 C 219.127 150.748, 219.364 150.985, 219.683 150.188 C 219.972 149.466, 219.936 148.603, 219.604 148.271 C 219.272 147.939, 219.036 148.529, 219.079 149.583 M 259.459 149.067 C 259.096 149.653, 259.014 150.348, 259.276 150.610 C 259.538 150.872, 260.019 150.392, 260.345 149.543 C 261.021 147.781, 260.445 147.471, 259.459 149.067 M 273.500 149 C 273.160 149.550, 273.584 150, 274.441 150 C 275.298 150, 276 149.550, 276 149 C 276 148.450, 275.577 148, 275.059 148 C 274.541 148, 273.840 148.450, 273.500 149 M 182.923 149.750 C 182.881 150.162, 182.679 151.400, 182.474 152.500 C 182.003 155.028, 184.328 158.667, 186.414 158.667 C 187.286 158.667, 187.791 158.458, 187.535 158.202 C 187.280 157.946, 187.730 156.796, 188.535 155.646 C 190.551 152.769, 190.369 151, 188.059 151 C 186.991 151, 185.840 150.550, 185.500 150 C 184.777 148.830, 183.035 148.661, 182.923 149.750 M 265.079 150.583 C 265.127 151.748, 265.364 151.985, 265.683 151.188 C 265.972 150.466, 265.936 149.603, 265.604 149.271 C 265.272 148.939, 265.036 149.529, 265.079 150.583 M 277.015 150.750 C 277.007 151.988, 277.450 153, 278 153 C 279.253 153, 279.253 151.939, 278 150 C 277.216 148.787, 277.028 148.931, 277.015 150.750 M 372.250 150.689 C 373.212 150.941, 374.788 150.941, 375.750 150.689 C 376.712 150.438, 375.925 150.232, 374 150.232 C 372.075 150.232, 371.288 150.438, 372.250 150.689 M 72.459 152.067 C 71.383 153.808, 72.608 154.177, 73.980 152.524 C 74.769 151.574, 74.845 151, 74.181 151 C 73.597 151, 72.821 151.480, 72.459 152.067 M 198.630 152.521 C 198.283 153.425, 197.507 153.813, 196.853 153.409 C 196.185 152.996, 195.959 153.125, 196.322 153.711 C 197.141 155.038, 202.194 154.081, 201.729 152.688 C 201.138 150.914, 199.285 150.815, 198.630 152.521 M 192.500 153 C 192.160 153.550, 192.584 154, 193.441 154 C 194.298 154, 195 153.550, 195 153 C 195 152.450, 194.577 152, 194.059 152 C 193.541 152, 192.840 152.450, 192.500 153 M 218 156 C 218 157.100, 218.173 158, 218.383 158 C 218.594 158, 219.002 157.100, 219.290 156 C 219.577 154.900, 219.405 154, 218.906 154 C 218.408 154, 218 154.900, 218 156 M 240.079 155.583 C 240.127 156.748, 240.364 156.985, 240.683 156.188 C 240.972 155.466, 240.936 154.603, 240.604 154.271 C 240.272 153.939, 240.036 154.529, 240.079 155.583 M 244.624 155.539 C 243.659 158.053, 243.943 158.702, 245.122 156.675 C 245.706 155.671, 245.973 154.639, 245.715 154.382 C 245.458 154.124, 244.966 154.645, 244.624 155.539 M 191.478 156.475 C 191.215 157.314, 190.782 158.692, 190.517 159.538 C 189.646 162.310, 192.439 162.696, 209.656 162.183 C 215.046 162.023, 215.754 161.776, 215.342 160.200 C 215.011 158.934, 213.779 158.336, 211.186 158.185 C 207.913 157.994, 200.822 156.844, 194.228 155.436 C 192.752 155.121, 191.789 155.485, 191.478 156.475 M 251.250 155.706 C 248.010 156.330, 248.478 158, 251.893 158 C 253.542 158, 255.034 157.355, 255.362 156.500 C 255.942 154.987, 255.462 154.894, 251.250 155.706 M 258 156.500 C 258 157.325, 258.450 158, 259 158 C 259.550 158, 260 157.325, 260 156.500 C 260 155.675, 259.550 155, 259 155 C 258.450 155, 258 155.675, 258 156.500 M 262 156.500 C 262 157.325, 262.436 158, 262.969 158 C 263.501 158, 263.678 157.325, 263.362 156.500 C 263.045 155.675, 262.609 155, 262.393 155 C 262.177 155, 262 155.675, 262 156.500 M 265.001 156.785 C 265 157.798, 265.477 157.822, 267.250 156.900 C 270.419 155.251, 270.432 155.186, 267.566 155.352 C 266.155 155.433, 265.001 156.078, 265.001 156.785 M 149.263 159.115 C 145.715 160.140, 145.142 161.452, 144.745 169.454 C 144.508 174.239, 144.609 174.440, 147.680 175.329 C 149.428 175.835, 152.417 175.957, 154.320 175.600 C 157.147 175.069, 157.856 174.435, 158.193 172.135 C 158.754 168.317, 158.178 166.994, 156.275 167.725 C 155.022 168.205, 154.803 167.860, 155.259 166.119 C 155.695 164.451, 155.425 163.942, 154.169 164.066 C 151.260 164.352, 150 164.030, 150 163 C 150 162.450, 151.088 162, 152.418 162 C 155.870 162, 158 161.005, 158 159.393 C 158 157.797, 154.241 157.677, 149.263 159.115 M 255.260 160.235 C 255.833 161.729, 251.225 166, 249.040 166 C 248.468 166, 248 166.450, 248 167 C 248 167.550, 247.100 168, 246 168 C 244.900 168, 244 168.450, 244 169 C 244 169.550, 242.988 170.032, 241.750 170.070 C 239.640 170.136, 239.624 170.189, 241.478 170.913 C 242.738 171.406, 243.957 171.186, 244.834 170.309 C 245.830 169.313, 246.569 169.227, 247.501 170.001 C 248.474 170.809, 248.754 170.634, 248.645 169.285 C 248.557 168.203, 249.186 167.496, 250.241 167.489 C 251.199 167.484, 251.948 167.084, 251.906 166.601 C 251.826 165.686, 253.952 164.042, 255.250 164.015 C 256.756 163.985, 255.943 166.230, 253.750 168.159 L 251.500 170.139 254.490 169.490 C 256.134 169.133, 257.798 168.327, 258.186 167.699 C 258.670 166.916, 259.087 167.063, 259.511 168.168 C 260.393 170.468, 263.972 169.276, 264.118 166.633 C 264.184 165.460, 264.172 163.971, 264.092 163.325 C 264.012 162.679, 264.409 161.865, 264.973 161.516 C 265.538 161.167, 266 161.584, 266 162.441 C 266 163.298, 266.450 164, 267 164 C 268.586 164, 268.168 162.462, 266.064 160.558 C 264.188 158.860, 264.106 158.918, 263.450 162.414 C 262.432 167.844, 260.560 168.272, 261.311 162.903 C 261.777 159.566, 261.693 159.065, 260.964 160.834 C 259.972 163.242, 257.500 163.361, 257.500 161 C 257.500 160.267, 256.866 159.455, 256.091 159.197 C 255.159 158.886, 254.877 159.238, 255.260 160.235 M 250 161 C 249.228 161.477, 248.237 161.646, 247.798 161.375 C 247.359 161.104, 247 161.359, 247 161.941 C 247 163.245, 251.663 163.355, 252.457 162.069 C 253.297 160.711, 251.636 159.989, 250 161 M 99.611 161.821 C 98.825 163.092, 102.790 169, 104.429 169 C 106.212 169, 109 165.205, 109 162.777 C 109 161.341, 108.148 161, 104.559 161 C 102.116 161, 99.890 161.369, 99.611 161.821 M 269.405 165.250 C 267.502 167.498, 267.502 167.499, 269.581 165.748 C 270.726 164.784, 272.035 164.334, 272.491 164.748 C 272.948 165.162, 272.997 164.938, 272.601 164.250 C 271.660 162.615, 271.628 162.625, 269.405 165.250 M 244 164.969 C 244 165.501, 244.675 165.678, 245.500 165.362 C 246.325 165.045, 247 164.609, 247 164.393 C 247 164.177, 246.325 164, 245.500 164 C 244.675 164, 244 164.436, 244 164.969 M 180 167 C 180 167.550, 180.661 168, 181.469 168 C 182.276 168, 182.800 168.563, 182.633 169.250 C 182.465 169.938, 182.508 170.188, 182.729 169.806 C 182.949 169.425, 183.888 169.354, 184.815 169.649 C 185.833 169.974, 185.511 169.367, 184 168.115 C 181.238 165.828, 180 165.482, 180 167 M 61 172 C 62.957 173.264, 65 173.264, 65 172 C 65 171.450, 63.763 171.007, 62.250 171.015 C 60.107 171.027, 59.831 171.245, 61 172 M 255 172.906 C 255 173.405, 255.900 173.577, 257 173.290 C 258.100 173.002, 259 172.594, 259 172.383 C 259 172.173, 258.100 172, 257 172 C 255.900 172, 255 172.408, 255 172.906 M 303.486 176.022 C 302.785 177.156, 306.946 183.006, 308.438 182.985 C 309.022 182.976, 308.903 182.591, 308.173 182.128 C 307.443 181.666, 306.934 180.660, 307.042 179.894 C 307.402 177.322, 307.009 176.218, 305.532 175.651 C 304.725 175.341, 303.804 175.508, 303.486 176.022 M 159 179 C 159 180.253, 160.061 180.253, 162 179 C 163.213 178.216, 163.069 178.028, 161.250 178.015 C 160.012 178.007, 159 178.450, 159 179 M 192.152 185.067 L 189.804 186.008 193.652 189.911 C 196.510 192.811, 197.827 193.545, 198.773 192.766 C 199.795 191.924, 199.748 191.264, 198.534 189.411 C 197.483 187.808, 197.356 186.898, 198.118 186.427 C 198.873 185.961, 198.792 185.483, 197.857 184.890 C 196.186 183.832, 195.157 183.863, 192.152 185.067 M 308.965 185.934 C 309.534 186.998, 310 188.743, 310 189.812 C 310 190.881, 310.646 192.291, 311.436 192.947 C 312.225 193.602, 313.151 195.409, 313.492 196.963 C 313.925 198.936, 314.862 199.932, 316.596 200.263 C 318.140 200.558, 318.940 200.319, 318.710 199.631 C 318.360 198.580, 321.188 197.236, 329 194.742 C 333.485 193.310, 333.741 193.076, 331.999 191.999 C 330.811 191.265, 330.905 190.981, 332.528 190.394 C 334.859 189.550, 338.095 186.428, 337.380 185.713 C 337.105 185.438, 335.455 185.924, 333.714 186.792 C 331.973 187.661, 328.738 188.479, 326.524 188.609 C 324.311 188.740, 321.634 189.185, 320.576 189.597 C 319.024 190.203, 318.781 190.012, 319.320 188.608 C 319.854 187.216, 319.590 186.995, 317.994 187.502 C 316.599 187.945, 316 187.678, 316 186.615 C 316 185.508, 315.184 185.198, 313 185.475 C 311.350 185.684, 310 185.437, 310 184.927 C 310 184.417, 309.534 184, 308.965 184 C 308.251 184, 308.251 184.601, 308.965 185.934 M 339.813 185.683 C 340.534 185.972, 341.397 185.936, 341.729 185.604 C 342.061 185.272, 341.471 185.036, 340.417 185.079 C 339.252 185.127, 339.015 185.364, 339.813 185.683 M 223 187.892 C 223 188.911, 227.968 190.365, 228.757 189.577 C 229.043 189.290, 228.061 188.593, 226.574 188.028 C 223.276 186.774, 223 186.764, 223 187.892 M 156.267 190.025 C 153.191 191.262, 154.401 194, 158.024 194 C 159.569 194, 161.034 194.563, 161.280 195.250 C 161.525 195.938, 162.023 196.227, 162.387 195.893 C 163.720 194.668, 161.754 192.102, 159.165 191.688 C 157.699 191.454, 158.300 191.398, 160.500 191.564 C 163.594 191.797, 165.137 192.616, 167.313 195.182 C 168.861 197.007, 170.532 198.393, 171.027 198.262 C 171.523 198.131, 171.671 198.694, 171.357 199.512 C 171.043 200.330, 171.209 201, 171.726 201 C 173.341 201, 172.801 197.627, 170.707 194.637 C 167.480 190.028, 161.226 188.030, 156.267 190.025 M 231 194 C 231 194.550, 231.450 195, 232 195 C 232.550 195, 233 194.550, 233 194 C 233 193.450, 232.550 193, 232 193 C 231.450 193, 231 193.450, 231 194 M 234 198 C 234 198.550, 234.450 199, 235 199 C 235.550 199, 236 198.550, 236 198 C 236 197.450, 235.550 197, 235 197 C 234.450 197, 234 197.450, 234 198 M 347.558 197.907 C 347.249 198.405, 347.898 198.578, 348.999 198.290 C 351.334 197.679, 351.629 197, 349.559 197 C 348.766 197, 347.866 197.408, 347.558 197.907 M 48 201 C 48 201.550, 48.477 202, 49.059 202 C 49.641 202, 49.840 201.550, 49.500 201 C 49.160 200.450, 48.684 200, 48.441 200 C 48.198 200, 48 200.450, 48 201 M 111 207 C 111 207.550, 112.125 208, 113.500 208 C 114.875 208, 116 207.550, 116 207 C 116 206.450, 114.875 206, 113.500 206 C 112.125 206, 111 206.450, 111 207 M 19.686 208.625 C 19.977 209.381, 21.066 210, 22.107 210 C 23.148 210, 24 209.381, 24 208.625 C 24 207.837, 22.967 207.250, 21.579 207.250 C 19.936 207.250, 19.328 207.692, 19.686 208.625 M 6.270 209.474 C 5.264 210.618, 5.401 210.846, 7.020 210.724 C 8.109 210.642, 9 209.995, 9 209.287 C 9 207.625, 7.826 207.705, 6.270 209.474 M 146.813 208.683 C 147.534 208.972, 148.397 208.936, 148.729 208.604 C 149.061 208.272, 148.471 208.036, 147.417 208.079 C 146.252 208.127, 146.015 208.364, 146.813 208.683 M 119 210 C 120.958 211.266, 122.282 211.266, 121.500 210 C 121.160 209.450, 120.121 209.007, 119.191 209.015 C 117.734 209.029, 117.707 209.165, 119 210 M 124 210 C 124 210.550, 124.675 211, 125.500 211 C 126.325 211, 127 210.550, 127 210 C 127 209.450, 126.325 209, 125.500 209 C 124.675 209, 124 209.450, 124 210 M 136.750 210.662 C 137.438 210.940, 138.563 210.940, 139.250 210.662 C 139.938 210.385, 139.375 210.158, 138 210.158 C 136.625 210.158, 136.063 210.385, 136.750 210.662 M 116.515 211.976 C 115.572 213.502, 116.322 213.643, 142.785 216.919 C 156.142 218.573, 167.504 220.194, 168.035 220.522 C 168.566 220.850, 169.543 220.782, 170.207 220.372 C 171.189 219.765, 140.781 214.268, 127 212.561 C 125.075 212.323, 122.073 211.860, 120.328 211.533 C 118.549 211.200, 116.874 211.394, 116.515 211.976 M 132.813 211.683 C 133.534 211.972, 134.397 211.936, 134.729 211.604 C 135.061 211.272, 134.471 211.036, 133.417 211.079 C 132.252 211.127, 132.015 211.364, 132.813 211.683 M 172.405 216.250 L 170.500 218.500 172.750 216.595 C 173.988 215.547, 175 214.535, 175 214.345 C 175 213.545, 174.195 214.136, 172.405 216.250 M 113.500 218 C 113.840 218.550, 114.316 219, 114.559 219 C 114.802 219, 115 218.550, 115 218 C 115 217.450, 114.523 217, 113.941 217 C 113.359 217, 113.160 217.450, 113.500 218 M 90.813 220.683 C 91.534 220.972, 92.397 220.936, 92.729 220.604 C 93.061 220.272, 92.471 220.036, 91.417 220.079 C 90.252 220.127, 90.015 220.364, 90.813 220.683 M 317 221.557 C 315.075 222.267, 312.262 222.882, 310.750 222.924 C 309.006 222.972, 308 223.549, 308 224.500 C 308 225.325, 308.143 226, 308.318 226 C 309.678 226, 319.696 222.631, 320.433 221.926 C 322.055 220.375, 320.623 220.221, 317 221.557 M 80.813 222.683 C 81.534 222.972, 82.397 222.936, 82.729 222.604 C 83.061 222.272, 82.471 222.036, 81.417 222.079 C 80.252 222.127, 80.015 222.364, 80.813 222.683 M 76.813 223.683 C 77.534 223.972, 78.397 223.936, 78.729 223.604 C 79.061 223.272, 78.471 223.036, 77.417 223.079 C 76.252 223.127, 76.015 223.364, 76.813 223.683 M 115.355 225.518 C 115.034 226.353, 115.353 228.439, 116.064 230.154 C 117.210 232.921, 117.436 233.053, 118.075 231.326 C 118.949 228.963, 118.120 224, 116.852 224 C 116.349 224, 115.675 224.683, 115.355 225.518 M 57.813 227.683 C 58.534 227.972, 59.397 227.936, 59.729 227.604 C 60.061 227.272, 59.471 227.036, 58.417 227.079 C 57.252 227.127, 57.015 227.364, 57.813 227.683 M 90 228.732 C 85.748 229.514, 84.633 231.055, 87.080 232.768 C 88.839 234.001, 89.885 234.051, 93.184 233.063 C 96.084 232.194, 97.006 231.459, 96.582 230.353 C 96.262 229.519, 96 228.648, 96 228.418 C 96 227.940, 93.636 228.064, 90 228.732 M 159.015 229.750 C 159.024 230.162, 159.467 231.175, 160 232 C 160.784 233.213, 160.972 233.069, 160.985 231.250 C 160.993 230.012, 160.550 229, 160 229 C 159.450 229, 159.007 229.338, 159.015 229.750 M 165.195 233.500 C 165.215 235.150, 165.439 235.704, 165.693 234.731 C 165.947 233.758, 165.930 232.408, 165.656 231.731 C 165.382 231.054, 165.175 231.850, 165.195 233.500 M 309 232 L 306.500 232.801 309.191 232.900 C 310.671 232.955, 312.160 232.550, 312.500 232 C 313.203 230.863, 312.549 230.863, 309 232 M 302.638 237.777 C 302.374 238.204, 303.585 239.370, 305.329 240.368 L 308.500 242.181 306.076 239.591 C 303.383 236.713, 303.317 236.678, 302.638 237.777 M 430 248.465 C 430 248.720, 430.890 249.406, 431.977 249.988 C 433.591 250.851, 433.847 250.766, 433.371 249.523 C 432.853 248.173, 430 247.278, 430 248.465" stroke="none" fill="black" fill-rule="evenodd"/>
</svg>