<svg xmlns="http://www.w3.org/2000/svg" width="446" height="251" viewBox="0 0 446 251" version="1.1">
	<path d="M 1.250 1.496 C 0.331 2.540, 0 8.748, 0 24.958 L 0 47 2.300 47 C 3.565 47, 5.077 47.477, 5.660 48.060 C 6.407 48.807, 7.722 48.658, 10.110 47.556 C 13.089 46.182, 13.183 46.033, 10.888 46.331 C 7.872 46.722, 5.657 44.153, 7.076 41.911 C 7.568 41.135, 7.976 39.128, 7.985 37.450 C 7.993 35.773, 8.505 33.895, 9.122 33.278 C 10.665 31.735, 13 32.815, 13 35.072 C 13 37.835, 16.324 39.265, 19.443 37.844 C 22.551 36.428, 22.695 35.415, 19.895 34.683 C 17.208 33.980, 17.913 31.742, 21.074 30.938 C 23.253 30.384, 23.059 30.185, 19.160 28.975 C 15.874 27.956, 14.114 27.896, 11.914 28.726 C 10.166 29.386, 8.780 29.454, 8.435 28.895 C 8.120 28.385, 7.490 28.197, 7.036 28.478 C 5.880 29.192, 5.013 26.529, 5.529 23.851 C 6.169 20.527, 8.265 18.904, 12.612 18.364 C 16.413 17.893, 16.676 18.074, 24.371 26.498 L 32.243 35.113 29.957 37.546 C 27.751 39.894, 27.734 40.049, 29.461 41.957 C 30.865 43.508, 31.668 43.713, 33.180 42.904 C 34.786 42.044, 35.788 42.552, 39.191 45.956 C 43.159 49.924, 43.224 50.095, 41.482 52.020 C 40.497 53.109, 39.094 54, 38.365 54 C 37.637 54, 36.120 55.804, 34.995 58.010 C 33.043 61.836, 33.022 62.267, 34.526 67.441 C 36.362 73.758, 35.491 76.140, 30.602 78.165 C 28.031 79.230, 27.508 79.155, 26.574 77.591 C 21.409 68.943, 19.545 66.770, 14.550 63.575 C 11.476 61.609, 7.831 60, 6.449 60 C 3.901 60, 3.637 59.644, 2.564 54.750 C 1.563 50.178, 0.286 51.657, 0.286 57.388 L 0.286 62.776 5.393 63.221 C 13.579 63.935, 23.983 72.308, 23.996 78.191 C 24.002 80.796, 22.419 81.202, 18.554 79.587 C 15.871 78.466, 15.179 77.697, 15.680 76.391 C 16.152 75.162, 15.978 74.896, 15.070 75.457 C 14.099 76.057, 14.035 75.802, 14.801 74.371 C 15.734 72.627, 15.264 72.478, 7.901 72.173 L 0 71.847 0 80.923 C 0 88.166, 0.292 90, 1.443 90 C 3.365 90, 6.235 94.165, 5.098 95.302 C 4.587 95.813, 3.327 95.710, 2.107 95.057 C 0.714 94.312, 0 94.281, 0 94.965 C 0 95.534, 0.788 96.032, 1.750 96.070 C 3.261 96.131, 3.227 96.270, 1.500 97.091 C -0.364 97.976, -0.347 98.012, 1.750 97.614 C 4.490 97.094, 4.780 98.983, 2.069 99.692 C -0.057 100.248, 0.284 102.511, 2.629 103.411 C 3.458 103.729, 3.836 103.544, 3.493 102.989 C 3.157 102.445, 3.385 102, 4 102 C 4.615 102, 4.859 101.581, 4.543 101.069 C 4.226 100.557, 4.425 99.856, 4.984 99.510 C 5.543 99.165, 6 99.434, 6 100.108 C 6 100.782, 6.289 101.044, 6.643 100.691 C 6.996 100.337, 6.658 99.278, 5.893 98.337 C 4.686 96.854, 4.705 96.702, 6.036 97.199 C 7.278 97.663, 7.493 97.098, 7.161 94.250 C 6.892 91.950, 7.115 90.953, 7.803 91.378 C 8.382 91.736, 9.118 91.204, 9.438 90.195 C 10.470 86.945, 20.952 83.322, 22.297 85.750 C 22.526 86.162, 22.043 91.900, 21.225 98.500 C 20.406 105.100, 19.707 112.862, 19.671 115.750 C 19.626 119.364, 19.200 121, 18.303 121 C 16.605 121, 16.656 122.434, 18.478 125.958 C 19.820 128.553, 19.804 128.794, 18.299 128.573 C 17.388 128.440, 16.345 127.485, 15.983 126.452 C 15.428 124.871, 15.208 125.036, 14.590 127.497 C 14.041 129.683, 14.278 130.730, 15.528 131.644 C 17.138 132.822, 16.804 135, 15.014 135 C 14.536 135, 13.025 132.637, 11.656 129.750 C 10.286 126.862, 7.109 120.225, 4.596 115 L 0.026 105.500 0.013 110.667 C 0.005 113.686, 0.858 117.843, 2.064 120.667 C 3.199 123.325, 3.559 124.938, 2.864 124.250 C 0.496 121.907, 0 122.997, -0 130.546 L -0 138.092 10.250 137.413 C 15.887 137.039, 21.258 136.344, 22.184 135.867 C 23.111 135.390, 25.473 135, 27.434 135 C 30.890 135, 31 135.115, 30.986 138.750 C 30.963 145.256, 30.061 147.142, 27.119 146.842 C 25.679 146.696, 24.050 146.275, 23.500 145.909 C 22.950 145.542, 17.438 145.700, 11.250 146.261 L 0 147.281 0 165.078 L -0 182.874 3.750 182.383 C 14.201 181.014, 14.555 180.860, 14.148 177.838 C 14.099 177.473, 15.368 176.719, 16.969 176.161 C 19.392 175.316, 20.729 175.583, 24.940 177.753 C 28.567 179.622, 29.996 180.947, 29.985 182.430 C 29.974 183.924, 29.737 184.134, 29.134 183.183 C 28.456 182.113, 26.378 182.078, 18.020 182.998 C 12.366 183.620, 5.999 184.153, 3.870 184.182 C 0.431 184.230, 0 184.512, 0 186.716 C 0 189.168, 0.073 189.188, 6.250 188.487 C 9.688 188.097, 12.950 187.439, 13.500 187.025 C 14.050 186.611, 19.112 185.984, 24.750 185.631 C 36.181 184.916, 36.571 185.174, 33.358 191.346 C 32.455 193.081, 31.393 195.175, 30.999 196 C 30.605 196.825, 28.741 197.751, 26.857 198.057 C 22.076 198.836, 21.318 199.490, 20.568 203.489 C 20.206 205.420, 19.742 207, 19.538 207 C 18.409 207, 10 202.969, 10 202.429 C 10 202.075, 10.698 202.054, 11.552 202.382 C 12.445 202.724, 12.844 202.556, 12.491 201.985 C 12.153 201.439, 10.844 201.252, 9.581 201.569 C 8.318 201.886, 5.645 201.461, 3.642 200.624 C 0.178 199.176, 0 199.197, 0 201.051 C 0 202.123, 0.563 203.007, 1.250 203.015 C 2.089 203.026, 2.007 203.361, 1 204.034 C -0.290 204.896, -0.220 205.208, 1.500 206.261 C 4.198 207.914, 10.973 209.966, 13.790 209.985 C 17.133 210.007, 24 213.785, 24 215.602 C 24 216.460, 21.696 223.764, 18.881 231.831 C 11.538 252.871, 11.464 251, 19.637 251 L 26.507 251 28.842 244.250 C 30.127 240.537, 32.210 234.800, 33.471 231.500 C 34.733 228.200, 36.025 224.721, 36.343 223.770 C 36.855 222.241, 37.612 222.450, 42.836 225.562 C 48.412 228.884, 48.778 229.338, 49.252 233.542 C 49.931 239.568, 51.346 241, 56.622 241 L 61 241 61 246 L 61 251 71.945 251 L 82.890 251 83.195 246.250 C 83.486 241.719, 83.628 241.513, 86.267 241.790 C 87.788 241.950, 89.791 241.657, 90.716 241.139 C 92.054 240.391, 91.485 240.015, 87.950 239.312 L 83.500 238.428 83.849 224.964 C 84.111 214.831, 84.566 211.085, 85.689 209.822 C 86.604 208.791, 86.922 207.328, 86.510 206.033 C 85.842 203.927, 85.889 203.922, 106.670 204.124 C 118.127 204.235, 128.057 204.753, 128.737 205.275 C 129.418 205.797, 130.655 205.963, 131.487 205.643 C 132.429 205.282, 133 205.637, 133 206.582 C 133 208.219, 135.105 209.235, 150.500 215.024 C 156 217.092, 161.850 219.373, 163.500 220.093 L 166.500 221.401 161.537 221.951 L 156.573 222.500 164.274 227.500 C 168.509 230.250, 171.980 232.792, 171.987 233.150 C 172 233.821, 162.565 236.039, 150.715 238.150 L 143.931 239.358 149.715 241.743 L 155.500 244.128 167.500 241.928 C 174.100 240.718, 179.953 239.557, 180.507 239.350 C 181.061 239.142, 185.700 241.678, 190.814 244.986 L 200.114 251 294.509 251 L 388.905 251 389.220 244.750 L 389.535 238.500 390.397 244.750 L 391.258 251 418.594 251 L 445.930 251 446.215 227.250 C 446.372 214.188, 446.500 157.831, 446.500 102.014 C 446.500 11.686, 446.332 0.495, 444.969 0.233 C 443.709 -0.010, 443.223 2.182, 442.222 12.632 C 441.553 19.614, 440.779 25.554, 440.502 25.832 C 439.839 26.494, 402.033 24.139, 400.767 23.356 C 399.857 22.794, 400.106 17.345, 401.618 4.750 C 401.992 1.631, 401.812 -0, 401.094 -0 C 400.492 -0, 400 1.730, 400 3.849 C 400 5.966, 399.705 11.189, 399.344 15.455 L 398.689 23.211 383.594 22.492 C 375.292 22.096, 367.697 21.350, 366.715 20.832 C 365.381 20.130, 365.055 19.083, 365.424 16.696 C 365.696 14.938, 366.198 10.463, 366.539 6.750 L 367.159 0 359.080 0 L 351 0 351.001 4.250 C 351.003 11.430, 348.747 25.373, 347.191 27.790 C 345.939 29.736, 345.099 30.004, 341.609 29.576 C 339.349 29.298, 334.887 28.795, 331.693 28.457 C 327.442 28.007, 326.138 27.528, 326.826 26.671 C 327.343 26.027, 328.072 20.550, 328.448 14.500 C 328.823 8.450, 329.356 2.713, 329.632 1.750 C 330.081 0.188, 329.280 0, 322.174 0 C 315.838 0, 314.090 0.323, 313.607 1.582 C 312.623 4.145, 313.012 25.800, 314 23.500 C 314.767 21.715, 314.867 21.789, 314.930 24.193 C 314.994 26.650, 314.636 26.912, 310.828 27.193 C 306.415 27.518, 304.583 29.537, 307.667 30.677 C 310.075 31.567, 310.966 32.971, 310.985 35.905 C 311 38.287, 311.020 38.292, 313.108 36.405 L 315.215 34.500 314.858 41.500 C 314.530 47.912, 314.671 48.524, 316.530 48.791 C 317.647 48.951, 318.997 50.047, 319.530 51.226 C 320.883 54.217, 322.529 54.471, 324.938 52.062 C 326.390 50.610, 327 48.711, 327 45.640 C 327 43.241, 327.291 39.155, 327.647 36.559 L 328.294 31.839 339.146 32.170 C 345.115 32.351, 349.999 32.748, 349.999 33.050 C 350 33.353, 349.565 34.035, 349.034 34.566 C 348.503 35.097, 347.809 38.784, 347.493 42.758 C 346.919 49.960, 346.929 49.996, 350.346 53.412 L 353.774 56.840 355.137 46.170 L 356.500 35.500 365.285 35.653 C 370.117 35.738, 376.867 36.291, 380.285 36.883 C 383.703 37.475, 391.675 38.415, 398 38.972 C 421.012 40.997, 431.597 41.997, 436.250 42.586 L 441 43.188 440.989 47.344 C 440.983 49.630, 440.705 53.153, 440.371 55.172 C 439.783 58.729, 439.601 58.866, 434.632 59.526 C 431.809 59.900, 426.250 61.735, 422.278 63.603 C 418.307 65.471, 414.706 67, 414.276 67 C 413.377 67, 405.542 74.446, 402.326 78.356 C 399.515 81.773, 397.451 81.694, 394.037 78.040 L 391.272 75.080 389.409 78.540 C 387.637 81.829, 386 83.056, 386 81.094 C 386 80.595, 385.211 80.394, 384.246 80.646 C 383.058 80.957, 381.850 80.041, 380.496 77.802 C 379.398 75.986, 378.500 74.070, 378.500 73.545 C 378.500 73.020, 377.463 71.554, 376.196 70.287 C 374.929 69.020, 374.149 67.568, 374.462 67.061 C 374.776 66.553, 374.575 65.856, 374.016 65.510 C 372.246 64.416, 372.818 61.716, 374.670 62.427 C 376.360 63.075, 377.957 61.545, 377.985 59.250 C 378.006 57.547, 374.910 57.674, 372.328 59.483 C 371.163 60.299, 366.669 62.085, 362.342 63.452 C 358.014 64.819, 352.929 67.077, 351.042 68.469 C 347.257 71.261, 347.595 71.457, 353.500 69.893 C 355.700 69.310, 359.525 68.438, 362 67.954 C 364.475 67.471, 367.963 66.783, 369.750 66.424 C 371.861 66.001, 373 66.163, 373 66.887 C 373 68.032, 372.891 68.082, 369.500 68.504 C 368.400 68.641, 364.911 69.441, 361.747 70.282 C 358.584 71.123, 355.125 71.584, 354.063 71.306 C 352.919 71.007, 351.210 71.658, 349.877 72.900 L 347.623 75 350.111 75 C 351.480 75, 353.170 75.563, 353.867 76.250 C 354.883 77.252, 355.392 77.152, 356.428 75.750 C 357.977 73.653, 360 73.451, 360 75.394 C 360 76.182, 360.979 76.776, 362.250 76.760 C 368.832 76.678, 377.433 78.817, 379.176 80.969 C 380.179 82.208, 381 83.622, 381 84.111 C 381 85.448, 376.592 85.180, 375.064 83.750 C 373.972 82.729, 373.824 82.866, 374.251 84.500 C 374.538 85.600, 375.094 87.280, 375.487 88.233 C 375.879 89.186, 374.356 88.121, 372.101 85.866 C 369.230 82.995, 367.413 81.920, 366.037 82.280 C 364.832 82.595, 362.994 81.867, 361.286 80.398 C 358.469 77.976, 355.584 76.984, 357.800 79.200 C 359.540 80.940, 359.349 84.348, 357.551 83.658 C 356.524 83.264, 356.275 83.597, 356.698 84.801 C 357.184 86.186, 357.045 86.269, 355.947 85.250 C 355.206 84.563, 353.955 84, 353.166 84 C 351.743 84, 348.262 80.567, 345.309 76.250 C 344.463 75.012, 343.259 73.983, 342.635 73.962 C 342.011 73.941, 340.284 72.166, 338.799 70.017 C 337.313 67.868, 334.838 65.329, 333.299 64.375 C 331.759 63.421, 330.050 62.152, 329.500 61.556 C 327.479 59.366, 322.915 56.935, 321.947 57.533 C 320.099 58.675, 315.215 56.930, 314.695 54.943 C 314.036 52.423, 310.640 52.434, 308.872 54.962 C 307.632 56.735, 307.090 56.811, 303.239 55.753 C 299.689 54.776, 298.523 54.841, 296.239 56.141 C 294.733 56.998, 289.708 58.998, 285.074 60.584 C 278.481 62.841, 275.458 64.557, 271.174 68.472 C 263.451 75.530, 261.035 81.664, 265.250 83.513 C 266.664 84.133, 267.620 85.551, 267.824 87.327 C 268.050 89.301, 269.180 90.763, 271.564 92.170 C 273.443 93.279, 275.547 95.360, 276.240 96.796 C 276.933 98.231, 280.144 101.215, 283.376 103.426 L 289.253 107.447 288.702 114.014 C 287.839 124.314, 285.912 128.013, 279.725 131.250 C 271.810 135.391, 269.867 134.871, 265.436 127.430 C 264.729 126.242, 263.769 125.874, 262.574 126.333 C 261.133 126.886, 261.013 127.311, 261.973 128.468 C 263.300 130.066, 262.436 132.387, 260.874 131.422 C 259.576 130.620, 255 131.788, 255 132.921 C 255 133.407, 256.292 134.255, 257.870 134.805 C 261.468 136.059, 263.154 142.274, 260.593 144.836 C 259.191 146.238, 258.816 146.176, 256.706 144.194 C 253.639 141.312, 252.316 141.357, 255.043 144.250 C 256.209 145.488, 257.623 147.400, 258.185 148.500 C 258.747 149.600, 257.698 148.714, 255.854 146.530 C 254.009 144.347, 252.494 142.014, 252.487 141.347 C 252.480 140.680, 251.421 139.012, 250.133 137.641 C 248.844 136.270, 248.023 134.772, 248.307 134.313 C 248.590 133.854, 248.218 132.651, 247.478 131.640 C 246.241 129.947, 245.933 130.199, 243.589 134.823 C 241.326 139.290, 239.644 142.071, 235.241 148.626 C 234.008 150.461, 236.775 144.994, 242.246 134.783 C 243.756 131.964, 244.707 129.398, 244.359 129.079 C 244.011 128.761, 243.525 129.063, 243.280 129.750 C 242.287 132.531, 241.163 130.754, 241.699 127.250 L 242.273 123.500 239.332 126.250 C 237.714 127.762, 236.138 129, 235.830 129 C 234.890 129, 236.709 121.921, 239.684 114 C 242.437 106.668, 249.594 94, 250.983 94 C 252.738 94, 259.900 77.567, 258.678 76.345 C 258.391 76.058, 257.430 77.100, 256.542 78.662 C 255.026 81.327, 254.966 81.347, 255.568 79 C 255.920 77.625, 256.836 75.503, 257.604 74.285 C 259.142 71.845, 259.528 66.555, 258.104 67.436 C 256.595 68.369, 253.197 64.679, 252.530 61.384 C 251.966 58.596, 252.142 58.281, 254.200 58.390 C 256.541 58.514, 260.578 55.100, 263.670 50.382 C 265.099 48.199, 265.136 47.683, 263.921 46.820 C 262.760 45.996, 262.800 45.907, 264.144 46.333 C 266.071 46.946, 270 43.157, 270 40.686 C 270 38.441, 268.010 38.504, 267.965 40.750 C 267.937 42.092, 267.613 41.928, 266.573 40.050 C 265.826 38.703, 265.443 37.010, 265.720 36.288 C 267.335 32.078, 258.210 30.284, 255.047 34.190 L 253.274 36.380 252.102 34.190 C 251.457 32.986, 250.379 32, 249.705 32 C 249.032 32, 247.933 31.122, 247.263 30.050 C 246.593 28.977, 244.359 27.783, 242.298 27.396 C 240.236 27.009, 237.944 26.087, 237.204 25.347 C 235.216 23.359, 233.773 23.711, 234.502 26.005 C 235.507 29.173, 232.519 29.533, 225.144 27.133 C 221.490 25.944, 218.050 24.963, 217.500 24.954 C 216.950 24.944, 215.600 24.232, 214.500 23.371 C 212.607 21.889, 212.687 21.843, 216 22.508 C 217.925 22.895, 219.927 23.613, 220.450 24.105 C 221.655 25.240, 225 25.276, 225 24.155 C 225 22.858, 221.519 20.002, 219.921 19.987 C 219.140 19.980, 216.250 18.846, 213.500 17.468 C 210.750 16.089, 209.233 15.160, 210.128 15.402 C 211.799 15.855, 214 14.313, 214 12.689 C 214 12.187, 212.445 12.069, 210.545 12.426 C 207.428 13.010, 206.937 12.780, 205.538 10.074 C 203.649 6.421, 198.096 4.638, 190.583 5.273 C 184.163 5.815, 179.479 8.112, 175 12.912 C 171.542 16.617, 171.361 16.678, 160 17.943 C 153.675 18.646, 146.318 19.367, 143.650 19.544 C 140.983 19.721, 138.600 20.066, 138.355 20.312 C 138.109 20.557, 138.933 22.950, 140.184 25.629 C 142.962 31.574, 142.883 31.451, 143.513 30.820 C 143.795 30.538, 143.331 28.643, 142.481 26.610 C 140.647 22.220, 141.167 21, 144.872 21 C 150.894 21, 155.904 29.904, 156.653 41.936 C 157.310 52.500, 157.429 52.877, 162.038 59.016 C 167.230 65.932, 168.385 68, 167.055 68 C 166.496 68, 164.368 65.762, 162.326 63.027 C 160.284 60.292, 158.444 58.223, 158.237 58.430 C 158.030 58.637, 158.792 60.632, 159.930 62.863 C 162.126 67.168, 162.588 70, 161.094 70 C 160.596 70, 159.503 68.088, 158.665 65.750 C 156.824 60.614, 152.203 49.510, 148.782 42 C 147.403 38.975, 145.958 35.487, 145.570 34.250 C 145.183 33.012, 144.455 32, 143.954 32 C 143.415 32, 143.428 32.919, 143.985 34.250 C 150.456 49.705, 158.021 70.504, 157.584 71.642 C 157.278 72.438, 155.547 73.709, 153.737 74.465 C 151.704 75.315, 149.817 77.160, 148.800 79.292 C 147.784 81.424, 146.185 82.988, 144.620 83.380 C 141.507 84.162, 135 87.924, 135 88.943 C 135 89.943, 102.316 91.054, 98.449 90.185 C 96.505 89.749, 93.480 87.376, 90.116 83.648 C 84.094 76.975, 84.144 78.784, 89.478 61 C 91.375 54.675, 94.346 44.550, 96.080 38.500 C 97.815 32.450, 99.942 26.938, 100.808 26.250 C 101.674 25.563, 104.970 25, 108.132 25 C 116.440 25, 116.327 23.252, 107.965 22.428 C 103.405 21.979, 101.041 21.334, 101.316 20.615 C 101.551 20.002, 102.560 16.800, 103.559 13.500 C 104.558 10.200, 106.190 6.571, 107.187 5.436 C 108.184 4.300, 109 2.613, 109 1.686 C 109 0.257, 107.873 0, 101.594 0 C 95.041 0, 94.237 0.202, 94.622 1.750 C 94.861 2.713, 93.791 7.547, 92.244 12.493 L 89.430 21.487 85.715 21.167 C 82.518 20.891, 82 21.136, 82 22.923 C 82 24.564, 82.630 25, 85 25 C 86.650 25, 88 25.480, 88 26.066 C 88 27.052, 79.842 52.691, 76.249 63 C 75.386 65.475, 74.032 68.033, 73.240 68.683 C 72.448 69.334, 72.096 70.347, 72.459 70.933 C 73.393 72.445, 71.290 72.266, 70.309 70.750 C 69.864 70.063, 69.500 68.670, 69.500 67.655 C 69.500 65.338, 42.920 34.996, 41.333 35.502 C 39.736 36.011, 38.809 33.233, 39.889 31.178 C 40.374 30.255, 41.344 26.912, 42.045 23.748 C 43.673 16.399, 42.821 14.460, 35.487 8.821 C 23.759 -0.195, 24.159 0, 17.352 0 C 13.858 0, 11 0.380, 11 0.844 C 11 1.707, 17.894 9.921, 25.397 18 C 31.694 24.779, 37.352 32, 36.368 32 C 35.887 32, 29.239 24.800, 21.593 16 C 10.209 2.896, 7.223 0.007, 5.096 0.038 C 3.668 0.059, 1.938 0.715, 1.250 1.496 M 166.729 0.604 C 166.328 1.005, 166 2.023, 166 2.867 C 166 3.992, 166.296 4.104, 167.113 3.287 C 167.724 2.676, 168.053 1.657, 167.842 1.025 C 167.631 0.393, 167.130 0.203, 166.729 0.604 M 0.429 24.500 C 0.429 37.150, 0.573 42.187, 0.747 35.694 C 0.922 29.200, 0.921 18.850, 0.746 12.694 C 0.571 6.537, 0.428 11.850, 0.429 24.500 M 49.173 8.659 C 49.368 9.672, 50.196 10.500, 51.014 10.500 C 53.157 10.500, 52.848 7.594, 50.659 7.173 C 49.323 6.916, 48.916 7.323, 49.173 8.659 M 59.638 9.500 C 59.955 10.325, 60.841 11, 61.607 11 C 62.373 11, 63 10.325, 63 9.500 C 63 8.675, 62.115 8, 61.031 8 C 59.692 8, 59.247 8.480, 59.638 9.500 M 69 9.302 C 69 10.110, 69.691 12.060, 70.536 13.636 L 72.072 16.500 71.786 12.577 C 71.522 8.954, 69 5.990, 69 9.302 M 156.436 20.307 C 156.160 21.026, 157.085 24.963, 158.491 29.057 C 159.897 33.151, 163.109 42.800, 165.629 50.500 C 168.150 58.200, 170.614 64.927, 171.106 65.450 C 172.642 67.082, 172.111 62.643, 170.025 56.405 C 168.938 53.157, 168.038 49.938, 168.025 49.250 C 167.984 47.195, 171.814 47.837, 172.500 50 C 173.099 51.887, 175.034 52.866, 174.971 51.250 C 174.955 50.837, 172.990 46.900, 170.605 42.500 C 168.221 38.100, 164.382 31.013, 162.074 26.750 C 159.767 22.487, 157.667 19, 157.408 19 C 157.149 19, 156.712 19.588, 156.436 20.307 M 166 20.309 C 166 21.029, 166.661 22.491, 167.468 23.559 C 168.735 25.233, 168.941 25.271, 168.968 23.832 C 168.986 22.914, 169.273 21.452, 169.607 20.582 C 170.042 19.448, 169.617 19, 168.107 19 C 166.948 19, 166 19.589, 166 20.309 M 196.564 23.293 C 196.940 24.279, 197.499 24.834, 197.807 24.526 C 198.115 24.219, 197.808 23.412, 197.124 22.733 C 196.136 21.753, 196.022 21.868, 196.564 23.293 M 368 24.059 C 368 24.641, 368.450 24.840, 369 24.500 C 369.550 24.160, 370 23.684, 370 23.441 C 370 23.198, 369.550 23, 369 23 C 368.450 23, 368 23.477, 368 24.059 M 145.878 24.904 C 146.636 25.384, 146.990 26.208, 146.664 26.735 C 146.166 27.541, 150.849 40.618, 154.101 47.500 C 155.706 50.897, 154.082 36.132, 152.411 32.133 C 150.747 28.149, 147.246 23.992, 145.576 24.015 C 144.984 24.024, 145.120 24.423, 145.878 24.904 M 174.576 27.757 C 174.259 28.074, 174 29.946, 174 31.917 C 174 35.128, 174.286 35.513, 176.750 35.629 C 178.262 35.700, 181.855 36.027, 184.732 36.356 C 188.840 36.825, 190.237 36.610, 191.232 35.355 C 191.930 34.476, 193.785 32.461, 195.356 30.878 C 196.926 29.295, 198.051 27.955, 197.856 27.899 C 196.240 27.441, 175.021 27.312, 174.576 27.757 M 270 28.500 C 270 29.716, 271.611 30, 278.500 30 C 285.389 30, 287 29.716, 287 28.500 C 287 27.284, 285.389 27, 278.500 27 C 271.611 27, 270 27.284, 270 28.500 M 293 28.651 C 293 29.563, 294.323 30, 297.083 30 C 302.294 30, 301.933 27.689, 296.687 27.461 C 294.180 27.353, 293 27.733, 293 28.651 M 392.750 28.662 C 393.438 28.940, 394.563 28.940, 395.250 28.662 C 395.938 28.385, 395.375 28.158, 394 28.158 C 392.625 28.158, 392.063 28.385, 392.750 28.662 M 108.758 32.515 C 109.444 36.102, 110.725 36.485, 110.206 32.947 C 109.968 31.326, 109.436 30, 109.025 30 C 108.614 30, 108.494 31.132, 108.758 32.515 M 355.500 30.998 C 357.700 31.426, 366.025 32.287, 374 32.910 C 381.975 33.533, 392.775 34.471, 398 34.994 C 403.225 35.518, 409.975 35.901, 413 35.846 L 418.500 35.746 412 34.899 C 397.969 33.069, 363.078 30.006, 357.448 30.110 C 351.735 30.215, 351.658 30.250, 355.500 30.998 M 180.500 32 C 180.149 32.567, 180.990 33, 182.441 33 C 183.848 33, 185 32.550, 185 32 C 185 31.450, 184.127 31, 183.059 31 C 181.991 31, 180.840 31.450, 180.500 32 M 163.407 35.500 C 165.241 43.381, 166.426 46, 168.158 46 C 170.145 46, 170.635 44.511, 168.984 43.490 C 168.426 43.145, 166.837 40.756, 165.455 38.181 C 164.073 35.607, 163.151 34.400, 163.407 35.500 M 257 36.343 C 257 38.988, 258.755 41.799, 261.236 43.126 L 263.425 44.298 261.559 41.399 C 257.157 34.559, 257 34.385, 257 36.343 M 423.813 36.683 C 424.534 36.972, 425.397 36.936, 425.729 36.604 C 426.061 36.272, 425.471 36.036, 424.417 36.079 C 423.252 36.127, 423.015 36.364, 423.813 36.683 M 174.500 42.064 C 174.897 46.014, 174.955 46.146, 176 45.500 C 177.346 44.668, 177.260 43.737, 175.628 41.505 C 174.333 39.735, 174.269 39.766, 174.500 42.064 M 183.607 42.477 C 182.702 43.859, 180.427 45.630, 178.553 46.414 C 175.848 47.544, 175.257 48.267, 175.689 49.919 C 176.408 52.667, 177.370 52.546, 179 49.500 C 180.598 46.514, 182.450 46.172, 181.710 49 C 180.727 52.760, 184.401 51.216, 186.106 47.153 C 187.396 44.079, 187.470 42.996, 186.483 41.645 C 185.362 40.113, 185.107 40.187, 183.607 42.477 M 193.731 45.761 C 192.758 45.977, 191.137 47.807, 190.129 49.827 C 188.377 53.336, 185.586 63.022, 186.205 63.445 C 191.822 67.295, 193.301 68.608, 194.015 70.374 C 194.678 72.017, 194.888 72.113, 194.937 70.795 C 195.017 68.627, 200.386 67.531, 206.464 68.442 C 209.704 68.928, 211.608 69.934, 213.464 72.140 C 214.866 73.806, 215.759 75.581, 215.448 76.085 C 214.721 77.260, 215.796 77.237, 221.815 75.946 L 226.727 74.893 225.408 71.196 C 224.682 69.163, 224.068 65.677, 224.044 63.449 C 224.020 61.222, 223.438 58.204, 222.750 56.744 C 221.502 54.094, 215.478 50, 212.825 50 C 212.054 50, 209.640 49.072, 207.461 47.937 C 203.631 45.942, 197.376 44.951, 193.731 45.761 M 253.031 46.500 C 253.031 47.050, 253.467 48.175, 254 49 C 254.533 49.825, 254.969 50.050, 254.969 49.500 C 254.969 48.950, 254.533 47.825, 254 47 C 253.467 46.175, 253.031 45.950, 253.031 46.500 M 256.015 50.191 C 256.024 51.461, 256.467 53.175, 257 54 C 257.738 55.141, 257.973 54.737, 257.985 52.309 C 257.993 50.554, 257.550 48.840, 257 48.500 C 256.442 48.155, 256.007 48.903, 256.015 50.191 M 6.079 52.583 C 6.127 53.748, 6.364 53.985, 6.683 53.188 C 6.972 52.466, 6.936 51.603, 6.604 51.271 C 6.272 50.939, 6.036 51.529, 6.079 52.583 M 13.626 51.844 C 13.419 52.205, 13.612 53.400, 14.055 54.500 C 14.497 55.600, 14.891 55.938, 14.930 55.250 C 14.968 54.563, 15.675 54, 16.500 54 C 17.325 54, 18 53.602, 18 53.117 C 18 52.042, 14.154 50.923, 13.626 51.844 M 0.158 54 C 0.158 55.375, 0.385 55.938, 0.662 55.250 C 0.940 54.563, 0.940 53.438, 0.662 52.750 C 0.385 52.063, 0.158 52.625, 0.158 54 M 224 53 C 224 53.550, 224.477 54, 225.059 54 C 225.641 54, 225.840 53.550, 225.500 53 C 225.160 52.450, 224.684 52, 224.441 52 C 224.198 52, 224 52.450, 224 53 M 0.158 61 C 0.158 62.375, 0.385 62.938, 0.662 62.250 C 0.940 61.563, 0.940 60.438, 0.662 59.750 C 0.385 59.063, 0.158 59.625, 0.158 61 M 40.570 60.886 C 40.269 61.374, 41.010 62.031, 42.218 62.347 C 44.738 63.006, 45.485 62.594, 44.541 61.067 C 43.742 59.773, 41.326 59.664, 40.570 60.886 M 382.038 63.925 C 379.565 68.774, 379.520 69.812, 381.679 72.198 C 383.297 73.986, 383.406 73.939, 384.679 70.912 C 386.221 67.245, 386.424 61.380, 385.038 60.524 C 384.509 60.197, 383.159 61.727, 382.038 63.925 M 52.333 65.067 C 51.577 65.823, 52.071 68.228, 54.028 73.317 C 55.548 77.268, 57.111 82.904, 57.502 85.843 C 57.893 88.782, 58.552 90.807, 58.967 90.343 C 59.381 89.879, 60.571 86.125, 61.610 82 L 63.500 74.500 64.031 81.500 C 64.572 88.632, 64.828 88.623, 66.996 81.389 C 68.064 77.827, 67.998 76.927, 66.505 74.648 C 65.557 73.201, 64.412 72.245, 63.961 72.524 C 63.509 72.803, 61.235 71, 58.907 68.516 C 54.349 63.653, 53.954 63.446, 52.333 65.067 M 48.656 69.250 C 48.295 70.213, 47.808 71.627, 47.572 72.393 C 47.065 74.048, 50.816 82, 52.105 82 C 53.339 82, 53.231 79.631, 51.937 78.337 C 51.352 77.752, 50.522 75.074, 50.093 72.387 C 49.573 69.130, 49.094 68.084, 48.656 69.250 M 15.603 69.833 C 15.320 70.292, 15.723 70.667, 16.500 70.667 C 17.277 70.667, 17.680 70.292, 17.397 69.833 C 17.114 69.375, 16.710 69, 16.500 69 C 16.290 69, 15.886 69.375, 15.603 69.833 M 180.160 70.240 C 178.635 71.765, 178.744 74.909, 180.426 77.946 C 181.720 80.284, 181.796 80.158, 182.140 75.101 C 182.521 69.502, 182.051 68.349, 180.160 70.240 M 0.360 81 C 0.360 86.225, 0.529 88.362, 0.735 85.750 C 0.941 83.138, 0.941 78.862, 0.735 76.250 C 0.529 73.638, 0.360 75.775, 0.360 81 M 184.667 78.667 C 183.493 79.841, 183.953 82, 185.378 82 C 186.135 82, 187.272 81.378, 187.903 80.617 C 188.792 79.546, 188.688 79.094, 187.444 78.617 C 185.457 77.854, 185.479 77.854, 184.667 78.667 M 189.664 82.536 C 186.150 86.962, 186.641 89.250, 190.846 88.044 C 192.797 87.485, 194.191 87.588, 194.958 88.349 C 195.837 89.221, 195.945 89.014, 195.404 87.500 C 195.011 86.400, 194.353 85.050, 193.941 84.500 C 193.529 83.950, 193.036 82.479, 192.846 81.232 C 192.520 79.092, 192.339 79.166, 189.664 82.536 M 219 80.579 C 213.869 82.220, 209.546 85.457, 210.476 86.961 C 210.836 87.543, 210.485 87.740, 209.653 87.420 C 206.852 86.345, 206.861 89.102, 209.666 91.264 C 211.225 92.465, 214.405 95.381, 216.734 97.745 C 219.062 100.109, 222.212 102.292, 223.734 102.595 C 226.403 103.127, 226.488 103.337, 226.157 108.573 C 225.969 111.558, 225.407 114, 224.907 114 C 223.531 114, 223.823 116.774, 225.250 117.254 C 226.203 117.575, 226.144 118.115, 225 119.529 C 224.041 120.715, 223.966 121.103, 224.794 120.606 C 225.505 120.178, 226.645 120.291, 227.327 120.857 C 230.330 123.349, 235 115.267, 235 107.578 C 235 102.799, 234.747 102.153, 232.671 101.632 C 229.766 100.903, 228.195 97.431, 228.992 93.500 C 229.672 90.143, 229.178 87, 227.971 87 C 227.534 87, 226.872 85.200, 226.500 83 C 225.755 78.591, 225.486 78.504, 219 80.579 M 47.198 85.250 L 47.500 90.500 51.750 90.807 C 55.062 91.047, 56 90.771, 56 89.557 C 56 88.701, 55.354 88, 54.564 88 C 53.774 88, 52.116 86.200, 50.880 84 C 49.643 81.800, 48.241 80, 47.764 80 C 47.286 80, 47.031 82.362, 47.198 85.250 M 6.676 81.750 C 6.234 82.502, 7.620 87, 8.295 87 C 8.492 87, 8.455 85.650, 8.213 84 C 7.760 80.914, 7.443 80.449, 6.676 81.750 M 199.459 84.067 C 199.096 84.653, 199.014 85.348, 199.276 85.610 C 199.538 85.872, 200.019 85.392, 200.345 84.543 C 201.021 82.781, 200.445 82.471, 199.459 84.067 M 184 85.441 C 184 86.234, 184.408 87.134, 184.907 87.442 C 185.405 87.751, 185.578 87.102, 185.290 86.001 C 184.679 83.666, 184 83.371, 184 85.441 M 205.029 84.961 C 204.220 85.473, 203.803 86.136, 204.102 86.435 C 204.401 86.735, 205.513 86.323, 206.573 85.521 C 208.681 83.926, 207.400 83.461, 205.029 84.961 M 254 85.059 C 254 85.641, 254.450 85.840, 255 85.500 C 255.550 85.160, 256 84.684, 256 84.441 C 256 84.198, 255.550 84, 255 84 C 254.450 84, 254 84.477, 254 85.059 M 83.593 86.250 C 84.895 88.539, 87.298 91, 88.231 91 C 89.334 91, 84.855 85.135, 83.691 85.055 C 83.246 85.025, 83.202 85.563, 83.593 86.250 M 378.500 87 C 378.840 87.550, 379.316 88, 379.559 88 C 379.802 88, 380 87.550, 380 87 C 380 86.450, 379.523 86, 378.941 86 C 378.359 86, 378.160 86.450, 378.500 87 M 398 86.771 C 394.766 87.842, 387.685 94.509, 386.325 97.764 C 385.537 99.652, 383.733 102.269, 382.318 103.581 C 380.048 105.685, 379.947 106.042, 381.457 106.622 C 382.741 107.115, 382.854 107.472, 381.908 108.057 C 380.982 108.629, 381.486 109.790, 383.810 112.436 C 385.548 114.416, 387.251 117.153, 387.594 118.518 C 388.365 121.591, 388.802 121.598, 392.298 118.591 C 398.207 113.509, 410.625 114.341, 423.762 120.700 C 430.662 124.039, 431.590 126.955, 427.068 131.085 C 425.313 132.688, 423.117 134.008, 422.188 134.018 C 421.260 134.028, 418.066 135.378, 415.090 137.018 C 407.572 141.162, 405.853 140.915, 399.301 134.750 C 393.600 129.387, 390.365 123.864, 391.660 121.706 C 392.196 120.812, 391.986 120.822, 390.850 121.741 C 390.006 122.424, 389.020 122.687, 388.658 122.325 C 388.296 121.963, 388 122.154, 388 122.750 C 388 123.346, 388.418 123.983, 388.929 124.167 C 390.048 124.569, 385.023 132.167, 383.250 132.753 C 382.510 132.998, 382 132.292, 382 131.024 C 382 129.846, 381.550 129.160, 381 129.500 C 380.450 129.840, 380 129.165, 380 128 C 380 126.835, 380.403 126.131, 380.895 126.435 C 381.388 126.740, 382.048 126.316, 382.364 125.494 C 382.724 124.554, 382.347 124, 381.346 124 C 380.048 124, 379.984 123.725, 380.995 122.507 C 381.991 121.306, 381.908 120.326, 380.570 117.507 C 379.655 115.578, 378.815 114.001, 378.703 114.002 C 378.591 114.004, 378.447 115.241, 378.382 116.752 C 378.212 120.709, 375.814 128.739, 375.263 127.197 C 374.919 126.233, 374.442 126.363, 373.431 127.697 C 372.129 129.414, 372.061 129.405, 372.001 127.500 L 371.939 125.500 370.780 127.500 C 370.142 128.600, 369.685 129.602, 369.764 129.726 C 369.842 129.850, 369.276 131.168, 368.504 132.654 C 366.826 135.890, 367.324 137, 370.452 137 C 371.736 137, 373.045 137.675, 373.362 138.500 C 373.678 139.325, 373.541 140, 373.057 140 C 371.778 140, 372.464 143.321, 373.837 143.779 C 374.477 143.992, 375 145.029, 375 146.083 C 375 147.137, 375.477 148, 376.059 148 C 376.641 148, 376.848 147.563, 376.518 147.029 C 376.188 146.495, 377.127 145.755, 378.605 145.384 C 380.521 144.903, 382.753 145.459, 386.392 147.323 C 390.794 149.578, 391.687 149.741, 392.911 148.518 C 394.072 147.356, 394.096 146.821, 393.042 145.550 C 392.334 144.698, 391.135 144, 390.378 144 C 388.526 144, 388.620 142.083, 390.508 141.359 C 392.327 140.661, 396.864 143.456, 397.731 145.808 C 398.074 146.739, 398.711 147.744, 399.148 148.041 C 400.850 149.201, 394.929 154, 391.710 154.070 C 389.009 154.129, 388.817 154.277, 390.500 155 C 391.600 155.473, 391.965 155.891, 391.312 155.930 C 390.659 155.968, 390.192 156.900, 390.275 158 C 390.393 159.570, 391.142 160, 393.759 160 C 395.592 160, 399.205 161.125, 401.788 162.500 C 407.153 165.356, 410.211 165.656, 412 163.500 C 412.685 162.675, 413.666 162, 414.180 162 C 415.185 162, 423.925 152.935, 423.972 151.844 C 423.987 151.483, 424.788 151.372, 425.750 151.598 C 428.357 152.210, 436.660 145.586, 438.976 141.048 C 440.099 138.846, 440.989 135.170, 440.975 132.790 C 440.954 129.169, 440.321 127.833, 436.917 124.227 C 434.699 121.876, 432.476 120.206, 431.978 120.514 C 431.479 120.822, 431.749 119.453, 432.576 117.471 C 433.814 114.511, 433.865 113.268, 432.864 110.500 C 431.962 108.006, 431.936 106.782, 432.766 105.782 C 433.448 104.960, 433.543 103.878, 433.009 103.014 C 432.527 102.234, 432.298 101.327, 432.501 100.998 C 432.704 100.669, 432.021 99.869, 430.982 99.221 C 428.765 97.836, 427.090 99.490, 428.887 101.287 C 430.797 103.197, 430.137 103.762, 425.926 103.820 C 422.784 103.864, 421.184 103.238, 418.926 101.080 C 417.317 99.542, 416 97.589, 416 96.740 C 416 95.022, 411.147 93, 407.025 93 C 404.579 93, 398.994 88.602, 399.833 87.336 C 400.391 86.495, 399.583 86.246, 398 86.771 M 26 92.539 C 26 92.909, 27.125 94.097, 28.500 95.179 C 31.260 97.350, 31.856 99.266, 29.489 98.357 C 28.407 97.942, 28.153 98.236, 28.596 99.389 C 28.936 100.275, 28.926 101, 28.575 101 C 28.223 101, 27.529 99.987, 27.031 98.750 C 26.162 96.587, 26.124 96.607, 26.063 99.250 C 26.029 100.763, 26.450 102, 27 102 C 27.550 102, 27.888 102.554, 27.750 103.232 C 27.591 104.016, 28.861 104.508, 31.250 104.588 C 34.700 104.702, 35 104.493, 35 101.977 C 35 99.947, 33.838 98.289, 30.500 95.554 C 28.025 93.525, 26 92.169, 26 92.539 M 89.564 93.293 C 89.940 94.279, 90.499 94.834, 90.807 94.526 C 91.115 94.219, 90.808 93.412, 90.124 92.733 C 89.136 91.753, 89.022 91.868, 89.564 93.293 M 196.584 94.359 C 196.931 95.261, 197.916 96, 198.774 96 C 199.631 96, 200.146 95.873, 199.917 95.717 C 199.688 95.561, 198.702 94.823, 197.727 94.076 C 196.184 92.893, 196.036 92.930, 196.584 94.359 M 246.079 94.559 C 246.036 95.141, 245.402 96.436, 244.671 97.435 C 243.549 98.970, 242.964 99.069, 240.921 98.070 L 238.500 96.887 240.861 98.944 C 242.159 100.075, 243.546 101, 243.942 101 C 245.154 101, 247.266 96.282, 246.695 94.849 C 246.400 94.107, 246.122 93.976, 246.079 94.559 M 95.885 97.839 C 96.997 99.400, 98.707 101.313, 99.684 102.089 C 100.662 102.865, 99.970 101.588, 98.147 99.250 C 94.435 94.491, 92.755 93.442, 95.885 97.839 M 47.177 103.445 C 47.354 109.863, 47.415 110, 50.071 110 C 52.102 110, 52.935 109.396, 53.387 107.593 C 53.720 106.269, 54.267 104.469, 54.603 103.593 C 55.026 102.490, 54.642 101.995, 53.357 101.985 C 51.828 101.973, 51.921 101.753, 53.888 100.735 C 57.658 98.785, 56.897 97.525, 51.748 97.195 L 46.997 96.890 47.177 103.445 M 191.276 98.329 C 191.755 99.767, 195 100.518, 195 99.190 C 195 98.664, 194.074 97.991, 192.943 97.695 C 191.634 97.353, 191.028 97.584, 191.276 98.329 M 239 100.971 C 239 102.211, 241.614 104.052, 242.342 103.325 C 243.512 102.155, 243.045 101.245, 241 100.710 C 239.900 100.423, 239 100.540, 239 100.971 M 48.500 103 C 48.840 103.550, 50.104 103.968, 51.309 103.930 C 53.421 103.862, 53.428 103.829, 51.500 103 C 48.748 101.817, 47.769 101.817, 48.500 103 M 189.116 103.750 C 189.052 104.987, 189.563 106.016, 190.250 106.036 C 190.938 106.056, 190.150 107.179, 188.500 108.531 C 186.410 110.244, 185.994 110.992, 187.128 110.995 C 188.023 110.998, 189.315 110.325, 190 109.500 C 190.685 108.675, 192.566 108, 194.181 108 C 197.804 108, 197.095 106.469, 193.102 105.670 C 191.453 105.341, 189.958 104.296, 189.697 103.291 C 189.334 101.893, 189.207 101.993, 189.116 103.750 M 259.339 103.202 C 258.218 104.937, 258.273 108.336, 259.436 109.174 C 259.988 109.572, 259.828 110.503, 259.044 111.447 C 257.899 112.826, 257.961 112.952, 259.495 112.364 C 260.764 111.876, 261.134 112.084, 260.789 113.091 C 260.522 113.866, 261.384 115.513, 262.704 116.750 C 264.023 117.987, 264.823 119, 264.480 119 C 264.137 119, 264.605 119.748, 265.519 120.661 C 266.798 121.941, 267.792 122.108, 269.840 121.387 C 271.303 120.873, 272.357 120.052, 272.182 119.564 C 272.007 119.076, 273.245 118.096, 274.932 117.387 C 278.508 115.883, 278.946 113.435, 275.816 112.442 C 273.672 111.761, 273.681 111.723, 276.316 110.342 C 277.792 109.569, 279 108.733, 279 108.485 C 279 108.237, 276.863 106.961, 274.250 105.649 C 268.265 102.645, 260.520 101.374, 259.339 103.202 M 29.504 106.373 C 27.684 107.704, 27.690 107.767, 29.710 108.408 C 31.175 108.873, 31.642 109.654, 31.281 111.035 C 30.889 112.531, 31.272 113, 32.883 113 C 35.160 113, 35.811 110.494, 33.750 109.662 C 32.750 109.259, 32.750 109.142, 33.750 109.079 C 35.545 108.966, 35.293 106.326, 33.418 105.607 C 31.401 104.833, 31.688 104.777, 29.504 106.373 M 0.310 111.500 C 0.315 114.800, 0.502 116.029, 0.725 114.232 C 0.947 112.435, 0.943 109.735, 0.715 108.232 C 0.486 106.729, 0.304 108.200, 0.310 111.500 M 245 108.941 C 245 109.459, 245.445 110.157, 245.989 110.493 C 246.555 110.843, 246.723 110.442, 246.382 109.552 C 245.717 107.820, 245 107.503, 245 108.941 M 271.510 110.016 C 271.856 110.575, 272.557 110.774, 273.069 110.457 C 274.456 109.600, 274.198 109, 272.441 109 C 271.584 109, 271.165 109.457, 271.510 110.016 M 176.872 116.750 C 175.629 118.336, 175.664 118.371, 177.250 117.128 C 178.213 116.373, 179 115.585, 179 115.378 C 179 114.555, 178.179 115.084, 176.872 116.750 M 0.343 130.500 C 0.346 134.900, 0.522 136.576, 0.733 134.224 C 0.945 131.872, 0.942 128.272, 0.727 126.224 C 0.512 124.176, 0.339 126.100, 0.343 130.500 M 102.500 124.976 C 89.338 126.072, 83.110 127.886, 81.444 131.109 C 80.147 133.616, 80.183 133.923, 81.832 134.447 C 85.117 135.489, 89.333 140.784, 89.333 143.867 C 89.333 146.579, 89.643 146.812, 93.884 147.290 C 97.169 147.661, 99.069 148.541, 100.717 150.457 C 104.908 155.330, 102.764 158, 94.658 158 L 90.184 158 91.740 162.868 C 92.854 166.351, 93.753 167.642, 94.899 167.407 C 101.325 166.088, 128.655 164.556, 127.711 165.567 C 127.277 166.031, 123.002 166.712, 118.211 167.079 C 113.420 167.446, 107.700 168.459, 105.500 169.329 C 100.615 171.263, 101.755 171.335, 113.154 169.818 C 119.917 168.917, 122.313 168.913, 123.201 169.801 C 123.842 170.442, 124.068 171.265, 123.703 171.630 C 123.338 171.996, 116.673 172.661, 108.891 173.109 C 101.110 173.557, 94.531 174.135, 94.272 174.395 C 94.012 174.655, 94.102 175.356, 94.472 175.954 C 94.895 176.640, 97.423 176.855, 101.322 176.537 C 104.720 176.259, 111.775 175.760, 117 175.428 C 122.225 175.096, 127.400 174.696, 128.500 174.540 C 129.600 174.383, 134.361 174.198, 139.080 174.128 L 147.661 174 150.816 169.607 L 153.971 165.214 143.985 164.499 L 134 163.784 134 159.892 C 134 157.242, 134.442 156, 135.386 156 C 136.148 156, 138.060 155.314, 139.636 154.476 C 141.691 153.383, 145.141 152.997, 151.850 153.111 L 161.200 153.270 163.100 149.026 C 164.145 146.691, 165 144.375, 165 143.877 C 165 143.379, 166.329 140.182, 167.953 136.772 C 169.577 133.363, 170.783 130.450, 170.633 130.299 C 170.320 129.987, 143.884 128.022, 139.815 128.009 C 137.252 128, 137.074 128.339, 135.872 135.492 C 134.627 142.897, 134.598 142.949, 133.326 139.925 C 132.148 137.123, 123.861 126.500, 121.500 124.765 C 120.368 123.933, 114.196 124.002, 102.500 124.976 M 21 125.378 C 21 125.585, 21.788 126.373, 22.750 127.128 C 24.336 128.371, 24.371 128.336, 23.128 126.750 C 21.821 125.084, 21 124.555, 21 125.378 M 74 128.893 C 74 130.578, 75.794 132, 77.921 132 C 78.338 132, 79.192 130.875, 79.818 129.500 C 80.914 127.094, 80.826 127, 77.479 127 C 74.732 127, 74 127.398, 74 128.893 M 371.730 134.075 C 372.331 136.373, 372.609 136.461, 373.330 134.583 C 373.629 133.803, 373.278 132.937, 372.550 132.658 C 371.646 132.311, 371.386 132.761, 371.730 134.075 M 248 138.409 C 248 138.599, 248.675 139.315, 249.500 140 C 250.365 140.718, 251 140.815, 251 140.229 C 251 139.671, 250.325 138.955, 249.500 138.638 C 248.675 138.322, 248 138.219, 248 138.409 M 247.220 141.981 C 247.900 143.070, 249.131 144.220, 249.955 144.536 C 250.779 144.852, 250.373 143.961, 249.052 142.556 C 246.174 139.492, 245.542 139.293, 247.220 141.981 M 265.500 143 C 265.840 143.550, 266.316 144, 266.559 144 C 266.802 144, 267 143.550, 267 143 C 267 142.450, 266.523 142, 265.941 142 C 265.359 142, 265.160 142.450, 265.500 143 M 188.613 144.183 C 188.902 144.650, 189.557 144.774, 190.069 144.457 C 191.377 143.649, 191.230 143.333, 189.544 143.333 C 188.743 143.333, 188.324 143.716, 188.613 144.183 M 191.446 145.087 C 191.077 145.685, 191.341 146.698, 192.034 147.337 C 193.018 148.245, 193.165 148.130, 192.703 146.815 C 192.378 145.888, 192.650 144.911, 193.306 144.644 C 194.227 144.269, 194.227 144.140, 193.309 144.079 C 192.654 144.036, 191.816 144.489, 191.446 145.087 M 0.415 165 C 0.415 175.175, 0.564 179.338, 0.745 174.250 C 0.927 169.162, 0.927 160.837, 0.745 155.750 C 0.564 150.662, 0.415 154.825, 0.415 165 M 134 148 C 134 148.550, 134.450 149, 135 149 C 135.550 149, 136 148.550, 136 148 C 136 147.450, 135.550 147, 135 147 C 134.450 147, 134 147.450, 134 148 M 251.653 149.218 C 250.902 152.089, 251.292 152.363, 252.767 150.001 C 253.423 148.951, 253.569 147.852, 253.093 147.558 C 252.617 147.263, 251.969 148.010, 251.653 149.218 M 24 150.383 C 24 151.633, 26.934 153.003, 29.500 152.953 C 30.722 152.929, 26.139 149, 24.889 149 C 24.400 149, 24 149.623, 24 150.383 M 376 151 C 377.572 152.016, 376.849 152.329, 373.500 152.084 C 371.669 151.950, 371.708 152.116, 373.957 154.047 C 376.285 156.045, 376.481 156.063, 377.707 154.386 C 379.649 151.731, 379.269 149.998, 376.750 150.015 C 374.931 150.028, 374.787 150.216, 376 151 M 200.500 155 C 200.840 155.550, 201.316 156, 201.559 156 C 201.802 156, 202 155.550, 202 155 C 202 154.450, 201.523 154, 200.941 154 C 200.359 154, 200.160 154.450, 200.500 155 M 209.507 154.989 C 209.157 155.555, 209.558 155.723, 210.448 155.382 C 212.180 154.717, 212.497 154, 211.059 154 C 210.541 154, 209.843 154.445, 209.507 154.989 M 269.079 155.750 C 269.036 156.988, 269.337 157.986, 269.750 157.968 C 271.179 157.908, 274.351 155.018, 273.701 154.368 C 273.342 154.009, 272.406 154.248, 271.621 154.899 C 270.514 155.819, 270.079 155.795, 269.676 154.792 C 269.391 154.081, 269.122 154.512, 269.079 155.750 M 25.544 157.929 C 25.169 158.536, 24.385 158.738, 23.801 158.377 C 23.192 158.001, 22.937 158.313, 23.202 159.111 C 23.871 161.124, 29.209 162.868, 29.749 161.250 C 29.979 160.563, 31.029 160, 32.083 160 C 33.138 160, 34 159.578, 34 159.062 C 34 158.546, 33.212 158.135, 32.250 158.148 C 31.288 158.162, 29.538 157.869, 28.363 157.499 C 27.156 157.119, 25.929 157.306, 25.544 157.929 M 200.079 158.583 C 200.127 159.748, 200.364 159.985, 200.683 159.188 C 200.972 158.466, 200.936 157.603, 200.604 157.271 C 200.272 156.939, 200.036 157.529, 200.079 158.583 M 85.523 162.291 C 83.397 167.379, 83.572 168, 87.131 168 C 90.177 168, 90.246 167.901, 89.667 164.336 C 88.762 158.757, 87.301 158.036, 85.523 162.291 M 62.037 164.402 C 60.647 168.059, 60.729 170.724, 62.250 171.338 C 63.250 171.741, 63.250 171.858, 62.250 171.921 C 61.563 171.964, 61 172.483, 61 173.073 C 61 174.563, 64.471 173.761, 64.625 172.236 C 64.694 171.556, 64.854 170.662, 64.981 170.250 C 65.479 168.632, 64.784 163.451, 63.953 162.587 C 63.435 162.049, 62.648 162.794, 62.037 164.402 M 94 170.213 C 94 171.319, 96.760 171.197, 97.463 170.061 C 97.782 169.544, 97.134 169.190, 96.022 169.273 C 94.910 169.357, 94 169.780, 94 170.213 M 80.500 170.850 C 79.400 171.207, 77.600 172.062, 76.500 172.749 L 74.500 173.999 76.500 175.561 C 77.733 176.525, 79.554 176.918, 81.250 176.587 C 82.763 176.292, 84 176.388, 84 176.801 C 84 177.215, 85.821 177.379, 88.047 177.167 C 93.066 176.688, 92.807 174.624, 87.673 174.190 C 82.993 173.794, 82.852 172, 87.500 172 C 89.425 172, 91 171.550, 91 171 C 91 169.909, 83.713 169.805, 80.500 170.850 M 382.010 174.892 C 380.250 175.382, 379.897 175.818, 380.804 176.379 C 381.520 176.822, 382.742 176.629, 383.568 175.944 C 384.382 175.268, 385.337 175.004, 385.691 175.357 C 386.044 175.711, 385.824 176, 385.202 176 C 384.580 176, 383.635 176.814, 383.103 177.808 C 382.250 179.402, 382.619 179.646, 386.215 179.858 C 388.459 179.990, 390.721 180.189, 391.241 180.299 C 391.761 180.410, 392.681 179.750, 393.285 178.834 C 395.803 175.017, 389.491 172.810, 382.010 174.892 M 58.446 177.087 C 58.077 177.685, 58.236 178.636, 58.800 179.200 C 60.039 180.439, 65.182 178.955, 65.771 177.188 C 66.280 175.660, 59.386 175.566, 58.446 177.087 M 52.828 183.724 C 49.775 184.046, 48.975 184.632, 48.078 187.205 C 46.421 191.958, 46.737 192.841, 50.250 193.277 C 53.401 193.668, 53.384 193.685, 49.691 193.840 C 47.596 193.928, 46.095 194.344, 46.354 194.764 C 46.614 195.185, 50.874 195.110, 55.822 194.598 C 64.714 193.678, 64.823 193.634, 65.408 190.709 C 65.734 189.081, 66 186.681, 66 185.375 C 66 183.185, 65.631 183.013, 61.250 183.168 C 58.638 183.261, 54.848 183.511, 52.828 183.724 M 83.107 187.803 C 83.247 190.445, 83.049 193.111, 82.668 193.728 C 82.287 194.345, 82.528 196.065, 83.204 197.549 C 84.397 200.166, 84.626 200.231, 90.670 199.666 C 94.100 199.346, 102.615 199.752, 109.593 200.569 C 121.428 201.954, 126.940 201.904, 120.368 200.473 C 109.465 198.097, 103.604 195.676, 99.420 191.820 C 96.989 189.579, 95 187.143, 95 186.408 C 95 184.419, 91.664 183, 86.992 183 L 82.852 183 83.107 187.803 M 0.195 186.500 C 0.215 188.150, 0.439 188.704, 0.693 187.731 C 0.947 186.758, 0.930 185.408, 0.656 184.731 C 0.382 184.054, 0.175 184.850, 0.195 186.500 M 97 185.570 C 97 187.491, 101.589 192.105, 105.257 193.874 C 108.983 195.671, 122 199.297, 122 198.538 C 122 198.382, 121.102 196.225, 120.005 193.745 C 117.784 188.724, 116.365 188.035, 108.200 188.014 C 105.286 188.006, 101.573 187.313, 99.950 186.474 C 98.328 185.635, 97 185.228, 97 185.570 M 10.583 190.643 C 9.746 192.825, 10.858 193.839, 12.039 191.971 C 13.222 190.101, 13.247 189, 12.107 189 C 11.616 189, 10.930 189.739, 10.583 190.643 M 7.125 195.401 C 6.470 196.997, 6.099 198.796, 6.300 199.399 C 6.864 201.093, 9.180 196.118, 8.721 194.198 C 8.416 192.925, 8.017 193.226, 7.125 195.401 M 10.942 195.651 C 10.388 197.110, 10.062 198.670, 10.217 199.119 C 10.743 200.636, 12.837 198.499, 13.529 195.740 C 14.434 192.135, 12.307 192.062, 10.942 195.651 M 57 197.974 C 57 198.843, 62.058 202, 63.450 202 C 63.753 202, 64 201.152, 64 200.117 C 64 199.009, 63.073 197.985, 61.750 197.630 C 58.492 196.757, 57 196.865, 57 197.974 M 0.158 201 C 0.158 202.375, 0.385 202.938, 0.662 202.250 C 0.940 201.563, 0.940 200.438, 0.662 199.750 C 0.385 199.063, 0.158 199.625, 0.158 201 M 51.314 214.573 C 39.682 215.902, 38 216.381, 38 218.357 C 38 220.695, 50.929 228.237, 54.131 227.768 C 56.874 227.365, 56.874 227.365, 55.488 230.682 C 53.889 234.509, 55.106 235.257, 56.818 231.500 C 57.445 230.125, 58.802 229, 59.835 229 C 61.436 229, 61.811 227.941, 62.380 221.823 C 62.747 217.876, 62.699 214.368, 62.273 214.028 C 61.848 213.687, 56.916 213.933, 51.314 214.573" stroke="none" fill="black" fill-rule="evenodd"/>
</svg>