<svg xmlns="http://www.w3.org/2000/svg" width="446" height="251" viewBox="0 0 446 251" version="1.1">
	<path d="M 164.796 13 L 165.265 26 157.883 26.100 C 153.822 26.156, 136.438 26.115, 119.250 26.011 C 90.798 25.838, 88 25.968, 88 27.471 C 88 28.972, 90.824 29.110, 119.250 28.996 C 136.438 28.927, 153.723 28.900, 157.662 28.935 L 164.824 29 165.392 32.750 C 165.704 34.813, 166.460 46.400, 167.072 58.500 C 167.956 75.971, 168.496 80.744, 169.695 81.685 C 171.810 83.345, 169.456 83.660, 137.823 85.955 C 111.409 87.871, 111.107 87.870, 107.122 85.945 C 102.083 83.510, 97.681 83.508, 92.331 85.937 C 87.645 88.064, 86.770 89.349, 84.051 98.083 C 81.872 105.086, 82.580 109.440, 85.718 108.334 C 87.174 107.821, 87.271 107.952, 86.250 109.053 C 84.263 111.194, 84.742 115.585, 87.136 117.174 L 89.271 118.592 86.487 120.417 C 83.735 122.220, 83.612 122.204, 76.101 119.113 C 71.920 117.392, 67.493 115.987, 66.263 115.992 C 64.214 115.999, 64.064 115.626, 64.475 111.560 C 64.722 109.118, 66.066 104.406, 67.462 101.090 C 68.858 97.774, 70 94.202, 70 93.152 C 70 90.470, 72.586 84.589, 74.442 83.048 C 75.700 82.004, 76.294 81.999, 77.524 83.020 C 79.920 85.008, 80.571 83.236, 78.643 79.973 C 76.922 77.059, 76.937 76.949, 79.565 73.504 C 81.035 71.577, 81.734 70, 81.119 70 C 79.686 70, 79.698 67.159, 81.152 61.722 C 82.230 57.693, 82.117 57.129, 79.402 52.958 C 77.806 50.506, 76.154 48.347, 75.732 48.161 C 75.310 47.974, 74.410 47.273, 73.732 46.603 C 71.475 44.371, 63.177 42.702, 57.336 43.305 C 52.502 43.804, 51.215 44.414, 48.048 47.710 C 45.199 50.675, 44.070 52.958, 43.030 57.858 L 41.688 64.180 37.844 63.590 C 25.398 61.679, 26.292 61.625, 24.471 64.403 C 23.133 66.445, 21.958 67, 18.967 67 C 13.451 67, 12 67.831, 12 70.990 C 12 72.980, 11.398 73.924, 9.876 74.322 C 8.184 74.765, 7.880 75.385, 8.380 77.377 C 8.725 78.752, 8.578 80.143, 8.054 80.467 C 7.529 80.791, 5.615 83.856, 3.800 87.278 L 0.500 93.500 0.205 172.250 L -0.090 251 114.562 251 C 223.358 251, 229.178 250.911, 228.505 249.250 C 228.115 248.287, 226.681 244.575, 225.318 241 C 222.202 232.826, 219.167 228.810, 214.117 226.178 C 211.933 225.040, 209.326 223.656, 208.323 223.103 C 205.594 221.597, 199.972 219.319, 195.764 218.013 C 191.394 216.657, 190.289 215.479, 193.182 215.261 C 195.931 215.054, 196.612 214.212, 195.183 212.783 C 193.202 210.802, 193.838 210, 197.393 210 C 199.536 210, 201.005 209.429, 201.381 208.449 C 201.827 207.287, 203.155 206.973, 206.673 207.199 L 211.369 207.500 212.599 203.325 C 213.276 201.028, 214.881 197.714, 216.165 195.960 L 218.500 192.771 225.847 193.316 C 229.888 193.615, 233.402 194.069, 233.657 194.324 C 233.913 194.579, 232.938 195.971, 231.493 197.416 C 229.473 199.436, 227.496 200.188, 222.961 200.662 C 219.073 201.068, 216.483 201.914, 215.374 203.139 C 213.793 204.886, 213.802 205.124, 215.521 207.024 C 216.770 208.404, 217.678 208.722, 218.376 208.024 C 218.939 207.461, 221.544 207, 224.165 207 C 228.003 207, 229.151 207.414, 230.069 209.129 C 231.084 211.026, 231.809 211.196, 236.707 210.691 C 243.578 209.982, 246 207.951, 246 202.902 C 246 200.133, 245.394 198.665, 243.750 197.448 C 241.594 195.853, 241.773 195.811, 248 196.447 C 255.306 197.193, 259.879 197.589, 271.599 198.489 C 278.553 199.023, 280.178 198.833, 283.099 197.145 C 284.969 196.064, 289.313 194.404, 292.750 193.458 C 299.207 191.679, 299.945 191.029, 297.659 189.132 C 296.662 188.304, 293.937 188.539, 287.024 190.048 C 277.375 192.154, 273.030 192.112, 278.846 189.970 C 281.289 189.070, 281.829 188.507, 280.846 187.884 C 280.018 187.359, 281.883 187.025, 285.691 187.015 C 289.138 187.007, 292.187 186.507, 292.569 185.888 C 293.897 183.739, 290.745 183.281, 283.773 184.609 C 279.899 185.347, 276.408 185.752, 276.014 185.509 C 275.620 185.265, 275.343 183.833, 275.399 182.327 C 275.498 179.650, 275.622 179.596, 281 179.880 C 284.025 180.040, 286.725 180.208, 287 180.254 C 287.275 180.299, 289.075 180.044, 291 179.686 C 300.370 177.945, 300.864 178.001, 301.193 180.846 C 301.403 182.659, 302.055 183.456, 303.250 183.361 C 304.212 183.285, 305 183.572, 305 184 C 305 184.428, 305.563 184.757, 306.250 184.731 C 311.594 184.533, 312.297 186.838, 309.445 195.207 C 308.055 199.286, 307.445 199.892, 303.695 200.910 C 301.388 201.537, 295.324 202.188, 290.219 202.356 C 278.394 202.746, 276.126 204.449, 286.198 205.374 C 298.207 206.477, 306 208.089, 306 209.471 C 306 210.167, 303.053 212.460, 299.452 214.566 C 295.004 217.167, 291.126 220.568, 287.364 225.166 C 280.777 233.217, 273.622 238, 268.164 238 C 263.535 238, 246.886 234.529, 243.760 232.912 C 242.517 232.269, 240.825 231.176, 240 230.483 C 239.175 229.790, 236.972 228.897, 235.104 228.500 C 231.896 227.817, 231.743 227.907, 232.333 230.139 C 232.677 231.437, 233.923 236.662, 235.102 241.750 L 237.247 251 336.687 251 L 436.128 251 435.814 247.750 C 435.614 245.683, 434.274 243.262, 432.130 241.097 C 430.277 239.226, 429.377 237.922, 430.130 238.201 C 430.884 238.479, 434.570 239.721, 438.322 240.959 C 444.795 243.096, 447.534 245.423, 445.256 246.851 C 444.584 247.273, 444.708 247.951, 445.611 248.789 C 446.796 249.889, 446.983 239.077, 446.883 175.289 C 446.819 134.155, 446.411 97.575, 445.977 94 C 445.428 89.480, 445.246 93.364, 445.380 106.750 C 445.591 127.953, 445.364 128.639, 439.875 123.380 C 437.713 121.309, 437.317 120.297, 437.983 118.545 C 438.446 117.327, 438.977 113.893, 439.163 110.915 C 439.428 106.649, 439.182 105.479, 438 105.403 C 437.175 105.350, 435.825 105.045, 435 104.725 C 434.175 104.404, 432.375 104.223, 431 104.321 L 428.500 104.500 428.227 86.022 C 427.968 68.555, 428.062 67.461, 429.950 66.022 C 431.400 64.918, 431.685 64.088, 430.989 63 C 430.352 62.002, 430.025 61.919, 430.015 62.750 C 430.007 63.438, 429.550 64, 429 64 C 428.429 64, 428 61.020, 428 57.059 C 428 53.241, 427.551 49.840, 427.002 49.501 C 426.385 49.120, 426.018 40.707, 426.043 27.523 L 426.083 6.162 429.791 5.622 C 431.831 5.326, 436.313 4.795, 439.750 4.443 C 444.751 3.931, 446 3.459, 446 2.081 C 446 0.547, 445.288 0.443, 439.533 1.136 C 435.975 1.564, 429.721 2.119, 425.633 2.368 C 421.546 2.618, 417.281 3.314, 416.157 3.916 C 415.033 4.518, 412.269 5.082, 410.015 5.171 C 407.317 5.276, 406.359 5.630, 407.209 6.207 C 407.975 6.726, 406.567 6.816, 403.750 6.428 C 399.708 5.870, 399 6.023, 399 7.454 C 399 8.588, 399.569 8.964, 400.750 8.609 C 404.380 7.518, 416.776 6.828, 417.307 7.688 C 417.612 8.181, 416.880 8.648, 415.681 8.726 C 404.441 9.453, 401 10.218, 401 11.986 C 401 13.190, 401.596 13.695, 402.750 13.468 C 403.713 13.279, 407.383 12.870, 410.907 12.561 L 417.314 11.998 416.713 37.155 C 416.102 62.719, 415.749 64.803, 412.250 63.521 C 411.563 63.269, 411 63.499, 411 64.031 C 411 64.564, 412.076 65, 413.392 65 C 416.091 65, 416.668 66.554, 416.921 74.500 L 417.081 79.500 408.540 79.177 C 401.146 78.896, 400 79.074, 400 80.500 C 400 81.926, 401.149 82.104, 408.580 81.823 L 417.160 81.500 416.960 87 C 416.663 95.213, 416.810 96.010, 418.500 95.362 C 419.525 94.968, 420 95.419, 420 96.785 C 420 98.030, 420.858 98.998, 422.275 99.354 C 423.609 99.689, 425.212 101.387, 426.153 103.462 C 428.055 107.660, 427.262 107.987, 423.924 104.380 C 419.614 99.722, 414.058 96.774, 410.397 97.202 C 407.494 97.541, 406.928 97.232, 406.099 94.854 C 405.574 93.348, 403.282 90.940, 401.005 89.503 C 397.295 87.161, 396.503 87.009, 393.384 88.038 C 389.553 89.303, 386.283 92.284, 384.931 95.745 C 384.261 97.458, 384.640 98.854, 386.527 101.634 C 389.085 105.404, 389.743 107.577, 388 106.500 C 387.450 106.160, 387 105.286, 387 104.558 C 387 103.829, 386.100 102.998, 385 102.710 C 383.554 102.332, 383 101.346, 383 99.153 C 383 96.281, 381.735 94.604, 379.500 94.512 C 377.887 94.445, 369.760 89.907, 370.295 89.372 C 370.564 89.103, 372.462 89.584, 374.514 90.441 L 378.244 92 376.608 89.750 C 372.006 83.422, 373.568 82, 385.122 82 C 392.347 82, 394 81.721, 394 80.500 C 394 79.286, 392.406 79, 385.652 79 L 377.304 79 375.500 75 C 374.508 72.800, 373.159 71, 372.503 71 C 371.847 71, 370.546 70.156, 369.612 69.124 C 367.309 66.578, 361.214 65.644, 359.313 67.544 C 358.512 68.345, 356.852 69, 355.624 69 C 352.973 69, 346 75.075, 346 77.385 C 346 78.273, 345.325 79, 344.500 79 C 342.603 79, 342.640 77.202, 344.605 74 C 345.448 72.625, 345.887 72.311, 345.581 73.302 C 345.256 74.352, 345.435 74.849, 346.011 74.493 C 346.613 74.121, 346.923 67.160, 346.804 56.691 C 346.627 41.132, 346.556 40.497, 346.054 50 L 345.500 60.500 344.659 52.500 C 344.196 48.100, 343.746 39.325, 343.659 33 C 343.530 23.660, 343.761 21.556, 344.887 21.796 C 345.650 21.958, 347.225 21.238, 348.387 20.195 C 350.130 18.631, 353.826 17.999, 369.500 16.588 C 394.285 14.357, 395 14.238, 395 12.327 C 395 11.060, 394.253 10.862, 391.250 11.337 C 389.188 11.663, 382.325 12.409, 376 12.995 C 369.675 13.581, 360.675 14.493, 356 15.022 C 351.325 15.551, 346.262 15.987, 344.750 15.992 L 342 16 342 8 C 342 -2.554, 340.164 -2.361, 339.790 8.232 L 339.500 16.465 323 18.224 C 298.553 20.830, 286.888 21.929, 283.250 21.966 L 280 22 280 27.349 L 280 32.697 285.250 31.946 C 288.137 31.533, 293.988 30.931, 298.250 30.610 L 306 30.026 306.216 43.263 L 306.432 56.500 306.749 44.017 C 307.207 25.946, 309 26.125, 309 44.241 C 309 52.923, 308.593 59.134, 308 59.500 C 306.798 60.243, 306.653 64, 307.827 64 C 308.282 64, 308.449 65.396, 308.198 67.101 C 307.876 69.301, 307.494 69.810, 306.887 68.851 C 306.223 67.803, 306.027 67.892, 306.015 69.250 C 306.002 70.814, 304.780 71, 294.500 71 L 283 71 283 74.327 C 283 77.475, 283.174 77.637, 286.250 77.353 L 289.500 77.052 286.250 78.171 C 284.462 78.786, 283 79.674, 283 80.145 C 283 80.615, 288.676 81, 295.612 81 L 308.225 81 307.494 95.250 C 307.091 103.088, 306.325 109.777, 305.791 110.115 C 305.256 110.453, 304.287 111.803, 303.637 113.115 C 302.144 116.125, 296.028 116.904, 292.424 114.542 C 289.419 112.573, 289.338 113.224, 292.180 116.492 C 293.944 118.521, 295.282 119, 299.180 119 L 304 119 304 123.671 C 304 128.692, 301.842 132.260, 299.377 131.314 C 298.196 130.861, 298.253 130.535, 299.695 129.481 C 301.263 128.335, 301 128.077, 297.229 127.062 C 293.859 126.154, 292.189 124.817, 288.947 120.429 C 286.441 117.037, 285.096 114.273, 285.433 113.211 C 285.766 112.162, 284.811 110.127, 282.985 107.995 C 281.338 106.073, 278.530 102.363, 276.745 99.752 C 274.960 97.140, 273.050 94.980, 272.500 94.950 C 270.922 94.866, 265.980 88.160, 253.745 69.500 C 250.084 63.915, 247.896 61.500, 246.500 61.500 C 244.046 61.500, 244.257 63.940, 246.993 67.202 C 250.956 71.927, 258.648 82.557, 259.228 84.110 C 259.891 85.885, 253.125 92.191, 249.232 93.426 C 245.990 94.455, 244 96.802, 244 99.596 C 244 101.310, 243.226 102.344, 241.435 103.025 C 238.012 104.326, 235 104.260, 235 102.883 C 235 102.232, 236.041 101.966, 237.500 102.245 C 238.875 102.508, 240 102.258, 240 101.690 C 240 101.122, 240.719 99.863, 241.598 98.892 C 243.098 97.235, 242.723 94.435, 241.133 95.418 C 240.732 95.665, 239.751 95.455, 238.952 94.949 C 237.850 94.252, 237.818 94.027, 238.821 94.015 C 239.548 94.007, 240.859 93.284, 241.734 92.409 C 243.085 91.058, 243.112 90.684, 241.912 89.925 C 241.135 89.433, 239.825 89.017, 239 89 C 237.667 88.973, 237.667 88.852, 239 87.909 C 240.097 87.133, 240.173 86.714, 239.282 86.351 C 238.612 86.078, 237.777 84.328, 237.427 82.463 C 236.634 78.235, 234.768 76.620, 231.416 77.261 L 228.820 77.757 231.972 74.879 C 237.529 69.803, 243.760 71.421, 245.414 78.368 C 245.790 79.945, 246.293 81.041, 246.532 80.802 C 246.770 80.563, 246.555 78.935, 246.053 77.184 C 245.230 74.314, 245.355 73.989, 247.320 73.884 C 249.011 73.794, 249.108 73.665, 247.750 73.311 C 246.690 73.034, 246 71.897, 246 70.427 C 246 69, 245.416 68, 244.583 68 C 243.804 68, 242.980 67.441, 242.753 66.758 C 242.469 65.907, 239.886 65.525, 234.552 65.543 C 225.453 65.575, 223.695 66.883, 222.558 74.464 C 221.954 78.489, 221.589 79, 219.314 79 C 216.956 79, 216.802 79.262, 217.392 82.250 C 217.745 84.037, 219.393 87.695, 221.055 90.378 C 222.717 93.061, 223.871 95.462, 223.619 95.714 C 223.368 95.965, 222.588 95.120, 221.885 93.836 C 220.628 91.535, 220.590 91.561, 219.381 95.500 C 218.706 97.700, 218.085 98.825, 218 98 C 217.647 94.547, 217.077 92.677, 216.069 91.669 C 215.481 91.081, 215 89.318, 215 87.750 C 215 86.183, 214.364 83.670, 213.586 82.166 C 212.808 80.662, 211.878 77.646, 211.519 75.465 C 210.135 67.048, 208.619 62.114, 207.574 62.624 C 206.983 62.912, 207.374 62.440, 208.441 61.574 C 209.509 60.708, 210.694 60, 211.074 60 C 211.455 60, 212.011 59.064, 212.310 57.921 C 212.707 56.403, 212.469 55.990, 211.427 56.390 C 209.249 57.225, 209.719 54.878, 212.568 50.685 C 213.980 48.607, 214.916 46.365, 214.647 45.703 C 214.377 45.040, 214.122 45.285, 214.079 46.250 C 213.990 48.227, 212.038 48.681, 211.930 46.750 C 211.891 46.063, 211.473 46.400, 211 47.500 C 210.527 48.600, 210.109 48.963, 210.070 48.307 C 210.032 47.651, 209.098 47.288, 207.996 47.501 C 206.578 47.774, 205.548 47.027, 204.471 44.943 C 202.414 40.965, 201.999 41.241, 203.258 45.750 C 203.833 47.813, 204.351 51.525, 204.408 54 C 204.464 56.475, 204.933 59.160, 205.449 59.967 C 205.965 60.774, 206.412 66.043, 206.443 71.676 C 206.490 80.185, 206.225 82.051, 204.871 82.709 C 203.442 83.403, 203.710 84.481, 207.053 91.500 C 209.581 96.805, 210.887 100.979, 210.932 103.890 C 210.978 106.856, 211.567 108.694, 212.748 109.558 C 213.710 110.261, 214.199 111.135, 213.834 111.499 C 212.837 112.496, 209 110.135, 209 108.524 C 209 107.751, 208.485 106.800, 207.855 106.410 C 207.067 105.924, 206.865 106.512, 207.206 108.297 C 207.670 110.723, 207.502 110.854, 204.601 110.322 C 202.895 110.009, 200.920 109.023, 200.211 108.131 C 199.078 106.707, 198.806 106.691, 197.976 108.005 C 197.456 108.827, 197.017 109.050, 197 108.500 C 196.983 107.950, 196.572 108.128, 196.086 108.896 C 195.582 109.692, 194.487 110.017, 193.538 109.653 C 192.622 109.302, 192.140 108.582, 192.467 108.054 C 192.793 107.526, 193.229 104.719, 193.437 101.817 C 193.852 95.989, 192.364 92.069, 188.783 89.561 C 186.310 87.828, 177.050 87.425, 174.236 88.927 C 173.281 89.437, 171.691 90.106, 170.703 90.414 C 169.715 90.721, 169.001 91.542, 169.116 92.237 C 169.231 92.931, 169.040 94.625, 168.690 96 C 168.340 97.375, 167.924 100.714, 167.765 103.421 C 167.469 108.453, 165 111.389, 165 106.708 C 165 105.356, 164.735 102.927, 164.412 101.311 C 163.896 98.729, 163.470 98.424, 160.912 98.800 C 158.212 99.196, 158 99.541, 158 103.541 C 158 107.010, 157.484 108.261, 155.365 109.927 C 152.065 112.523, 151.911 112.516, 148.509 109.592 C 145.439 106.954, 142 105.951, 134.750 105.577 C 130.370 105.352, 130 105.515, 130 107.666 C 130 108.950, 129.585 110, 129.078 110 C 128.570 110, 127.628 111.596, 126.985 113.546 C 125.734 117.337, 120.283 121.503, 116.262 121.741 C 113.213 121.922, 111.340 115.895, 114.107 114.806 C 115.076 114.425, 116.383 113.153, 117.010 111.981 C 118.053 110.033, 117.978 109.942, 116.141 110.924 C 113.432 112.375, 113.524 112.456, 113.318 108.445 C 113.165 105.484, 113.555 104.740, 115.680 103.932 C 117.582 103.208, 118.089 102.449, 117.690 100.921 C 117.347 99.613, 117.724 98.659, 118.738 98.270 C 120.017 97.779, 119.886 97.502, 118.054 96.824 C 116.274 96.166, 115.917 95.467, 116.392 93.576 C 116.768 92.077, 116.524 90.997, 115.748 90.720 C 112.775 89.658, 116.327 89.121, 127.741 88.908 C 134.814 88.775, 141.120 88.156, 142.726 87.436 C 145.873 86.025, 174.322 84.083, 174.833 85.243 C 175.017 85.660, 175.579 86, 176.083 86 C 177.342 86, 177.246 83.249, 175.972 82.824 C 174.635 82.378, 171.789 29.631, 173.076 29.167 C 174.288 28.729, 174.268 26.261, 173.050 25.833 C 172.527 25.650, 171.829 21.225, 171.499 16 C 170.528 0.639, 170.353 0, 167.118 0 L 164.327 0 164.796 13 M 210.482 2.030 C 209.985 2.834, 214.409 12.002, 215.292 11.999 C 215.406 11.999, 215.569 10.805, 215.654 9.346 C 215.764 7.448, 215.555 7.093, 214.919 8.097 C 214.170 9.279, 214.010 9.264, 213.897 8 C 213.823 7.175, 213.846 5.892, 213.948 5.150 C 214.050 4.407, 213.685 4.077, 213.136 4.416 C 212.587 4.755, 211.856 4.575, 211.510 4.016 C 211.165 3.457, 211.610 3, 212.500 3 C 213.390 3, 213.840 2.550, 213.500 2 C 212.701 0.708, 211.290 0.722, 210.482 2.030 M 198.053 3.946 C 196.839 4.714, 197.062 5.715, 199.443 10.181 C 201.004 13.106, 202.695 15.950, 203.203 16.500 C 204.289 17.677, 202.698 13.250, 200.522 9.043 C 198.560 5.249, 198.581 5.104, 201.250 4.031 C 203.309 3.204, 203.330 3.123, 201.500 3.079 C 200.400 3.052, 198.849 3.442, 198.053 3.946 M 228 3.941 C 228 4.459, 228.445 5.157, 228.989 5.493 C 229.555 5.843, 229.723 5.442, 229.382 4.552 C 228.717 2.820, 228 2.503, 228 3.941 M 201.638 7.500 C 201.955 8.325, 202.391 9, 202.607 9 C 202.823 9, 203 8.325, 203 7.500 C 203 6.675, 202.564 6, 202.031 6 C 201.499 6, 201.322 6.675, 201.638 7.500 M 266 9.640 C 266 10.542, 265.212 11.877, 264.250 12.608 C 263.235 13.379, 263.012 13.950, 263.719 13.968 C 264.443 13.987, 264.688 14.709, 264.321 15.750 C 263.897 16.955, 264.034 17.189, 264.760 16.500 C 266.251 15.086, 268.051 8, 266.919 8 C 266.414 8, 266 8.738, 266 9.640 M 431.250 8.706 C 427.750 9.380, 428.604 11.190, 432.250 10.825 C 435.147 10.535, 435.534 10.798, 435.816 13.250 C 436.114 15.836, 436.428 16, 441.066 16 L 446 16 446 12 L 446 8 439.750 8.136 C 436.313 8.211, 432.488 8.467, 431.250 8.706 M 255 13.059 C 255 13.641, 255.450 13.840, 256 13.500 C 256.550 13.160, 257 12.684, 257 12.441 C 257 12.198, 256.550 12, 256 12 C 255.450 12, 255 12.477, 255 13.059 M 210.768 13.566 C 209.710 14.623, 211.039 24.464, 212.380 25.500 C 213.091 26.050, 214.239 27.561, 214.929 28.857 C 215.713 30.329, 216.539 30.861, 217.125 30.275 C 218.211 29.189, 217.247 26, 215.834 26 C 215.310 26, 215.135 25.591, 215.444 25.090 C 216.238 23.806, 214.973 20.899, 213.907 21.558 C 213.421 21.858, 213.258 21.492, 213.544 20.745 C 214.154 19.156, 211.651 12.683, 210.768 13.566 M 232 13.882 C 232 14.432, 232.450 15.160, 233 15.500 C 233.550 15.840, 234 15.668, 234 15.118 C 234 14.568, 233.550 13.840, 233 13.500 C 232.450 13.160, 232 13.332, 232 13.882 M 247.074 15.933 C 246.290 16.429, 245.492 17.858, 245.301 19.107 C 244.918 21.619, 244.896 21.633, 247.326 17.750 C 249.207 14.743, 249.186 14.596, 247.074 15.933 M 242.471 17.804 C 241.937 18.187, 241.384 20.075, 241.243 22 L 240.987 25.500 242.448 21.538 C 244.007 17.314, 244.011 16.701, 242.471 17.804 M 228.989 20 C 228.913 20.825, 228.666 22.625, 228.439 24 C 228.087 26.130, 228.181 26.238, 229.074 24.729 C 229.651 23.755, 230.514 23.200, 230.992 23.495 C 231.471 23.791, 232.187 23.506, 232.585 22.862 C 233.039 22.128, 232.875 21.959, 232.146 22.410 C 231.446 22.842, 230.613 22.206, 230.055 20.814 C 229.497 19.424, 229.072 19.099, 228.989 20 M 251.773 21.750 C 249.249 24.624, 248.764 27.621, 250.536 29.393 C 252.007 30.864, 251.928 31.077, 249.570 31.974 C 248.156 32.511, 247 33.213, 247 33.534 C 247 33.855, 247.476 33.824, 248.057 33.465 C 249.960 32.289, 254.237 33.940, 253.598 35.605 C 253.178 36.699, 253.867 36.519, 256.049 34.965 C 258.471 33.241, 258.848 32.522, 257.919 31.402 C 257.006 30.303, 257.087 30, 258.294 30 C 259.141 30, 259.983 30.416, 260.167 30.924 C 260.350 31.433, 261.625 30.908, 263 29.758 C 264.419 28.572, 264.771 27.932, 263.815 28.278 C 262.888 28.613, 261.948 28.350, 261.727 27.694 C 261.432 26.817, 260.864 26.881, 259.586 27.936 C 258.075 29.183, 257.729 29.183, 256.939 27.936 C 256.308 26.939, 256.026 26.882, 256.015 27.750 C 255.997 29.232, 253.383 29.428, 252.508 28.013 C 252.173 27.471, 252.335 25.446, 252.869 23.513 C 253.978 19.494, 253.885 19.345, 251.773 21.750 M 235.250 22.662 C 233.481 23.376, 233.696 25, 235.559 25 C 236.416 25, 236.864 24.588, 236.553 24.085 C 236.242 23.582, 236.553 22.943, 237.244 22.664 C 237.935 22.386, 238.050 22.158, 237.500 22.158 C 236.950 22.158, 235.938 22.385, 235.250 22.662 M 258.608 23.685 C 258.762 24.337, 258.350 25.089, 257.694 25.356 C 256.884 25.686, 256.863 25.868, 257.628 25.921 C 258.248 25.964, 259.373 25.239, 260.128 24.308 C 260.882 23.377, 260.976 22.930, 260.335 23.314 C 259.695 23.698, 258.981 23.672, 258.749 23.256 C 258.517 22.840, 258.454 23.033, 258.608 23.685 M 231.813 26.683 C 232.534 26.972, 233.397 26.936, 233.729 26.604 C 234.061 26.272, 233.471 26.036, 232.417 26.079 C 231.252 26.127, 231.015 26.364, 231.813 26.683 M 238.813 27.683 C 239.534 27.972, 240.397 27.936, 240.729 27.604 C 241.061 27.272, 240.471 27.036, 239.417 27.079 C 238.252 27.127, 238.015 27.364, 238.813 27.683 M 323.829 28.916 C 319.611 29.237, 315.913 29.748, 315.612 30.051 C 314.559 31.112, 312.999 48.930, 313.151 58.173 C 313.235 63.303, 313.123 68.175, 312.902 69 C 312.560 70.275, 314.377 70.500, 325 70.500 L 337.500 70.500 337.270 60.500 C 337.143 55, 337.030 45.438, 337.020 39.250 L 337 28 334.250 28.166 C 332.738 28.257, 328.048 28.594, 323.829 28.916 M 223.490 31.016 C 223.144 31.575, 222.373 31.731, 221.776 31.362 C 221.113 30.952, 220.980 31.159, 221.435 31.894 C 221.956 32.739, 222.551 32.787, 223.431 32.057 C 224.120 31.485, 225.052 31.351, 225.502 31.759 C 225.952 32.166, 225.997 31.938, 225.601 31.250 C 224.729 29.734, 224.311 29.688, 223.490 31.016 M 217.583 31.866 C 217.288 32.343, 218.049 33.580, 219.274 34.616 C 221.494 36.495, 221.495 36.495, 219.748 34.419 C 218.784 33.274, 218.297 32.037, 218.664 31.669 C 219.032 31.301, 219.060 31, 218.726 31 C 218.391 31, 217.877 31.390, 217.583 31.866 M 214.004 32.615 C 214.006 33.102, 214.916 34.990, 216.026 36.810 C 217.136 38.631, 217.811 40.496, 217.528 40.955 C 217.244 41.415, 217.684 42.048, 218.506 42.364 C 220.312 43.057, 220.331 42.858, 218.790 39.297 C 217.382 36.043, 213.998 31.319, 214.004 32.615 M 233.500 32.963 C 231.668 33.716, 231.647 33.845, 233.244 34.497 C 234.204 34.889, 234.782 35.544, 234.530 35.952 C 234.278 36.360, 235.511 38, 237.270 39.597 C 239.029 41.194, 239.688 41.565, 238.734 40.421 C 237.780 39.278, 237 37.365, 237 36.171 C 237 34.977, 236.523 34, 235.941 34 C 235.359 34, 235.160 33.550, 235.500 33 C 236.207 31.857, 236.191 31.857, 233.500 32.963 M 229.500 34 C 229.840 34.550, 230.316 35, 230.559 35 C 230.802 35, 231 34.550, 231 34 C 231 33.450, 230.523 33, 229.941 33 C 229.359 33, 229.160 33.450, 229.500 34 M 238.636 35.494 C 238.952 36.316, 239.612 36.740, 240.105 36.435 C 241.517 35.563, 241.149 34, 239.531 34 C 238.639 34, 238.288 34.587, 238.636 35.494 M 247.039 35.976 C 246.344 36.405, 246.414 37.099, 247.250 38.071 C 247.938 38.870, 248.387 39.330, 248.248 39.093 C 248.109 38.856, 248.673 37.913, 249.502 36.998 C 250.808 35.555, 250.813 35.333, 249.544 35.333 C 248.738 35.333, 247.611 35.622, 247.039 35.976 M 228.168 39.051 C 228.753 40.729, 229.458 41.875, 229.736 41.598 C 230.529 40.804, 229.067 36, 228.033 36 C 227.490 36, 227.547 37.269, 228.168 39.051 M 242.667 36.667 C 241.468 37.865, 241.962 38.853, 244.101 39.532 C 245.578 40.001, 245.887 40.513, 245.143 41.257 C 244.399 42.001, 243.627 41.936, 242.542 41.035 C 241.630 40.278, 241 40.180, 241 40.794 C 241 41.366, 241.563 42.060, 242.250 42.338 C 243.250 42.741, 243.250 42.858, 242.250 42.921 C 241.563 42.964, 241 43.481, 241 44.068 C 241 44.656, 242.411 44.132, 244.135 42.904 C 246.770 41.028, 247.033 40.498, 245.786 39.586 C 244.970 38.988, 244.271 38.125, 244.234 37.667 C 244.131 36.389, 243.407 35.927, 242.667 36.667 M 263 36.378 C 263 36.585, 263.788 37.373, 264.750 38.128 C 266.336 39.371, 266.371 39.336, 265.128 37.750 C 263.821 36.084, 263 35.555, 263 36.378 M 214 38.941 C 214 39.459, 214.445 40.157, 214.989 40.493 C 215.555 40.843, 215.723 40.442, 215.382 39.552 C 214.717 37.820, 214 37.503, 214 38.941 M 435.755 43.250 C 435.504 45.587, 435.609 47.854, 435.987 48.288 C 436.366 48.721, 438.549 48.776, 440.838 48.410 C 444.198 47.873, 445.003 47.335, 445.014 45.622 C 445.021 44.455, 445.299 42.487, 445.630 41.250 C 446.197 39.136, 445.931 39, 441.222 39 L 436.210 39 435.755 43.250 M 208.500 41 C 208.160 41.550, 208.359 42, 208.941 42 C 209.523 42, 210 41.550, 210 41 C 210 40.450, 209.802 40, 209.559 40 C 209.316 40, 208.840 40.450, 208.500 41 M 267.525 42.397 C 268.644 44.105, 269.045 46.908, 268.920 52.147 C 268.824 56.191, 269.254 60.625, 269.877 62 C 270.963 64.396, 270.986 64.369, 270.449 61.359 C 270.141 59.631, 270.616 55.410, 271.506 51.978 L 273.123 45.738 270.374 42.869 C 267.034 39.382, 265.368 39.106, 267.525 42.397 M 230.658 42.450 C 230.277 43.442, 230.476 44.869, 231.101 45.621 C 231.725 46.374, 232 47.892, 231.712 48.995 C 231.043 51.550, 231.621 51.514, 235.681 48.750 C 239.226 46.337, 239.698 45.098, 237.800 43.200 C 235.314 40.714, 233.738 41.791, 234.434 45.500 C 234.844 47.687, 234.698 49, 234.045 49 C 233.470 49, 232.968 47.987, 232.930 46.750 C 232.891 45.513, 232.520 43.633, 232.105 42.573 C 231.391 40.752, 231.312 40.746, 230.658 42.450 M 439.158 52 C 439.158 53.375, 439.385 53.938, 439.662 53.250 C 439.940 52.563, 439.940 51.438, 439.662 50.750 C 439.385 50.063, 439.158 50.625, 439.158 52 M 433.077 58.500 C 432.709 65.276, 433.071 83.399, 433.586 83.917 C 433.814 84.146, 434 79.785, 434 74.226 C 434 67.664, 434.405 63.868, 435.155 63.405 C 435.938 62.920, 436.037 63.142, 435.463 64.095 C 434.746 65.284, 434.885 65.282, 436.364 64.081 C 437.326 63.300, 438.016 63.075, 437.898 63.581 C 437.779 64.086, 437.953 65.175, 438.283 66 C 438.613 66.825, 439.082 68.400, 439.325 69.500 C 439.596 70.723, 439.813 70.237, 439.884 68.250 C 439.975 65.705, 440.434 65, 442 65 C 443.145 65, 444 64.333, 444 63.441 C 444 62.584, 443.533 62.170, 442.963 62.523 C 442.393 62.875, 440.167 62.866, 438.017 62.503 C 434.284 61.872, 434.090 61.653, 433.728 57.671 L 433.349 53.500 433.077 58.500 M 439.232 58 C 439.232 59.925, 439.438 60.712, 439.689 59.750 C 439.941 58.788, 439.941 57.212, 439.689 56.250 C 439.438 55.288, 439.232 56.075, 439.232 58 M 184.195 59.500 C 184.215 61.150, 184.439 61.704, 184.693 60.731 C 184.947 59.758, 184.930 58.408, 184.656 57.731 C 184.382 57.054, 184.175 57.850, 184.195 59.500 M 445.232 63 C 445.232 64.925, 445.438 65.713, 445.689 64.750 C 445.941 63.788, 445.941 62.212, 445.689 61.250 C 445.438 60.288, 445.232 61.075, 445.232 63 M 268.006 64.685 C 268.003 66.437, 267.567 69.008, 267.038 70.399 C 266.403 72.071, 266.423 73.144, 267.098 73.561 C 267.717 73.943, 267.444 74.686, 266.404 75.446 C 265.304 76.251, 264.890 77.471, 265.250 78.849 C 265.559 80.031, 265.335 81.293, 264.752 81.654 C 264.083 82.067, 263.990 81.825, 264.500 81 C 265.035 80.134, 264.918 79.932, 264.155 80.405 C 262.672 81.321, 262.598 81.067, 265.472 84.962 C 267.710 87.995, 268.017 88.131, 268.720 86.406 C 269.147 85.358, 269.479 81.251, 269.457 77.280 C 269.436 73.308, 269.767 70.608, 270.194 71.280 C 271.656 73.581, 271.030 67.286, 269.506 64.364 L 268.012 61.500 268.006 64.685 M 398 64.583 C 398 65.454, 398.534 65.989, 399.188 65.771 C 401.042 65.153, 401.349 63, 399.583 63 C 398.712 63, 398 63.712, 398 64.583 M 218 67.882 C 218 68.432, 218.450 69.160, 219 69.500 C 219.550 69.840, 220 69.668, 220 69.118 C 220 68.568, 219.550 67.840, 219 67.500 C 218.450 67.160, 218 67.332, 218 67.882 M 201.079 71.583 C 201.127 72.748, 201.364 72.985, 201.683 72.188 C 201.972 71.466, 201.936 70.603, 201.604 70.271 C 201.272 69.939, 201.036 70.529, 201.079 71.583 M 238.393 78.582 C 238.727 79.452, 239 80.577, 239 81.082 C 239 81.587, 239.900 82, 241 82 C 242.100 82, 243 81.550, 243 81 C 243 80.450, 242.495 80, 241.878 80 C 241.102 80, 241.140 79.536, 242 78.500 C 243.055 77.229, 242.828 77, 240.515 77 C 238.437 77, 237.931 77.377, 238.393 78.582 M 297.750 78.706 C 298.988 78.944, 301.012 78.944, 302.250 78.706 C 303.488 78.467, 302.475 78.272, 300 78.272 C 297.525 78.272, 296.512 78.467, 297.750 78.706 M 220 80.939 C 220 82.554, 227.765 97.737, 228.973 98.483 C 229.538 98.832, 229.998 98.979, 229.996 98.809 C 229.987 98.158, 225.010 88.717, 224.093 87.612 C 223.563 86.973, 222.953 85.137, 222.738 83.533 C 222.371 80.791, 220 78.545, 220 80.939 M 83.032 81.750 C 83.049 82.162, 83.724 83.374, 84.532 84.441 C 85.940 86.303, 86 86.272, 86 83.691 C 86 81.966, 85.462 81, 84.500 81 C 83.675 81, 83.014 81.338, 83.032 81.750 M 312 95.459 C 312 113.667, 312.325 115.276, 316.338 116.936 C 318.077 117.655, 320.455 118.164, 321.622 118.067 C 322.789 117.970, 324.012 118.590, 324.341 119.445 C 324.672 120.308, 326.112 121, 327.576 121 C 329.510 121, 330.060 120.600, 329.638 119.500 C 328.964 117.741, 330.122 117.522, 331.707 119.107 C 333.871 121.271, 335.260 116.438, 334.069 110.887 C 332.779 104.873, 332.757 104.067, 333.928 105.918 C 334.630 107.026, 335.280 106.590, 336.909 103.918 C 338.055 102.038, 338.994 99.938, 338.996 99.250 C 338.998 98.563, 339.509 98, 340.132 98 C 340.916 98, 341.115 95.694, 340.781 90.482 C 340.515 86.348, 340.119 82.808, 339.899 82.617 C 339.680 82.426, 333.313 82.021, 325.750 81.718 L 312 81.168 312 95.459 M 183.750 82.716 C 180.051 83.277, 180.239 85, 184 85 C 186 85, 187 84.500, 187 83.500 C 187 82.675, 186.887 82.067, 186.750 82.150 C 186.613 82.232, 185.262 82.487, 183.750 82.716 M 205 84.040 C 205 85.954, 209.310 93.516, 209.719 92.318 C 209.940 91.668, 209.401 89.742, 208.520 88.038 C 207.639 86.335, 207.188 84.504, 207.518 83.971 C 207.848 83.437, 207.416 83, 206.559 83 C 205.702 83, 205 83.468, 205 84.040 M 231.496 85.007 C 230.801 86.131, 233.730 87.604, 234.710 86.624 C 235.053 86.281, 234.557 86, 233.608 86 C 232.659 86, 232.160 85.550, 232.500 85 C 232.840 84.450, 232.893 84, 232.618 84 C 232.343 84, 231.838 84.453, 231.496 85.007 M 270.241 85.986 C 268.819 88.262, 268.628 90.652, 269.809 91.382 C 270.254 91.657, 271.092 90.109, 271.670 87.941 C 272.812 83.663, 272.207 82.837, 270.241 85.986 M 433.079 89.583 C 433.127 90.748, 433.364 90.985, 433.683 90.188 C 433.972 89.466, 433.936 88.603, 433.604 88.271 C 433.272 87.939, 433.036 88.529, 433.079 89.583 M 156.813 91.683 C 157.534 91.972, 158.397 91.936, 158.729 91.604 C 159.061 91.272, 158.471 91.036, 157.417 91.079 C 156.252 91.127, 156.015 91.364, 156.813 91.683 M 137.532 94.250 C 137.635 96.583, 138.063 97, 140.361 97 C 141.274 97, 141.565 96.176, 141.245 94.500 C 140.628 91.276, 137.393 91.058, 137.532 94.250 M 47.158 95 C 47.158 96.375, 47.385 96.938, 47.662 96.250 C 47.940 95.563, 47.940 94.438, 47.662 93.750 C 47.385 93.063, 47.158 93.625, 47.158 95 M 158.079 94.583 C 158.023 96.064, 158.572 96.624, 159.980 96.520 C 162.715 96.318, 163.817 95, 161.250 95 C 160.104 95, 158.940 94.438, 158.662 93.750 C 158.385 93.063, 158.122 93.437, 158.079 94.583 M 265.079 96.583 C 265.127 97.748, 265.364 97.985, 265.683 97.188 C 265.972 96.466, 265.936 95.603, 265.604 95.271 C 265.272 94.939, 265.036 95.529, 265.079 96.583 M 63 97 C 63 97.550, 63.450 98, 64 98 C 64.550 98, 65 97.550, 65 97 C 65 96.450, 64.550 96, 64 96 C 63.450 96, 63 96.450, 63 97 M 266.406 100.332 C 266.733 101.339, 267 102.352, 267 102.582 C 267 102.812, 267.712 103, 268.583 103 C 269.454 103, 270.005 102.516, 269.808 101.925 C 269.611 101.334, 269.062 100.922, 268.587 101.010 C 268.112 101.099, 267.293 100.570, 266.767 99.835 C 266.064 98.853, 265.968 98.984, 266.406 100.332 M 0.475 175.500 C 0.475 217.300, 0.599 234.254, 0.750 213.176 C 0.901 192.098, 0.900 157.898, 0.750 137.176 C 0.599 116.454, 0.475 133.700, 0.475 175.500 M 129 101.882 C 129 102.432, 129.450 103.160, 130 103.500 C 130.550 103.840, 131 103.668, 131 103.118 C 131 102.568, 130.550 101.840, 130 101.500 C 129.450 101.160, 129 101.332, 129 101.882 M 47 105 C 47 105.550, 47.450 106, 48 106 C 48.550 106, 49 105.550, 49 105 C 49 104.450, 48.550 104, 48 104 C 47.450 104, 47 104.450, 47 105 M 183.289 105.535 C 182.349 106.542, 182.421 106.948, 183.626 107.410 C 186.294 108.434, 187.962 108.065, 187.391 106.577 C 186.607 104.533, 184.682 104.044, 183.289 105.535 M 247.446 109.087 C 247.077 109.685, 247.275 110.675, 247.887 111.287 C 248.704 112.104, 249 111.815, 249 110.200 C 249 107.785, 248.481 107.413, 247.446 109.087 M 263 109.500 C 262.315 110.325, 261.083 111, 260.261 111 C 259.013 111, 258.885 112.110, 259.482 117.750 C 259.875 121.463, 260.274 124.584, 260.368 124.686 C 260.462 124.788, 262.442 124.616, 264.769 124.304 C 268.974 123.740, 269 123.711, 268.968 119.618 C 268.951 117.353, 268.276 114.626, 267.468 113.559 C 266.661 112.491, 266 110.804, 266 109.809 C 266 107.609, 264.682 107.474, 263 109.500 M 428.079 109.583 C 428.127 110.748, 428.364 110.985, 428.683 110.188 C 428.972 109.466, 428.936 108.603, 428.604 108.271 C 428.272 107.939, 428.036 108.529, 428.079 109.583 M 239.878 109.904 C 240.636 110.384, 240.947 111.277, 240.569 111.888 C 240.122 112.611, 240.951 113, 242.941 113 C 244.623 113, 246 112.550, 246 112 C 246 111.450, 245.127 111, 244.059 111 C 242.991 111, 241.840 110.550, 241.500 110 C 241.160 109.450, 240.346 109.007, 239.691 109.015 C 238.908 109.025, 238.972 109.330, 239.878 109.904 M 186.079 111.583 C 186.127 112.748, 186.364 112.985, 186.683 112.188 C 186.972 111.466, 186.936 110.603, 186.604 110.271 C 186.272 109.939, 186.036 110.529, 186.079 111.583 M 194.638 112.500 C 194.955 113.325, 195.391 114, 195.607 114 C 195.823 114, 196 113.325, 196 112.500 C 196 111.675, 195.564 111, 195.031 111 C 194.499 111, 194.322 111.675, 194.638 112.500 M 237 112 C 237 112.550, 237.477 113, 238.059 113 C 238.641 113, 238.840 112.550, 238.500 112 C 238.160 111.450, 237.684 111, 237.441 111 C 237.198 111, 237 111.450, 237 112 M 227.833 112.867 C 227.317 114.209, 216 115.361, 216 114.072 C 216 113.482, 214.875 113, 213.500 113 C 212.033 113, 211.103 113.517, 211.250 114.250 C 211.410 115.052, 210.065 115.592, 207.500 115.758 C 205.300 115.900, 199.774 116.481, 195.220 117.049 C 188.140 117.933, 186.715 117.858, 185.392 116.535 C 182.094 113.237, 180.167 112.833, 178.014 114.986 C 176.401 116.599, 176.072 117.947, 176.421 121.509 C 176.754 124.908, 176.519 126, 175.456 126 C 173.833 126, 171 130.987, 171 133.843 C 171 137.111, 175.770 138.087, 178.483 135.375 C 179.983 133.874, 179.940 133.593, 177.928 131.718 L 175.748 129.688 178.526 128.233 C 180.199 127.356, 182.782 126.976, 185.024 127.276 C 189.054 127.817, 191.641 126.847, 190.612 125.181 C 189.628 123.589, 190.769 123.283, 200.523 122.525 L 209.547 121.824 209.408 127.412 C 209.332 130.485, 209.501 133, 209.784 133 C 210.067 133, 211.781 131.473, 213.594 129.606 C 216.838 126.266, 216.859 126.183, 214.946 124.451 C 212.083 121.861, 212.494 121.295, 217.750 120.587 C 229.972 118.939, 230.171 118.881, 229.435 117.150 C 229.049 116.243, 228.765 114.713, 228.804 113.750 C 228.880 111.886, 228.384 111.435, 227.833 112.867 M 274.520 113.936 C 274.182 115, 273.140 116.073, 272.203 116.320 C 270.664 116.725, 270.660 116.779, 272.160 116.884 C 273.507 116.978, 273.942 118.557, 274.462 125.250 C 274.815 129.787, 274.967 137.550, 274.802 142.500 C 274.518 150.966, 274.366 151.519, 272.250 151.820 C 270.352 152.089, 270 151.676, 270 149.186 C 270 144.904, 267.832 144.761, 253.431 148.093 C 236.656 151.974, 237.357 152.068, 236.761 145.866 C 236.366 141.750, 236.638 140.362, 238.134 138.866 C 239.160 137.840, 240 135.875, 240 134.500 C 240 132.370, 239.541 132, 236.892 132 C 234.093 132, 233.844 132.244, 234.397 134.447 C 234.824 136.146, 234.509 137.175, 233.369 137.813 C 232.123 138.511, 231.685 140.394, 231.557 145.616 C 231.464 149.402, 231.049 153.232, 230.635 154.126 C 229.986 155.527, 230.473 155.683, 234.162 155.257 C 237.953 154.819, 238.294 154.941, 237.148 156.322 C 236.436 157.179, 235.257 157.652, 234.528 157.372 C 232.152 156.461, 231.874 158.874, 234.098 161.098 C 236.199 163.199, 236.208 163.306, 234.385 164.378 C 233.348 164.987, 231.385 165.489, 230.022 165.493 C 226.419 165.503, 226.389 168.234, 229.945 172.285 C 231.625 174.198, 233 176.519, 233 177.441 C 233 178.363, 233.450 178.840, 234 178.500 C 234.550 178.160, 235 178.359, 235 178.941 C 235 180.063, 238.252 180.414, 239.264 179.402 C 240.238 178.429, 238.901 176, 237.393 176 C 235.839 176, 235.537 172.280, 236.914 170.104 C 237.856 168.618, 241 169.259, 241 170.937 C 241 171.487, 240.325 171.678, 239.500 171.362 C 238.675 171.045, 238 171.279, 238 171.882 C 238 172.484, 239.125 172.884, 240.500 172.771 C 243.507 172.522, 243.623 171.142, 241.062 166.121 L 239.124 162.322 243.491 162.373 C 245.893 162.402, 247.807 162.667, 247.743 162.962 C 247.291 165.077, 249.409 175.939, 250.340 176.277 C 251.896 176.843, 268 173.788, 268 172.927 C 268 172.553, 265.192 172.834, 261.760 173.550 C 254.563 175.052, 252.696 174.670, 259.149 173.016 C 266.377 171.164, 266.090 171.460, 264.450 167.536 C 261.872 161.365, 264.708 155.178, 269.313 156.929 C 272.026 157.960, 276 162.955, 276 165.333 C 276 166.171, 276.707 167.564, 277.571 168.429 C 278.436 169.293, 278.675 170, 278.103 170 C 277.531 170, 277.324 170.680, 277.643 171.511 C 278.058 172.593, 277.764 172.847, 276.611 172.404 C 275.557 172, 275 172.321, 275 173.334 C 275 175.697, 275.968 175.832, 283 174.453 C 286.575 173.752, 291.188 172.893, 293.250 172.544 C 296.393 172.012, 297 171.512, 297 169.455 C 297 167.168, 296.649 167, 291.883 167 C 287.065 167, 286.802 166.869, 287.370 164.750 C 287.701 163.512, 287.979 162.195, 287.986 161.822 C 287.994 161.449, 290.587 161.394, 293.750 161.699 C 298.440 162.151, 299.275 162.014, 298.278 160.955 C 297.304 159.920, 297.496 159.437, 299.223 158.576 C 302.588 156.899, 305.281 151.554, 304.516 148.072 C 303.957 145.528, 303.349 145.069, 300.183 144.802 C 297.885 144.609, 295.493 145.158, 293.824 146.261 C 291.528 147.780, 291.265 148.436, 291.968 150.888 C 292.419 152.460, 293.623 155.023, 294.644 156.584 C 295.784 158.328, 295.974 159.099, 295.137 158.582 C 294.387 158.120, 292.921 155.814, 291.878 153.458 C 290.401 150.118, 290.208 148.584, 291.002 146.496 C 291.868 144.217, 291.735 143.743, 290.110 143.319 C 288.894 143, 288.026 141.672, 287.719 139.660 C 287.454 137.922, 287.367 136.355, 287.525 136.177 C 287.683 136, 289.430 136.301, 291.406 136.846 C 295.498 137.976, 295.532 137.930, 293.511 134.021 C 292.669 132.394, 291.039 131.002, 289.761 130.821 C 287.896 130.556, 287.494 129.865, 287.465 126.877 C 287.430 123.190, 283.913 117.335, 279.594 113.772 C 276.847 111.506, 275.275 111.557, 274.520 113.936 M 246.926 113.643 C 246.396 119.747, 244.817 121.910, 242.350 119.908 C 240.968 118.785, 240.782 118.775, 241.433 119.857 C 242.066 120.908, 241.714 121.062, 239.875 120.542 C 238.044 120.023, 237.843 120.109, 239 120.919 C 240.851 122.215, 245.681 122.325, 246.445 121.089 C 246.754 120.588, 247.101 119.046, 247.216 117.661 C 247.337 116.204, 247.861 115.419, 248.462 115.797 C 249.033 116.156, 250.287 116.321, 251.250 116.162 C 252.213 116.004, 253 116.401, 253 117.044 C 253 117.688, 252.325 117.955, 251.500 117.638 C 250.675 117.322, 250 117.525, 250 118.090 C 250 118.656, 249.480 118.797, 248.844 118.404 C 248.023 117.896, 247.862 118.559, 248.288 120.690 C 248.815 123.326, 248.501 123.883, 245.694 125.281 C 243.347 126.450, 243.010 126.889, 244.421 126.936 C 245.478 126.971, 247.165 126.255, 248.171 125.345 C 249.265 124.355, 250 124.154, 250 124.845 C 250 125.480, 250.450 126, 251 126 C 251.550 126, 252 125.298, 252 124.441 C 252 123.584, 251.550 123.160, 251 123.500 C 249.244 124.585, 249.928 122.375, 251.900 120.590 C 254.820 117.948, 255.154 115.273, 252.632 114.723 C 251.459 114.467, 249.713 113.926, 248.750 113.522 C 247.787 113.117, 246.967 113.172, 246.926 113.643 M 256.829 117 C 256.619 119.200, 256.797 121, 257.224 121 C 257.651 121, 258 119.200, 258 117 C 258 114.800, 257.822 113, 257.605 113 C 257.388 113, 257.038 114.800, 256.829 117 M 232 116 C 232 116.550, 232.423 117, 232.941 117 C 233.459 117, 234.160 116.550, 234.500 116 C 234.840 115.450, 234.416 115, 233.559 115 C 232.702 115, 232 115.450, 232 116 M 435.710 117 C 435.423 118.100, 435.595 119, 436.094 119 C 436.592 119, 437 118.100, 437 117 C 437 115.900, 436.827 115, 436.617 115 C 436.406 115, 435.998 115.900, 435.710 117 M 64.473 118.916 C 64.808 119.970, 64.613 121.121, 64.041 121.475 C 63.468 121.829, 63 122.991, 63 124.059 C 63 126.404, 66.083 126.588, 73.433 124.683 C 80.273 122.909, 80.708 120.886, 74.096 121.600 C 68.237 122.232, 66.319 121.525, 68.093 119.388 C 69.059 118.224, 68.974 118.073, 67.641 118.584 C 66.729 118.934, 66 118.723, 66 118.107 C 66 117.498, 65.520 117, 64.933 117 C 64.336 117, 64.133 117.845, 64.473 118.916 M 235.570 119.887 C 235.269 120.374, 235.657 121.300, 236.432 121.944 C 237.585 122.900, 237.744 122.738, 237.305 121.057 C 236.711 118.786, 236.386 118.567, 235.570 119.887 M 256 123.500 C 256 124.325, 256.177 125, 256.393 125 C 256.609 125, 257.045 124.325, 257.362 123.500 C 257.678 122.675, 257.501 122, 256.969 122 C 256.436 122, 256 122.675, 256 123.500 M 329.550 123.919 C 329.238 124.424, 330.305 125.128, 331.922 125.483 C 333.539 125.838, 335.394 126.770, 336.044 127.553 C 336.695 128.337, 337.662 128.709, 338.195 128.380 C 338.727 128.051, 339.074 128.618, 338.966 129.641 C 338.624 132.877, 338.968 134.138, 340.016 133.490 C 340.575 133.144, 340.809 132.499, 340.535 132.056 C 340.261 131.613, 342.305 131.033, 345.077 130.767 C 347.850 130.500, 350.651 129.749, 351.304 129.096 C 352.218 128.182, 351.294 128.019, 347.262 128.385 C 344.387 128.647, 341.624 129.114, 341.122 129.424 C 340.620 129.735, 339.959 129.336, 339.654 128.539 C 339.348 127.742, 337.293 126.170, 335.089 125.045 C 330.510 122.709, 330.321 122.671, 329.550 123.919 M 237.479 125.976 C 238.462 127.063, 239.684 127.695, 240.193 127.380 C 240.703 127.066, 240.305 126.191, 239.310 125.436 C 236.600 123.381, 235.440 123.723, 237.479 125.976 M 317.750 124.662 C 318.438 124.940, 319.563 124.940, 320.250 124.662 C 320.938 124.385, 320.375 124.158, 319 124.158 C 317.625 124.158, 317.063 124.385, 317.750 124.662 M 234 125.882 C 234 126.432, 234.450 127.160, 235 127.500 C 235.550 127.840, 236 127.668, 236 127.118 C 236 126.568, 235.550 125.840, 235 125.500 C 234.450 125.160, 234 125.332, 234 125.882 M 376.638 126.500 C 376.955 127.325, 377.391 128, 377.607 128 C 377.823 128, 378 127.325, 378 126.500 C 378 125.675, 377.564 125, 377.031 125 C 376.499 125, 376.322 125.675, 376.638 126.500 M 379.032 126.643 C 379.014 127.822, 379.675 129.045, 380.500 129.362 C 382.403 130.092, 382.416 128.932, 380.532 126.441 C 379.093 124.539, 379.063 124.544, 379.032 126.643 M 181.638 129.500 C 181.322 130.325, 181.499 131, 182.031 131 C 182.564 131, 183 130.325, 183 129.500 C 183 128.675, 182.823 128, 182.607 128 C 182.391 128, 181.955 128.675, 181.638 129.500 M 363 131 L 360.500 131.801 363 131.885 C 364.375 131.931, 366.175 131.533, 367 131 C 368.333 130.138, 368.333 130.040, 367 130.115 C 366.175 130.161, 364.375 130.560, 363 131 M 64 132 C 64 132.550, 64.450 133, 65 133 C 65.550 133, 66 132.550, 66 132 C 66 131.450, 65.550 131, 65 131 C 64.450 131, 64 131.450, 64 132 M 314.720 133.014 C 313.202 134.787, 313.172 135.129, 314.487 135.633 C 315.319 135.953, 316 136.841, 316 137.607 C 316 138.373, 316.450 139, 317 139 C 318.126 139, 318.219 135.410, 317.162 132.738 C 316.514 131.099, 316.344 131.118, 314.720 133.014 M 61.813 136.683 C 62.534 136.972, 63.397 136.936, 63.729 136.604 C 64.061 136.272, 63.471 136.036, 62.417 136.079 C 61.252 136.127, 61.015 136.364, 61.813 136.683 M 60.512 140.250 C 59.565 143.031, 60.623 147.643, 62.747 149.990 L 65 152.480 65 148.865 C 65 143.171, 63.877 139, 62.344 139 C 61.570 139, 60.746 139.563, 60.512 140.250 M 396 142.752 C 396 143.300, 397.163 145.830, 398.585 148.374 C 400.291 151.426, 401.839 153, 403.134 153 C 404.929 153, 404.843 152.633, 402.132 148.692 C 398.894 143.986, 396 141.182, 396 142.752 M 122 145.255 C 122 146.080, 122.675 147.315, 123.500 148 C 124.720 149.012, 125 148.965, 125 147.745 C 125 146.920, 124.325 145.685, 123.500 145 C 122.280 143.988, 122 144.035, 122 145.255 M 319 145.559 C 319 146.416, 318.550 146.840, 318 146.500 C 317.450 146.160, 317 146.621, 317 147.524 C 317 148.428, 317.520 148.993, 318.154 148.782 C 319.647 148.284, 321.272 144, 319.968 144 C 319.435 144, 319 144.702, 319 145.559 M 194 150.559 C 194 151.416, 194.450 151.840, 195 151.500 C 195.550 151.160, 196 150.459, 196 149.941 C 196 149.423, 195.550 149, 195 149 C 194.450 149, 194 149.702, 194 150.559 M 197 151.441 C 197 152.298, 197.450 153, 198 153 C 198.550 153, 199 152.577, 199 152.059 C 199 151.541, 198.550 150.840, 198 150.500 C 197.450 150.160, 197 150.584, 197 151.441 M 401 154.566 C 401 156.062, 403.266 159.072, 405.154 160.083 C 406.991 161.066, 406.908 160.746, 404.513 157.605 C 401.852 154.118, 401 153.380, 401 154.566 M 317 158 C 317 159.650, 317.450 161, 318 161 C 318.550 161, 319 160.380, 319 159.622 C 319 158.864, 320.012 157.538, 321.250 156.674 C 323.496 155.107, 323.495 155.105, 320.250 155.052 C 317.294 155.005, 317 155.271, 317 158 M 240 158.393 C 240 160.057, 242.180 161.015, 245.832 160.958 C 248.446 160.917, 248.429 160.877, 245 159 C 240.761 156.679, 240 156.587, 240 158.393 M 94 158.906 C 94 159.405, 94.900 159.577, 96 159.290 C 97.100 159.002, 98 158.594, 98 158.383 C 98 158.173, 97.100 158, 96 158 C 94.900 158, 94 158.408, 94 158.906 M 305 159 C 306.165 159.753, 305.872 159.973, 303.691 159.985 C 298.285 160.014, 301.998 161.710, 308.718 162.280 C 312.448 162.596, 316.361 163.189, 317.414 163.598 C 318.753 164.117, 319.111 163.988, 318.605 163.170 C 318.207 162.526, 316.853 162, 315.596 162 C 314.339 162, 312.495 161.100, 311.500 160 C 310.424 158.811, 308.435 158.006, 306.595 158.015 C 304.229 158.027, 303.853 158.259, 305 159 M 109.813 163.683 C 110.534 163.972, 111.397 163.936, 111.729 163.604 C 112.061 163.272, 111.471 163.036, 110.417 163.079 C 109.252 163.127, 109.015 163.364, 109.813 163.683 M 404 166.810 C 404 170.359, 405.365 173, 407.200 173 C 408.917 173, 407.961 166.411, 406 164.732 C 404.051 163.063, 404 163.115, 404 166.810 M 114.500 165 C 114.840 165.550, 116.104 165.968, 117.309 165.930 C 119.421 165.862, 119.428 165.829, 117.500 165 C 114.748 163.817, 113.769 163.817, 114.500 165 M 55.638 167.500 C 55.288 168.414, 55.637 169, 56.531 169 C 57.339 169, 58 168.325, 58 167.500 C 58 166.675, 57.598 166, 57.107 166 C 56.616 166, 55.955 166.675, 55.638 167.500 M 114 167.393 C 114 167.609, 114.698 168.054, 115.552 168.382 C 116.442 168.723, 116.843 168.555, 116.493 167.989 C 115.906 167.038, 114 166.583, 114 167.393 M 298.556 167.910 C 298.247 168.410, 298.237 169.455, 298.536 170.232 C 298.977 171.383, 300.093 171.461, 304.539 170.655 C 311.974 169.308, 311.987 167, 304.559 167 C 301.566 167, 298.865 167.409, 298.556 167.910 M 58.500 173.969 C 55.709 174.448, 58.429 174.783, 67.500 175.078 C 76.977 175.385, 80.897 175.161, 81.964 174.250 C 83.150 173.238, 81.439 173.027, 72.964 173.142 C 67.209 173.220, 60.700 173.592, 58.500 173.969 M 254.708 177.370 C 248.223 178.551, 242.562 180.091, 242.128 180.793 C 241.695 181.494, 240.648 181.802, 239.801 181.477 C 238.850 181.112, 238.028 181.576, 237.648 182.693 C 237.309 183.687, 236.591 185.509, 236.051 186.742 C 233.927 191.598, 244.277 193.428, 257 190.447 C 271.877 186.962, 271 187.462, 271 182.461 C 271 178.938, 270.644 178, 269.309 178 C 267.834 178, 267.866 177.812, 269.559 176.532 C 271.430 175.116, 271.410 175.066, 269 175.143 C 267.625 175.187, 261.194 176.189, 254.708 177.370 M 95 178.664 C 86.276 179.274, 71.456 181.146, 67.750 182.106 C 63.550 183.194, 62.844 184.741, 66.250 185.393 C 67.487 185.630, 72.100 186.582, 76.500 187.509 C 84.239 189.139, 84.758 189.128, 92.415 187.157 C 98.441 185.606, 100.878 184.449, 102.629 182.310 C 105.630 178.642, 105.568 177.964, 102.250 178.175 C 100.737 178.271, 97.475 178.491, 95 178.664 M 398.269 180.693 C 399.242 180.947, 400.592 180.930, 401.269 180.656 C 401.946 180.382, 401.150 180.175, 399.500 180.195 C 397.850 180.215, 397.296 180.439, 398.269 180.693 M 392.872 182.750 C 391.603 184.369, 391.650 184.390, 393.500 183.033 C 394.600 182.226, 395.688 181.439, 395.917 181.283 C 396.146 181.127, 395.863 181, 395.289 181 C 394.715 181, 393.627 181.787, 392.872 182.750 M 46.559 187.905 C 46.240 188.421, 47.825 188.577, 50.250 188.267 C 55.881 187.549, 56.303 187, 51.226 187 C 48.966 187, 46.866 187.407, 46.559 187.905 M 317.036 192.750 C 317.062 196.226, 317.706 198.276, 319.438 200.393 C 321.598 203.035, 322.179 203.227, 326.102 202.600 C 333.694 201.386, 335.575 198.055, 328.750 197.910 L 324.500 197.820 327.711 196.891 C 331.633 195.757, 331.196 193.571, 326.624 191.462 C 324.897 190.665, 324.506 190.270, 325.750 190.578 C 326.988 190.884, 328 190.711, 328 190.192 C 328 189.190, 323.318 188, 319.375 188 C 317.203 188, 317.003 188.407, 317.036 192.750 M 80.244 195.664 C 77.966 196.583, 80.053 198, 83.681 198 C 86.736 198, 87.067 197.786, 86 196.500 C 84.761 195.007, 82.638 194.699, 80.244 195.664 M 91.601 197.836 C 90.741 199.228, 109.960 201.440, 111.297 200.103 C 111.885 199.515, 112.116 198.783, 111.810 198.477 C 110.809 197.476, 92.189 196.885, 91.601 197.836 M 407 199 C 407 199.550, 407.900 200.067, 409 200.150 C 410.100 200.233, 411.525 200.345, 412.167 200.400 C 412.808 200.455, 413.521 199.938, 413.750 199.250 C 414.032 198.405, 413.006 198, 410.583 198 C 408.613 198, 407 198.450, 407 199 M 400.039 206.250 C 398.758 208.588, 396.788 211.522, 395.661 212.771 C 393.774 214.862, 393.740 215.169, 395.230 216.659 C 396.621 218.050, 397.523 218.112, 401.674 217.103 C 406.734 215.873, 421.937 210.182, 423.283 209.014 C 425.217 207.334, 422.612 205.134, 417.924 204.490 C 415.215 204.117, 413.250 203.404, 413.558 202.906 C 413.868 202.404, 411.499 202, 408.243 202 L 402.368 202 400.039 206.250 M 94.550 203.899 C 95.073 204.393, 98.763 205.709, 102.750 206.822 L 110 208.846 110 206.554 C 110 204.682, 109.312 204.148, 106.250 203.642 C 100.567 202.703, 93.451 202.859, 94.550 203.899 M 423 217.646 C 421.075 219.007, 419.379 220.457, 419.230 220.869 C 419.082 221.281, 420.432 222.356, 422.230 223.257 L 425.500 224.896 422 224.317 C 420.075 223.999, 418.275 223.744, 418 223.751 C 414.331 223.841, 413 224.155, 413 224.930 C 413 225.442, 414.012 226.056, 415.250 226.294 C 417.179 226.666, 417.108 226.747, 414.750 226.864 C 413.238 226.939, 412 226.550, 412 226 C 412 225.450, 410.595 225, 408.878 225 C 406.215 225, 405.939 225.221, 407 226.500 C 407.685 227.325, 408.917 228, 409.738 228 C 410.559 228, 414.666 229.623, 418.865 231.606 C 427.418 235.646, 443.372 242, 444.962 242 C 445.562 242, 446 239.509, 446 236.098 L 446 230.196 439.750 229.487 C 436.313 229.097, 433.050 228.439, 432.500 228.026 C 431.950 227.614, 430.209 226.967, 428.632 226.589 C 427.055 226.212, 425.975 225.692, 426.233 225.434 C 426.491 225.176, 429.356 225.610, 432.601 226.399 C 435.845 227.188, 440.188 228.116, 442.250 228.462 L 446 229.091 445.995 223.795 L 445.989 218.500 439.637 218.458 C 435.389 218.430, 432.421 217.851, 430.678 216.708 C 427.448 214.592, 427.292 214.611, 423 217.646 M 274.500 217.638 C 269.137 218.727, 259.953 221.287, 260.271 221.604 C 260.812 222.145, 278.381 219.175, 281.116 218.081 C 283.297 217.208, 283.202 217.131, 280 217.179 C 278.075 217.208, 275.600 217.415, 274.500 217.638 M 68.188 219.714 C 66.219 220.090, 65.969 220.581, 66.504 223.019 C 66.850 224.594, 66.662 226.763, 66.086 227.839 C 65.229 229.441, 65.468 230.077, 67.409 231.349 C 69.580 232.771, 69.915 232.752, 71.390 231.122 C 72.433 229.969, 73 227.522, 73 224.171 C 73 218.825, 72.973 218.800, 68.188 219.714 M 61 222 C 59.705 222.837, 59.729 222.971, 61.177 222.985 C 62.099 222.993, 63.059 223.787, 63.311 224.750 C 63.592 225.827, 63.813 225.442, 63.884 223.750 C 64.008 220.819, 63.399 220.450, 61 222 M 275.540 237.347 C 274.142 238.370, 274.002 238.883, 274.960 239.475 C 276.133 240.200, 277.948 238.565, 277.985 236.750 C 278.006 235.713, 277.659 235.798, 275.540 237.347 M 192 244 C 192.589 245.100, 193.295 246, 193.570 246 C 193.845 246, 193.589 245.100, 193 244 C 192.411 242.900, 191.705 242, 191.430 242 C 191.155 242, 191.411 242.900, 192 244" stroke="none" fill="black" fill-rule="evenodd"/>
</svg>