<svg xmlns="http://www.w3.org/2000/svg" width="446" height="251" viewBox="0 0 446 251" version="1.1">
	<path d="M 316.098 3.149 C 315.494 4.881, 315 8.178, 315 10.475 C 315 13.637, 314.393 15.222, 312.500 17 C 309.546 19.775, 309.258 22, 311.853 22 C 313.347 22, 313.686 22.728, 313.603 25.750 C 313.516 28.925, 313.186 29.457, 311.455 29.222 C 309.544 28.962, 309.422 29.414, 309.604 36.071 C 309.711 39.991, 310.304 43.704, 310.922 44.322 C 312.228 45.628, 318.934 45.279, 320.715 43.813 C 321.473 43.189, 322.037 39.212, 322.215 33.238 C 322.380 27.682, 322.941 23.516, 323.551 23.314 C 324.177 23.107, 324.492 24.289, 324.331 26.233 C 323.565 35.437, 323.440 41.956, 324.052 40.799 C 324.812 39.362, 325.611 33.367, 326.557 22 C 327.152 14.864, 327.102 14.609, 325.534 16.750 C 324.628 17.988, 323.476 19, 322.975 19 C 321.701 19, 322.962 15.756, 324.817 14.260 C 325.662 13.579, 326.084 12.750, 325.753 12.420 C 325.423 12.090, 325.793 10.003, 326.576 7.784 C 328.196 3.192, 328.416 0, 327.111 -0 C 326.623 -0, 325.909 1.672, 325.526 3.715 C 324.597 8.663, 322.276 13, 320.556 13 C 319.790 13, 318.471 13.266, 317.624 13.591 C 316.325 14.089, 316.172 13.425, 316.641 9.341 C 316.948 6.678, 317.839 3.488, 318.622 2.250 C 319.854 0.303, 319.854 0, 318.621 0 C 317.837 0, 316.702 1.417, 316.098 3.149 M 332.843 4.500 L 332.486 9 338.243 9 C 343.543 9, 344.001 8.821, 344.014 6.750 C 344.021 5.512, 344.299 3.488, 344.630 2.250 C 345.207 0.099, 344.968 -0, 339.217 -0 L 333.201 -0 332.843 4.500 M 371.579 4.250 C 371.279 6.588, 370.563 16.375, 369.987 26 C 365.811 95.746, 366.434 90.488, 361.918 94.065 C 359.780 95.759, 358.322 97.674, 358.606 98.416 C 358.886 99.146, 358.413 100.444, 357.556 101.301 C 355.492 103.365, 357.031 107.601, 360.401 109.137 C 361.840 109.792, 362.625 110.813, 362.314 111.624 C 362.024 112.381, 362.284 113, 362.893 113 C 363.502 113, 364 112.550, 364 112 C 364 111.450, 364.626 111, 365.392 111 C 366.230 111, 367.513 113.435, 368.616 117.117 C 370.011 121.772, 371.590 124.381, 375.224 128.034 C 377.851 130.675, 380.036 133.660, 380.079 134.668 C 380.124 135.719, 380.373 135.967, 380.662 135.250 C 381.421 133.369, 383 133.748, 383 135.811 C 383 136.808, 383.900 138.589, 385 139.770 C 386.100 140.950, 387 142.610, 387 143.458 C 387 145.454, 389.420 145.438, 391.429 143.429 C 392.293 142.564, 393 142.307, 393 142.857 C 393 143.407, 392.271 144.586, 391.381 145.476 C 390.490 146.367, 390.059 147.392, 390.421 147.755 C 390.784 148.117, 392.196 147.115, 393.560 145.528 C 395.422 143.361, 395.725 142.448, 394.775 141.861 C 393.482 141.062, 394.989 139.423, 399.328 136.906 C 400.507 136.222, 400.917 135.253, 400.484 134.173 C 400.115 133.253, 399.636 130.779, 399.419 128.675 C 398.938 124.008, 398.048 122.304, 396.987 124.021 C 396.567 124.701, 395.720 124.945, 395.104 124.564 C 393.084 123.316, 396.635 121, 400.568 121 C 402.930 121, 404.763 121.636, 405.608 122.750 C 406.825 124.353, 406.939 124.287, 406.968 121.973 C 406.988 120.433, 408.194 118.398, 410.054 116.766 C 412.964 114.212, 413.079 114.190, 412.506 116.293 C 411.968 118.268, 412.024 118.309, 413.036 116.689 C 413.658 115.693, 413.919 114.231, 413.615 113.439 C 413.311 112.648, 413.494 112, 414.020 112 C 414.547 112, 414.965 110.988, 414.949 109.750 C 414.933 108.513, 415.394 103, 415.972 97.500 C 416.551 92, 418.618 70.175, 420.565 49 C 422.512 27.825, 424.364 8.138, 424.680 5.250 L 425.254 0 398.689 0 L 372.123 0 371.579 4.250 M 315 28.361 C 315 30.341, 315.404 30.645, 317.500 30.245 C 318.875 29.982, 320 29.321, 320 28.776 C 320 28.232, 319.325 28.045, 318.500 28.362 C 317.586 28.712, 317 28.363, 317 27.469 C 317 26.661, 316.550 26, 316 26 C 315.450 26, 315 27.063, 315 28.361 M 315.032 33.050 C 315.014 33.903, 315.521 35.121, 316.158 35.758 C 317.034 36.634, 317.013 37.280, 316.069 38.417 C 315.014 39.688, 315.164 39.854, 317.046 39.491 C 319.532 39.012, 320.971 38, 319.167 38 C 318.525 38, 318 37.411, 318 36.691 C 318 35.971, 317.339 34.509, 316.532 33.441 C 315.366 31.900, 315.057 31.819, 315.032 33.050 M 318.638 33.500 C 318.955 34.325, 319.391 35, 319.607 35 C 319.823 35, 320 34.325, 320 33.500 C 320 32.675, 319.564 32, 319.031 32 C 318.499 32, 318.322 32.675, 318.638 33.500 M 101.108 39.995 C 98.142 42.111, 95.442 44.276, 95.108 44.805 C 94.773 45.335, 92.626 45.716, 90.335 45.653 C 87.132 45.565, 85.143 46.276, 81.718 48.736 C 76.772 52.288, 63.787 56.917, 59.141 56.785 C 57.490 56.738, 54.760 57.271, 53.074 57.970 C 50.650 58.973, 49.014 58.989, 45.267 58.046 C 42.660 57.389, 40.204 56.330, 39.810 55.693 C 39.379 54.995, 38.260 56.419, 37 59.267 C 34.924 63.961, 33.538 65.115, 32.765 62.795 C 32.468 61.904, 31.143 62.056, 27.680 63.378 C 22.843 65.225, 20 68.129, 20 71.223 C 20 72.476, 19.224 73, 17.368 73 C 13.614 73, 9.003 76.158, 5.046 81.438 C 3.166 83.947, 1.262 86, 0.814 86 C 0.366 86, 0 107.865, 0 134.588 L 0 183.176 4.250 182.419 C 6.588 182.002, 9.400 181.622, 10.500 181.574 C 13.716 181.433, 14.783 180.242, 15.501 175.995 C 15.872 173.798, 16.394 172, 16.660 172 C 16.926 172, 19.062 173.124, 21.407 174.498 C 23.752 175.872, 25.915 176.751, 26.215 176.452 C 26.515 176.152, 27.061 177.106, 27.429 178.571 C 27.796 180.037, 27.850 181.483, 27.549 181.785 C 27.247 182.086, 27 181.808, 27 181.167 C 27 180.525, 26.250 180, 25.333 180 C 24.417 180, 23.951 180.284, 24.298 180.631 C 24.645 180.979, 24.505 182.057, 23.986 183.026 C 23.315 184.279, 23.474 185.148, 24.533 186.028 C 25.667 186.968, 25.752 187.594, 24.890 188.633 C 23.309 190.538, 25.861 190.420, 28.441 188.468 C 31.876 185.870, 34 186.585, 34 190.340 C 34 194.255, 37.198 207.235, 40.022 214.788 C 41.110 217.696, 42.006 221.521, 42.014 223.288 C 42.035 228.417, 43.074 231.186, 44.736 230.548 C 45.990 230.067, 46.111 231.140, 45.546 237.741 L 44.882 245.500 48.510 248.348 C 50.505 249.914, 52.431 250.902, 52.790 250.543 C 53.149 250.185, 53.005 249.578, 52.471 249.196 C 49.732 247.233, 48.872 245.107, 49.981 243.036 C 51.227 240.707, 53.211 241.254, 52.889 243.839 C 52.775 244.752, 53.031 246.752, 53.458 248.283 L 54.233 251.065 64.785 250.783 C 72.788 250.568, 75.450 250.159, 75.805 249.091 C 76.117 248.150, 75.761 247.878, 74.735 248.272 C 73.710 248.665, 71.826 247.237, 69.095 243.997 L 64.993 239.133 66.077 234.075 C 67.182 228.922, 68.363 227.161, 69.490 228.984 C 69.835 229.543, 71.554 230.007, 73.309 230.015 C 75.064 230.024, 76.965 230.361, 77.533 230.765 C 79.041 231.837, 78.736 234.204, 77 234.899 C 76.175 235.230, 75.500 236.400, 75.500 237.500 C 75.500 238.938, 74.728 239.589, 72.750 239.816 C 71.237 239.990, 70 240.470, 70 240.882 C 70 241.293, 73.487 240.994, 77.750 240.215 C 82.013 239.437, 86.961 238.733, 88.747 238.650 L 91.994 238.500 91.997 231.450 C 91.999 227.304, 92.494 223.906, 93.200 223.200 C 94.797 221.603, 96.532 221.654, 95.200 223.259 C 93.581 225.209, 94.745 235.835, 97.250 241.980 C 98.487 245.016, 99.838 247.650, 100.250 247.833 C 100.663 248.017, 101 248.804, 101 249.583 C 101 250.795, 114.291 251, 192.974 251 L 284.948 251 289.858 244.008 C 292.559 240.162, 297.357 232.737, 300.521 227.508 C 303.685 222.279, 306.632 218, 307.069 218 C 307.507 218, 308.130 218.833, 308.453 219.851 C 308.857 221.124, 315.467 224.470, 329.582 230.548 C 340.881 235.412, 350.300 239.676, 350.514 240.022 C 350.728 240.369, 345.596 242.572, 339.110 244.919 C 332.624 247.266, 326.684 249.587, 325.909 250.078 C 325.047 250.623, 330.424 250.975, 339.750 250.985 C 351.657 250.997, 355 250.713, 355 249.691 C 355 248.971, 355.660 247.509, 356.468 246.441 C 357.818 244.656, 357.863 244.761, 357.038 247.750 C 356.327 250.320, 356.439 251, 357.570 251 C 358.950 251, 359.417 249.370, 359.060 245.798 C 358.967 244.862, 359.701 242.860, 360.691 241.348 C 361.687 239.828, 362.569 236.471, 362.664 233.837 C 362.759 231.217, 363.125 228.607, 363.477 228.037 C 364.508 226.370, 373.635 226.778, 375.429 228.571 C 376.997 230.140, 377.621 237.045, 376.313 238.354 C 375.307 239.359, 375.193 243, 376.167 243 C 376.625 243, 377 243.900, 377 245 C 377 246.100, 377.408 247, 377.906 247 C 378.405 247, 378.577 247.900, 378.290 249 C 377.774 250.971, 378.259 251, 411.922 251 L 446.077 251 446.029 234.750 C 446.003 225.813, 446.281 188.533, 446.648 151.906 C 447.169 99.874, 447.047 85.147, 446.091 84.556 C 445.418 84.140, 444.559 84.131, 444.183 84.537 C 443.808 84.942, 444.063 85.475, 444.750 85.720 C 445.635 86.036, 446 89.046, 446 96.038 L 446 105.909 442.750 106.457 C 440.962 106.758, 435.568 107.465, 430.763 108.029 C 420.627 109.217, 418.220 109.900, 420.091 111.056 C 421.275 111.788, 430.535 111.558, 441.250 110.530 L 446 110.074 446 129.105 L 446 148.136 443.250 146.182 C 440.084 143.933, 432.887 140.779, 432.288 141.379 C 432.065 141.602, 432.584 143.462, 433.441 145.514 C 434.299 147.566, 435.016 150.652, 435.036 152.372 C 435.055 154.092, 435.723 158.200, 436.520 161.500 C 438.408 169.318, 438.370 170, 436.047 170 C 433.232 170, 430.070 177.789, 428.944 187.500 C 428.433 191.900, 428.012 196.047, 428.008 196.715 C 427.996 198.500, 422.025 205, 420.396 205 C 419.628 205, 419 204.582, 419 204.071 C 419 202.597, 421.994 200, 423.694 200 C 424.948 200, 425.010 199.717, 424.020 198.524 C 423.046 197.351, 423.123 196.086, 424.398 192.346 C 425.279 189.760, 426 186.599, 426 185.322 C 426 184.045, 426.450 183, 427 183 C 427.550 183, 428 181.975, 428 180.723 C 428 179.470, 428.701 177.445, 429.557 176.223 C 430.413 175, 430.750 173.993, 430.307 173.985 C 429.863 173.976, 430.175 173.494, 431 172.913 C 432.106 172.133, 431.105 171.969, 427.184 172.288 C 424.259 172.525, 420.211 172.144, 418.184 171.441 C 414.528 170.173, 414.519 170.157, 417 169.225 C 418.375 168.709, 420.127 168.088, 420.894 167.846 C 422.150 167.448, 423.537 162, 422.382 162 C 421.065 162, 416.117 165.117, 415.669 166.229 C 415.384 166.939, 415.123 167.017, 415.079 166.406 C 415.036 165.804, 416.107 164.023, 417.460 162.449 C 420.212 159.246, 420.014 157.772, 417.177 160.339 C 416.168 161.253, 414.729 162, 413.980 162 C 413.075 162, 413.270 161.471, 414.559 160.426 C 415.626 159.560, 415.900 159.160, 415.167 159.536 C 414.196 160.035, 414.284 159.352, 415.491 157.017 C 417.371 153.381, 416.988 152.155, 414.690 154.452 C 412.745 156.398, 412 156.411, 412 154.500 C 412 153.675, 412.525 153, 413.167 153 C 413.808 153, 414.068 152.734, 413.743 152.410 C 413.418 152.085, 413.773 150.060, 414.532 147.910 C 415.291 145.759, 415.594 144.003, 415.206 144.007 C 414.250 144.016, 410 150.340, 410 151.753 C 410 152.374, 409.580 153.142, 409.067 153.459 C 408.510 153.803, 408.272 151.101, 408.477 146.768 C 408.718 141.689, 408.549 140.200, 407.916 141.824 C 407.417 143.102, 406.291 145.127, 405.412 146.324 C 403.929 148.345, 403.852 148.357, 404.333 146.500 C 404.618 145.400, 405.123 142.925, 405.456 141 L 406.061 137.500 404.072 141 C 401.539 145.458, 401.526 144.743, 404 137 C 407.174 127.066, 406.347 124.426, 403.039 133.931 C 401.425 138.568, 399.362 142.777, 398.455 143.285 C 397.548 143.793, 395.837 145.375, 394.653 146.802 C 388.214 154.560, 385.047 157.465, 384.900 155.750 C 384.719 153.635, 384.549 153.003, 383.569 150.783 C 383.152 149.839, 383.049 148.489, 383.338 147.783 C 383.670 146.975, 384.119 147.333, 384.549 148.750 C 385.459 151.744, 387.156 151.645, 386.609 148.630 C 385.622 143.185, 381.458 140.120, 380.196 143.909 C 379.864 144.909, 380.238 145.122, 381.484 144.644 C 382.927 144.091, 383.133 144.374, 382.634 146.235 C 382.300 147.481, 382.021 149.460, 382.014 150.633 C 382.004 152.161, 381.219 152.917, 379.250 153.295 C 377.738 153.586, 376.346 153.671, 376.157 153.486 C 375.969 153.300, 376.532 150.683, 377.407 147.670 C 378.283 144.657, 379 141.447, 379 140.537 C 379 137.600, 377.310 139.820, 376.010 144.466 C 374.902 148.421, 371.121 154, 369.548 154 C 369.246 154, 369 153.100, 369 152 C 369 150.900, 369.398 150, 369.884 150 C 370.370 150, 370.644 148.537, 370.493 146.750 C 370.257 143.948, 369.878 143.537, 367.746 143.767 C 366.385 143.913, 364.706 143.351, 364.014 142.517 C 362.240 140.380, 361 140.633, 361 143.133 C 361 144.306, 360.059 146.082, 358.909 147.079 C 357.351 148.430, 356.968 149.608, 357.407 151.696 C 358.059 154.798, 357.347 156.334, 354.828 157.262 C 352.947 157.954, 353.355 161.220, 355.549 163.041 C 356.607 163.919, 357.027 163.358, 357.588 160.323 C 357.976 158.221, 359.324 155.536, 360.582 154.358 C 362.111 152.926, 362.687 151.518, 362.318 150.108 C 361.879 148.427, 362.221 148, 364.006 148 C 365.853 148, 366.033 148.255, 365.036 149.456 C 364.372 150.257, 364.099 151.351, 364.430 151.887 C 364.762 152.423, 364.545 153.163, 363.948 153.532 C 363.352 153.901, 363.100 154.819, 363.389 155.572 C 363.678 156.326, 363.335 157.522, 362.627 158.230 C 361.919 158.938, 361.521 160.064, 361.744 160.731 C 361.966 161.397, 360.884 163.193, 359.340 164.722 C 357.796 166.250, 356.638 167.838, 356.766 168.250 C 356.895 168.663, 356.580 169, 356.067 169 C 355.554 169, 354.842 168.076, 354.483 166.947 C 353.941 165.239, 353.577 165.106, 352.312 166.156 C 351.476 166.850, 350.388 168.479, 349.895 169.776 C 349.198 171.609, 348.497 171.997, 346.749 171.518 C 344.687 170.952, 344.729 171.096, 347.253 173.241 C 350.037 175.606, 366.818 181.118, 377 183.012 C 380.025 183.574, 385.200 184.881, 388.500 185.915 L 394.500 187.796 390.500 188.531 C 388.300 188.936, 383.666 191.232, 380.202 193.633 C 376.738 196.035, 373.256 198, 372.463 198 C 371.670 198, 368.673 198.892, 365.803 199.983 C 359.405 202.414, 353.982 201.450, 352.212 197.567 C 351.600 196.223, 350.064 194.583, 348.800 193.922 C 346.796 192.876, 346.854 193.055, 349.250 195.313 C 350.763 196.738, 352 198.202, 352 198.566 C 352 199.910, 342.333 197.727, 337.224 195.230 C 333.508 193.413, 332.325 192.392, 333.224 191.777 C 334.030 191.225, 333.027 190.989, 330.500 191.135 C 325.777 191.410, 320.784 190.159, 321.564 188.897 C 321.866 188.408, 323.550 188.702, 325.307 189.552 C 328.075 190.891, 328.248 190.896, 326.608 189.584 C 325.568 188.753, 324.218 187.904, 323.608 187.699 C 322.817 187.432, 322.841 186.912, 323.691 185.881 C 324.915 184.398, 329.774 182.568, 340.798 179.441 C 344.262 178.458, 347.293 177.335, 347.535 176.944 C 347.776 176.553, 342.841 174.982, 336.567 173.452 C 325.368 170.722, 325.150 170.615, 324.576 167.554 C 323.956 164.246, 318.999 158.078, 316.806 157.885 C 316.088 157.822, 314.712 157.850, 313.750 157.948 C 311.634 158.163, 311.487 157.121, 313.421 155.610 C 314.609 154.682, 314.307 153.815, 311.578 150.319 L 308.315 146.139 308.248 150.569 C 308.200 153.746, 308.580 155, 309.590 155 C 310.366 155, 311 155.675, 311 156.500 C 311 157.325, 310.550 158, 310 158 C 308.494 158, 308.799 160.709, 310.372 161.313 C 311.127 161.602, 313.753 162.140, 316.209 162.509 C 319.739 163.038, 321.043 163.803, 322.434 166.158 C 323.403 167.797, 324.013 169.320, 323.791 169.542 C 323.202 170.131, 315.589 167.918, 315 166.986 C 314.725 166.551, 312.700 166.040, 310.500 165.851 L 306.500 165.506 305.933 169.753 C 305.377 173.914, 305.425 174, 308.305 174 C 310.717 174, 311.035 174.252, 310.079 175.405 C 309.100 176.585, 309.602 176.738, 313.206 176.358 C 320.372 175.604, 321.130 175.407, 321.941 174.095 C 322.506 173.181, 322.866 173.381, 323.242 174.816 C 323.936 177.472, 323.013 182, 321.776 182 C 321.232 182, 321.045 181.325, 321.362 180.500 C 322.016 178.796, 320.515 178.655, 312.250 179.648 C 304.303 180.602, 305.672 182.405, 313.750 181.623 C 317.995 181.212, 319.977 181.312, 319.091 181.892 C 318.316 182.400, 317.078 182.583, 316.341 182.300 C 315.603 182.018, 315 182.247, 315 182.810 C 315 183.373, 315.563 184.034, 316.250 184.280 C 316.938 184.525, 317.237 185.014, 316.915 185.365 C 316.593 185.716, 314.143 185.345, 311.470 184.541 C 307.897 183.466, 306.259 183.370, 305.282 184.181 C 304.249 185.038, 304.094 184.919, 304.584 183.641 C 304.934 182.729, 304.723 182, 304.107 182 C 303.498 182, 303 182.620, 303 183.378 C 303 186.648, 300.485 186.974, 294.439 184.489 C 287.876 181.791, 281.502 181.250, 280.706 183.324 C 280.393 184.140, 276.799 185.128, 271.349 185.896 C 266.482 186.582, 260.925 187.370, 259 187.646 C 256.353 188.027, 255.866 187.891, 257 187.090 C 257.825 186.507, 259.625 185.962, 261 185.879 C 263.376 185.735, 263.388 185.706, 261.235 185.292 C 259.990 185.053, 259.216 184.459, 259.517 183.972 C 259.818 183.486, 260.612 183.219, 261.282 183.380 C 261.952 183.541, 262.163 183.483, 261.750 183.253 C 260.573 182.594, 260.867 180.990, 262.458 179.400 C 263.259 178.598, 263.682 177.335, 263.398 176.594 C 263.017 175.601, 264.414 175.059, 268.690 174.539 C 279.047 173.279, 283.667 172.005, 283.667 170.410 C 283.667 169.587, 283.124 169.122, 282.461 169.377 C 277.865 171.140, 271.963 171.036, 266.022 169.085 C 262.528 167.938, 259.559 167, 259.424 167 C 259.289 167, 258.187 169.048, 256.975 171.552 C 254.898 175.842, 254.668 176.009, 252.966 174.470 C 251.517 173.158, 251.352 172.288, 252.130 170.058 C 253.195 167.002, 259 160.900, 259 162.836 C 259 164.191, 263.729 161.522, 265.597 159.113 C 267.062 157.223, 271.672 158.814, 277.322 163.159 C 284.828 168.929, 284.404 168.724, 283.780 166.298 C 283.468 165.087, 283.679 163.940, 284.250 163.750 C 285.292 163.403, 283.544 159.058, 281.934 157.992 C 281.512 157.713, 281.663 155.313, 282.271 152.659 C 283.372 147.849, 283.363 147.821, 279.728 144.392 C 276.302 141.159, 275.599 138, 278.307 138 C 279.021 138, 279.060 137.660, 278.420 137.020 C 277.782 136.382, 276.210 136.379, 273.917 137.013 C 271.072 137.798, 269.666 137.614, 266.612 136.057 C 262.917 134.173, 262.895 134.130, 265.665 134.175 C 267.224 134.200, 269.708 133.743, 271.184 133.160 C 275.240 131.558, 282.464 133.150, 291.500 137.637 C 295.900 139.823, 300.492 142.244, 301.705 143.017 C 304.607 144.869, 305.614 143.715, 303.602 140.842 C 302.721 139.584, 302 137.809, 302 136.898 C 302 135.987, 300.829 132.683, 299.397 129.556 C 296.885 124.070, 296.859 123.822, 298.647 122.467 C 300.362 121.168, 300.370 121.061, 298.750 121.032 C 296.724 120.995, 296.624 120.572, 298.023 117.957 C 298.793 116.517, 298.732 116.142, 297.773 116.436 C 297.073 116.651, 295.072 117.073, 293.328 117.373 L 290.155 117.919 290.328 112.096 C 290.513 105.817, 291.395 104.892, 298.301 103.729 C 300.867 103.297, 301.350 103.750, 304.065 109.129 C 305.695 112.358, 307.422 115, 307.903 115 C 308.384 115, 309.074 116.583, 309.437 118.518 C 309.800 120.453, 310.944 123.941, 311.978 126.268 L 313.859 130.500 313.929 124.877 C 313.972 121.515, 314.828 117.383, 316.059 114.600 C 317.191 112.040, 317.857 109.126, 317.540 108.125 C 316.903 106.120, 313.004 104, 309.953 104 C 308.879 104, 308 103.550, 308 103 C 308 101.568, 313.753 101.760, 314.236 103.207 C 314.960 105.380, 319.329 100.364, 318.724 98.054 C 318.317 96.497, 318.662 96, 320.153 96 C 321.234 96, 321.840 96.450, 321.500 97 C 320.791 98.148, 321.679 98.181, 324.411 97.110 C 325.462 96.698, 326.480 95.326, 326.673 94.061 C 326.956 92.205, 326.649 91.858, 325.087 92.267 C 323.725 92.623, 323.308 92.362, 323.682 91.387 C 323.975 90.624, 323.689 90, 323.048 90 C 322.407 90, 322.160 89.550, 322.500 89 C 323.453 87.458, 326.705 87.809, 330.795 89.895 C 333.915 91.487, 337.290 91.845, 342.237 91.110 C 343.639 90.901, 348 83.032, 347.967 80.770 C 347.873 74.233, 340.399 61, 336.801 61 C 336.296 61, 334.222 59.701, 332.191 58.114 C 329.267 55.827, 327.466 55.222, 323.522 55.200 C 315.668 55.158, 310.918 58.632, 313.461 62.558 C 314.339 63.913, 314.482 65.174, 313.880 66.250 C 313.060 67.715, 312.609 67.735, 309.515 66.442 C 305.336 64.696, 297.082 64.605, 294.954 66.282 C 290.869 69.501, 290 72.262, 290 82.023 C 290 88.063, 290.437 92.037, 291.183 92.783 C 291.834 93.434, 292.091 94.242, 291.755 94.578 C 290.762 95.572, 285.001 93.946, 284.992 92.671 C 284.961 88.246, 282.762 73.423, 281.896 71.806 C 280.577 69.342, 273.495 66.046, 269.500 66.037 C 267.452 66.033, 266.929 66.302, 267.851 66.887 C 268.810 67.494, 268.302 67.875, 266.104 68.198 C 263.905 68.521, 262.362 68.054, 260.795 66.594 C 258.464 64.423, 258.369 64.392, 253.250 64.152 C 251.238 64.058, 250 63.478, 250 62.629 C 250 61.737, 248.236 61.024, 244.953 60.588 C 239.197 59.825, 238.202 58.444, 240.377 54.239 C 241.213 52.620, 241.839 50.442, 241.766 49.398 C 241.694 48.354, 241.943 46.289, 242.321 44.810 C 242.862 42.693, 242.533 41.787, 240.782 40.560 C 238.439 38.919, 234.263 38.524, 232.394 39.765 C 230.973 40.710, 229.710 46.999, 229.537 53.993 C 229.412 59.081, 229.147 59.657, 225.951 61.794 C 224.053 63.063, 222.200 64.866, 221.834 65.801 C 220.049 70.350, 219.700 71.596, 219.886 72.750 C 219.997 73.438, 219.168 74, 218.044 74 C 216.920 74, 215.943 73.662, 215.872 73.250 C 215.802 72.838, 215.639 71.496, 215.510 70.268 C 215.381 69.040, 214.726 67.375, 214.055 66.566 C 213.384 65.757, 213.127 64.174, 213.485 63.048 C 214.215 60.746, 213.071 60.367, 211.075 62.250 C 210.015 63.250, 209.658 63.250, 209.292 62.250 C 208.594 60.346, 207.212 60.756, 206.472 63.087 L 205.810 65.174 204.348 63.087 C 203.544 61.939, 202.350 60.990, 201.693 60.978 C 201.037 60.966, 199.403 60.112, 198.062 59.081 C 196.721 58.051, 195.079 57.416, 194.413 57.672 C 193.747 57.927, 192.892 57.634, 192.512 57.020 C 192.012 56.211, 191.412 56.243, 190.335 57.137 C 189.143 58.127, 188.667 58.087, 187.939 56.936 C 186.328 54.390, 186.933 53.333, 190 53.333 C 191.650 53.333, 193 53.656, 193 54.050 C 193 54.444, 193.900 55.002, 195 55.290 C 196.716 55.739, 197 55.320, 197 52.341 C 197 46.986, 195.489 45, 191.414 45 C 188.347 45, 187.713 45.443, 186.449 48.468 C 185.652 50.375, 185 52.800, 185 53.857 C 185 54.914, 184.213 56.746, 183.250 57.929 L 181.500 60.081 178.087 56.454 C 176.210 54.459, 173.593 52.416, 172.272 51.913 C 168.610 50.521, 161.615 50.824, 159.441 52.468 C 156.500 54.692, 155.520 54.327, 154.133 50.490 C 151.661 43.655, 142.825 42.236, 141.528 48.466 C 141.237 49.860, 140.780 52.071, 140.511 53.381 C 140.242 54.690, 139.122 55.996, 138.023 56.284 C 136.924 56.571, 135.620 57.863, 135.127 59.153 C 133.229 64.116, 126.507 67.104, 126.502 62.987 C 126.501 62.169, 126.050 61.399, 125.500 61.276 C 124.950 61.153, 124.500 62.728, 124.500 64.776 C 124.500 69.086, 122.865 69.320, 119.291 65.523 L 117.082 63.176 119.541 61.565 C 120.894 60.679, 122 59.269, 122 58.431 C 122 57.594, 123.143 55.766, 124.540 54.369 C 126.037 52.872, 126.863 51.145, 126.552 50.164 C 126.262 49.249, 126.033 48.145, 126.044 47.712 C 126.075 46.488, 120.941 42.497, 116.318 40.151 C 114.018 38.984, 111.854 37.572, 111.509 37.014 C 110.308 35.071, 106.464 36.173, 101.108 39.995 M 30.655 43.829 C 29.723 44.858, 29.051 47.153, 29.116 49.079 C 29.189 51.223, 29.416 51.753, 29.724 50.500 C 30.597 46.947, 32.011 46.070, 36.197 46.486 C 41.168 46.981, 42.046 47.762, 39.623 49.534 C 38.448 50.393, 37.990 51.532, 38.395 52.588 C 38.995 54.150, 39.174 54.153, 40.852 52.634 C 41.848 51.733, 42.949 51.283, 43.300 51.634 C 43.651 51.985, 43.508 50.748, 42.983 48.886 C 41.213 42.613, 34.316 39.784, 30.655 43.829 M 208.923 46.923 C 206.984 48.862, 206 50.862, 206 52.864 C 206 57.066, 207.302 57.435, 209.871 53.961 C 211.553 51.686, 212.850 51, 215.471 51 C 219.502 51, 220.909 52.615, 218.447 54.415 C 216.703 55.690, 217.289 58.557, 219.069 57.457 C 219.581 57.141, 220 57.359, 220 57.941 C 220 58.523, 220.420 59, 220.933 59 C 222.428 59, 223.244 55.116, 222.539 51.357 C 221.128 43.834, 214.252 41.595, 208.923 46.923 M 251.047 45.444 C 250.388 46.238, 249.253 49.146, 248.525 51.906 C 247.294 56.572, 247.344 57.086, 249.235 59.213 C 250.610 60.758, 251.415 61.095, 251.718 60.250 C 252.226 58.836, 255 58.526, 255 59.883 C 255 60.369, 255.900 61.002, 257 61.290 C 258.100 61.577, 259 61.567, 259 61.267 C 259 60.095, 255.386 58.062, 253.250 58.032 C 252.012 58.014, 251 57.550, 251 57 C 251 56.450, 251.648 56, 252.441 56 C 254.711 56, 255.472 53.818, 253.662 52.495 C 252.153 51.391, 252.174 51.152, 253.926 49.567 C 255.447 48.191, 256.256 48.067, 257.917 48.955 C 259.063 49.569, 260 50.756, 260 51.594 C 260 52.432, 259.641 52.896, 259.202 52.625 C 258.763 52.354, 257.806 52.502, 257.074 52.954 C 255.163 54.135, 256.854 56.271, 259.212 55.655 C 260.788 55.243, 261.094 55.534, 260.693 57.068 C 260.415 58.130, 260.651 59, 261.217 59 C 262.965 59, 261.557 48.273, 259.514 46.015 C 257.392 43.670, 252.777 43.359, 251.047 45.444 M 144.200 48.200 C 142.509 49.891, 142.709 52, 144.559 52 C 145.416 52, 145.835 52.457, 145.490 53.016 C 145.144 53.575, 144.443 53.774, 143.931 53.457 C 142.173 52.371, 143.001 55.624, 145.039 57.811 C 147.330 60.270, 148.285 60.453, 151.066 58.965 C 153.801 57.501, 153.544 52.879, 150.548 49.646 C 147.872 46.759, 146.055 46.345, 144.200 48.200 M 189.494 49.009 C 188.595 50.464, 188.965 50.773, 192.335 51.384 C 194.566 51.789, 195.061 51.550, 194.803 50.195 C 194.428 48.228, 190.517 47.354, 189.494 49.009 M 33.192 52.075 C 33.389 52.666, 33.977 53.150, 34.500 53.150 C 35.023 53.150, 35.611 52.666, 35.808 52.075 C 36.005 51.484, 35.417 51, 34.500 51 C 33.583 51, 32.995 51.484, 33.192 52.075 M 212.688 52.646 C 211.314 54.020, 212.026 56.142, 213.750 55.810 C 214.713 55.624, 215.500 54.841, 215.500 54.070 C 215.500 52.491, 213.736 51.598, 212.688 52.646 M 206 59 C 206 59.550, 206.450 60, 207 60 C 207.550 60, 208 59.550, 208 59 C 208 58.450, 207.550 58, 207 58 C 206.450 58, 206 58.450, 206 59 M 100.355 62.992 C 96.420 64.580, 86.346 80.184, 82.282 90.986 C 79.250 99.042, 80.418 98.120, 84.562 89.186 L 87.663 82.500 87.329 91 L 86.995 99.500 89.057 93 C 90.191 89.425, 91.702 84.250, 92.414 81.500 C 93.127 78.750, 95.500 73.575, 97.688 70 C 100.730 65.029, 102.352 63.351, 104.583 62.868 C 107.239 62.293, 107.276 62.232, 105 62.182 C 103.625 62.151, 101.535 62.516, 100.355 62.992 M 121 64 C 121 64.550, 121.450 65, 122 65 C 122.550 65, 123 64.550, 123 64 C 123 63.450, 122.550 63, 122 63 C 121.450 63, 121 63.450, 121 64 M 241.188 64.863 C 240.467 65.320, 237.592 65.475, 234.800 65.207 L 229.725 64.719 230.422 68.435 C 230.866 70.803, 230.690 72.669, 229.937 73.576 C 228.956 74.757, 229.298 75, 231.943 75 C 233.697 75, 235.904 74.587, 236.848 74.081 C 238.081 73.422, 239.260 73.730, 241.032 75.174 C 242.695 76.530, 242.922 77, 241.727 76.616 C 240.173 76.116, 240.100 76.320, 241.141 78.273 C 242.627 81.062, 247.318 87, 248.036 87 C 248.331 87, 248.520 85.412, 248.455 83.472 C 248.373 81.010, 247.414 78.971, 245.279 76.722 C 243.597 74.950, 241.916 72.487, 241.543 71.250 C 240.943 69.258, 241.217 69, 243.933 69 C 247.143 69, 247.953 67.353, 245.800 65.200 C 244.401 63.801, 243.021 63.700, 241.188 64.863 M 34.363 69.500 C 32.696 73.079, 32.122 73.500, 28.905 73.500 C 24.401 73.500, 22.680 74.910, 21.011 79.967 C 20.277 82.189, 18.865 84.225, 17.829 84.554 C 16.805 84.879, 15.015 87.025, 13.853 89.323 C 12.690 91.620, 10.898 94.694, 9.869 96.154 C 7.544 99.456, 7.518 100.597, 9.750 101.384 C 10.713 101.724, 11.985 102.238, 12.578 102.527 C 13.703 103.075, 16 98.983, 16 96.432 C 16 93.282, 25.285 81, 27.665 81 C 28.399 81, 29 80.544, 29 79.987 C 29 79.430, 31.587 77.831, 34.750 76.433 C 37.913 75.035, 41.729 72.715, 43.231 71.277 L 45.962 68.662 43.826 67.165 C 42.650 66.342, 40.460 65.631, 38.957 65.584 C 36.713 65.515, 35.893 66.214, 34.363 69.500 M 256 68 C 256 69.100, 256.450 70, 257 70 C 257.550 70, 258 69.100, 258 68 C 258 66.900, 257.550 66, 257 66 C 256.450 66, 256 66.900, 256 68 M 269 70.441 C 269 71.298, 269.450 72, 270 72 C 270.550 72, 271 71.577, 271 71.059 C 271 70.541, 270.550 69.840, 270 69.500 C 269.450 69.160, 269 69.584, 269 70.441 M 252.667 72.667 C 251.452 73.881, 251.976 74.947, 253.500 74.362 C 254.325 74.045, 255 73.384, 255 72.893 C 255 71.845, 253.622 71.711, 252.667 72.667 M 206.543 73.931 C 206.226 74.443, 206.425 75.144, 206.984 75.490 C 207.543 75.835, 208 75.416, 208 74.559 C 208 72.802, 207.400 72.544, 206.543 73.931 M 105 74.893 C 105 76.002, 108.076 77.257, 108.864 76.469 C 109.182 76.151, 108.780 75.473, 107.971 74.961 C 106.101 73.778, 105 73.753, 105 74.893 M 184.511 74.983 C 184.176 75.524, 184.240 77.661, 184.652 79.733 C 185.064 81.805, 185.299 84.027, 185.175 84.670 C 185.019 85.475, 185.815 85.611, 187.724 85.104 C 189.941 84.517, 190.565 83.708, 190.820 81.091 C 191.283 76.360, 186.513 71.743, 184.511 74.983 M 332.652 76.465 C 332.047 78.042, 332.808 79, 334.667 79 C 335.400 79, 336 78.373, 336 77.607 C 336 75.717, 333.293 74.794, 332.652 76.465 M 339.667 78.667 C 338.181 80.152, 339.136 80.998, 341.107 79.943 C 342.631 79.127, 343.517 79.117, 344.307 79.907 C 345.965 81.565, 347.422 81.214, 346 79.500 C 344.730 77.970, 340.871 77.462, 339.667 78.667 M 96.558 80.907 C 96.249 81.405, 96.898 81.578, 97.999 81.290 C 100.334 80.679, 100.629 80, 98.559 80 C 97.766 80, 96.866 80.408, 96.558 80.907 M 274.500 81 C 274.840 81.550, 275.316 82, 275.559 82 C 275.802 82, 276 81.550, 276 81 C 276 80.450, 275.523 80, 274.941 80 C 274.359 80, 274.160 80.450, 274.500 81 M 384.391 80.823 C 384.671 81.276, 386.746 82.256, 389.002 83.001 C 392.822 84.261, 399 89.844, 399 92.035 C 399 92.566, 399.450 93, 400 93 C 402.292 93, 400.675 90.119, 395.632 85.218 C 391.436 81.139, 389.567 80, 387.073 80 C 385.318 80, 384.111 80.371, 384.391 80.823 M 130 83.352 C 130 84.160, 127.939 85.819, 125.420 87.039 C 122.902 88.258, 120.354 90.323, 119.760 91.628 C 118.672 94.016, 116 94.932, 116 92.917 C 116 92.321, 115.438 92.040, 114.750 92.292 C 114.063 92.544, 113.613 93.256, 113.750 93.875 C 113.888 94.494, 113.598 95, 113.107 95 C 111.868 95, 110.900 92.180, 111.923 91.548 C 112.383 91.264, 113.015 90.051, 113.328 88.852 C 113.832 86.927, 113.726 86.846, 112.416 88.156 C 110.514 90.058, 109.300 97, 110.869 97 C 111.491 97, 112 97.705, 112 98.567 C 112 99.576, 112.623 99.964, 113.750 99.655 C 123.327 97.028, 126.854 98.319, 132.208 106.413 C 133.313 108.082, 135.244 105.583, 136.587 100.746 C 137.236 98.411, 138.338 95.117, 139.036 93.426 C 139.738 91.728, 140.008 89.169, 139.641 87.706 C 139.048 85.343, 138.702 85.163, 136.423 86.029 C 132.768 87.419, 132 87.250, 132 85.059 C 132 83.991, 131.550 82.840, 131 82.500 C 130.450 82.160, 130 82.543, 130 83.352 M 164.446 83.087 C 164.077 83.685, 164.215 84.615, 164.753 85.153 C 165.392 85.792, 165.920 85.414, 166.272 84.066 C 166.840 81.895, 165.595 81.228, 164.446 83.087 M 177 83.500 C 176.293 84.352, 175.940 85.273, 176.215 85.548 C 176.490 85.823, 177.293 85.352, 178 84.500 C 178.707 83.648, 179.060 82.727, 178.785 82.452 C 178.510 82.177, 177.707 82.648, 177 83.500 M 341.183 83.217 C 339.783 84.617, 339.638 86, 340.893 86 C 341.809 86, 343.318 82.984, 342.707 82.374 C 342.520 82.186, 341.834 82.566, 341.183 83.217 M 274.541 85.245 C 273.615 86.567, 273.386 87.629, 273.984 87.828 C 274.543 88.014, 275 88.804, 275 89.583 C 275 90.362, 275.450 91, 276 91 C 277.302 91, 277.291 89.298, 275.984 88.490 C 275.425 88.144, 275.300 87.330, 275.706 86.681 C 276.528 85.365, 277.018 83, 276.468 83 C 276.273 83, 275.406 84.010, 274.541 85.245 M 250.583 84.866 C 250.152 85.563, 250.070 86.403, 250.400 86.733 C 251.295 87.628, 252.271 86.312, 251.787 84.862 C 251.449 83.846, 251.213 83.846, 250.583 84.866 M 0.463 134.500 C 0.463 161.450, 0.592 172.331, 0.749 158.681 C 0.907 145.030, 0.906 122.980, 0.749 109.681 C 0.592 96.381, 0.463 107.550, 0.463 134.500 M 205 88.855 C 205 90.285, 207.601 92.058, 208.501 91.241 C 208.951 90.834, 209.027 91.311, 208.671 92.302 C 208.284 93.376, 208.422 93.857, 209.011 93.493 C 210.614 92.503, 210.162 91.336, 207.500 89.592 C 206.125 88.691, 205 88.359, 205 88.855 M 129.527 92.915 C 128.668 95.623, 129.954 100, 131.608 100 C 133.147 100, 133.306 98.782, 132.375 94.125 C 131.669 90.593, 130.431 90.067, 129.527 92.915 M 400.573 95.521 C 399.513 96.323, 398.845 97.178, 399.088 97.421 C 399.331 97.664, 400.648 97.004, 402.015 95.954 C 403.382 94.904, 404.050 94.049, 403.500 94.054 C 402.950 94.059, 401.633 94.720, 400.573 95.521 M 204.687 100.531 C 203.761 102.473, 202.327 104.321, 201.501 104.638 C 199.689 105.333, 199.489 108.006, 201.250 107.986 C 202.291 107.974, 208 99.104, 208 97.499 C 208 95.810, 206.116 97.533, 204.687 100.531 M 78.100 100.295 C 76.835 102.402, 76.857 102.423, 78.579 100.774 C 79.570 99.824, 80.166 98.832, 79.903 98.569 C 79.640 98.306, 78.829 99.083, 78.100 100.295 M 323 99.500 C 323 100.325, 322.550 101, 322 101 C 319.632 101, 321.323 103.109, 325.188 104.977 C 330.210 107.403, 330 107.384, 330 105.423 C 330 103.950, 324.851 98, 323.577 98 C 323.260 98, 323 98.675, 323 99.500 M 337.759 101.199 C 333.805 104.820, 332.282 110.177, 335.043 110.748 C 337.322 111.219, 346 104.100, 346 101.759 C 346 100.432, 345.518 99.971, 344.526 100.351 C 343.716 100.662, 342.673 100.238, 342.208 99.407 C 341.509 98.158, 340.743 98.466, 337.759 101.199 M 402 99 C 400.819 99.730, 400.770 100.170, 401.758 101.158 C 402.724 102.124, 403.267 102.133, 404.200 101.200 C 405.822 99.578, 404.005 97.761, 402 99 M 145.636 100.494 C 145.952 101.316, 146.620 101.735, 147.121 101.425 C 148.170 100.777, 147.328 99, 145.972 99 C 145.472 99, 145.321 99.672, 145.636 100.494 M 82.392 103.428 C 82.783 104.982, 82.436 106.421, 81.429 107.428 C 80.255 108.602, 80.191 108.997, 81.179 108.990 C 81.905 108.984, 83.254 107.184, 84.176 104.990 C 85.812 101.095, 85.803 101, 83.817 101 C 82.163 101, 81.897 101.453, 82.392 103.428 M 140.500 102 C 139.674 103.336, 140.784 105, 142.500 105 C 144.540 105, 145.469 102.911, 143.878 101.904 C 142.071 100.759, 141.252 100.782, 140.500 102 M 73.073 106.635 C 71.933 108.084, 71 109.884, 71 110.635 C 71 111.386, 70.550 112, 70 112 C 69.450 112, 69.014 112.563, 69.032 113.250 C 69.049 113.938, 70.152 113.263, 71.484 111.750 C 72.815 110.237, 74.763 109, 75.813 109 C 77.311 109, 77.620 108.461, 77.245 106.500 C 76.636 103.314, 75.660 103.346, 73.073 106.635 M 404.405 107.146 C 402.525 109.263, 402.526 109.277, 404.500 108.179 C 405.600 107.567, 407.175 106.609, 408 106.049 C 409.315 105.156, 409.303 105.029, 407.905 105.015 C 407.028 105.007, 405.453 105.965, 404.405 107.146 M 193 107.393 C 193 107.609, 193.698 108.054, 194.552 108.382 C 195.442 108.723, 195.843 108.555, 195.493 107.989 C 194.906 107.038, 193 106.583, 193 107.393 M 298 108.878 C 298 110.098, 298.638 111, 299.500 111 C 300.325 111, 301 110.605, 301 110.122 C 301 109.640, 300.325 108.685, 299.500 108 C 298.247 106.960, 298 107.104, 298 108.878 M 131.882 108.750 C 131.816 109.162, 131.828 109.871, 131.907 110.325 C 131.986 110.779, 131.139 110.861, 130.025 110.508 C 127.702 109.771, 127.480 110.731, 129.392 113.250 C 131.037 115.417, 132.421 115.541, 131.618 113.448 C 131.264 112.525, 131.440 112.154, 132.052 112.532 C 132.618 112.882, 132.848 113.918, 132.564 114.834 C 131.664 117.729, 133.410 119.386, 135.937 118.034 C 137.816 117.028, 137.942 116.621, 136.815 115.180 C 136.092 114.256, 134.938 113.140, 134.250 112.700 C 132.365 111.495, 132.749 110, 134.943 110 C 136.012 110, 137.587 111, 138.443 112.223 C 139.673 113.978, 140 114.095, 140 112.779 C 140 109.909, 132.302 106.088, 131.882 108.750 M 246.913 111.087 C 244.709 113.291, 244.935 117.701, 247.329 119.225 C 252.844 122.733, 258.137 114.311, 252.777 110.557 C 249.903 108.543, 249.412 108.588, 246.913 111.087 M 77.200 112.200 C 75.603 113.797, 75.681 115, 77.383 115 C 78.144 115, 79.002 114.100, 79.290 113 C 79.879 110.748, 78.992 110.408, 77.200 112.200 M 80.380 112.452 C 80.074 113.251, 80.114 114.376, 80.470 114.952 C 81.635 116.837, 83 116.053, 83 113.500 C 83 110.789, 81.282 110.102, 80.380 112.452 M 121.580 111.871 C 121.284 112.350, 119.682 113.014, 118.021 113.346 C 115.788 113.792, 115 114.509, 115 116.092 C 115 117.741, 115.460 118.113, 117 117.710 C 118.100 117.423, 119 117.656, 119 118.230 C 119 118.803, 120.186 118.086, 121.636 116.636 C 123.086 115.186, 124.716 114, 125.259 114 C 125.801 114, 125.685 113.325, 125 112.500 C 123.596 110.809, 122.375 110.584, 121.580 111.871 M 44 114.027 C 44 117.777, 48.074 131.817, 49.508 133.007 C 50.574 133.891, 50.726 132.916, 50.322 127.797 C 49.693 119.816, 48.445 115.713, 45.962 113.466 C 44.066 111.750, 44 111.768, 44 114.027 M 189.409 113.395 C 188.905 114.696, 189.255 115.714, 190.529 116.645 C 192.973 118.432, 195 118.366, 195 116.500 C 195 115.675, 194.487 115, 193.860 115 C 193.233 115, 192.141 114.213, 191.432 113.250 C 190.213 111.595, 190.103 111.603, 189.409 113.395 M 300 113.559 C 300 114.416, 300.450 114.840, 301 114.500 C 301.550 114.160, 302 113.459, 302 112.941 C 302 112.423, 301.550 112, 301 112 C 300.450 112, 300 112.702, 300 113.559 M 148.607 116.582 C 147.682 118.991, 147.883 128, 148.862 128 C 149.336 128, 149.687 125.500, 149.643 122.444 C 149.587 118.578, 150.009 116.606, 151.031 115.959 C 152.282 115.168, 152.256 115.028, 150.857 115.015 C 149.953 115.007, 148.941 115.712, 148.607 116.582 M 66.596 116.845 C 65.893 117.983, 64.589 126.634, 65.216 126 C 66.343 124.860, 68.808 116, 67.998 116 C 67.514 116, 66.883 116.380, 66.596 116.845 M 76.667 117.667 C 76.300 118.033, 76 118.798, 76 119.367 C 76 119.993, 76.466 119.934, 77.183 119.217 C 77.834 118.566, 78.134 117.801, 77.850 117.517 C 77.566 117.233, 77.033 117.300, 76.667 117.667 M 159.999 119.500 C 159.925 121.874, 157.581 125.247, 156.651 124.318 C 156.293 123.960, 156 124.192, 156 124.833 C 156 125.475, 156.675 126, 157.500 126 C 158.325 126, 159 126.477, 159 127.059 C 159 127.641, 159.422 127.857, 159.939 127.538 C 160.455 127.219, 161.309 127.730, 161.838 128.675 C 162.509 129.873, 162.639 128.900, 162.271 125.446 C 161.695 120.053, 160.110 115.906, 159.999 119.500 M 78.500 120 C 78.160 120.550, 78.359 121, 78.941 121 C 79.523 121, 80 120.550, 80 120 C 80 119.450, 79.802 119, 79.559 119 C 79.316 119, 78.840 119.450, 78.500 120 M 228 119.694 C 225.609 120.549, 224 123.156, 224 126.179 C 224 128.337, 223.119 129.531, 220.137 131.413 C 217.194 133.271, 215.991 134.881, 215.081 138.176 C 214.424 140.554, 213.650 143.063, 213.360 143.750 C 213.070 144.438, 213.438 145, 214.176 145 C 216.046 145, 218.275 148.712, 216.911 149.555 C 216.335 149.911, 216.114 150.855, 216.420 151.653 C 216.751 152.514, 216.548 152.838, 215.921 152.451 C 215.341 152.092, 214.616 152.754, 214.311 153.920 C 213.873 155.592, 213.463 155.800, 212.378 154.899 C 211.309 154.011, 211 154.100, 211 155.294 C 211 156.141, 211.437 156.983, 211.971 157.167 C 212.785 157.446, 213.603 159.990, 213.926 163.250 C 214.045 164.455, 217.478 164.113, 218.947 162.750 C 220.044 161.732, 220.185 161.811, 219.707 163.177 C 218.930 165.393, 220.253 166.306, 227.944 168.860 C 236.250 171.618, 237.403 171.560, 239.558 168.270 C 240.614 166.659, 241.515 166.045, 241.757 166.770 C 242.451 168.852, 243.492 168.175, 246.787 163.500 C 248.531 161.025, 250.643 159, 251.479 159 C 252.316 159, 253.913 158.087, 255.030 156.970 L 257.059 154.941 254.094 153.239 C 252.463 152.303, 250.312 150.142, 249.314 148.436 C 247.623 145.544, 247.266 145.396, 244.036 146.251 L 240.572 147.168 243.036 149.062 L 245.500 150.956 242.340 150.978 C 240.602 150.990, 236.327 152.350, 232.840 153.999 C 224.638 157.879, 222.562 157.934, 223.302 154.250 C 223.606 152.738, 224.360 150.174, 224.978 148.552 L 226.101 145.605 228.101 148.552 L 230.102 151.500 229.437 146.750 C 228.801 142.202, 229.871 140.364, 231.562 143.100 C 232.009 143.824, 234.165 143.970, 237.871 143.526 C 247.013 142.431, 247.970 142.006, 249.487 138.376 C 251.114 134.482, 255.011 132.558, 259.469 133.446 C 263.873 134.323, 261.201 132.089, 256.372 130.856 C 247.553 128.604, 244.186 128.085, 238.125 128.044 L 231.750 128 232.342 125.039 C 232.739 123.057, 232.426 121.569, 231.396 120.539 C 230.550 119.692, 229.777 119.036, 229.679 119.079 C 229.580 119.122, 228.825 119.399, 228 119.694 M 89.980 123.524 C 89.284 124.362, 88.968 125.301, 89.276 125.610 C 89.585 125.919, 90.340 125.233, 90.954 124.086 C 92.264 121.638, 91.778 121.358, 89.980 123.524 M 124 123.678 C 125.925 124.512, 128.063 125.655, 128.750 126.219 C 129.615 126.929, 130 126.903, 130 126.136 C 130 125.002, 123.665 121.934, 121.628 122.082 C 121.008 122.126, 122.075 122.845, 124 123.678 M 176.762 123.707 C 178.006 123.946, 179.806 123.937, 180.762 123.687 C 181.718 123.437, 180.700 123.241, 178.500 123.252 C 176.300 123.263, 175.518 123.468, 176.762 123.707 M 183 124.393 C 183 124.609, 183.698 125.054, 184.552 125.382 C 185.442 125.723, 185.843 125.555, 185.493 124.989 C 184.906 124.038, 183 123.583, 183 124.393 M 77 126 C 77 126.550, 77.477 127, 78.059 127 C 78.641 127, 78.840 126.550, 78.500 126 C 78.160 125.450, 77.684 125, 77.441 125 C 77.198 125, 77 125.450, 77 126 M 82.771 130.956 C 80.724 134.232, 79.409 137.134, 79.849 137.407 C 80.289 137.679, 81.663 135.815, 82.901 133.266 C 84.251 130.488, 85.437 129.089, 85.861 129.775 C 86.331 130.536, 87.030 130.179, 87.945 128.710 C 89.237 126.636, 89.210 126.592, 87.516 127.992 C 85.853 129.367, 85.767 129.309, 86.423 127.242 C 87.524 123.774, 86.802 124.508, 82.771 130.956 M 76.976 131.525 C 74.002 134.536, 72.093 137, 72.734 137 C 73.376 137, 74.260 136.396, 74.700 135.657 C 75.140 134.919, 76.756 133.505, 78.291 132.516 C 80.973 130.786, 83.582 127.249, 82.772 126.439 C 82.558 126.225, 79.950 128.513, 76.976 131.525 M 139 130.441 C 139 131.298, 139.450 132, 140 132 C 140.550 132, 141 131.577, 141 131.059 C 141 130.541, 140.550 129.840, 140 129.500 C 139.450 129.160, 139 129.584, 139 130.441 M 151.008 129.974 C 149.849 130.707, 149.784 131.184, 150.716 132.116 C 151.648 133.048, 152.256 133.032, 153.447 132.044 C 156.035 129.896, 153.942 128.119, 151.008 129.974 M 66.952 134.911 C 68.306 137.440, 70.278 137.682, 69.812 135.261 C 69.628 134.305, 68.657 133.365, 67.656 133.172 C 66.096 132.872, 65.995 133.121, 66.952 134.911 M 200.247 134.250 C 198.069 136.980, 195.982 142, 197.025 142 C 197.618 142, 198.760 140.425, 199.564 138.500 C 200.369 136.575, 201.696 135, 202.513 135 C 203.331 135, 204 134.550, 204 134 C 204 132.586, 201.439 132.757, 200.247 134.250 M 130.079 136.583 C 130.127 137.748, 130.364 137.985, 130.683 137.188 C 130.972 136.466, 130.936 135.603, 130.604 135.271 C 130.272 134.939, 130.036 135.529, 130.079 136.583 M 227 136.059 C 227 136.641, 227.450 136.840, 228 136.500 C 228.550 136.160, 229 135.684, 229 135.441 C 229 135.198, 228.550 135, 228 135 C 227.450 135, 227 135.477, 227 136.059 M 282 137.423 C 283.375 138.251, 285.175 138.931, 286 138.934 C 287.333 138.939, 287.333 138.845, 286 138.091 C 285.175 137.624, 283.375 136.944, 282 136.579 L 279.500 135.917 282 137.423 M 363.187 137.750 C 363.370 138.713, 364.528 139.644, 365.760 139.820 C 368.222 140.171, 368.662 139.062, 366.800 137.200 C 365.009 135.409, 362.805 135.744, 363.187 137.750 M 54.835 137.778 C 51.334 138.484, 52.243 140.499, 56.130 140.650 C 58.256 140.732, 59.740 140.388, 59.428 139.884 C 59.117 139.380, 58.477 139.205, 58.007 139.496 C 57.536 139.787, 57.005 139.444, 56.826 138.734 C 56.647 138.024, 55.751 137.594, 54.835 137.778 M 224 140.798 C 224 143.191, 224.833 144.001, 226.598 143.324 C 228.575 142.565, 228.339 141.252, 226 140 C 224.332 139.107, 224 139.240, 224 140.798 M 201 142.441 C 201 145.099, 202.580 146.760, 203.236 144.792 C 203.460 144.121, 204.273 144.996, 205.043 146.736 C 205.969 148.828, 206.702 149.493, 207.207 148.700 C 207.790 147.782, 207.973 147.793, 207.985 148.750 C 207.993 149.438, 208.450 150, 209 150 C 211.236 150, 209.777 146.170, 206.404 143.184 C 202.086 139.361, 201 139.212, 201 142.441 M 54.627 142.707 C 53.413 143.921, 54.020 147.802, 55.750 149.886 C 56.712 151.045, 58.962 152.277, 60.750 152.622 C 63.498 153.153, 64 152.956, 64 151.348 C 64 150.301, 63.298 148.442, 62.439 147.217 C 60.675 144.698, 55.578 141.755, 54.627 142.707 M 166 144.088 C 166 144.804, 164.549 144.951, 161.750 144.517 L 157.500 143.859 160.750 145.915 C 164.434 148.245, 164.751 149.896, 162.264 153.785 C 159.848 157.562, 158.101 158.728, 153.834 159.411 C 151.803 159.735, 149.547 160.568, 148.821 161.262 C 148.094 161.956, 145.436 163.868, 142.913 165.512 C 138.539 168.362, 138.367 168.650, 139.192 171.750 C 139.668 173.537, 140.494 175, 141.029 175 C 142.204 175, 142.199 175.181, 141.128 171.445 C 140.334 168.679, 140.561 168.202, 143.628 166.192 C 146.916 164.037, 148.203 164.397, 145.800 166.800 C 145.140 167.460, 144.936 168, 145.348 168 C 145.759 168, 147.161 166.850, 148.463 165.445 C 150.769 162.957, 150.848 162.944, 151.483 164.945 C 151.841 166.075, 152.466 167, 152.871 167 C 154.101 167, 173.358 178.678, 175.533 180.744 C 178.186 183.262, 183 184.535, 183 182.719 C 183 181.994, 182.519 180.919, 181.931 180.331 C 181.343 179.743, 180.714 178.640, 180.533 177.881 C 179.552 173.749, 178.661 172.091, 177.732 172.666 C 177.132 173.037, 176.990 172.826, 177.397 172.167 C 177.785 171.540, 177.179 170.035, 176.051 168.824 C 173.912 166.528, 173.255 164.422, 175.019 165.511 C 175.579 165.858, 174.904 163.578, 173.519 160.446 C 172.099 157.237, 171 152.872, 171 150.447 C 171 147.867, 170.370 145.513, 169.429 144.571 C 167.606 142.749, 166 142.523, 166 144.088 M 196.349 145.468 C 196.659 146.275, 196.521 147.178, 196.042 147.474 C 195.563 147.770, 194.943 147.447, 194.664 146.756 C 194.331 145.928, 194.131 146.039, 194.079 147.081 C 194.036 147.951, 195.138 149.271, 196.530 150.016 C 198.722 151.189, 199.277 151.151, 200.697 149.731 C 202.215 148.213, 202.158 147.945, 199.918 146.080 C 197.045 143.688, 195.569 143.435, 196.349 145.468 M 367.345 145.543 C 367.019 146.392, 366.976 147.310, 367.249 147.583 C 367.523 147.856, 367.986 147.161, 368.279 146.040 C 368.903 143.657, 368.210 143.289, 367.345 145.543 M 397.124 146.826 C 395.881 148.572, 395.275 150, 395.777 150 C 397.268 150, 400.239 146.217, 399.795 144.884 C 399.556 144.168, 398.437 144.982, 397.124 146.826 M 117.500 148 C 116.647 149.650, 116.203 151, 116.513 151 C 116.824 151, 116.234 151.906, 115.203 153.013 C 113.489 154.852, 110.658 161.992, 111.363 162.696 C 111.527 162.860, 112.714 160.745, 114.001 157.997 C 115.289 155.249, 116.940 153, 117.671 153 C 118.402 153, 119 152.550, 119 152 C 119 151.450, 118.523 151, 117.941 151 C 117.359 151, 117.165 150.543, 117.510 149.984 C 117.856 149.425, 118.557 149.226, 119.069 149.543 C 119.581 149.859, 120 149.678, 120 149.141 C 120 148.603, 120.273 147.452, 120.607 146.582 C 121.700 143.734, 119.090 144.925, 117.500 148 M 347.295 148.915 C 345.758 150.511, 342.264 153.720, 339.531 156.045 C 335.840 159.186, 335.197 160.083, 337.031 159.533 C 340.793 158.404, 348 154.046, 348 152.899 C 348 152.340, 348.429 152.147, 348.954 152.472 C 350.455 153.399, 355 151.922, 355 150.507 C 355 149.804, 353.895 148.506, 352.545 147.621 C 350.193 146.080, 349.972 146.135, 347.295 148.915 M 135.475 149.041 C 135.121 149.613, 133.901 149.786, 132.765 149.425 C 131.139 148.909, 130.830 149.115, 131.317 150.385 C 131.658 151.273, 131.534 152, 131.042 152 C 130.550 152, 129.979 151.213, 129.773 150.250 C 129.485 148.902, 129.009 149.236, 127.700 151.700 C 125.471 155.897, 125.552 158.239, 127.980 159.755 C 129.681 160.818, 130.159 160.676, 131.376 158.746 C 132.154 157.511, 133.071 155.560, 133.412 154.410 C 133.754 153.261, 135.151 151.722, 136.517 150.991 C 137.882 150.260, 139 149.288, 139 148.831 C 139 147.640, 136.239 147.804, 135.475 149.041 M 398.272 150.936 C 397.324 152.454, 397.388 152.935, 398.599 153.400 C 399.427 153.717, 399.853 153.571, 399.546 153.074 C 399.239 152.577, 399.553 151.964, 400.244 151.710 C 401.109 151.393, 401.181 150.908, 400.475 150.150 C 399.741 149.362, 399.116 149.585, 398.272 150.936 M 359.500 151 C 359.160 151.550, 359.359 152, 359.941 152 C 360.523 152, 361 151.550, 361 151 C 361 150.450, 360.802 150, 360.559 150 C 360.316 150, 359.840 150.450, 359.500 151 M 24.117 151.906 C 22.958 152.641, 22.998 153.160, 24.367 155.114 C 25.265 156.396, 26.009 159.257, 26.019 161.473 C 26.049 167.707, 28.365 175.447, 30.313 175.822 C 32.446 176.233, 35 173.729, 35 171.228 C 35 166.818, 28.062 150.970, 26.151 151.015 C 25.793 151.024, 24.878 151.425, 24.117 151.906 M 121.500 154 C 121.138 155.650, 120.379 157, 119.814 157 C 119.248 157, 119.054 156.302, 119.382 155.448 C 119.723 154.558, 119.555 154.157, 118.989 154.507 C 118.445 154.843, 118 155.766, 118 156.559 C 118 158.600, 120.938 158.353, 121.683 156.250 C 122.025 155.287, 122.980 153.713, 123.807 152.750 C 125.149 151.188, 125.141 151, 123.734 151 C 122.797 151, 121.892 152.215, 121.500 154 M 55.007 152.939 C 55.010 153.248, 55.907 158.675, 57 165 C 59.377 178.761, 59.387 179, 57.572 179 C 56.585 179, 55.924 180.761, 55.431 184.707 C 54.424 192.768, 55.544 222.944, 56.900 224.300 C 57.505 224.905, 58 225.930, 58 226.578 C 58 227.226, 58.719 229.476, 59.598 231.579 C 61.562 236.281, 61.728 236.015, 65.983 221.314 L 69.222 210.129 66.169 206.862 C 63.649 204.166, 62.998 202.453, 62.439 197.048 C 62.067 193.446, 61.148 188.700, 60.396 186.500 C 58.761 181.715, 58.656 180, 60 180 C 60.550 180, 61.016 180.787, 61.035 181.750 C 61.055 182.713, 61.697 184.625, 62.463 186 C 63.628 188.092, 63.959 188.232, 64.493 186.859 C 64.843 185.957, 64.715 182.932, 64.207 180.138 C 63.699 177.343, 63.670 175.296, 64.142 175.588 C 64.614 175.879, 65 175.361, 65 174.437 C 65 173.055, 65.268 172.977, 66.500 174 C 67.618 174.928, 68 174.944, 68 174.063 C 68 173.414, 68.450 173.160, 69 173.500 C 70.150 174.211, 70.275 163.553, 69.150 160.703 C 68.502 159.061, 54.991 151.645, 55.007 152.939 M 394 153.885 C 394 154.782, 397.005 156.328, 397.598 155.736 C 397.769 155.564, 397.030 154.875, 395.955 154.204 C 394.880 153.532, 394 153.389, 394 153.885 M 174.482 156.354 C 175.279 160.092, 177.967 164.139, 179.162 163.400 C 180.499 162.574, 179.609 160.501, 177.917 160.497 C 177.137 160.496, 176.483 159.821, 176.463 158.997 C 176.443 158.174, 175.852 156.600, 175.150 155.500 C 173.982 153.670, 173.925 153.743, 174.482 156.354 M 395.393 158.471 C 395.736 160.811, 397.031 161.569, 398.002 159.997 C 398.572 159.075, 398.462 158.278, 397.697 157.792 C 395.877 156.634, 395.155 156.847, 395.393 158.471 M 390.094 159.387 C 389.276 160.372, 389.234 161.026, 389.959 161.474 C 390.539 161.833, 391.292 161.404, 391.631 160.520 C 392.475 158.320, 391.547 157.636, 390.094 159.387 M 117.507 159.989 C 117.157 160.555, 117.558 160.723, 118.448 160.382 C 120.180 159.717, 120.497 159, 119.059 159 C 118.541 159, 117.843 159.445, 117.507 159.989 M 154.667 160.667 C 154.300 161.033, 154 161.798, 154 162.367 C 154 162.993, 154.466 162.934, 155.183 162.217 C 155.834 161.566, 156.134 160.801, 155.850 160.517 C 155.566 160.232, 155.033 160.300, 154.667 160.667 M 400 161 C 400 161.550, 400.450 162, 401 162 C 401.550 162, 402 161.550, 402 161 C 402 160.450, 401.550 160, 401 160 C 400.450 160, 400 160.450, 400 161 M 89.269 163.813 C 87.021 165.241, 89.082 180.946, 92.012 184.715 C 93.067 186.073, 94.223 190.633, 94.998 196.488 C 95.694 201.744, 96.649 206.283, 97.120 206.574 C 97.954 207.090, 97.538 201.040, 96.254 194 C 95.903 192.075, 95.579 188.475, 95.533 186 C 95.486 183.433, 94.504 179.709, 93.247 177.331 C 91.944 174.867, 90.969 171.085, 90.863 168.081 C 90.764 165.287, 90.642 163.007, 90.591 163.015 C 90.541 163.024, 89.946 163.383, 89.269 163.813 M 394.667 163.667 C 392.910 165.424, 394.117 167.699, 396.848 167.777 C 399.339 167.847, 399.637 167.554, 399.231 165.429 C 398.790 163.122, 396.208 162.125, 394.667 163.667 M 342.170 166.100 C 340.787 168.315, 341.835 168.573, 344.449 166.661 C 345.963 165.554, 346.027 165.224, 344.819 164.761 C 343.998 164.446, 342.836 165.033, 342.170 166.100 M 379.150 167 C 379.725 168.650, 380.602 170, 381.098 170 C 382.295 170, 382.240 168.317, 380.965 165.934 C 379.325 162.869, 377.984 163.656, 379.150 167 M 212.072 169.045 L 207.880 173.280 200.995 172.703 C 193.218 172.051, 192.932 172.613, 198.144 178.318 C 199.715 180.038, 201 182.380, 201 183.523 C 201 185.912, 202.768 188, 204.790 188 C 205.554 188, 206.927 188.853, 207.840 189.894 C 209.312 191.574, 215 193.725, 215 192.602 C 215 192.362, 214.100 190.066, 213 187.500 C 211.900 184.934, 211 181.725, 211 180.369 C 211 176.968, 215.590 173.235, 220.762 172.432 C 223.107 172.067, 225.232 171.434, 225.485 171.024 C 225.738 170.614, 224.045 169.441, 221.723 168.417 C 219.400 167.393, 217.222 166.163, 216.882 165.683 C 216.543 165.203, 214.378 166.716, 212.072 169.045 M 393.638 170.500 C 393.955 171.325, 394.391 172, 394.607 172 C 394.823 172, 395 171.325, 395 170.500 C 395 169.675, 394.564 169, 394.031 169 C 393.499 169, 393.322 169.675, 393.638 170.500 M 190.484 174.018 C 189.081 175.567, 188.456 175.746, 187.839 174.774 C 187.191 173.752, 187.028 173.759, 187.015 174.809 C 187.006 175.589, 186.495 175.814, 185.750 175.367 C 184.792 174.791, 184.799 174.986, 185.782 176.199 C 186.823 177.485, 187.524 177.568, 189.514 176.641 C 190.862 176.013, 192.208 174.873, 192.506 174.107 C 193.376 171.868, 192.466 171.828, 190.484 174.018 M 385.015 172.817 C 385.061 174.834, 386.934 176.156, 388.875 175.540 C 392.055 174.530, 391.472 172.318, 388 172.219 C 386.350 172.172, 385.007 172.441, 385.015 172.817 M 317.632 173.786 C 317.365 174.218, 318.014 174.571, 319.073 174.571 C 320.133 174.571, 321 174.218, 321 173.786 C 321 173.354, 320.352 173, 319.559 173 C 318.766 173, 317.900 173.354, 317.632 173.786 M 220 175 C 218.172 176.181, 219.751 176.181, 222.500 175 C 223.819 174.433, 223.989 174.122, 223 174.086 C 222.175 174.055, 220.825 174.467, 220 175 M 131.823 177.250 C 129.040 182.269, 125.985 189.318, 126.409 189.742 C 126.658 189.991, 127.860 187.871, 129.081 185.032 C 130.689 181.295, 131.554 180.233, 132.216 181.185 C 132.819 182.052, 132.902 181.690, 132.458 180.125 C 132.001 178.509, 132.140 177.968, 132.893 178.434 C 133.565 178.849, 134 178.310, 134 177.059 C 134 174.399, 133.373 174.454, 131.823 177.250 M 326 176.918 C 326 177.423, 325.727 178.548, 325.393 179.418 C 324.935 180.611, 325.427 181, 327.393 181 C 328.827 181, 330 180.550, 330 180 C 330 179.450, 329.550 179, 329 179 C 328.450 179, 328 178.523, 328 177.941 C 328 177.359, 328.450 177.160, 329 177.500 C 329.550 177.840, 330 177.641, 330 177.059 C 330 176.477, 329.100 176, 328 176 C 326.900 176, 326 176.413, 326 176.918 M 116 177.819 C 116 179.027, 117.897 180.436, 118.591 179.743 C 118.842 179.491, 118.362 178.716, 117.524 178.020 C 116.574 177.231, 116 177.155, 116 177.819 M 305 178.094 C 305 178.592, 305.900 179, 307 179 C 308.100 179, 309 178.827, 309 178.617 C 309 178.406, 308.100 177.998, 307 177.710 C 305.900 177.423, 305 177.595, 305 178.094 M 184.273 181.031 C 184.094 183.404, 185.588 184.516, 186.336 182.567 C 186.636 181.786, 186.327 180.686, 185.650 180.124 C 184.750 179.378, 184.379 179.623, 184.273 181.031 M 425 180 C 425 180.550, 425.450 181, 426 181 C 426.550 181, 427 180.550, 427 180 C 427 179.450, 426.550 179, 426 179 C 425.450 179, 425 179.450, 425 180 M 134.079 182.583 C 134.127 183.748, 134.364 183.985, 134.683 183.188 C 134.972 182.466, 134.936 181.603, 134.604 181.271 C 134.272 180.939, 134.036 181.529, 134.079 182.583 M 387.500 182 C 387.160 182.550, 387.359 183, 387.941 183 C 388.523 183, 389 182.550, 389 182 C 389 181.450, 388.802 181, 388.559 181 C 388.316 181, 387.840 181.450, 387.500 182 M 391 182 C 391 182.550, 391.477 183, 392.059 183 C 392.641 183, 392.840 182.550, 392.500 182 C 392.160 181.450, 391.684 181, 391.441 181 C 391.198 181, 391 181.450, 391 182 M 123.983 193.544 C 122.419 197.658, 121.650 201.564, 122.574 200.702 C 123.462 199.873, 125.974 191, 125.321 191 C 125.117 191, 124.515 192.145, 123.983 193.544 M 402 200.827 C 402 201.282, 403.350 201.455, 405 201.213 C 406.650 200.971, 408 200.599, 408 200.387 C 408 200.174, 406.650 200, 405 200 C 403.350 200, 402 200.372, 402 200.827 M 119.482 208.412 C 118.583 211.507, 118.022 214.567, 118.237 215.212 C 118.452 215.857, 119.422 213.558, 120.391 210.103 C 121.361 206.648, 121.921 203.588, 121.636 203.303 C 121.351 203.018, 120.382 205.317, 119.482 208.412 M 423.029 204.961 C 422.220 205.473, 421.863 206.196, 422.236 206.569 C 423.151 207.484, 426 206.320, 426 205.031 C 426 203.761, 424.965 203.737, 423.029 204.961 M 258.500 207.910 C 255.200 209.429, 248.450 212.172, 243.500 214.006 C 230.262 218.909, 229.588 219.742, 236.250 222.958 C 243.227 226.327, 250.442 230.361, 253.581 232.651 L 256.530 234.801 259.313 232.407 C 260.844 231.090, 262.757 228.547, 263.563 226.756 C 265.005 223.554, 265.901 221.983, 269.119 217.004 C 272.182 212.266, 272.369 210.022, 269.920 207.415 C 267.103 204.416, 265.984 204.465, 258.500 207.910 M 97.654 212.750 C 97.993 215.363, 98.654 218.175, 99.122 219 C 99.717 220.047, 99.850 219.745, 99.561 218 C 99.334 216.625, 99.115 213.813, 99.074 211.750 C 99.033 209.688, 98.559 208, 98.019 208 C 97.429 208, 97.284 209.893, 97.654 212.750 M 207.203 211.197 C 205.648 212.752, 205.646 216, 207.200 216 C 208.133 216, 208.133 216.267, 207.200 217.200 C 206.540 217.860, 206 219.210, 206 220.200 C 206 221.590, 206.796 222, 209.500 222 C 213.554 222, 214.251 219.901, 210.750 218.235 C 208.565 217.196, 208.592 217.145, 211.688 216.470 C 214.595 215.836, 214.771 215.586, 213.688 213.637 C 213.035 212.462, 212.500 211.443, 212.500 211.374 C 212.500 210.454, 208.093 210.307, 207.203 211.197 M 296.859 213.750 C 295.142 218.076, 285.885 244.278, 285.288 246.500 C 284.493 249.463, 289.031 243.257, 297.200 230.212 L 304.269 218.923 302.483 214.962 C 300.393 210.326, 298.389 209.895, 296.859 213.750 M 364.639 216.694 C 363.444 217.889, 363.994 220, 365.500 220 C 366.325 220, 367 219.352, 367 218.559 C 367 216.888, 365.573 215.761, 364.639 216.694 M 77.500 237 C 77.160 237.550, 77.359 238, 77.941 238 C 78.523 238, 79 237.550, 79 237 C 79 236.450, 78.802 236, 78.559 236 C 78.316 236, 77.840 236.450, 77.500 237 M 365.485 240.025 C 365.136 240.588, 365.391 240.926, 366.051 240.775 C 368.603 240.190, 367.970 242.963, 365.059 245.115 C 359.567 249.175, 361.603 251.192, 370.861 250.865 C 373.807 250.760, 375.993 250.217, 375.985 249.591 C 375.963 248.058, 374.447 245.837, 373.388 245.787 C 370.024 245.629, 368.667 242.449, 371.500 241.362 C 372.325 241.045, 373 240.384, 373 239.893 C 373 238.650, 366.261 238.768, 365.485 240.025 M 361.638 241.500 C 361.322 242.325, 361.499 243, 362.031 243 C 362.564 243, 363 242.325, 363 241.500 C 363 240.675, 362.823 240, 362.607 240 C 362.391 240, 361.955 240.675, 361.638 241.500 M 96 248.833 C 96 250.165, 96.625 251, 97.622 251 C 99.011 251, 99.052 250.748, 97.905 249.250 C 97.169 248.287, 96.439 247.313, 96.283 247.083 C 96.127 246.854, 96 247.642, 96 248.833" stroke="none" fill="black" fill-rule="evenodd"/>
</svg>