<svg xmlns="http://www.w3.org/2000/svg" width="446" height="251" viewBox="0 0 446 251" version="1.1">
	<path d="M 0.607 1.582 C 0.273 2.452, 0.016 9.539, 0.035 17.332 C 0.067 30.123, 0.210 31.257, 1.500 29 L 2.929 26.500 2.965 28.809 C 2.984 30.079, 3.378 30.884, 3.840 30.599 C 4.302 30.313, 5.931 35.445, 7.459 42.002 C 9.508 50.790, 10.059 55.118, 9.557 58.469 C 9.006 62.145, 9.183 63.133, 10.486 63.633 C 11.452 64.004, 12.664 63.501, 13.516 62.375 C 15.252 60.083, 15.449 50.703, 13.825 47.684 C 11.917 44.139, 11.137 37.905, 12.214 34.815 C 13.184 32.034, 17.411 29, 20.315 29 C 21.094 29, 22.923 29.938, 24.381 31.085 C 25.839 32.232, 28.528 33.583, 30.357 34.088 C 32.384 34.648, 34.126 35.981, 34.819 37.503 C 36.034 40.168, 38 40.883, 38 38.660 C 38 37.923, 39.682 36.123, 41.738 34.660 C 43.794 33.197, 45.032 31.998, 44.488 31.996 C 43.945 31.994, 44.973 31.094, 46.774 29.996 C 48.575 28.898, 50.571 28, 51.210 28 C 51.848 28, 53.511 26.988, 54.905 25.750 C 56.339 24.477, 56.848 24.271, 56.077 25.274 C 54.103 27.845, 55.298 28.343, 57.941 26.051 L 60.203 24.089 57.409 23.388 C 54.719 22.713, 54.697 22.656, 56.808 21.876 C 58.013 21.429, 59 20.375, 59 19.532 C 59 18.690, 59.482 18, 60.072 18 C 60.661 18, 61.061 16.987, 60.961 15.750 C 60.492 9.964, 60.701 9.706, 65.431 10.239 C 68.013 10.530, 70.369 10.272, 71.078 9.619 C 72.004 8.767, 72.152 8.905, 71.698 10.199 C 71.275 11.404, 71.524 11.736, 72.553 11.341 C 74.996 10.404, 78.459 11.790, 81.553 14.942 C 83.174 16.593, 84.915 17.957, 85.421 17.972 C 85.928 17.987, 87.165 18.745, 88.171 19.655 C 89.903 21.222, 90.002 21.155, 90.032 18.405 C 90.062 15.668, 90.147 15.610, 91.496 17.392 C 92.283 18.432, 93.141 19.782, 93.401 20.392 C 94.400 22.731, 97.001 17.492, 97.042 13.059 L 97.084 8.500 99.092 12 C 101.098 15.498, 101.099 15.498, 100.473 12.519 C 100.128 10.879, 99.768 9.094, 99.673 8.552 C 99.578 8.010, 101.033 6.786, 102.906 5.833 L 106.312 4.099 103.656 2.889 C 102.195 2.224, 101 1.301, 101 0.839 C 101 0.378, 78.548 0, 51.107 0 C 6.534 0, 1.149 0.169, 0.607 1.582 M 215.577 2.250 C 214.115 9.380, 214.012 11.837, 215.160 12.220 C 215.956 12.485, 215.582 13.418, 214.074 14.926 C 212.045 16.955, 211.853 17.836, 212.448 22.364 C 213.066 27.067, 215 31.362, 215 28.033 C 215 27.282, 215.205 26.871, 215.455 27.122 C 215.705 27.372, 215.275 29.359, 214.499 31.538 C 212.799 36.311, 212.668 38, 214 38 C 214.550 38, 215 37.325, 215 36.500 C 215 34.317, 216.651 34.664, 218.443 37.223 C 219.723 39.049, 220 39.138, 220 37.723 C 220 36.775, 220.450 36, 221 36 C 221.550 36, 222.053 34.087, 222.118 31.750 C 222.183 29.413, 222.521 26.180, 222.868 24.566 L 223.500 21.631 226.105 24.066 C 228.115 25.943, 228.691 27.414, 228.627 30.500 C 228.580 32.700, 227.967 34.950, 227.263 35.500 C 226.559 36.050, 225.398 40.550, 224.684 45.500 L 223.384 54.500 221.557 51.719 C 220.551 50.189, 219.576 49.091, 219.388 49.279 C 219.200 49.466, 218.572 52.968, 217.993 57.060 C 216.433 68.069, 207.917 81.224, 206.316 75.099 C 205.877 73.420, 205.429 73.235, 203.850 74.080 C 202.789 74.648, 201.152 75.006, 200.211 74.877 C 198.221 74.602, 191.274 77.448, 189.037 79.454 C 188.191 80.211, 184.800 81.538, 181.500 82.402 C 178.200 83.266, 172.582 85.476, 169.015 87.313 C 163.798 90.001, 162.353 91.273, 161.621 93.827 C 161.120 95.572, 160.299 97, 159.796 97 C 159.293 97, 159.160 97.450, 159.500 98 C 160.498 99.614, 159.010 99.153, 156.273 97 C 154.874 95.900, 152.423 95, 150.825 95 C 147.783 95, 141.191 97.954, 137.096 101.153 C 134.828 102.924, 134.585 102.934, 132.810 101.328 C 131.776 100.392, 131.180 98.973, 131.487 98.174 C 131.793 97.376, 131.091 94.753, 129.926 92.347 C 127.322 86.969, 121.130 82.990, 115.412 83.022 C 110.558 83.049, 103.794 86.029, 101.656 89.081 C 99.649 91.946, 98.986 91.309, 97.894 85.461 C 97.108 81.255, 97.538 77.305, 99.415 71.500 C 99.906 69.983, 99.776 70.044, 98.878 71.750 C 97.492 74.386, 96.448 74.609, 95.618 72.448 C 95.291 71.594, 95.441 71.154, 95.951 71.470 C 96.461 71.785, 96.812 71.153, 96.730 70.065 C 96.648 68.976, 96.394 68.272, 96.166 68.500 C 95.938 68.728, 94.959 67.936, 93.990 66.740 C 92.490 64.887, 91.992 64.762, 90.627 65.894 C 89.746 66.626, 88.401 66.984, 87.637 66.691 C 86.874 66.398, 85.022 66.795, 83.523 67.573 C 82.023 68.351, 79.721 68.717, 78.408 68.387 C 75.226 67.589, 74.004 70.491, 76.625 72.618 C 78.353 74.021, 78.145 74.099, 73.978 73.620 C 66.850 72.801, 66.243 74.047, 71.436 78.835 C 75.588 82.661, 75.759 83, 73.537 83 C 70.562 83, 69.800 84.139, 69.800 88.585 C 69.800 90.909, 69.201 92.357, 67.966 93.018 C 64.950 94.632, 60.443 94.147, 58.500 92 C 57.505 90.900, 56.281 90, 55.781 90 C 55.281 90, 52.412 88.875, 49.406 87.500 C 46.400 86.125, 43.504 85, 42.970 85 C 41.435 85, 41.842 88.002, 43.462 88.624 C 46.470 89.778, 46.202 92.789, 42.800 96.066 C 40.985 97.814, 38.505 99.904, 37.290 100.711 C 35.595 101.836, 34.924 103.552, 34.414 108.062 C 33.905 112.559, 33.310 114.084, 31.889 114.535 C 29.289 115.361, 9.575 104.743, 4.250 99.649 L 0 95.584 0 166.351 C 0 222.684, 0.255 236.970, 1.250 236.394 C 4.671 234.414, 26.159 219.552, 26.575 218.878 C 27.207 217.856, 23.002 194.309, 17.889 170.236 C 15.638 159.640, 14.069 150.264, 14.401 149.398 C 14.868 148.181, 15.861 147.970, 18.789 148.464 C 20.871 148.816, 24.767 148.612, 27.447 148.012 C 30.821 147.256, 32.640 147.240, 33.360 147.960 C 33.932 148.532, 36.732 149, 39.581 149 C 44.394 149, 44.966 149.267, 47.621 152.750 C 52.023 158.524, 56.296 162.704, 58.500 163.392 C 59.616 163.741, 61.946 166.775, 63.773 170.258 C 65.572 173.691, 66.360 175.626, 65.523 174.559 C 64.046 172.677, 64.003 172.692, 64.098 175.059 C 64.275 179.469, 67.478 190.506, 68.500 190.225 C 69.636 189.912, 69.745 186.146, 68.766 181 L 68.100 177.500 70.228 181.711 C 72.681 186.564, 73.792 187.207, 77.759 186.069 C 80.976 185.147, 89.835 186.293, 96.261 188.463 C 98.592 189.250, 102.539 190.348, 105.031 190.902 C 111.059 192.243, 120.324 197.813, 122.351 201.315 C 123.248 202.863, 124.443 203.844, 125.007 203.496 C 125.571 203.147, 125.797 202.481, 125.509 202.015 C 125.222 201.550, 127.262 200.681, 130.043 200.084 C 137.916 198.396, 140.530 196.585, 143.397 190.831 C 144.829 187.958, 146 184.721, 146 183.637 C 146 182.553, 146.270 181.937, 146.601 182.267 C 146.931 182.598, 146.465 187.285, 145.566 192.684 C 142.987 208.164, 146.070 218.433, 154.497 222.431 C 157.616 223.912, 159.104 224.020, 164.336 223.148 C 167.726 222.584, 173.439 221.827, 177.030 221.468 C 183.367 220.833, 183.565 220.883, 183.732 223.157 C 183.826 224.446, 184.903 231.237, 186.125 238.250 L 188.346 251 249.298 251 L 310.250 251 309.646 247.980 C 309.314 246.319, 307.836 242.496, 306.361 239.485 C 303.883 234.423, 303.802 233.876, 305.290 232.232 C 306.646 230.733, 306.756 229.359, 305.986 223.477 C 304.960 215.636, 302.778 169.889, 303.400 169.267 C 303.621 169.046, 306.001 169.980, 308.690 171.343 C 313.151 173.603, 313.742 174.330, 315.454 179.660 C 316.486 182.872, 317.254 186.594, 317.161 187.932 C 317.068 189.269, 317.912 192.823, 319.037 195.829 L 321.082 201.294 318.985 205.755 C 317.487 208.942, 317.087 211.112, 317.586 213.358 C 318.200 216.126, 318.377 216.262, 319.071 214.500 C 320.053 212.010, 320.025 211.931, 321.379 221 L 322.500 228.500 327.232 230.847 C 331.507 232.968, 333.196 233.182, 344.732 233.066 C 351.945 232.993, 357.645 232.515, 357.833 231.968 C 358.017 231.436, 359.283 231, 360.648 231 L 363.130 231 362.433 215.250 C 362.050 206.588, 362 199.741, 362.322 200.037 C 362.643 200.332, 363.383 207.283, 363.965 215.485 C 364.658 225.240, 365.453 230.662, 366.262 231.164 C 366.943 231.586, 371.775 231.689, 377 231.394 C 382.225 231.098, 387.175 230.908, 388 230.970 C 400.647 231.922, 414.103 231.986, 417.035 231.108 C 419.347 230.415, 421.760 230.358, 423.813 230.946 C 425.566 231.449, 427 231.493, 427 231.043 C 427 230.593, 430.038 229.983, 433.750 229.686 C 437.462 229.389, 441.709 228.841, 443.187 228.468 C 445.760 227.820, 445.891 227.978, 446.263 232.145 C 446.909 239.399, 446.774 100.977, 446.115 79.500 L 445.500 59.500 441.500 59.592 C 437.011 59.696, 428.048 61.226, 420.420 63.191 C 413.276 65.032, 411.506 67.129, 411.473 73.789 C 411.452 78.144, 411.015 79.570, 409.266 80.986 C 408.066 81.957, 407.366 83.033, 407.709 83.376 C 408.052 83.719, 407.858 84, 407.278 84 C 406.697 84, 406.285 84.725, 406.361 85.612 C 406.438 86.498, 405.607 87.735, 404.515 88.362 C 403.424 88.988, 401.949 90.269, 401.238 91.208 C 398.972 94.202, 397.358 92.279, 397.040 86.208 C 396.876 83.069, 396.628 78.700, 396.489 76.500 C 396.351 74.300, 395.523 61.250, 394.650 47.500 C 393.778 33.750, 392.780 17.438, 392.433 11.250 L 391.803 0 388.901 0 C 386.295 0, 386 0.331, 385.996 3.250 C 385.993 6.220, 387.106 26.839, 390.318 83.276 L 391.500 104.053 394.743 101.089 C 396.998 99.028, 397.783 97.597, 397.319 96.389 C 396.822 95.095, 397.048 94.804, 398.205 95.248 C 399.058 95.576, 400.261 95.339, 400.878 94.722 C 401.707 93.893, 402 94.031, 402 95.253 C 402 96.162, 400.225 98.332, 398.055 100.076 C 395.885 101.820, 393.635 104.608, 393.055 106.273 C 391.791 109.899, 391.724 110.984, 392.876 109.166 C 393.557 108.092, 393.840 108.141, 394.329 109.416 C 394.664 110.287, 394.449 111, 393.852 111 C 393.255 111, 392.996 111.878, 393.277 112.952 C 393.558 114.026, 393.335 115.055, 392.783 115.239 C 392.230 115.423, 393.636 116.862, 395.907 118.436 C 400.348 121.513, 400.722 122.568, 396.889 121.209 C 394.157 120.240, 391 120.704, 391 122.073 C 391 122.583, 391.436 123, 391.969 123 C 392.501 123, 392.678 123.675, 392.362 124.500 C 392.045 125.325, 391.104 126, 390.271 126 C 389.039 126, 388.988 126.280, 389.996 127.495 C 390.678 128.317, 391.210 130.890, 391.178 133.214 C 391.146 135.538, 391.598 138.015, 392.182 138.719 C 392.959 139.656, 392.876 139.981, 391.872 139.930 C 389.943 139.831, 386.230 138.156, 387.750 138.070 C 388.438 138.032, 389 137.114, 389 136.031 C 389 134.692, 388.520 134.247, 387.500 134.638 C 386.650 134.964, 386 136.454, 386 138.075 C 386 140.168, 385.262 141.337, 383.250 142.428 C 381.738 143.249, 381.053 143.938, 381.729 143.960 C 382.695 143.991, 382.699 144.587, 381.749 146.750 C 381.084 148.263, 380.251 149.725, 379.896 150 C 379.541 150.275, 378.975 152.075, 378.638 154 L 378.025 157.500 379.547 154.500 L 381.069 151.500 380.653 154.500 C 380.424 156.150, 379.237 161.100, 378.016 165.500 C 374.296 178.898, 373.808 181.282, 373.569 187.247 C 373.327 193.310, 372.651 195.140, 371.635 192.491 C 371.298 191.614, 371.441 191.155, 371.952 191.470 C 372.889 192.049, 372.677 189.507, 370.916 179.066 C 370.412 176.078, 369.968 170.678, 369.930 167.066 C 369.881 162.471, 369.601 161.100, 369 162.500 C 367.786 165.326, 367.754 162.343, 368.954 158.159 C 369.724 155.477, 369.658 155.039, 368.616 155.903 C 366.670 157.519, 363.011 173.021, 363.814 176.250 C 363.916 176.662, 363.502 177, 362.893 177 C 362.252 177, 362.066 177.736, 362.452 178.750 C 362.986 180.153, 362.869 180.252, 361.859 179.250 C 360.503 177.904, 353.142 177.559, 351.500 178.765 C 350.336 179.620, 347.198 187.697, 345.751 193.562 L 344.749 197.624 341.446 196.062 C 339.629 195.203, 337.702 193.600, 337.163 192.500 C 336.225 190.587, 336.188 190.598, 336.304 192.750 C 336.371 193.988, 336.759 195, 337.166 195 C 337.573 195, 338.678 196.688, 339.621 198.750 C 340.565 200.813, 341.555 202.907, 341.823 203.405 C 342.090 203.902, 341.789 203.988, 341.155 203.595 C 340.520 203.203, 340 202.282, 340 201.548 C 340 200.814, 339.296 199.944, 338.437 199.614 C 337.577 199.284, 337.134 198.592, 337.453 198.076 C 337.772 197.560, 337.510 196.815, 336.870 196.420 C 336.044 195.909, 335.900 196.467, 336.373 198.351 C 336.739 199.808, 336.624 201, 336.119 201 C 335.613 201, 335.294 199.624, 335.411 197.942 C 335.527 196.261, 335.227 194.640, 334.743 194.341 C 334.259 194.042, 334.078 193.240, 334.339 192.558 C 334.601 191.876, 334.413 190.684, 333.923 189.909 C 333.202 188.771, 333.028 188.837, 333.015 190.250 C 333.007 191.213, 332.550 192, 332 192 C 331.450 192, 331 192.675, 331 193.500 C 331 194.325, 330.568 195, 330.039 195 C 329.511 195, 330.074 193.052, 331.289 190.670 C 333.411 186.516, 333.553 186.425, 334.819 188.420 C 336.065 190.385, 336.102 190.389, 335.482 188.500 C 332.909 180.663, 330.894 173.578, 329.650 167.994 C 328.852 164.416, 326.091 157.125, 323.513 151.790 C 320.764 146.104, 319.134 141.556, 319.573 140.796 C 319.984 140.083, 319.983 139.803, 319.570 140.174 C 319.156 140.545, 316.800 139.307, 314.333 137.424 C 311.865 135.541, 308.952 134, 307.858 134 C 306.764 134, 304.991 133.531, 303.919 132.957 C 301.271 131.540, 300.145 134.398, 302.379 136.866 C 303.270 137.851, 304 139.215, 304 139.897 C 304 141.949, 298.298 137.290, 297.722 134.767 C 295.481 124.944, 292.318 115.599, 289 109 C 285.139 101.321, 284.960 101.140, 276.791 96.699 C 272.231 94.220, 266.700 91.707, 264.500 91.114 C 260.406 90.010, 251.491 84.262, 249.250 81.281 C 248.563 80.366, 248 78.129, 248 76.309 C 248 73.519, 248.362 73, 250.309 73 C 254.568 73, 257.557 69.021, 269.612 47.305 C 270.774 45.212, 272.039 41.025, 272.422 38 C 272.806 34.975, 273.856 31.375, 274.756 30 C 276.318 27.614, 278.850 11.773, 278.952 3.750 L 279 0 247.519 0 L 216.038 0 215.577 2.250 M 373.006 2.750 C 373.014 6.221, 375.663 54.292, 377.015 75.500 C 377.576 84.300, 378.479 99.789, 379.021 109.921 C 379.564 120.052, 380.144 128.478, 380.311 128.644 C 380.477 128.810, 382.044 127.085, 383.793 124.809 C 386.157 121.733, 386.699 120.342, 385.904 119.384 C 385.316 118.676, 385.145 117.118, 385.525 115.923 C 385.904 114.727, 385.829 113.985, 385.357 114.273 C 384.886 114.561, 384.396 112.930, 384.268 110.648 C 384.090 107.463, 384.286 106.848, 385.112 108 C 385.970 109.195, 386.035 109.094, 385.435 107.500 C 384.261 104.385, 382.957 89.436, 382.994 79.500 C 383.012 74.550, 382.576 65.325, 382.025 59 C 381.474 52.675, 380.573 40.975, 380.024 33 C 377.496 -3.680, 378.015 0, 375.371 0 C 373.450 0, 373.001 0.521, 373.006 2.750 M 394.432 5.750 C 394.724 8.912, 395.440 20.725, 396.022 32 C 396.605 43.275, 397.512 59.700, 398.039 68.500 C 398.566 77.300, 398.997 85.513, 398.998 86.750 C 398.999 87.987, 399.450 89, 400 89 C 400.550 89, 401 88.410, 401 87.688 C 401 86.966, 401.916 84.379, 403.036 81.938 C 405.105 77.426, 405.287 77.100, 408.093 72.890 C 409.552 70.701, 409.536 67.936, 407.911 40 C 406.935 23.225, 406.105 7.362, 406.068 4.750 L 406 0 399.950 0 L 393.901 0 394.432 5.750 M 92.479 26.260 C 92.143 28.054, 92.360 30.816, 92.962 32.399 C 93.564 33.982, 93.931 35.374, 93.778 35.491 C 91.187 37.484, 89.567 37.567, 87.798 35.798 C 86.429 34.429, 85.508 34.164, 84.637 34.886 C 83.787 35.591, 82.032 35.426, 78.954 34.352 C 74.853 32.920, 74.084 32.936, 69.250 34.561 C 66.362 35.531, 64 36.646, 64 37.037 C 64 37.873, 68.915 38.956, 73.375 39.103 C 76.355 39.202, 76.315 39.251, 72.500 40.160 C 70.300 40.684, 67.487 41.322, 66.250 41.576 C 65.013 41.830, 64 42.555, 64 43.186 C 64 43.817, 64.282 44.051, 64.627 43.707 C 65.361 42.972, 71.181 45.783, 72.197 47.363 C 73.088 48.748, 71.184 49.965, 68.095 49.985 C 65.807 49.999, 65.773 50.091, 67.387 51.875 C 69.344 54.038, 74.172 54.457, 73.765 52.429 C 73.619 51.702, 75.050 49.959, 76.944 48.554 C 78.839 47.149, 80.076 45.944, 79.694 45.875 C 79.312 45.806, 78.475 45.694, 77.833 45.625 C 76.383 45.470, 75.454 43, 76.845 43 C 77.402 43, 78.468 42.389, 79.215 41.642 C 80.006 40.851, 81.832 40.469, 83.587 40.726 C 86.440 41.145, 86.776 41.709, 89.908 51.361 C 92.470 59.257, 93.743 61.803, 95.558 62.659 C 96.847 63.268, 98.149 63.518, 98.451 63.216 C 99.605 62.062, 98.932 56.189, 97.511 55.009 C 96.692 54.329, 96.312 53.305, 96.666 52.732 C 97.025 52.151, 96.829 51.987, 96.224 52.362 C 94.686 53.312, 93.546 51.054, 94.887 49.713 C 96.431 48.169, 96.277 47, 94.531 47 C 93.596 47, 93.286 46.419, 93.677 45.399 C 94.015 44.519, 93.800 43.494, 93.199 43.123 C 92.574 42.737, 92.454 41.883, 92.919 41.131 C 93.590 40.046, 94.128 40.051, 95.997 41.158 C 97.790 42.221, 98.356 42.239, 98.716 41.244 C 98.966 40.553, 99.581 40.241, 100.082 40.551 C 100.598 40.869, 100.571 40.003, 100.022 38.557 C 99.408 36.942, 99.402 36, 100.006 36 C 102.061 36, 102.619 43.159, 101.683 57.500 C 101.158 65.540, 101.204 65.914, 102.117 61 C 102.679 57.975, 103.782 54.022, 104.569 52.216 C 106.448 47.904, 106.383 40.196, 104.398 32.064 C 102.602 24.704, 101.090 23, 96.354 23 C 93.462 23, 93.021 23.371, 92.479 26.260 M 86.731 37.920 C 86.296 39.583, 86.426 39.974, 87.168 39.232 C 87.750 38.650, 88.028 37.585, 87.788 36.863 C 87.538 36.114, 87.085 36.568, 86.731 37.920 M 17.446 43.087 C 17.077 43.685, 17.275 44.675, 17.887 45.287 C 18.704 46.104, 19 45.815, 19 44.200 C 19 41.785, 18.481 41.413, 17.446 43.087 M 68 42.883 C 68 43.369, 69.013 44.038, 70.250 44.370 C 73.559 45.256, 74 45.154, 74 43.500 C 74 42.500, 73 42, 71 42 C 69.350 42, 68 42.398, 68 42.883 M 26.636 49.494 C 26.952 50.316, 27.620 50.735, 28.121 50.425 C 29.170 49.777, 28.328 48, 26.972 48 C 26.472 48, 26.321 48.672, 26.636 49.494 M 73.583 58.866 C 73.152 59.563, 73.070 60.403, 73.400 60.733 C 74.295 61.628, 75.271 60.312, 74.787 58.862 C 74.449 57.846, 74.213 57.846, 73.583 58.866 M 75 63 C 75 63.550, 75.450 64, 76 64 C 76.550 64, 77 63.550, 77 63 C 77 62.450, 76.550 62, 76 62 C 75.450 62, 75 62.450, 75 63 M 381.158 70 C 381.158 71.375, 381.385 71.938, 381.662 71.250 C 381.940 70.563, 381.940 69.438, 381.662 68.750 C 381.385 68.063, 381.158 68.625, 381.158 70 M 70 71.393 C 70 71.609, 70.698 72.054, 71.552 72.382 C 72.442 72.723, 72.843 72.555, 72.493 71.989 C 71.906 71.038, 70 70.583, 70 71.393 M 39 84 C 39 84.550, 39.477 85, 40.059 85 C 40.641 85, 40.840 84.550, 40.500 84 C 40.160 83.450, 39.684 83, 39.441 83 C 39.198 83, 39 83.450, 39 84 M 86 85.500 C 86 86.325, 86.436 87, 86.969 87 C 87.501 87, 87.678 86.325, 87.362 85.500 C 87.045 84.675, 86.609 84, 86.393 84 C 86.177 84, 86 84.675, 86 85.500 M 74.314 87.750 C 73.972 88.713, 73.466 89.907, 73.191 90.405 C 72.916 90.902, 73.156 91.022, 73.725 90.670 C 74.767 90.026, 76.189 86, 75.375 86 C 75.134 86, 74.657 86.787, 74.314 87.750 M 95.750 89.662 C 96.438 89.940, 97 90.565, 97 91.052 C 97 91.539, 96.438 91.739, 95.750 91.497 C 95.063 91.255, 93.665 91.691, 92.644 92.466 C 90.850 93.829, 90.847 94.038, 92.567 98.688 C 94.861 104.894, 98.916 112, 100.163 112 C 100.698 112, 100.235 110.735, 99.135 109.189 C 95.998 104.784, 95.563 101.434, 97.476 96.424 C 98.838 92.858, 98.940 91.633, 97.973 90.467 C 97.303 89.660, 96.248 89.036, 95.628 89.079 C 94.919 89.129, 94.965 89.345, 95.750 89.662 M 0.474 166.500 C 0.474 205.550, 0.598 221.671, 0.750 202.323 C 0.901 182.976, 0.901 151.026, 0.750 131.323 C 0.598 111.621, 0.474 127.450, 0.474 166.500 M 147.533 97.686 C 145.901 98.569, 143.925 99.932, 143.143 100.715 C 140.365 103.492, 137.071 105.162, 135.853 104.409 C 135.174 103.989, 135.604 105.241, 136.809 107.191 C 138.014 109.141, 139 111.725, 139 112.934 C 139 115.646, 137.285 119, 135.898 119 C 134.118 119, 128.237 123.987, 127.729 125.926 C 126.332 131.270, 132.027 131.012, 137.730 125.474 C 140.716 122.574, 141.072 121.792, 139.995 120.494 C 138.921 119.200, 138.979 119.055, 140.359 119.584 C 143.059 120.620, 142.230 123.665, 138.384 126.835 C 135.972 128.823, 135.026 130.262, 135.544 131.158 C 135.971 131.896, 135.954 132.168, 135.507 131.763 C 135.059 131.358, 133.075 131.993, 131.097 133.173 C 125.785 136.344, 125.057 137.250, 128.500 136.405 C 131.217 135.738, 131.371 135.825, 130.128 137.334 C 129.373 138.250, 128.190 139, 127.500 139 C 126.810 139, 125.627 139.753, 124.872 140.673 C 123.648 142.167, 123.748 142.283, 125.807 141.752 C 127.649 141.277, 127.891 141.426, 127.009 142.490 C 126.245 143.410, 126.227 144.022, 126.951 144.470 C 127.528 144.826, 128 144.641, 128 144.059 C 128 143.477, 128.498 143, 129.107 143 C 129.716 143, 129.975 143.623, 129.682 144.385 C 128.849 146.558, 131.940 150.249, 134.117 149.680 C 135.443 149.333, 136 149.717, 136 150.977 C 136 152.889, 139.622 154.421, 140.558 152.906 C 140.866 152.408, 142.184 152, 143.486 152 C 146.051 152, 149.517 146.719, 148.324 144.629 C 147.969 144.008, 148.045 143.831, 148.491 144.234 C 149.635 145.270, 151.930 141.949, 151.968 139.205 L 152 136.909 149.455 139.455 C 148.055 140.855, 146.411 142, 145.802 142 C 145.192 142, 145.550 141.209, 146.597 140.242 C 151.449 135.758, 152.063 134.480, 150.927 131.220 C 150.056 128.723, 150.276 126.377, 152.042 119.305 C 153.251 114.462, 155.105 108.299, 156.162 105.608 L 158.082 100.717 155.867 98.358 C 153.287 95.612, 151.614 95.477, 147.533 97.686 M 85 105 C 86.958 106.266, 88.282 106.266, 87.500 105 C 87.160 104.450, 86.121 104.007, 85.191 104.015 C 83.734 104.029, 83.707 104.165, 85 105 M 78.478 106.750 C 78.859 107.713, 79.416 109.963, 79.716 111.750 C 80.021 113.568, 80.865 115, 81.631 115 C 83.502 115, 83.353 113.612, 80.980 108.960 C 78.967 105.016, 77.161 103.420, 78.478 106.750 M 39.750 107.689 C 37.588 108.254, 37.439 111.847, 39.543 112.655 C 41.449 113.386, 41.667 113.174, 42.527 109.748 C 43.218 106.995, 43.006 106.838, 39.750 107.689 M 91.500 110 C 91.840 110.550, 92.568 111, 93.118 111 C 93.668 111, 93.840 110.550, 93.500 110 C 93.160 109.450, 92.432 109, 91.882 109 C 91.332 109, 91.160 109.450, 91.500 110 M 436.555 110.954 C 431.916 114.012, 430.805 116.991, 432.081 122.944 C 432.765 126.131, 433.968 128.565, 435.333 129.521 C 436.525 130.356, 437.556 131.480, 437.625 132.019 C 437.893 134.124, 438.048 134.205, 439.500 133 C 441.513 131.330, 441.396 129.264, 439.250 128.565 C 438.288 128.251, 436.626 126.167, 435.558 123.933 C 433.648 119.940, 433.647 119.810, 435.507 116.358 C 436.547 114.426, 438.659 112.194, 440.199 111.397 C 441.740 110.600, 443 109.735, 443 109.474 C 443 108.320, 439.244 109.182, 436.555 110.954 M 425.388 113.531 C 424.475 114.923, 423.911 116.244, 424.133 116.467 C 424.356 116.689, 425.296 115.550, 426.222 113.935 C 428.286 110.340, 427.673 110.043, 425.388 113.531 M 92.627 114.750 C 93.728 119.300, 94.812 121.766, 96.045 122.528 C 96.879 123.043, 97.006 122.569, 96.487 120.875 C 94.268 113.624, 91.162 108.696, 92.627 114.750 M 212 113.979 C 210.667 114.822, 210.667 115.087, 212 116.359 C 213.055 117.367, 216.836 117.919, 224.750 118.220 C 230.938 118.456, 236 118.357, 236 117.999 C 236 117.641, 234.958 116.370, 233.686 115.174 C 231.663 113.274, 230.246 113.002, 222.436 113.015 C 217.521 113.024, 212.825 113.457, 212 113.979 M 106.038 116.898 C 109.458 119.761, 111.015 120.010, 110.985 117.691 C 110.974 116.823, 110.753 116.841, 110.171 117.757 C 109.582 118.686, 108.804 118.360, 107.193 116.507 C 105.994 115.128, 104.465 114, 103.794 114 C 103.124 114, 104.134 115.304, 106.038 116.898 M 246.176 116.670 C 246.463 119.179, 246.949 119.537, 250.456 119.823 C 252.632 120, 255.961 119.855, 257.855 119.499 C 261.235 118.865, 261.263 118.819, 259.399 116.963 C 258.183 115.753, 255.405 114.851, 251.676 114.456 L 245.852 113.840 246.176 116.670 M 442.667 119.667 C 442.300 120.033, 442 121.383, 442 122.667 C 442 124.333, 442.571 125, 444 125 C 445.556 125, 446 124.333, 446 122 C 446 119.179, 444.326 118.007, 442.667 119.667 M 220.015 121.171 C 220.058 124.841, 221.812 125.495, 232.963 126 C 239.036 126.275, 244.003 126.241, 244.002 125.924 C 244.001 125.608, 242.952 124.364, 241.671 123.161 C 239.721 121.328, 237.772 120.881, 229.671 120.408 C 222.007 119.960, 220.003 120.118, 220.015 121.171 M 111.859 121.474 C 111.583 121.750, 112.151 125.019, 113.121 128.738 C 114.091 132.457, 114.917 137.525, 114.956 140 C 115.125 150.652, 117.957 151.291, 117.985 140.683 C 117.997 135.970, 118.495 134.218, 120.607 131.449 L 123.213 128.032 120.357 126.952 C 118.785 126.358, 116.344 124.770, 114.931 123.422 C 113.518 122.075, 112.136 121.198, 111.859 121.474 M 247.527 123.965 C 248.328 127.156, 247.838 126.868, 253.042 127.208 C 257.208 127.481, 257.500 127.336, 257.500 125 C 257.500 122.715, 257.045 122.454, 252.196 121.967 C 246.926 121.438, 246.896 121.450, 247.527 123.965 M 144.481 130.344 C 143.371 132.080, 140.798 134.579, 138.763 135.897 C 136.728 137.215, 135.305 138.685, 135.600 139.162 C 136.279 140.261, 142.741 135.621, 145.882 131.778 C 147.232 130.127, 147.882 128.501, 147.382 128.026 C 146.892 127.560, 145.604 128.588, 144.481 130.344 M 227 128.808 C 227 129.384, 228.102 130.722, 229.449 131.781 C 231.358 133.283, 234.169 133.839, 242.199 134.303 C 247.865 134.630, 253.791 135.165, 255.369 135.490 C 258.093 136.052, 258.202 135.942, 257.537 133.293 C 256.702 129.964, 257.290 130.405, 252.750 129.704 C 250.412 129.344, 249 129.525, 249 130.185 C 249 130.819, 248.355 130.710, 247.397 129.914 C 245.387 128.246, 227 127.249, 227 128.808 M 442 130.500 C 442 131.333, 442.889 132, 444 132 C 445.111 132, 446 131.333, 446 130.500 C 446 129.667, 445.111 129, 444 129 C 442.889 129, 442 129.667, 442 130.500 M 348.252 136.500 C 348.263 138.700, 348.468 139.482, 348.707 138.238 C 348.946 136.994, 348.937 135.194, 348.687 134.238 C 348.437 133.282, 348.241 134.300, 348.252 136.500 M 131.500 135 C 131.840 135.550, 132.568 136, 133.118 136 C 133.668 136, 133.840 135.550, 133.500 135 C 133.160 134.450, 132.432 134, 131.882 134 C 131.332 134, 131.160 134.450, 131.500 135 M 235 136.306 C 235 136.636, 235.503 138.009, 236.117 139.357 C 236.972 141.233, 238.286 141.966, 241.719 142.481 C 245.566 143.057, 246.411 142.858, 247.659 141.077 C 248.459 139.934, 249.650 139.036, 250.307 139.079 C 251.171 139.136, 251.155 139.297, 250.250 139.662 C 247.710 140.687, 249.110 142.757, 252.750 143.358 C 258.504 144.309, 260 144.132, 260 142.500 C 260 141.675, 260.450 141, 261 141 C 261.550 141, 262 141.675, 262 142.500 C 262 143.572, 263.070 143.991, 265.750 143.970 C 268.442 143.948, 269.068 143.686, 267.970 143.043 C 267.128 142.550, 265.794 142.001, 265.004 141.823 C 264.215 141.645, 262.738 140.600, 261.721 139.500 C 260.432 138.106, 259.717 137.871, 259.361 138.724 C 258.976 139.647, 258.269 139.567, 256.484 138.397 C 254.157 136.873, 235 135.008, 235 136.306 M 108.076 140.781 C 108.118 141.177, 108.759 143.075, 109.500 145 L 110.848 148.500 110.924 144.857 C 110.973 142.487, 110.476 141.013, 109.500 140.638 C 108.675 140.322, 108.034 140.386, 108.076 140.781 M 252.510 141.016 C 252.856 141.575, 253.557 141.774, 254.069 141.457 C 255.456 140.600, 255.198 140, 253.441 140 C 252.584 140, 252.165 140.457, 252.510 141.016 M 402.975 148.217 C 401.149 152.078, 400.389 154.789, 400.970 155.370 C 401.552 155.952, 401.508 157.050, 400.856 158.269 C 400.040 159.793, 400.107 160.137, 401.153 159.810 C 401.894 159.578, 403.708 155.813, 405.185 151.444 C 408.296 142.238, 408.340 142, 406.958 142 C 406.384 142, 404.592 144.798, 402.975 148.217 M 141.655 144.829 C 139.771 146.911, 139.546 148, 141 148 C 141.550 148, 142 147.347, 142 146.550 C 142 145.752, 142.787 144.641, 143.750 144.080 C 144.713 143.519, 145.007 143.047, 144.405 143.030 C 143.803 143.014, 142.565 143.823, 141.655 144.829 M 394.681 144.800 C 393.343 146.278, 390 154.060, 390 155.695 C 390 155.939, 390.974 155.995, 392.164 155.820 C 393.882 155.566, 394.690 154.211, 396.085 149.250 C 397.892 142.825, 397.524 141.658, 394.681 144.800 M 241.508 144.987 C 240.516 146.592, 243.733 151, 245.897 151 C 247.454 151, 247.642 150.484, 247.087 147.750 C 246.406 144.403, 242.932 142.682, 241.508 144.987 M 249 146.418 C 249 149.163, 250.233 151, 252.076 151 C 253.382 151, 253.781 150.478, 253.412 149.250 C 253.042 148.015, 253.382 148.162, 254.566 149.750 C 255.489 150.988, 256.654 152, 257.154 152 C 257.655 152, 258.471 150.988, 258.969 149.750 L 259.873 147.500 259.937 149.750 C 259.980 151.292, 260.613 152, 261.948 152 C 263.660 152, 263.774 151.651, 262.893 149.122 C 262.101 146.852, 261.109 146.115, 258.195 145.633 C 252.043 144.616, 249 144.876, 249 146.418 M 15.813 146.683 C 16.534 146.972, 17.397 146.936, 17.729 146.604 C 18.061 146.272, 17.471 146.036, 16.417 146.079 C 15.252 146.127, 15.015 146.364, 15.813 146.683 M 264 146.377 C 264 146.648, 264.450 148.053, 264.999 149.498 C 265.838 151.704, 266.521 152.076, 269.249 151.813 C 271.966 151.551, 272.500 151.090, 272.500 149 C 272.500 146.774, 272.035 146.466, 268.250 146.193 C 265.913 146.023, 264 146.107, 264 146.377 M 313 147 C 311.718 147.828, 311.754 147.972, 313.250 147.985 C 314.212 147.993, 315 148.713, 315 149.583 C 315 151.926, 317.447 150.701, 317.820 148.172 C 318.168 145.804, 315.757 145.218, 313 147 M 67.677 151.278 C 68.680 152.531, 70.850 155.231, 72.500 157.278 C 74.268 159.471, 76.375 161, 77.631 161 C 79.304 161, 79.993 161.915, 80.835 165.250 C 81.425 167.588, 82.524 170.341, 83.278 171.370 C 84.468 172.993, 84.616 171.963, 84.398 163.557 C 84.048 150.033, 83.267 149, 73.404 149 L 65.855 149 67.677 151.278 M 145.137 155.497 C 144.375 157.606, 141.743 160.729, 138.505 163.366 L 133.138 167.738 135.569 171.316 C 136.906 173.284, 138 175.567, 138 176.390 C 138 177.213, 135.459 180.631, 132.353 183.985 C 126.960 189.810, 126.768 190.199, 128.076 192.642 C 129.281 194.894, 129.239 195.352, 127.723 196.461 C 125.243 198.274, 125.590 199, 128.935 199 C 132.804 199, 136.969 197.364, 139.763 194.747 C 145.086 189.760, 152.033 156.890, 148.509 153.366 C 146.637 151.494, 146.569 151.537, 145.137 155.497 M 19.079 154.583 C 19.127 155.748, 19.364 155.985, 19.683 155.188 C 19.972 154.466, 19.936 153.603, 19.604 153.271 C 19.272 152.939, 19.036 153.529, 19.079 154.583 M 78.564 154.293 C 78.940 155.279, 79.499 155.834, 79.807 155.526 C 80.115 155.219, 79.808 154.412, 79.124 153.733 C 78.136 152.753, 78.022 152.868, 78.564 154.293 M 248 154.309 C 248 155.029, 248.613 156.456, 249.362 157.481 C 250.454 158.974, 252.423 159.433, 259.263 159.792 C 267.201 160.209, 267.881 160.090, 268.947 158.100 C 270.128 155.891, 269.637 154, 267.882 154 C 267.332 154, 267.160 154.450, 267.500 155 C 267.840 155.550, 267.668 156, 267.118 156 C 266.568 156, 265.821 155.519, 265.458 154.932 C 265.095 154.345, 263.374 153.987, 261.635 154.137 C 259.895 154.287, 257.915 154.066, 257.236 153.646 C 256.552 153.223, 256 153.355, 256 153.941 C 256 155.286, 251.326 155.336, 250.500 154 C 249.614 152.567, 248 152.766, 248 154.309 M 75.624 155.539 C 74.659 158.053, 74.943 158.702, 76.122 156.675 C 76.706 155.671, 76.973 154.639, 76.715 154.382 C 76.458 154.124, 75.966 154.645, 75.624 155.539 M 286.715 158.301 C 286.440 159.017, 286.682 163.781, 287.252 168.888 C 288.174 177.144, 288.548 178.293, 290.625 179.239 C 292.389 180.043, 292.823 180.856, 292.397 182.555 C 292.011 184.092, 292.414 185.169, 293.666 185.947 C 295.189 186.894, 294.949 186.981, 292.250 186.464 C 289.692 185.974, 289 186.177, 289 187.421 C 289 188.289, 288.270 189, 287.378 189 C 286.054 189, 285.983 189.274, 286.991 190.489 C 287.671 191.308, 288.626 191.731, 289.113 191.430 C 289.601 191.129, 290.003 192.596, 290.006 194.691 C 290.010 196.786, 290.632 199.625, 291.388 201 C 292.145 202.375, 295.283 208.225, 298.361 214 L 303.957 224.500 303.976 220 C 303.991 216.414, 302.385 182.469, 301.658 171 C 301.555 169.364, 300.353 167.765, 298.184 166.373 C 296.360 165.203, 293.374 162.616, 291.549 160.623 C 287.881 156.618, 287.441 156.407, 286.715 158.301 M 373.232 162.750 C 373.496 165.912, 373.339 169.802, 372.885 171.392 C 372.430 172.983, 372.342 174.745, 372.690 175.307 C 373.859 177.200, 375.923 166.590, 375.327 161.750 C 374.480 154.870, 372.648 155.745, 373.232 162.750 M 86.158 160 C 86.158 161.375, 86.385 161.938, 86.662 161.250 C 86.940 160.563, 86.940 159.438, 86.662 158.750 C 86.385 158.063, 86.158 158.625, 86.158 160 M 28.500 159.674 C 23.167 160.340, 21 161.017, 21 162.019 C 21 162.559, 22.543 163, 24.429 163 C 30.528 163, 31.006 164.208, 36.541 193.600 C 38.001 201.354, 39.566 208.298, 40.018 209.029 C 40.660 210.068, 41.625 209.761, 44.425 207.625 C 47.420 205.341, 47.913 204.446, 47.421 202.195 C 45.608 193.917, 42.759 183.434, 40.165 175.500 C 37.097 166.115, 37.242 165.047, 41.592 165.015 C 43.159 165.004, 43.974 165.969, 44.842 168.866 C 45.479 170.992, 46 173.467, 46 174.366 C 46 175.265, 46.450 176, 47 176 C 47.550 176, 48.007 174.313, 48.015 172.250 C 48.024 170.188, 48.482 167.825, 49.034 167 C 49.896 165.710, 50.199 165.778, 51.200 167.486 C 52.298 169.360, 52.409 169.303, 53.172 166.486 C 54.349 162.145, 52.198 161, 42.868 161 C 38.605 161, 34.840 160.550, 34.500 160 C 34.160 159.450, 33.346 159.067, 32.691 159.150 C 32.036 159.232, 30.150 159.468, 28.500 159.674 M 309.473 162.396 C 307.391 163.919, 307.918 165.228, 310.779 165.638 C 311.726 165.773, 314.075 166.213, 316 166.614 C 321.084 167.676, 321.426 167.671, 322.235 166.533 C 323.814 164.312, 322.828 163.239, 318.750 162.741 C 316.413 162.455, 313.812 161.936, 312.971 161.588 C 312.131 161.241, 310.556 161.604, 309.473 162.396 M 237.677 162.696 C 240.292 163.205, 241.730 164.797, 242.018 167.500 C 242.431 171.389, 241.980 172.858, 240.250 173.257 C 238.839 173.582, 239.027 173.915, 241.219 174.976 C 242.714 175.700, 243.729 176.630, 243.474 177.041 C 243.220 177.453, 243.684 178.048, 244.506 178.364 C 246.426 179.101, 246.431 177.574, 244.515 175.658 C 243.237 174.380, 243.222 173.801, 244.404 171.522 C 245.160 170.064, 245.572 168.079, 245.318 167.109 C 244.761 164.979, 239.902 161.948, 237.346 162.136 C 235.902 162.243, 235.974 162.365, 237.677 162.696 M 118.712 164.690 C 119.375 166.420, 124 169.276, 124 167.956 C 124 167.304, 124.905 167.120, 126.250 167.498 C 127.789 167.931, 128.078 167.838, 127.165 167.204 C 126.430 166.694, 125.768 165.877, 125.694 165.388 C 125.620 164.900, 124.983 164.632, 124.280 164.794 C 123.576 164.955, 123 164.666, 123 164.150 C 123 163.634, 121.932 163.276, 120.628 163.356 C 119.244 163.440, 118.445 163.996, 118.712 164.690 M 224.495 164.308 C 223.546 166.585, 229.292 179.361, 231.473 179.823 C 233.621 180.278, 233.425 179.510, 229.095 170.500 C 226.098 164.265, 225.083 162.899, 224.495 164.308 M 250 164.116 C 250 166.687, 253.564 175, 254.667 175 C 255.487 175, 255.177 173.111, 253.682 169.001 C 251.695 163.537, 250 161.289, 250 164.116 M 261.435 165.206 C 261.011 166.542, 261.181 167.560, 261.867 167.789 C 262.490 167.997, 263 168.804, 263 169.583 C 263 170.363, 263.450 171, 264 171 C 264.550 171, 265 169.200, 265 167 C 265 162.535, 262.657 161.356, 261.435 165.206 M 271.030 166.559 C 271.014 168.241, 271.696 170.491, 272.547 171.559 C 274 173.381, 274.054 173.286, 273.432 170 C 272.443 164.771, 271.068 162.800, 271.030 166.559 M 237.079 166.583 C 237.127 167.748, 237.364 167.985, 237.683 167.188 C 237.972 166.466, 237.936 165.603, 237.604 165.271 C 237.272 164.939, 237.036 165.529, 237.079 166.583 M 279.078 168.750 C 282.352 174.226, 283.251 174.964, 282.432 171.500 C 281.376 167.030, 280.111 165, 278.383 165 C 277.112 165, 277.235 165.666, 279.078 168.750 M 237.079 170.583 C 237.127 171.748, 237.364 171.985, 237.683 171.188 C 237.972 170.466, 237.936 169.603, 237.604 169.271 C 237.272 168.939, 237.036 169.529, 237.079 170.583 M 223.079 171.583 C 223.127 172.748, 223.364 172.985, 223.683 172.188 C 223.972 171.466, 223.936 170.603, 223.604 170.271 C 223.272 169.939, 223.036 170.529, 223.079 171.583 M 384.211 176.287 C 384.166 177.855, 383.270 180.795, 382.219 182.819 C 381.167 184.844, 380.284 188.075, 380.256 190 C 380.227 191.925, 380.495 192.825, 380.852 192 C 382.238 188.793, 384.541 186, 385.800 186 C 386.525 186, 386.896 185.641, 386.625 185.202 C 386.354 184.763, 386.545 183.751, 387.051 182.952 C 387.705 181.918, 387.974 182.580, 387.985 185.250 C 387.993 187.313, 387.550 189, 387 189 C 385.622 189, 385.738 191.720, 387.155 192.595 C 387.829 193.012, 388.039 192.872, 387.660 192.259 C 387.303 191.682, 387.684 190.952, 388.506 190.636 C 389.594 190.219, 390 188.485, 390 184.254 C 390 179.118, 389.670 178.156, 387.146 175.941 L 384.292 173.437 384.211 176.287 M 222 178 C 222 179.100, 222.408 180, 222.906 180 C 223.405 180, 223.577 179.100, 223.290 178 C 223.002 176.900, 222.594 176, 222.383 176 C 222.173 176, 222 176.900, 222 178 M 46.731 180.080 C 47.085 181.432, 47.538 181.886, 47.788 181.137 C 48.028 180.415, 47.750 179.350, 47.168 178.768 C 46.426 178.026, 46.296 178.417, 46.731 180.080 M 28.079 180.583 C 28.127 181.748, 28.364 181.985, 28.683 181.188 C 28.972 180.466, 28.936 179.603, 28.604 179.271 C 28.272 178.939, 28.036 179.529, 28.079 180.583 M 25.079 182.583 C 25.127 183.748, 25.364 183.985, 25.683 183.188 C 25.972 182.466, 25.936 181.603, 25.604 181.271 C 25.272 180.939, 25.036 181.529, 25.079 182.583 M 393.070 182.250 C 393.109 182.938, 393.527 184.400, 394 185.500 C 394.720 187.176, 394.871 186.974, 394.930 184.250 C 394.968 182.463, 394.550 181, 394 181 C 393.450 181, 393.032 181.563, 393.070 182.250 M 210.068 185.904 C 207.958 188.867, 207.189 193.619, 209 192.500 C 209.550 192.160, 210 191.069, 210 190.076 C 210 189.082, 210.933 187.084, 212.073 185.635 C 213.212 184.186, 213.693 183, 213.141 183 C 212.588 183, 211.206 184.307, 210.068 185.904 M 433.250 183.706 C 432.012 183.944, 431 184.675, 431 185.329 C 431 185.983, 430.100 187.081, 429 187.768 C 426.632 189.247, 426.373 191, 428.523 191 C 429.862 191, 429.849 191.333, 428.418 193.750 C 427.522 195.262, 427.399 195.786, 428.145 194.913 C 430.154 192.562, 433.882 190.809, 435.175 191.608 C 435.863 192.034, 436.033 191.863, 435.607 191.174 C 435.146 190.427, 436.375 189.791, 439.203 189.315 C 443.368 188.614, 443.408 188.573, 440.500 187.972 C 438.850 187.630, 437.072 187.722, 436.550 188.176 C 434.695 189.786, 433.717 188.970, 435.345 187.171 C 437.046 185.292, 437.584 182.894, 436.250 183.136 C 435.837 183.211, 434.488 183.467, 433.250 183.706 M 403.638 185.500 C 403.322 186.325, 402.382 187, 401.550 187 C 400.719 187, 399.749 188.152, 399.396 189.560 C 399.042 190.967, 398.222 191.916, 397.573 191.667 C 396.438 191.231, 393.332 196.665, 394.213 197.546 C 394.451 197.784, 396.143 195.979, 397.974 193.535 C 400.748 189.833, 401.611 189.257, 403.151 190.081 C 404.682 190.900, 405 190.702, 405 188.928 C 405 187.369, 405.439 186.954, 406.611 187.404 C 407.791 187.857, 408.059 187.596, 407.611 186.430 C 407.275 185.553, 407 184.648, 407 184.418 C 407 183.277, 404.138 184.198, 403.638 185.500 M 422 194 C 420.625 195.076, 418.953 195.966, 418.285 195.978 C 416.743 196.006, 414.836 199.477, 415.785 200.529 C 416.178 200.964, 416.005 201.039, 415.401 200.694 C 414.796 200.350, 413.708 201.178, 412.982 202.534 C 412.256 203.890, 411.256 205, 410.760 205 C 410.263 205, 409.182 205.675, 408.357 206.500 C 407.532 207.325, 407.313 208, 407.871 208 C 408.429 208, 408.712 208.900, 408.500 210 C 408.205 211.529, 408.631 211.977, 410.307 211.900 C 414.257 211.721, 417.576 210.474, 416.263 209.662 C 415.391 209.124, 416.159 207.280, 418.968 203.164 C 422.243 198.366, 425.564 191.939, 424.725 192.022 C 424.601 192.034, 423.375 192.924, 422 194 M 323.750 194.662 C 324.438 194.940, 325.563 194.940, 326.250 194.662 C 326.938 194.385, 326.375 194.158, 325 194.158 C 323.625 194.158, 323.063 194.385, 323.750 194.662 M 209.091 197 C 209.058 198.375, 209.449 200.162, 209.961 200.971 C 211.526 203.445, 211.808 201.702, 210.443 198 C 209.310 194.929, 209.145 194.806, 209.091 197 M 436.228 196.090 C 433.527 197.115, 432.305 199.705, 433.812 201.212 C 434.582 201.982, 435.078 201.536, 435.551 199.652 C 435.915 198.201, 436.573 197.236, 437.013 197.508 C 437.452 197.780, 437.551 199.014, 437.233 200.251 C 436.721 202.238, 436.845 202.343, 438.295 201.154 C 439.197 200.414, 439.838 199.345, 439.718 198.779 C 439.598 198.213, 440.063 197.544, 440.750 197.292 C 441.448 197.036, 442 197.606, 442 198.583 C 442 200.735, 442.687 200.167, 443.155 197.629 C 443.554 195.463, 439.977 194.668, 436.228 196.090 M 375 196.969 C 375 197.501, 375.675 197.678, 376.500 197.362 C 377.325 197.045, 378 196.609, 378 196.393 C 378 196.177, 377.325 196, 376.500 196 C 375.675 196, 375 196.436, 375 196.969 M 400.500 199 C 400.018 201.194, 399.258 202.009, 397.671 202.032 C 396.477 202.049, 394.786 202.612, 393.913 203.282 C 392.256 204.554, 389.596 208.952, 390.169 209.471 C 390.784 210.028, 401.858 207.476, 402.682 206.587 C 403.146 206.087, 402.526 205.944, 401.251 206.258 C 398.372 206.967, 397.364 205.362, 399.324 203.187 C 400.861 201.481, 402.664 196, 401.688 196 C 401.397 196, 400.862 197.350, 400.500 199 M 385.091 197.923 C 384.316 198.413, 382.966 198.589, 382.091 198.313 C 380.747 197.889, 380.726 197.971, 381.952 198.840 C 382.751 199.405, 383.832 199.604, 384.354 199.281 C 384.876 198.959, 385.910 199.524, 386.652 200.538 C 387.906 202.253, 388 202.194, 388 199.691 C 388 196.846, 387.384 196.471, 385.091 197.923 M 444.772 198.250 C 444.382 199.213, 444.311 200.646, 444.614 201.436 C 445.015 202.483, 444.397 202.855, 442.332 202.810 C 436.975 202.692, 436.215 203.007, 435.560 205.618 C 434.770 208.765, 434.808 208.812, 438.841 209.618 C 441.523 210.155, 441.936 209.996, 441.411 208.629 C 441.006 207.574, 441.310 207, 442.272 207 C 444.109 207, 446.283 202.008, 445.823 198.845 C 445.534 196.856, 445.374 196.766, 444.772 198.250 M 411.500 200 C 411.160 200.550, 411.359 201, 411.941 201 C 412.523 201, 413 200.550, 413 200 C 413 199.450, 412.802 199, 412.559 199 C 412.316 199, 411.840 199.450, 411.500 200 M 384.111 203.111 C 382.656 207.285, 383.351 207.980, 385 204 C 385.698 202.315, 386.036 200.702, 385.750 200.417 C 385.465 200.131, 384.727 201.344, 384.111 203.111 M 288.200 203.200 C 287.540 203.860, 287 204.760, 287 205.200 C 287 206.392, 289.779 206.167, 290.554 204.913 C 291.584 203.247, 289.598 201.802, 288.200 203.200 M 239.847 209.001 L 239.500 214.001 243 213.885 C 244.925 213.820, 245.713 213.562, 244.750 213.311 C 243.766 213.053, 242.994 211.901, 242.986 210.677 C 242.967 207.553, 241.899 204, 240.980 204 C 240.547 204, 240.037 206.250, 239.847 209.001 M 338 205 C 338 205.550, 338.477 206, 339.059 206 C 339.641 206, 339.840 205.550, 339.500 205 C 339.160 204.450, 338.684 204, 338.441 204 C 338.198 204, 338 204.450, 338 205 M 385.278 206 C 384.549 207.775, 384.578 208.710, 385.376 209.224 C 386.642 210.039, 387.365 207.909, 386.726 205.250 C 386.381 203.817, 386.119 203.952, 385.278 206 M 425 207.427 C 425 208.895, 424.309 210.036, 423.250 210.315 C 422.255 210.578, 422.599 210.738, 424.047 210.687 C 426.253 210.609, 426.539 210.222, 426.184 207.799 C 425.679 204.357, 425 204.144, 425 207.427 M 30.158 208 C 30.158 209.375, 30.385 209.938, 30.662 209.250 C 30.940 208.563, 30.940 207.438, 30.662 206.750 C 30.385 206.063, 30.158 206.625, 30.158 208 M 33.564 207.293 C 33.940 208.279, 34.499 208.834, 34.807 208.526 C 35.115 208.219, 34.808 207.412, 34.124 206.733 C 33.136 205.753, 33.022 205.868, 33.564 207.293 M 235 209 C 235 209.550, 234.325 210, 233.500 210 C 231.819 210, 231.455 212.545, 233 213.500 C 233.550 213.840, 234 213.390, 234 212.500 C 234 211.610, 234.450 211.160, 235 211.500 C 235.550 211.840, 236 211.191, 236 210.059 C 236 208.927, 235.775 208, 235.500 208 C 235.225 208, 235 208.450, 235 209 M 443 209 C 443 209.550, 443.450 210, 444 210 C 444.550 210, 445 209.550, 445 209 C 445 208.450, 444.550 208, 444 208 C 443.450 208, 443 208.450, 443 209 M 249.750 212.083 C 248.076 213.917, 248.087 214, 250 214 C 251.333 214, 252 213.333, 252 212 C 252 209.629, 251.990 209.630, 249.750 212.083 M 272.500 213 C 272.160 213.550, 272.359 214, 272.941 214 C 273.523 214, 274 213.550, 274 213 C 274 212.450, 273.802 212, 273.559 212 C 273.316 212, 272.840 212.450, 272.500 213 M 424.603 212.833 C 424.320 213.292, 424.723 213.667, 425.500 213.667 C 426.277 213.667, 426.680 213.292, 426.397 212.833 C 426.114 212.375, 425.710 212, 425.500 212 C 425.290 212, 424.886 212.375, 424.603 212.833 M 420 214 C 420 214.550, 420.477 215, 421.059 215 C 421.641 215, 421.840 214.550, 421.500 214 C 421.160 213.450, 420.684 213, 420.441 213 C 420.198 213, 420 213.450, 420 214 M 430.858 215.233 C 432.352 217.139, 438.089 219.033, 442 218.911 C 443.375 218.868, 441.838 218.189, 438.585 217.402 C 435.332 216.615, 431.957 215.415, 431.085 214.736 C 429.688 213.646, 429.661 213.705, 430.858 215.233 M 248.079 220.583 C 248.127 221.748, 248.364 221.985, 248.683 221.188 C 248.972 220.466, 248.936 219.603, 248.604 219.271 C 248.272 218.939, 248.036 219.529, 248.079 220.583 M 268.079 220.583 C 268.127 221.748, 268.364 221.985, 268.683 221.188 C 268.972 220.466, 268.936 219.603, 268.604 219.271 C 268.272 218.939, 268.036 219.529, 268.079 220.583 M 275.500 220 C 275.160 220.550, 275.359 221, 275.941 221 C 276.523 221, 277 220.550, 277 220 C 277 219.450, 276.802 219, 276.559 219 C 276.316 219, 275.840 219.450, 275.500 220 M 317.315 222.378 C 317.606 223.136, 317.400 224.200, 316.858 224.742 C 316.209 225.391, 316.493 226.350, 317.686 227.543 C 319.402 229.259, 319.518 229.262, 319.839 227.599 C 320.334 225.030, 319.134 221, 317.874 221 C 317.276 221, 317.024 221.620, 317.315 222.378 M 428 231.383 C 428 232.232, 433.085 232.671, 433.583 231.866 C 433.877 231.390, 432.741 231, 431.059 231 C 429.377 231, 428 231.173, 428 231.383 M 436.813 231.683 C 437.534 231.972, 438.397 231.936, 438.729 231.604 C 439.061 231.272, 438.471 231.036, 437.417 231.079 C 436.252 231.127, 436.015 231.364, 436.813 231.683 M 131.250 248.224 C 127.941 249.814, 128.507 251, 132.573 251 C 135.371 251, 136.077 250.638, 135.823 249.333 C 135.409 247.195, 134.068 246.870, 131.250 248.224" stroke="none" fill="black" fill-rule="evenodd"/>
</svg>