<svg xmlns="http://www.w3.org/2000/svg" width="446" height="251" viewBox="0 0 446 251" version="1.1">
	<path d="M 0 125.500 L 0 251 27.116 251 C 54.511 251, 56.238 250.822, 66.500 246.929 C 67.600 246.512, 70.525 245.655, 73 245.025 C 75.475 244.395, 79.075 243.429, 81 242.878 C 82.925 242.328, 85.175 241.864, 86 241.848 C 87.846 241.813, 93.479 240.186, 97.500 238.525 C 103.513 236.042, 117.427 231.093, 117.680 231.347 C 118.223 231.889, 109.252 240.699, 103.268 245.500 L 97.037 250.500 104.925 250.789 L 112.813 251.078 118.052 245.539 C 122.380 240.962, 123.873 240, 126.645 240 C 128.490 240, 130 240.487, 130 241.082 C 130 241.677, 128.371 244.152, 126.380 246.582 L 122.759 251 201.380 251 C 267.421 251, 280 250.780, 280 249.625 C 280 248.869, 281.406 247.969, 283.125 247.625 C 287.558 246.738, 287.709 246.778, 288.290 249 C 288.734 250.699, 289.654 251, 294.406 251 L 300 251 300 246 C 300 243.250, 300.422 241, 300.938 241 C 301.454 241, 301.822 242.012, 301.755 243.250 C 301.688 244.488, 301.716 246.738, 301.817 248.250 L 302 251 322 251 C 339.111 251, 342 250.783, 342 249.500 C 342 248.675, 342.450 248, 343 248 C 343.550 248, 344 248.675, 344 249.500 C 344 250.611, 345.167 251, 348.500 251 C 353.569 251, 354.141 249.857, 350.750 246.506 C 349.512 245.283, 347.695 243.206, 346.711 241.891 C 345.400 240.140, 343.953 239.500, 341.304 239.500 C 339.304 239.500, 337.496 238.941, 337.260 238.250 C 336.990 237.460, 337.794 237, 339.441 237 C 341.321 237, 342.322 236.283, 343.025 234.435 C 344.313 231.047, 344.301 231, 342.115 231 C 340.058 231, 337 227.059, 337 224.407 C 337 223.017, 337.681 222.853, 341.155 223.409 C 343.440 223.774, 345.802 224.381, 346.405 224.758 C 348.202 225.881, 350.860 226.036, 351.467 225.054 C 351.779 224.549, 348.651 223.568, 344.517 222.873 C 338.123 221.799, 337 221.315, 337 219.634 C 337 218.547, 337.745 216.835, 338.655 215.829 C 339.565 214.823, 339.873 214, 339.339 214 C 337.750 214, 334.053 221.445, 334.081 224.587 C 334.095 226.189, 333.896 228.625, 333.637 230 C 333.378 231.375, 333.129 232.822, 333.083 233.215 C 332.942 234.431, 328.887 236.205, 323.068 237.597 C 316.014 239.284, 313.215 239.321, 311.463 237.750 C 308.047 234.687, 307.003 234.002, 305.792 234.032 C 305.081 234.049, 305.738 234.987, 307.250 236.115 C 310.920 238.853, 310.716 240, 306.559 240 C 302.502 240, 301.486 238.829, 303.035 235.935 C 303.655 234.777, 303.913 233.580, 303.609 233.276 C 303.305 232.971, 302.585 233.961, 302.010 235.474 C 301.106 237.850, 300.590 238.129, 298.232 237.518 C 296.729 237.128, 293.925 236.739, 292 236.654 C 288.751 236.511, 288.478 236.731, 288.189 239.720 C 287.922 242.478, 287.353 243.085, 284.219 243.950 C 282.095 244.536, 280.189 244.589, 279.675 244.075 C 279.188 243.588, 278.436 239.970, 278.004 236.034 C 277.572 232.099, 276.184 226.701, 274.919 224.037 C 272.860 219.700, 272.197 219.124, 268.560 218.516 C 266.327 218.143, 259.325 217.884, 253 217.941 C 246.675 217.998, 231.600 217.601, 219.500 217.059 C 207.400 216.517, 191.779 216.009, 184.787 215.930 C 164.056 215.698, 150.739 213.572, 156.400 211.400 C 157.354 211.034, 158.609 211.209, 159.189 211.789 C 159.769 212.369, 160.843 212.614, 161.576 212.333 C 162.308 212.051, 166.590 211.298, 171.090 210.659 C 180.410 209.334, 182.088 207.651, 179.351 202.375 C 178.531 200.794, 177.953 199.275, 178.067 199 C 178.182 198.725, 177.286 197.995, 176.077 197.377 C 174.868 196.760, 172.777 195.298, 171.432 194.127 C 168.501 191.580, 168.382 191.563, 167.604 193.589 C 166.886 195.462, 170.526 200.576, 171.479 199.034 C 172.689 197.076, 176 197.870, 176 200.117 C 176 201.868, 175.542 202.146, 173.345 201.726 C 171.722 201.415, 169.486 201.952, 167.595 203.105 C 165.893 204.143, 163.375 204.959, 162 204.917 C 160.625 204.876, 160.063 204.615, 160.750 204.338 C 161.438 204.060, 162 203.210, 162 202.448 C 162 201.628, 162.612 201.297, 163.500 201.638 C 164.325 201.955, 165 201.716, 165 201.107 C 165 200.498, 164.325 200, 163.500 200 C 162.417 200, 162 198.889, 162 196 C 162 193.800, 161.550 192, 161 192 C 160.450 192, 160 191.325, 160 190.500 C 160 189.675, 159.100 188.100, 158 187 C 156.900 185.900, 156 184.395, 156 183.655 C 156 182.915, 155.100 181.495, 154 180.500 C 151.282 178.040, 151.487 176.167, 154.560 175.396 C 156.183 174.988, 156.926 174.250, 156.591 173.377 C 155.899 171.573, 157.760 171.638, 163.124 173.604 C 167.691 175.277, 177.701 175.979, 201.677 176.306 C 215.822 176.500, 218.645 175.344, 207.069 174.099 C 202.203 173.576, 201.458 173.205, 201.169 171.163 C 200.987 169.878, 201.827 166.390, 203.035 163.413 L 205.232 158 211.506 158 C 216.502 158, 226.616 155.969, 236.500 152.982 C 237.050 152.816, 239.525 153.642, 242 154.818 C 246.855 157.125, 249 157.520, 249 156.107 C 249 154.941, 246.079 153.833, 244.910 154.556 C 244.409 154.865, 244 154.641, 244 154.059 C 244 153.477, 243.325 153, 242.500 153 C 241.675 153, 241 152.518, 241 151.928 C 241 151.339, 239.903 151.001, 238.563 151.176 C 235.809 151.537, 229.972 146.665, 230.042 144.063 C 230.068 143.080, 231.394 143.985, 233.613 146.499 C 236.848 150.165, 237.229 150.343, 238.184 148.636 C 238.757 147.612, 240.057 145.943, 241.073 144.927 C 242.141 143.859, 243.205 140.849, 243.594 137.790 C 243.965 134.880, 244.694 131.675, 245.214 130.667 C 245.829 129.475, 245.746 127.110, 244.978 123.907 C 244.077 120.153, 242.826 118.151, 239.718 115.491 C 237.475 113.571, 235.213 112, 234.691 112 C 234.169 112, 232.017 113.559, 229.907 115.465 C 225.873 119.110, 217.097 124, 214.590 124 C 213.779 124, 211.586 123.099, 209.719 121.997 C 203.586 118.378, 197.577 102.520, 199.859 95.973 C 200.430 94.338, 200.500 93, 200.015 93 C 198.756 93, 197.841 89.577, 198.584 87.641 C 199.631 84.914, 200.995 85.794, 201.079 89.250 L 201.158 92.500 202.240 89.518 C 202.835 87.878, 203.965 85.892, 204.751 85.106 C 205.982 83.876, 206.319 83.873, 207.167 85.088 C 207.930 86.181, 208.268 86.215, 208.663 85.239 C 209.576 82.986, 212.969 81.729, 214.564 83.053 C 215.750 84.037, 216 83.788, 216 81.622 C 216 80.180, 216.477 79, 217.059 79 C 217.641 79, 217.835 78.543, 217.490 77.984 C 217.144 77.425, 216.440 77.228, 215.924 77.547 C 215.408 77.866, 214.807 77.536, 214.589 76.813 C 214.371 76.091, 213.852 74.600, 213.437 73.500 C 213.022 72.400, 212.754 71.162, 212.841 70.750 C 212.929 70.337, 212.361 70, 211.579 70 C 210.798 70, 209.862 71.354, 209.498 73.009 C 209.135 74.664, 208.429 75.765, 207.930 75.457 C 207.431 75.148, 207.291 75.594, 207.618 76.448 C 207.946 77.302, 207.716 78, 207.107 78 C 205.654 78, 205.672 73.321, 207.128 72.421 C 209.188 71.148, 204.826 69.681, 198.044 69.366 C 190.262 69.004, 179.621 67.045, 180.525 66.141 C 181.718 64.948, 190.472 63.469, 196.247 63.485 C 199.408 63.493, 201.996 63.238, 201.997 62.918 C 201.999 62.598, 203.602 61.844, 205.560 61.243 C 208.430 60.362, 209.225 60.422, 209.657 61.549 C 209.953 62.319, 209.476 63.667, 208.597 64.546 C 206.555 66.588, 206.559 68, 208.607 68 C 209.640 68, 210.004 67.452, 209.626 66.468 C 209.239 65.459, 209.852 64.627, 211.422 64.030 C 212.733 63.531, 214.105 62.639, 214.471 62.047 C 215.425 60.504, 221.797 58, 224.770 58 C 227.230 58, 227.209 58.058, 223.957 60.250 C 222.121 61.488, 220.704 62.837, 220.809 63.250 C 220.914 63.663, 221 64.848, 221 65.883 C 221 68.230, 224.524 69.279, 226.086 67.397 C 226.723 66.629, 227.685 66, 228.223 66 C 230.481 66, 241 71.522, 241 72.708 C 241 73.419, 240.438 73.888, 239.750 73.750 C 238.881 73.576, 238.560 74.819, 238.697 77.829 C 238.866 81.537, 238.683 81.982, 237.423 80.936 C 235.480 79.323, 235.244 79.695, 234.841 85 C 234.579 88.453, 234.825 89.430, 235.899 89.200 C 236.669 89.035, 238.019 89.216, 238.899 89.601 C 242.774 91.297, 243.814 90.178, 241.454 86.851 C 239.991 84.788, 240.235 76.447, 241.750 76.750 C 242.437 76.888, 243 76.502, 243 75.893 C 243 75.284, 243.675 75.045, 244.500 75.362 C 245.414 75.712, 246 75.363, 246 74.469 C 246 73.661, 245.520 73, 244.933 73 C 244.346 73, 244.123 72.187, 244.439 71.193 C 245.140 68.984, 241.201 65.175, 235.500 62.549 C 233.300 61.536, 230.910 60.436, 230.188 60.104 C 229.146 59.624, 228.894 53.431, 228.965 29.965 C 229.052 0.985, 229.015 0.427, 227.027 0.277 C 225.677 0.175, 225 0.733, 225 1.946 C 225 2.990, 224.046 4.016, 222.765 4.351 C 220.607 4.915, 220.595 4.984, 222.418 6.316 C 225.801 8.790, 223.399 10.094, 216.678 9.433 C 213.141 9.085, 208.576 9.316, 206 9.974 C 203.525 10.605, 200.825 11.065, 200 10.996 C 199.175 10.927, 197.037 10.867, 195.250 10.864 C 193.463 10.861, 192 10.454, 192 9.960 C 192 9.467, 191.251 9.350, 190.336 9.701 C 189.120 10.168, 188.895 9.979, 189.500 9 C 190.105 8.021, 189.880 7.832, 188.664 8.299 C 187.749 8.650, 187 8.501, 187 7.969 C 187 7.436, 186.325 7, 185.500 7 C 184.675 7, 184 6.475, 184 5.833 C 184 5.192, 183.703 4.964, 183.339 5.327 C 182.455 6.211, 185.955 10, 187.655 10 C 188.395 10, 189 10.665, 189 11.479 C 189 14.052, 182.422 9.938, 181.146 6.566 C 180.535 4.952, 179.730 3.937, 179.357 4.310 C 178.984 4.683, 178.175 3.978, 177.560 2.744 C 176.944 1.510, 175.554 0.500, 174.470 0.500 C 171.439 0.500, 171.419 4.460, 174.434 7.712 C 175.845 9.234, 177.045 10.934, 177.100 11.490 C 177.155 12.045, 177.492 11.495, 177.850 10.266 C 178.477 8.112, 178.565 8.145, 180.295 11.176 C 181.539 13.354, 181.647 13.952, 180.646 13.121 C 179.466 12.142, 178.972 12.441, 177.946 14.759 C 176.705 17.564, 176.654 17.578, 173.378 16.048 C 171.556 15.196, 170.050 13.820, 170.033 12.989 C 170.010 11.946, 168.915 11.459, 166.500 11.418 C 163.114 11.361, 162.285 12.469, 162.882 16.250 C 162.947 16.662, 162.550 17, 162 17 C 160.380 17, 160.810 8.402, 162.500 7 C 163.325 6.315, 164 4.460, 164 2.878 C 164 0.347, 163.638 0, 161 0 C 158.067 0, 158 0.111, 158 5 C 158 7.750, 158.450 10, 159 10 C 160.857 10, 160.017 12.762, 158 13.290 C 156.900 13.577, 156 13.357, 156 12.799 C 156 12.242, 155.325 12.045, 154.500 12.362 C 152.225 13.235, 150 12.014, 150 9.893 C 150 8.291, 149.240 8, 145.059 8 C 138.582 8, 137.727 9.651, 143.457 11.093 C 146.052 11.747, 148 12.819, 148 13.594 C 148 14.911, 146.609 14.886, 139.348 13.440 C 135.732 12.720, 131.002 14.096, 130.978 15.875 C 130.961 17.087, 130.473 16.872, 129.056 15.028 C 127.022 12.381, 127.200 10.756, 129.431 11.612 C 130.183 11.900, 131.095 11.656, 131.458 11.068 C 132.122 9.994, 130.939 9.627, 127.813 9.937 C 126.885 10.029, 125.611 9.142, 124.981 7.965 C 124.351 6.788, 122.411 4.528, 120.668 2.942 L 117.500 0.059 73.977 0.029 L 30.455 -0 28.498 3.634 C 26.755 6.870, 26.573 8.941, 26.836 22.535 C 27.029 32.564, 26.765 38.027, 26.065 38.460 C 24.990 39.124, 24.678 35.120, 24.556 19.114 L 24.500 11.728 21.567 11.413 C 19.954 11.239, 18.244 10.401, 17.767 9.549 C 17.291 8.697, 16.221 8, 15.391 8 C 14.561 8, 14.135 7.590, 14.445 7.088 C 14.774 6.556, 16.273 6.654, 18.049 7.325 C 20.527 8.260, 21.257 8.202, 21.991 7.015 C 22.486 6.214, 23.208 5.874, 23.594 6.261 C 24.465 7.132, 28 3.189, 28 1.347 C 28 -0.923, 25.167 -0.146, 24.706 2.250 L 24.272 4.500 24.136 2.250 C 24.003 0.049, 23.737 0, 12 0 L 0 0 0 125.500 M 321.500 35.498 C 321.500 60.550, 321.822 70.998, 322.595 70.999 C 323.994 71, 327 67.706, 327 66.171 C 327 65.527, 328.350 65, 329.999 65 C 331.649 65, 335.137 63.904, 337.749 62.565 C 349.159 56.717, 350.555 56.419, 357.711 58.295 C 361.278 59.231, 364.632 59.728, 365.163 59.399 C 366.932 58.306, 372.902 60.047, 375.827 62.508 C 378.692 64.919, 378.879 64.937, 401.856 65.036 C 416.407 65.099, 425 65.504, 425 66.127 C 425 66.672, 425.484 66.819, 426.077 66.453 C 426.669 66.087, 428.010 66.707, 429.058 67.832 C 430.917 69.828, 430.918 69.891, 429.085 70.473 C 428.052 70.801, 426.823 71, 426.354 70.916 C 425.884 70.832, 425.050 70.883, 424.500 71.030 C 423.950 71.176, 422.600 71.342, 421.500 71.398 C 420.215 71.464, 419.553 72.146, 419.648 73.307 C 419.771 74.798, 419.290 75.003, 416.898 74.478 C 415.304 74.128, 414 74.236, 414 74.720 C 414 75.203, 412.425 75.415, 410.500 75.190 C 406.912 74.771, 406.091 75.691, 408.183 77.783 C 409.852 79.452, 408.372 80.554, 406.524 79.020 C 405.686 78.324, 404.966 77.923, 404.923 78.128 C 404.251 81.402, 404.333 81.809, 405.573 81.334 C 407.179 80.717, 410.387 83.564, 409.573 84.883 C 409.267 85.377, 410.543 86.067, 412.408 86.417 C 414.273 86.767, 416.403 87.781, 417.142 88.671 C 418.340 90.114, 418.216 90.192, 415.992 89.394 C 412.287 88.065, 405.556 88.526, 401.278 90.403 C 393.614 93.765, 392.495 94.595, 392.725 96.745 C 392.927 98.638, 392.643 98.758, 389.862 97.961 C 388.165 97.474, 386.223 96.320, 385.549 95.397 C 384.433 93.872, 384.266 93.865, 383.705 95.328 C 383.365 96.212, 383.518 97.202, 384.044 97.527 C 384.570 97.852, 384.993 99.554, 384.985 101.309 C 384.976 103.064, 384.639 104.017, 384.235 103.427 C 382.977 101.590, 380.094 101.014, 377.359 102.054 C 374.570 103.114, 371 102.485, 371 100.933 C 371 100.420, 372.238 99.994, 373.750 99.986 C 375.262 99.979, 377.502 99.704, 378.726 99.376 C 380.562 98.884, 380.773 98.444, 379.930 96.869 C 379.368 95.818, 379.160 94.550, 379.468 94.051 C 379.777 93.552, 379.164 92.869, 378.107 92.534 C 377.050 92.198, 375.932 91.266, 375.624 90.462 C 374.988 88.804, 372.425 88.503, 371.513 89.979 C 371.180 90.518, 371.410 91.897, 372.023 93.043 C 373.486 95.777, 371.914 97.698, 366.105 100.274 L 361.709 102.222 366.897 107.276 C 370.635 110.917, 371.726 112.551, 370.801 113.123 C 370.095 113.560, 369.085 113.485, 368.558 112.958 C 368.031 112.431, 366.925 112, 366.100 112 C 364.933 112, 364.867 112.267, 365.800 113.200 C 367.249 114.649, 367.407 120, 366 120 C 365.450 120, 365 120.637, 365 121.417 C 365 122.196, 364.554 122.983, 364.009 123.167 C 363.463 123.350, 362.915 124.737, 362.791 126.250 C 362.666 127.763, 362.226 129, 361.813 129 C 361.400 129, 361.322 129.675, 361.638 130.500 C 362.263 132.127, 361.606 132.293, 355.639 132.012 C 352.872 131.882, 351.986 132.169, 352.514 133.023 C 353.133 134.025, 349.108 134.038, 344.250 133.051 C 344.113 133.023, 344 131.937, 344 130.639 C 344 128.639, 344.396 128.353, 346.581 128.771 C 348.001 129.042, 349.500 130.177, 349.913 131.293 C 350.606 133.167, 350.715 133.185, 351.349 131.533 C 352.278 129.113, 349.414 127.076, 345 127.016 C 340.795 126.960, 339.490 126.206, 338.587 123.312 C 338.147 121.900, 336.945 121.013, 335.202 120.812 C 332.747 120.528, 332.521 120.153, 332.726 116.698 C 332.918 113.465, 332.428 112.436, 329.442 109.815 C 325.286 106.166, 325.718 104.676, 330.012 107.851 C 333.147 110.169, 333.373 109.937, 333.031 104.750 C 332.931 103.237, 333.333 102, 333.925 102 C 334.516 102, 335 101.270, 335 100.378 C 335 99.054, 335.274 98.983, 336.489 99.991 C 337.308 100.671, 337.686 101.700, 337.328 102.278 C 336.181 104.134, 336.216 108.736, 337.377 108.710 C 341.255 108.623, 343 109.178, 343 110.500 C 343 111.325, 343.675 112, 344.500 112 C 346.106 112, 346.363 110.063, 345.396 105.229 C 344.939 102.944, 344.118 102.074, 342.022 101.654 C 340.032 101.256, 339.111 100.361, 338.750 98.474 C 338.392 96.600, 338.556 96.156, 339.324 96.924 C 341.610 99.210, 343.186 98.138, 342.522 94.750 L 341.885 91.500 343.804 93.893 C 345.303 95.761, 346.303 96.141, 348.362 95.624 C 351.077 94.943, 351.773 93.596, 349.984 92.490 C 349.425 92.144, 349.269 91.373, 349.638 90.776 C 350.014 90.168, 349.848 89.976, 349.261 90.339 C 348.684 90.695, 346.521 90.280, 344.454 89.416 C 342.387 88.553, 339.880 88.060, 338.883 88.320 C 337.711 88.627, 336.857 88.124, 336.467 86.897 C 335.656 84.342, 334.367 84.503, 333.630 87.250 C 332.740 90.572, 332.873 94, 333.893 94 C 334.384 94, 335.049 94.685, 335.371 95.523 C 335.836 96.737, 335.581 96.846, 334.109 96.058 C 333.094 95.515, 331.979 95.355, 331.631 95.702 C 331.284 96.049, 331 95.358, 331 94.167 C 331 92.975, 330.550 92, 330 92 C 329.450 92, 328.964 91.213, 328.921 90.250 C 328.841 88.472, 328.757 88.617, 327.409 92.863 C 327.063 93.953, 326.679 93.979, 325.488 92.990 C 324.238 91.952, 324 92.157, 324 94.271 C 324 95.654, 324.712 97.059, 325.582 97.393 C 327.810 98.248, 327.813 98.246, 328.294 95.750 C 328.714 93.570, 328.732 93.575, 328.864 95.921 C 328.939 97.253, 329.692 99.108, 330.539 100.043 C 331.978 101.633, 331.519 101.722, 323.486 101.424 C 314.999 101.108, 314.854 101.143, 311.572 104.302 C 309.744 106.061, 307.710 109.181, 307.052 111.236 C 305.071 117.416, 304 116.626, 304 108.986 C 304 102.733, 303.784 101.894, 302.250 102.186 C 300.867 102.450, 300.437 103.735, 300.199 108.311 C 299.995 112.230, 299.429 114.282, 298.449 114.658 C 296.443 115.428, 296.631 118.694, 298.750 119.883 C 301.024 121.160, 299.624 121.639, 291.460 122.378 C 285.991 122.874, 285.406 122.742, 285.274 120.982 C 285.193 119.914, 285.549 118.779, 286.064 118.461 C 286.579 118.142, 287 118.584, 287 119.441 C 287 122.435, 290.677 117.511, 291.521 113.387 C 293.058 105.878, 291.214 101.163, 287.235 102.425 C 285.004 103.134, 283.535 109.299, 284.593 113.515 C 284.936 114.879, 284.875 116.784, 284.458 117.748 C 284.041 118.711, 283.537 120.400, 283.338 121.500 C 282.745 124.783, 282.121 126, 281.031 126 C 280.464 126, 280 125.069, 280 123.930 C 280 122.383, 279.460 121.941, 277.859 122.180 C 276.018 122.455, 275.696 123.216, 275.555 127.623 C 275.396 132.643, 274.007 135.271, 268.393 141.181 C 267.515 142.105, 267.081 143.322, 267.429 143.885 C 268.352 145.379, 267.066 149.662, 265.683 149.696 C 263.528 149.749, 256.211 152.009, 253.333 153.510 C 250.789 154.837, 250.724 154.988, 252.691 154.994 C 253.896 154.997, 255.149 155.432, 255.475 155.959 C 255.818 156.515, 258.778 156.665, 262.511 156.317 C 268.159 155.789, 269.040 155.941, 269.657 157.548 C 270.075 158.637, 269.881 159.540, 269.180 159.773 C 266.690 160.603, 268.159 162, 271.521 162 C 274.307 162, 275.281 161.478, 276.182 159.500 C 277.063 157.567, 278.071 157, 280.629 157 C 283.097 157, 283.797 157.366, 283.385 158.439 C 282.667 160.310, 289.607 161.793, 291.275 160.125 C 291.894 159.506, 291.972 158.993, 291.450 158.985 C 290.927 158.976, 291.175 158.526, 292 157.985 C 293.129 157.243, 293.201 156.806, 292.291 156.216 C 291.364 155.616, 291.485 154.133, 292.807 149.858 C 294.321 144.965, 294.779 144.374, 296.551 145.030 C 297.661 145.440, 299.171 146.502, 299.907 147.388 C 300.643 148.275, 302.427 148.955, 303.872 148.900 L 306.500 148.801 304 148 C 302.625 147.560, 302.182 147.155, 303.015 147.100 C 303.899 147.042, 305.302 144.827, 306.382 141.786 C 308.446 135.975, 310.775 132, 312.115 132 C 312.602 132, 313 136.448, 313 141.883 L 313 151.767 315.646 152.273 C 317.102 152.551, 323.402 152.849, 329.646 152.936 C 339.407 153.071, 341 152.871, 341 151.508 C 341 150.637, 342.735 147.194, 344.857 143.858 L 348.713 137.793 351.357 142.522 C 352.810 145.124, 354.006 148.208, 354.012 149.376 C 354.020 150.694, 355.343 152.354, 357.498 153.750 C 361.807 156.541, 362.688 156.558, 363.542 153.868 C 363.914 152.695, 364.507 152.178, 364.859 152.718 C 365.212 153.258, 366.822 154.133, 368.438 154.663 C 371.157 155.554, 374.046 160.287, 372.695 161.638 C 372.412 161.921, 369.028 160.768, 365.173 159.076 C 357.022 155.498, 356.191 155.414, 352.087 157.750 C 348.244 159.938, 348.241 160.556, 352.068 162.535 C 356.086 164.613, 358.407 163.821, 354.500 161.705 C 351.779 160.231, 351.709 160.076, 353.750 160.040 C 354.988 160.018, 356 160.444, 356 160.987 C 356 161.531, 357.859 163.149, 360.132 164.583 C 363.430 166.666, 364.436 166.920, 365.116 165.846 C 365.586 165.106, 365.990 164.050, 366.015 163.500 C 366.040 162.950, 366.538 163.320, 367.121 164.322 C 367.704 165.325, 367.904 167.245, 367.567 168.589 C 367.142 170.284, 367.574 171.699, 368.977 173.205 C 370.090 174.400, 371 174.874, 371 174.260 C 371 173.646, 370.293 172.436, 369.429 171.571 C 368.564 170.707, 368.339 170, 368.929 170 C 369.518 170, 370 168.425, 370 166.500 C 370 162.448, 372.418 161.576, 372.647 165.545 C 372.728 166.943, 373.080 169.611, 373.429 171.472 C 373.966 174.337, 374.443 174.816, 376.533 174.593 C 379.677 174.258, 381.020 173, 378.234 173 C 375.649 173, 374.482 169.837, 376.012 166.977 C 377.355 164.467, 379.081 164.824, 380.645 167.934 L 381.789 170.211 383.895 168.105 C 385.053 166.947, 386 165.550, 386 165 C 386 164.450, 387.367 164, 389.038 164 C 391.755 164, 392.045 164.290, 391.788 166.750 C 391.543 169.092, 391.908 169.547, 394.250 169.816 C 395.762 169.990, 397 169.653, 397 169.066 C 397 168.480, 398.350 168, 400 168 C 402.168 168, 403.017 167.514, 403.060 166.250 C 403.382 156.900, 404.798 152, 407.177 152 C 407.690 152, 410.223 151.025, 412.805 149.834 C 415.387 148.643, 419.819 147.466, 422.653 147.218 C 426.947 146.843, 427.967 147.079, 428.774 148.634 C 430.196 151.372, 430.999 181.907, 429.724 184.707 C 429.149 185.968, 428.409 187, 428.079 187 C 427.165 187, 422 191.974, 422 192.855 C 422 193.281, 423.688 194.429, 425.750 195.406 C 429.290 197.082, 434.554 200.663, 440.957 205.750 C 442.514 206.987, 444.286 208, 444.894 208 C 445.688 208, 446 193.043, 446 155 L 446 102 441.750 101.890 C 426.227 101.487, 426.760 101.585, 425.796 98.978 C 425.295 97.623, 424.226 96.147, 423.422 95.696 C 422.617 95.246, 422.219 94.455, 422.538 93.939 C 422.857 93.422, 422.416 93, 421.559 93 C 420.702 93, 420 92.550, 420 92 C 420 90.928, 422.027 90.555, 425.927 90.910 C 427.936 91.093, 428.148 90.883, 427.158 89.691 C 426.501 88.898, 424.827 88.250, 423.440 88.250 C 420.243 88.250, 419.406 87.420, 420.849 85.682 C 421.472 84.931, 421.687 84.020, 421.325 83.658 C 420.963 83.296, 421.362 83, 422.211 83 C 423.060 83, 424.315 82.325, 425 81.500 C 425.685 80.675, 427.540 80, 429.122 80 C 431.099 80, 432 79.497, 432 78.393 C 432 77.375, 432.550 76.997, 433.500 77.362 C 434.325 77.678, 435 77.501, 435 76.969 C 435 76.436, 434.121 76, 433.047 76 C 431.170 76, 431.160 75.884, 432.774 73.071 C 434.135 70.700, 434.985 70.223, 437.228 70.571 C 438.753 70.807, 441.350 71.214, 443 71.475 L 446 71.950 446 35.975 L 446 0 433.250 0.015 C 426.238 0.024, 419.838 0.450, 419.028 0.962 C 417.480 1.940, 417.391 1.875, 422.483 3.462 C 423.299 3.716, 423.720 4.565, 423.420 5.349 C 423.092 6.203, 424.110 7.654, 425.962 8.973 C 428.502 10.781, 429.010 11.779, 428.821 14.586 C 428.695 16.464, 428.233 18, 427.796 18 C 427.358 18, 427 17.550, 427 17 C 427 16.450, 426.550 16, 426 16 C 425.450 16, 425 16.675, 425 17.500 C 425 18.325, 424.325 19, 423.500 19 C 422.601 19, 422 19.922, 422 21.300 C 422 22.565, 421.460 24.140, 420.800 24.800 C 420.140 25.460, 420.027 26.007, 420.550 26.015 C 421.072 26.024, 420.825 26.467, 420 27 C 418.751 27.807, 418.835 27.986, 420.500 28.071 C 421.950 28.144, 421.709 28.409, 419.625 29.033 C 417.691 29.612, 416.312 29.502, 415.410 28.697 C 412.050 25.698, 411.002 25, 409.854 25 C 409.177 25, 409.608 25.918, 410.811 27.039 C 413.598 29.635, 413.560 30, 410.500 30 C 408.400 30, 408 29.529, 408 27.059 C 408 25.441, 407.550 23.840, 407 23.500 C 406.450 23.160, 406 23.841, 406 25.012 C 406 29.064, 403.399 30.340, 394.897 30.457 C 387.309 30.561, 387 30.476, 387 28.283 C 387 27.027, 387.450 26, 388 26 C 388.550 26, 389 25.100, 389 24 C 389 22.900, 388.546 22, 387.992 22 C 387.373 22, 387.437 21.273, 388.159 20.118 C 389.119 18.579, 389.890 18.395, 392.377 19.108 C 394.243 19.643, 395.796 19.604, 396.393 19.007 C 397.837 17.563, 396.788 17.002, 391.898 16.601 C 389.479 16.403, 385.818 15.431, 383.763 14.441 C 380.011 12.635, 376.945 13.270, 380.314 15.156 C 381.302 15.709, 382.548 17.312, 383.083 18.717 C 383.882 20.820, 383.694 21.526, 382.024 22.696 C 380.434 23.809, 380.211 24.526, 380.996 25.993 C 383.456 30.588, 382.675 31, 371.500 31 C 365.167 31, 361 30.603, 361 30 C 361 28.670, 358.768 28.736, 355.315 30.166 C 352.076 31.508, 347.653 31.960, 343.880 31.333 C 341.954 31.013, 341.019 30.051, 340.349 27.699 C 339.587 25.026, 338.886 24.447, 336.083 24.177 C 333.484 23.926, 332.855 24.179, 333.287 25.305 C 334.031 27.243, 332.135 29, 329.300 29 C 327.462 29, 326.996 28.447, 326.980 26.250 C 326.969 24.738, 326.683 18.897, 326.345 13.271 C 325.831 4.742, 325.976 2.946, 327.218 2.470 C 328.036 2.156, 338.785 1.541, 351.103 1.104 L 373.500 0.310 347.500 0.155 L 321.500 -0.001 321.500 35.498 M 282.750 2.742 L 276 3.091 276.100 16.296 C 276.155 23.558, 276.512 28.375, 276.895 27 C 277.507 24.799, 278.124 24.507, 282.045 24.555 C 285.634 24.599, 286.444 24.934, 286.213 26.277 C 285.845 28.409, 289.182 29.275, 296.070 28.835 L 301.323 28.500 301.412 22 C 301.488 16.393, 301.260 15.519, 299.750 15.639 C 297.228 15.839, 297.588 13.201, 300.135 12.820 C 301.938 12.550, 302.334 11.684, 302.685 7.250 L 303.101 2 296.300 2.196 C 292.560 2.304, 286.462 2.549, 282.750 2.742 M 212.500 5.038 L 209.500 5.676 212.314 6.462 C 213.867 6.896, 216.086 6.821, 217.267 6.294 C 219.319 5.379, 219.326 5.320, 217.453 4.870 C 216.379 4.612, 214.150 4.688, 212.500 5.038 M 225.015 6.750 C 225.024 7.162, 225.467 8.175, 226 9 C 226.784 10.213, 226.972 10.069, 226.985 8.250 C 226.993 7.012, 226.550 6, 226 6 C 225.450 6, 225.007 6.338, 225.015 6.750 M 169.500 8 C 169.160 8.550, 169.359 9, 169.941 9 C 170.523 9, 171 8.550, 171 8 C 171 7.450, 170.802 7, 170.559 7 C 170.316 7, 169.840 7.450, 169.500 8 M 133 9.500 C 133 10.325, 133.450 11, 134 11 C 134.550 11, 135 10.325, 135 9.500 C 135 8.675, 134.550 8, 134 8 C 133.450 8, 133 8.675, 133 9.500 M 286.782 9.750 C 286.597 10.162, 286.458 11.850, 286.473 13.500 C 286.494 15.824, 286.950 16.500, 288.500 16.500 C 290.107 16.500, 290.541 15.764, 290.708 12.750 C 290.879 9.660, 290.581 9, 289.017 9 C 287.973 9, 286.967 9.338, 286.782 9.750 M 167.564 14.293 C 167.940 15.279, 168.499 15.834, 168.807 15.526 C 169.115 15.219, 168.808 14.412, 168.124 13.733 C 167.136 12.753, 167.022 12.868, 167.564 14.293 M 335 18.622 C 335 19.951, 335.271 20.020, 336.500 19 C 337.325 18.315, 338 17.585, 338 17.378 C 338 17.170, 337.325 17, 336.500 17 C 335.675 17, 335 17.730, 335 18.622 M 407.303 17.792 C 405.882 18.695, 406.815 20.393, 409.218 21.279 C 411.256 22.031, 412.247 20.808, 411.396 18.590 C 410.738 16.875, 409.213 16.578, 407.303 17.792 M 182.042 21.078 C 182.654 22.221, 182.908 23.796, 182.608 24.578 C 182.256 25.497, 182.728 26, 183.943 26 C 185.323 26, 185.755 25.375, 185.566 23.654 C 185.222 20.516, 184.192 19, 182.406 19 C 181.221 19, 181.149 19.410, 182.042 21.078 M 357.625 21.798 C 357.354 22.237, 357.518 23.220, 357.990 23.983 C 358.696 25.127, 359.123 25.143, 360.413 24.072 C 361.274 23.358, 361.731 22.374, 361.430 21.887 C 360.748 20.783, 358.288 20.726, 357.625 21.798 M 191 25.917 C 191 26.512, 190.325 27, 189.500 27 C 188.675 27, 188 27.675, 188 28.500 C 188 30.074, 189.465 30.322, 192.021 29.180 C 193.850 28.362, 193.997 25.832, 192.250 25.250 C 191.563 25.021, 191 25.321, 191 25.917 M 149.335 34.717 C 146.113 35.121, 144.651 36.817, 145.850 38.757 C 146.325 39.525, 147.874 39.522, 151.258 38.748 C 154.793 37.939, 156 37.197, 156 35.832 C 156 33.975, 155.680 33.921, 149.335 34.717 M 3.667 35.667 C 2.411 36.922, 3 38, 4.941 38 C 6.009 38, 7.160 38.450, 7.500 39 C 8.639 40.842, 10 40.025, 10 37.500 C 10 35.422, 9.522 35, 7.167 35 C 5.608 35, 4.033 35.300, 3.667 35.667 M 172.750 38.689 C 171.787 38.941, 171 39.543, 171 40.028 C 171 41.301, 177.425 42.317, 180.100 41.468 C 182.289 40.774, 182.303 40.695, 180.496 39.373 C 178.641 38.017, 176.161 37.798, 172.750 38.689 M 188.142 42.844 C 187.220 44.490, 186.226 45.031, 184.803 44.659 C 183.596 44.343, 181.963 44.888, 180.761 46.008 C 179.003 47.646, 178.559 47.702, 177.301 46.444 C 176.507 45.650, 174.764 45, 173.429 45 C 172.093 45, 171 44.550, 171 44 C 171 42.626, 168.256 42.733, 167.792 44.125 C 167.585 44.744, 166.198 45.250, 164.708 45.250 C 161.514 45.250, 161.189 46.974, 164 49 C 166.698 50.945, 166.517 51.806, 163.327 52.184 C 161.857 52.358, 160.449 53.123, 160.199 53.885 C 159.839 54.978, 160.530 55.123, 163.470 54.572 C 165.770 54.140, 166.970 54.240, 166.604 54.831 C 165.747 56.218, 167.945 56.766, 172.250 56.240 C 177.148 55.641, 177.030 54.350, 172 53.500 C 169.800 53.128, 168 52.414, 168 51.912 C 168 50.020, 173.925 51.110, 179.340 54 C 182.432 55.650, 185.758 56.955, 186.731 56.900 C 187.934 56.833, 187.701 56.545, 186 56 C 184.092 55.389, 184.862 55.176, 189.250 55.100 C 195.336 54.994, 196.079 55.460, 193.250 57.608 C 191.589 58.869, 191.592 58.938, 193.300 58.968 C 194.289 58.986, 196.427 58.313, 198.050 57.474 C 201.167 55.862, 202.242 57.169, 199.250 58.932 C 197.725 59.831, 197.692 60.091, 199 60.955 C 200.061 61.657, 200.584 61.569, 200.789 60.653 C 200.952 59.922, 202.259 59.438, 203.789 59.541 C 205.701 59.671, 205.837 59.598, 204.250 59.296 C 200.677 58.615, 201.642 56.988, 205.250 57.609 C 207.477 57.992, 208.073 57.866, 207.143 57.209 C 206.195 56.539, 206.120 56.044, 206.893 55.566 C 207.502 55.190, 208 53.157, 208 51.048 C 208 47.081, 206.409 45.522, 203.500 46.638 C 202.675 46.955, 202 46.771, 202 46.229 C 202 45.687, 200.200 44.786, 198 44.228 C 195.741 43.655, 194 43.602, 194 44.106 C 194 44.598, 193.131 45, 192.070 45 C 190.835 45, 190.016 44.188, 189.798 42.750 L 189.456 40.500 188.142 42.844 M 115 45 C 113.707 45.835, 113.734 45.971, 115.191 45.985 C 116.121 45.993, 117.160 45.550, 117.500 45 C 118.282 43.734, 116.958 43.734, 115 45 M 327.480 45.250 C 327.229 45.938, 326.906 47.625, 326.762 49 C 326.533 51.189, 326.935 51.541, 330 51.828 C 331.925 52.009, 334.230 52.814, 335.122 53.617 C 336.482 54.843, 342.135 55.059, 370.122 54.960 C 388.480 54.894, 405.525 54.483, 408 54.045 C 410.475 53.608, 411.911 53.194, 411.191 53.125 C 410.471 53.056, 410.160 52.550, 410.500 52 C 410.840 51.450, 410.615 51, 410 51 C 409.385 51, 409.160 50.550, 409.500 50 C 409.845 49.441, 409.077 49, 407.759 49 C 406.462 49, 404.843 48.443, 404.162 47.762 C 402.772 46.372, 402.932 46.399, 394 46.053 C 389.086 45.862, 388.110 45.605, 390 45 C 391.375 44.560, 377.973 44.155, 360.219 44.100 C 335.230 44.023, 327.834 44.282, 327.480 45.250 M 159.583 45.866 C 159.152 46.563, 159.070 47.403, 159.400 47.733 C 160.295 48.628, 161.271 47.312, 160.787 45.862 C 160.449 44.846, 160.213 44.846, 159.583 45.866 M 174 47.500 C 174 48.325, 174.436 49, 174.969 49 C 175.501 49, 175.678 48.325, 175.362 47.500 C 175.045 46.675, 174.609 46, 174.393 46 C 174.177 46, 174 46.675, 174 47.500 M 13.352 52.685 C 14.531 53.864, 21 55.805, 21 54.980 C 21 54.549, 19.583 53.702, 17.851 53.098 C 14.275 51.851, 12.341 51.674, 13.352 52.685 M 130.244 54.664 C 129.553 54.943, 129.285 55.652, 129.648 56.240 C 130.067 56.918, 129.829 57.012, 128.997 56.498 C 127.259 55.424, 121.458 55.685, 119.108 56.942 C 117.250 57.937, 115.587 64, 117.173 64 C 117.628 64, 118 64.675, 118 65.500 C 118 66.325, 117.520 67, 116.934 67 C 116.347 67, 116.010 68.237, 116.184 69.750 C 116.427 71.863, 116.963 72.426, 118.500 72.181 C 121.387 71.720, 123.020 69.197, 122.082 66.647 C 121.648 65.466, 120.989 63.244, 120.617 61.710 L 119.942 58.920 130.471 59.412 C 140.843 59.896, 143.825 59.025, 138.597 57.037 C 137.276 56.534, 135.899 55.646, 135.538 55.062 C 134.859 53.963, 132.434 53.781, 130.244 54.664 M 106 58.122 C 106 59.896, 106.247 60.040, 107.500 59 C 108.325 58.315, 109 57.360, 109 56.878 C 109 56.395, 108.325 56, 107.500 56 C 106.638 56, 106 56.902, 106 58.122 M 164.143 64.890 C 163.397 65.363, 163.172 65.984, 163.643 66.270 C 164.114 66.556, 165.080 66.162, 165.789 65.395 C 167.218 63.849, 166.253 63.553, 164.143 64.890 M 167.481 66.400 C 165.682 67.723, 165.656 67.918, 167.192 68.513 C 169.692 69.483, 172.500 68.683, 172.500 67 C 172.500 64.963, 169.861 64.648, 167.481 66.400 M 149.813 66.683 C 150.534 66.972, 151.397 66.936, 151.729 66.604 C 152.061 66.272, 151.471 66.036, 150.417 66.079 C 149.252 66.127, 149.015 66.364, 149.813 66.683 M 287.500 72.744 C 280.703 74.407, 275.362 83.339, 274.492 94.500 C 273.804 103.308, 275.943 119.153, 277.907 119.805 C 279.082 120.194, 279.168 119.132, 278.431 113.386 C 277.946 109.599, 277.563 102.225, 277.581 97 C 277.609 89.249, 278.013 86.735, 279.779 83.345 C 287.674 68.191, 301 75.049, 301 94.265 C 301 97.754, 301.360 99.040, 302.250 98.727 C 303.112 98.424, 303.420 96.303, 303.243 91.894 C 302.736 79.286, 295.707 70.736, 287.500 72.744 M 412 73.059 C 412 73.641, 412.450 73.840, 413 73.500 C 413.550 73.160, 414 72.684, 414 72.441 C 414 72.198, 413.550 72, 413 72 C 412.450 72, 412 72.477, 412 73.059 M 119.747 73.660 C 119.332 74.298, 119.037 78.926, 119.091 83.944 C 119.153 89.736, 118.748 93.599, 117.982 94.522 C 117.022 95.679, 117.084 96.095, 118.283 96.555 C 119.397 96.983, 119.658 98.128, 119.283 100.930 C 118.816 104.409, 119.002 104.784, 121.505 105.412 C 123.007 105.789, 124.323 105.963, 124.429 105.799 C 124.535 105.634, 124.438 103.138, 124.214 100.250 C 123.931 96.604, 123.378 95, 122.403 95 C 120.599 95, 120.489 87.797, 122.250 84.956 C 123.205 83.416, 123.221 82.765, 122.319 82.203 C 121.669 81.798, 120.994 79.450, 120.819 76.984 C 120.643 74.512, 120.162 73.020, 119.747 73.660 M 426 76 C 426 76.550, 426.675 77, 427.500 77 C 428.325 77, 429 76.550, 429 76 C 429 75.450, 428.325 75, 427.500 75 C 426.675 75, 426 75.450, 426 76 M 369.195 78.500 C 369.215 80.150, 369.439 80.704, 369.693 79.731 C 369.947 78.758, 369.930 77.408, 369.656 76.731 C 369.382 76.054, 369.175 76.850, 369.195 78.500 M 409.636 77.494 C 409.952 78.316, 410.612 78.740, 411.105 78.435 C 412.517 77.563, 412.149 76, 410.531 76 C 409.639 76, 409.288 76.587, 409.636 77.494 M 415.500 77 C 415.840 77.550, 416.568 78, 417.118 78 C 417.668 78, 417.840 77.550, 417.500 77 C 417.160 76.450, 416.432 76, 415.882 76 C 415.332 76, 415.160 76.450, 415.500 77 M 202.557 80.250 C 203.513 83.361, 203.963 83.673, 205.039 81.971 C 206.565 79.557, 206.131 78, 203.933 78 C 202.250 78, 201.994 78.419, 202.557 80.250 M 348.027 79.257 C 348.012 80.223, 349.125 81.991, 350.500 83.187 C 351.875 84.382, 353 86.043, 353 86.877 C 353 87.875, 351.810 87.239, 349.515 85.015 C 347.598 83.157, 345.800 81.866, 345.520 82.147 C 345.239 82.428, 346.786 84.422, 348.957 86.579 C 351.129 88.735, 353.160 91.513, 353.472 92.750 C 353.869 94.327, 354.781 95, 356.519 95 C 358.043 95, 359 95.571, 359 96.481 C 359 98.494, 363.594 99.506, 366.574 98.148 C 369.495 96.818, 369.598 95.322, 367 92 C 365.924 90.625, 365.034 88.713, 365.022 87.750 C 365.010 86.787, 364.523 86, 363.941 86 C 363.359 86, 363.160 86.450, 363.500 87 C 364.653 88.866, 361.021 88.011, 356.083 85.254 C 353.378 83.744, 350.465 81.381, 349.609 80.004 C 348.398 78.055, 348.047 77.889, 348.027 79.257 M 228 80.441 C 228 81.298, 228.450 82, 229 82 C 229.550 82, 230 81.577, 230 81.059 C 230 80.541, 229.550 79.840, 229 79.500 C 228.450 79.160, 228 79.584, 228 80.441 M 232.116 81.250 C 232.052 82.213, 231.523 83, 230.941 83 C 230.359 83, 230.184 83.489, 230.554 84.087 C 231.568 85.728, 233.278 83.563, 232.710 81.356 C 232.285 79.705, 232.219 79.693, 232.116 81.250 M 367 84.255 C 367 86.394, 369.618 88.427, 370.511 86.982 C 370.890 86.369, 371.043 85.770, 370.850 85.651 C 370.658 85.531, 369.712 84.831, 368.750 84.095 C 367.266 82.959, 367 82.983, 367 84.255 M 243 85 C 243 85.550, 243.477 86, 244.059 86 C 244.641 86, 244.840 85.550, 244.500 85 C 244.160 84.450, 243.684 84, 243.441 84 C 243.198 84, 243 84.450, 243 85 M 113.144 88.479 C 111.750 92.333, 111.819 104, 113.236 104 C 113.735 104, 114.818 103.325, 115.643 102.500 C 116.468 101.675, 116.661 101, 116.071 101 C 114.613 101, 114.719 97.427, 116.250 94.956 C 117.269 93.312, 117.242 92.779, 116.107 92.072 C 115.323 91.584, 114.941 90.333, 115.234 89.213 C 116.190 85.558, 114.424 84.938, 113.144 88.479 M 432 86 C 432 86.550, 432.702 87, 433.559 87 C 434.416 87, 434.840 86.550, 434.500 86 C 434.160 85.450, 433.459 85, 432.941 85 C 432.423 85, 432 85.450, 432 86 M 116.667 88.667 C 116.300 89.033, 116 89.798, 116 90.367 C 116 90.993, 116.466 90.934, 117.183 90.217 C 117.834 89.566, 118.134 88.801, 117.850 88.517 C 117.566 88.233, 117.033 88.300, 116.667 88.667 M 337 92.941 C 337 94.073, 337.450 95, 338 95 C 338.550 95, 339 94.352, 339 93.559 C 339 92.766, 338.550 91.840, 338 91.500 C 337.450 91.160, 337 91.809, 337 92.941 M 212 93.226 C 212 95.519, 214.263 97.847, 218.500 99.913 C 221.947 101.593, 222.700 101.668, 223.944 100.452 C 225.199 99.225, 225.078 98.712, 223.019 96.521 C 220.399 93.731, 216.766 92.809, 219 95.500 C 220.032 96.743, 219.922 97, 218.360 97 C 217.323 97, 216.030 96.017, 215.487 94.815 C 214.335 92.264, 212 91.200, 212 93.226 M 356.708 98.625 C 355.928 99.405, 357.003 102, 358.107 102 C 359.250 102, 359.275 99.288, 358.139 98.586 C 357.666 98.294, 357.022 98.311, 356.708 98.625 M 381.872 99.750 C 380.629 101.336, 380.664 101.371, 382.250 100.128 C 383.916 98.821, 384.445 98, 383.622 98 C 383.415 98, 382.627 98.787, 381.872 99.750 M 128 100.059 C 128 100.641, 128.450 100.840, 129 100.500 C 129.550 100.160, 130 99.684, 130 99.441 C 130 99.198, 129.550 99, 129 99 C 128.450 99, 128 99.477, 128 100.059 M 141.175 100.614 C 141.434 102.118, 140.942 102.462, 138.748 102.311 C 136.382 102.149, 136.131 102.376, 136.962 103.930 C 137.636 105.188, 138.699 105.589, 140.465 105.252 C 142.533 104.856, 143 105.157, 143 106.883 C 143 108.459, 143.622 109, 145.434 109 C 147.345 109, 147.935 108.410, 148.184 106.250 C 148.372 104.613, 149.107 103.500, 150 103.500 C 150.825 103.500, 152.015 103.050, 152.644 102.500 C 153.439 101.805, 152.372 101.321, 149.144 100.911 C 146.590 100.587, 143.679 99.963, 142.675 99.525 C 141.231 98.895, 140.918 99.123, 141.175 100.614 M 229 102.542 C 229 103.913, 232.847 107.056, 233.411 106.144 C 233.753 105.591, 233.568 104.851, 233 104.500 C 232.432 104.149, 232.226 103.443, 232.543 102.931 C 232.859 102.419, 232.191 102, 231.059 102 C 229.927 102, 229 102.244, 229 102.542 M 97.476 104.619 C 98.367 105.510, 99.344 105.989, 99.648 105.686 C 100.538 104.795, 99.015 103, 97.370 103 C 96.064 103, 96.078 103.221, 97.476 104.619 M 133.813 105.683 C 134.534 105.972, 135.397 105.936, 135.729 105.604 C 136.061 105.272, 135.471 105.036, 134.417 105.079 C 133.252 105.127, 133.015 105.364, 133.813 105.683 M 217.332 107.578 C 216.999 108.445, 217.463 109.892, 218.363 110.792 C 219.323 111.752, 220 111.951, 220 111.273 C 220 110.638, 219.528 109.826, 218.951 109.470 C 218.235 109.027, 218.273 108.376, 219.074 107.411 C 219.950 106.355, 219.955 106, 219.091 106 C 218.456 106, 217.665 106.710, 217.332 107.578 M 310.643 109.769 C 308.879 112.622, 306.001 122.103, 306.001 125.059 C 306 127.016, 305.339 129.491, 304.532 130.559 C 302.724 132.949, 302.550 137, 304.256 137 C 304.947 137, 306.135 135.591, 306.898 133.869 C 307.660 132.147, 309.120 130.520, 310.142 130.253 C 311.802 129.818, 312 128.662, 312 119.383 C 312 109.581, 311.769 107.946, 310.643 109.769 M 210.667 112.667 C 209.360 113.973, 210.034 115.001, 212.250 115.079 C 213.488 115.122, 213.938 115.385, 213.250 115.662 C 211.400 116.409, 211.733 117.697, 213.925 118.270 C 215.276 118.623, 215.692 118.360, 215.318 117.387 C 215.025 116.624, 215.247 116, 215.810 116 C 216.373 116, 217.040 116.563, 217.292 117.250 C 217.642 118.206, 218.043 118.225, 218.994 117.331 C 219.967 116.417, 219.348 115.708, 216.159 114.081 C 211.580 111.745, 211.587 111.747, 210.667 112.667 M 61.599 116.107 C 61.353 116.873, 60.642 119.159, 60.019 121.188 C 59.396 123.216, 58.096 125.916, 57.131 127.188 C 56.166 128.459, 54.089 131.738, 52.516 134.473 C 49.663 139.431, 47.523 142.319, 34.750 158.446 C 31.038 163.134, 28 167.396, 28 167.917 C 28 168.439, 27.066 169.162, 25.925 169.524 C 24.783 169.886, 24.050 170.383, 24.295 170.629 C 25.143 171.476, 30 168.675, 30 167.339 C 30 166.603, 30.510 166, 31.133 166 C 31.756 166, 33.160 164.988, 34.253 163.750 C 37.585 159.978, 51 142.138, 51 141.478 C 51 141.138, 52.350 138.898, 54 136.500 C 55.650 134.102, 57 131.684, 57 131.127 C 57 130.569, 57.897 129.485, 58.994 128.717 C 60.090 127.949, 60.770 127.103, 60.504 126.838 C 60.239 126.572, 60.654 123.913, 61.429 120.929 C 62.203 117.944, 62.659 115.325, 62.442 115.108 C 62.225 114.891, 61.846 115.341, 61.599 116.107 M 340.722 118.122 C 341.339 118.739, 341.628 119.805, 341.365 120.490 C 341.102 121.176, 341.812 121.979, 342.943 122.275 C 344.075 122.571, 345 122.505, 345 122.129 C 345 120.779, 341.863 117, 340.743 117 C 339.898 117, 339.893 117.293, 340.722 118.122 M 42.163 121.307 C 42.216 125.121, 43.005 128, 43.996 128 C 45.370 128, 44.735 120.125, 43.316 119.574 C 42.620 119.303, 42.145 120.017, 42.163 121.307 M 128 120.636 C 114.566 122.426, 114.634 122.398, 115.468 125.759 C 116.329 129.228, 119.942 133.165, 121.395 132.219 C 122.003 131.824, 126.763 131.275, 131.973 131 L 141.446 130.500 143.292 125.516 C 144.307 122.775, 145.670 120.195, 146.319 119.782 C 148.069 118.669, 139.906 119.049, 128 120.636 M 288.521 126.162 C 285.784 128.315, 285.772 128.371, 287.866 129.146 C 289.467 129.738, 290 130.778, 290 133.307 C 290 135.873, 290.560 136.934, 292.342 137.746 C 293.630 138.333, 295.116 138.518, 295.644 138.157 C 297.087 137.170, 300 130.482, 300 128.158 C 300 125.738, 299.601 125.461, 294.905 124.615 C 292.073 124.105, 290.719 124.433, 288.521 126.162 M 277 131 C 277 131.550, 277.450 132, 278 132 C 278.550 132, 279 131.550, 279 131 C 279 130.450, 278.550 130, 278 130 C 277.450 130, 277 130.450, 277 131 M 282.500 131 C 282.160 131.550, 282.359 132, 282.941 132 C 283.523 132, 284 131.550, 284 131 C 284 130.450, 283.802 130, 283.559 130 C 283.316 130, 282.840 130.450, 282.500 131 M 134.750 135.662 C 135.438 135.940, 136.563 135.940, 137.250 135.662 C 137.938 135.385, 137.375 135.158, 136 135.158 C 134.625 135.158, 134.063 135.385, 134.750 135.662 M 279 136.587 C 279 138.344, 281.793 141.540, 282.613 140.721 C 283.040 140.294, 282.401 138.957, 281.194 137.750 C 279.988 136.543, 279 136.020, 279 136.587 M 272.345 138.543 C 271.445 140.889, 272.417 141.164, 273.796 138.955 C 274.569 137.717, 274.635 137, 273.977 137 C 273.405 137, 272.671 137.694, 272.345 138.543 M 63.079 143.583 C 63.127 144.748, 63.364 144.985, 63.683 144.188 C 63.972 143.466, 63.936 142.603, 63.604 142.271 C 63.272 141.939, 63.036 142.529, 63.079 143.583 M 214.715 146.832 C 214.319 148.723, 214.481 151.030, 215.090 152.168 C 216.674 155.127, 216.987 154.040, 216.155 148.468 C 215.422 143.559, 215.405 143.540, 214.715 146.832 M 219 144.980 C 219 145.519, 219.733 147.792, 220.630 150.032 C 222.622 155.013, 225.894 155.273, 227.150 150.550 C 228.108 146.947, 227.516 146.197, 224.968 147.788 C 222.378 149.406, 222.312 149.381, 221.589 146.500 C 220.989 144.107, 219 142.940, 219 144.980 M 309 150 C 309 150.550, 309.563 151.007, 310.250 151.015 C 311.083 151.026, 311 151.354, 310 152 C 309.175 152.533, 308.988 152.976, 309.583 152.985 C 311.222 153.008, 311.924 151.966, 311.324 150.402 C 310.708 148.796, 309 148.501, 309 150 M 296.186 152.750 C 296.633 155.099, 308 155.972, 308 153.657 C 308 151.756, 305.823 151, 300.345 151 C 296.607 151, 295.909 151.294, 296.186 152.750 M 277.500 154 C 277.160 154.550, 277.246 155.006, 277.691 155.014 C 278.136 155.021, 279.512 155.299, 280.750 155.630 C 282.404 156.074, 283 155.805, 283 154.617 C 283 152.812, 278.543 152.312, 277.500 154 M 253.813 159.683 C 254.534 159.972, 255.397 159.936, 255.729 159.604 C 256.061 159.272, 255.471 159.036, 254.417 159.079 C 253.252 159.127, 253.015 159.364, 253.813 159.683 M 257.813 159.683 C 258.534 159.972, 259.397 159.936, 259.729 159.604 C 260.061 159.272, 259.471 159.036, 258.417 159.079 C 257.252 159.127, 257.015 159.364, 257.813 159.683 M 154.007 163.842 C 154.003 164.581, 154.900 166.329, 156 167.727 C 158.584 171.012, 158.584 169.401, 156 165.500 C 154.907 163.850, 154.010 163.104, 154.007 163.842 M 345.604 165.590 C 344.829 167.610, 345.675 169, 347.681 169 C 348.937 169, 349.007 168.713, 348.036 167.544 C 347.372 166.743, 347.118 165.618, 347.473 165.044 C 347.828 164.470, 347.690 164, 347.166 164 C 346.642 164, 345.939 164.716, 345.604 165.590 M 350.500 169 C 350.840 169.550, 352.104 169.968, 353.309 169.930 C 355.421 169.862, 355.428 169.829, 353.500 169 C 350.748 167.817, 349.769 167.817, 350.500 169 M 344.079 172.750 C 344.031 174.720, 344.492 176.004, 345.250 176.011 C 345.938 176.017, 348.257 176.312, 350.405 176.667 C 353.264 177.139, 354.117 176.998, 353.586 176.140 C 353.188 175.495, 352.372 175.270, 351.773 175.640 C 351.063 176.079, 350.881 175.564, 351.249 174.156 C 351.743 172.267, 351.401 172, 348.490 172 C 346.662 172, 344.940 171.438, 344.662 170.750 C 344.385 170.063, 344.122 170.963, 344.079 172.750 M 339.500 175 C 339.160 175.550, 339.359 176, 339.941 176 C 340.523 176, 341 175.550, 341 175 C 341 174.450, 340.802 174, 340.559 174 C 340.316 174, 339.840 174.450, 339.500 175 M 139.140 177.105 C 137.138 178.027, 134.225 179.288, 132.666 179.907 L 129.832 181.034 132.666 184.427 C 134.822 187.008, 136.577 187.987, 140 188.516 C 143.466 189.052, 145.226 190.050, 147.657 192.856 C 151.132 196.867, 153.269 196.586, 150.574 192.472 C 149.640 191.047, 149.020 189.135, 149.196 188.222 C 149.465 186.826, 149.870 186.944, 151.758 188.970 L 154 191.377 154 187.595 C 154 184.654, 153.555 183.696, 152 183.290 C 150.900 183.002, 150 182.135, 150 181.362 C 150 180.589, 148.879 179.446, 147.508 178.822 C 145.822 178.053, 145.319 177.321, 145.952 176.557 C 147.390 174.826, 143.390 175.147, 139.140 177.105 M 238 176 C 238 176.550, 238.450 177, 239 177 C 239.550 177, 240 176.550, 240 176 C 240 175.450, 239.550 175, 239 175 C 238.450 175, 238 175.450, 238 176 M 355.459 176.067 C 354.433 177.727, 355.354 177.957, 356.789 176.399 C 357.499 175.630, 357.638 175, 357.098 175 C 356.559 175, 355.821 175.480, 355.459 176.067 M 96.459 183.067 C 95.370 184.829, 96.518 185.076, 98.573 183.521 C 100.265 182.241, 100.294 182.060, 98.809 182.032 C 97.879 182.014, 96.821 182.480, 96.459 183.067 M 106.269 183.693 C 107.242 183.947, 108.592 183.930, 109.269 183.656 C 109.946 183.382, 109.150 183.175, 107.500 183.195 C 105.850 183.215, 105.296 183.439, 106.269 183.693 M 99 185.972 C 99 187.328, 100.777 188.170, 101.425 187.121 C 101.735 186.620, 101.316 185.952, 100.494 185.636 C 99.672 185.321, 99 185.472, 99 185.972 M 335.734 186.599 C 334.254 188.080, 335.160 188.795, 343.143 192.444 C 350.147 195.645, 352.317 196.171, 358.650 196.200 C 362.699 196.219, 366.581 195.763, 367.275 195.187 C 368.169 194.445, 370.561 194.702, 375.496 196.070 C 379.325 197.131, 384.716 197.968, 387.478 197.929 L 392.500 197.859 388.500 196.088 C 385.032 194.553, 378.339 193.199, 371.500 192.648 C 370.400 192.559, 368.938 192.126, 368.250 191.684 C 367.532 191.223, 367 191.333, 367 191.941 C 367 192.523, 366.520 193, 365.933 193 C 365.320 193, 365.136 192.147, 365.500 191.001 C 365.990 189.456, 365.519 188.768, 363.428 187.973 C 361.940 187.407, 360.485 187.182, 360.195 187.472 C 359.904 187.762, 360.192 188, 360.833 188 C 361.475 188, 362 188.498, 362 189.107 C 362 189.716, 361.278 189.937, 360.395 189.598 C 359.513 189.260, 357.114 189.485, 355.066 190.098 C 351.884 191.052, 350.762 190.919, 347.374 189.191 C 342.810 186.862, 336.807 185.526, 335.734 186.599 M 108 189 C 108 189.550, 108.638 190, 109.418 190 C 110.198 190, 111.661 190.312, 112.668 190.694 C 114.384 191.344, 114.394 191.281, 112.821 189.694 C 110.984 187.840, 108 187.410, 108 189 M 407 192 C 407 192.550, 407.477 193, 408.059 193 C 408.641 193, 408.840 192.550, 408.500 192 C 408.160 191.450, 407.684 191, 407.441 191 C 407.198 191, 407 191.450, 407 192 M 349.767 210.224 C 348.725 218.919, 349.145 220.346, 352.975 221.129 C 357.323 222.018, 358 221.596, 358 218 C 358 216.415, 358.450 214.840, 359 214.500 C 359.550 214.160, 360 212.810, 360 211.500 C 360 210.190, 360.450 208.840, 361 208.500 C 363.288 207.086, 361.658 206.289, 356.140 206.124 L 350.279 205.948 349.767 210.224 M 363 207.055 C 363 208.003, 374.258 214.420, 377.750 215.463 C 379.553 216.001, 380 215.741, 380 214.151 C 380 213.059, 380.563 211.966, 381.250 211.720 C 381.938 211.475, 382.275 211.032, 382 210.737 C 381.043 209.710, 363 206.213, 363 207.055 M 412.811 210.647 C 411.540 211.352, 409.150 211.947, 407.500 211.970 L 404.500 212.010 407.471 214.387 C 409.954 216.374, 410.234 217.013, 409.180 218.284 C 408.486 219.120, 406.699 220.125, 405.209 220.518 C 402.544 221.220, 402.574 221.264, 407 223.179 C 409.475 224.250, 412.495 226.060, 413.711 227.201 C 415.627 228.998, 416.301 229.118, 418.764 228.098 C 422.353 226.611, 427.216 222.158, 426.505 221.009 C 426.209 220.530, 426.443 219.844, 427.024 219.485 C 427.606 219.126, 427.825 218.024, 427.512 217.038 C 427.087 215.699, 427.584 215.121, 429.471 214.761 C 430.862 214.495, 432 214.620, 432 215.039 C 432 215.458, 434.363 216.355, 437.250 217.032 C 440.137 217.710, 443.288 218.671, 444.250 219.167 C 445.614 219.871, 446 219.659, 446 218.207 C 446 216.787, 444.789 216.064, 440.910 215.169 C 438.110 214.522, 435.341 214.290, 434.755 214.651 C 434.170 215.013, 433.980 214.841, 434.334 214.268 C 434.688 213.696, 434.083 212.993, 432.990 212.708 C 431.896 212.422, 430.750 212.596, 430.442 213.094 C 430.134 213.592, 429.432 214, 428.882 214 C 428.332 214, 428.160 213.550, 428.500 213 C 428.867 212.406, 427.697 212, 425.618 212 C 423.693 212, 421.872 211.602, 421.571 211.115 C 420.631 209.594, 415.229 209.305, 412.811 210.647 M 362.580 211.316 C 360.451 219.530, 360.038 222.438, 360.880 223.280 C 362.118 224.518, 369.306 225.901, 374.790 225.956 C 379.167 226.001, 387 229.250, 387 231.020 C 387 231.559, 384.750 232, 382 232 C 378.370 232, 377 232.385, 377 233.406 C 377 234.483, 379.286 234.935, 386.750 235.335 C 400.439 236.068, 405.532 237.133, 405.368 239.229 C 405.270 240.493, 406.377 241.084, 409.805 241.598 C 414.855 242.355, 419 245.672, 419 248.955 C 419 250.080, 419.402 251, 419.893 251 C 421.157 251, 422.045 248.280, 421.362 246.500 C 421.024 245.620, 421.347 245.003, 422.143 245.007 C 424.274 245.018, 441.250 247.808, 443.750 248.558 C 445.418 249.059, 446 248.825, 446 247.655 C 446 245.675, 437.721 243.482, 422.838 241.519 C 420.275 241.181, 416.450 240.081, 414.338 239.074 C 410.083 237.045, 399.875 233.436, 396 232.589 C 394.625 232.288, 392.150 230.878, 390.500 229.456 L 387.500 226.868 396 227.557 C 400.675 227.936, 405.962 228.397, 407.750 228.581 C 414.619 229.288, 410.016 225.984, 399.500 222.658 C 396.750 221.789, 389.829 219.937, 384.120 218.543 C 378.411 217.150, 371.298 214.687, 368.313 213.070 C 364.774 211.153, 362.780 210.543, 362.580 211.316 M 423 216.941 C 423 217.459, 423.450 218.160, 424 218.500 C 424.550 218.840, 425 218.416, 425 217.559 C 425 216.702, 424.550 216, 424 216 C 423.450 216, 423 216.423, 423 216.941 M 328.269 222.693 C 329.242 222.947, 330.592 222.930, 331.269 222.656 C 331.946 222.382, 331.150 222.175, 329.500 222.195 C 327.850 222.215, 327.296 222.439, 328.269 222.693 M 362.761 232.752 C 359.900 233.394, 363.278 239, 366.526 239 C 367.887 239, 369 238.550, 369 238 C 369 236.398, 374.005 236.848, 374.641 238.508 C 374.960 239.337, 374.485 241.137, 373.587 242.508 C 372.245 244.555, 372.207 245, 373.370 245 C 375.986 245, 376.954 238.651, 374.918 234.846 C 374.126 233.367, 373.205 232.983, 371.487 233.414 C 370.196 233.738, 368.095 233.634, 366.819 233.183 C 365.544 232.731, 363.718 232.537, 362.761 232.752 M 353.373 237.743 C 356.337 240.793, 358.107 241.896, 359.300 241.439 C 361.526 240.584, 361.445 239.381, 358.945 236.202 C 357.397 234.235, 355.932 233.565, 353.018 233.492 L 349.147 233.395 353.373 237.743 M 347.873 237.750 C 349.130 240.082, 354.001 244.597, 353.995 243.424 C 353.991 242.462, 348.263 236, 347.414 236 C 347.148 236, 347.354 236.787, 347.873 237.750 M 355 246 C 355 246.550, 355.477 247, 356.059 247 C 356.641 247, 356.840 246.550, 356.500 246 C 356.160 245.450, 355.684 245, 355.441 245 C 355.198 245, 355 245.450, 355 246 M 360 246 C 360 246.550, 361.548 247, 363.441 247 C 365.334 247, 367.160 246.550, 367.500 246 C 367.873 245.396, 366.510 245, 364.059 245 C 361.827 245, 360 245.450, 360 246" stroke="none" fill="black" fill-rule="evenodd"/>
</svg>